<?xml version="1.0" encoding="UTF-8"?><svg xmlns="http://www.w3.org/2000/svg" viewBox="0 0 227.12 248.64"><defs><style>.c{fill:#fff;}.d{fill:#ed9e20;}.e{fill:#ffc97b;}.f{fill:#ffb32c;}.g{fill:#ffbe55;}.h{fill:#ff822e;}.i{fill:#cc5d11;}.j{fill:#cc7c12;}.k{fill:#e2901a;}.l{fill:#e06817;}.m{fill:#231f20;}</style></defs><g id="a"/><g id="b"><g><g><path class="f" d="M77.45,170.62c-.05-.04-.1-.07-.15-.11,.43,.36,.63,.51,.68,.54-.12-.1-.23-.2-.35-.3-.06-.05-.12-.09-.17-.14Z"/><path class="f" d="M195.12,105.89c-.1-.68-.44-1.4-.9-2.06-.55-5.58-1.62-11.13-3.25-16.47-.52-1.69-1.65-3.18-3.1-4.19-7.33-20.32-20.91-37.96-38.42-50.66-4.83-3.5-9.98-6.53-15.38-9.08,.11-.15,.22-.31,.33-.45,.17-.23,.34-.46,.51-.69h0c.43-.54,.87-1.06,1.34-1.55,.27-.28,.55-.56,.84-.82-.12,.07-.24,.15-.4,.24,.14-.08,.28-.17,.42-.26,.03-.03,.06-.06,.09-.09,.17-.16,.39-.29,.52-.37,.04-.01,.08-.02,.12-.04-.02,.02-.09,.08-.23,.17,.13-.08,.27-.15,.41-.23,.14-.04,.27-.09,.41-.12,3.8-.98,6.47-5.41,5.24-9.23-1.27-3.92-5.16-6.29-9.23-5.24-4.26,1.1-7.78,3.9-10.47,7.31-1.3,1.65-2.54,3.34-3.8,5.02-.04,.05-.07,.09-.12,.15-.02,.02-.04,.05-.06,.07-.36-.24-.72-.49-1.08-.72-1.45-.94-2.89-1.89-4.34-2.83-2.89-1.89-5.79-3.77-8.68-5.66-3.29-2.15-8.43-.77-10.26,2.69-2.02,3.83-.76,7.86,2.69,10.26,.48,.34,.96,.68,1.44,1.03,.07,.05,.14,.1,.21,.16l.02,.02c.17,.14,.33,.28,.5,.42-6.42,1.78-12.5,4.45-18.24,7.78-2.81,1.44-5.57,2.98-8.25,4.63-2.2,1.36-4.36,2.8-6.46,4.31-2.58,1.85-5.27,3.72-7.6,5.88-1.54,1.43-2.78,3.38-3.26,5.43-.05,.23-.08,.45-.12,.67-1.49,1.58-2.94,3.18-4.35,4.81-1.83,2.11-3.62,4.27-5.35,6.47-1.74,2.21-3.15,4.46-3.17,7.4,0,.37,.02,.74,.07,1.1-.1,.16-.21,.31-.3,.48-1.76,2.88-1.1,6.71,1.17,9.09,3.5,3.65,9.15,4.49,13.81,2.8,1.94-.7,3.65-1.6,5.32-2.78,1.19-.85,2.37-1.71,3.66-2.4,.04-.01,.09-.02,.13-.03,.08,.02,.15,.05,.23,.07,.21,.12,.41,.24,.61,.36,.19,.19,.39,.36,.57,.56,.03,.03,.12,.14,.23,.26,.22,.34,.41,.68,.59,1.03,.4,1.15,.7,2.32,.91,3.53,.07,.75,.13,1.51,.18,2.27-5.7,2-10.86,5.72-14.75,10.46-1.21,1.02-2.29,2.19-3.17,3.58-.91,1.45-1.47,3.06-1.83,4.72-.34,.82-.64,1.65-.9,2.5-.89,.59-1.66,1.38-2.24,2.38-2.01,3.45-4.01,6.89-6.02,10.34-.85,1.46-1.11,3.13-.89,4.78,.16,1.18,.61,2.62,1.41,3.64,0,.67,.05,1.36,.17,2.08,1.52,9.28,7.05,17.61,13.67,24.09,3.39,3.31,7.18,6.26,11.09,8.93,3.28,2.24,6.68,4.29,9.88,6.63-.12-.1-.23-.19-.39-.32,.18,.15,.36,.29,.54,.43,.03,.03,.07,.05,.11,.07,.23,.17,.5,.41,.42,.36,.3,.25,.6,.5,.89,.76,.8,.71,1.57,1.45,2.29,2.24,.3,.33,.57,.72,.87,1.06,.07,.1,.13,.19,.2,.29,.41,.64,.77,1.3,1.1,1.98,.23,.67,.41,1.34,.56,2.03,.12,1.59,.05,3.18-.12,4.76-.37,2.36-.86,4.7-1.58,6.98-.9,.6-1.71,1.39-2.38,2.37-.03,.04-.06,.08-.09,.12-.22,.25-.43,.5-.66,.74-.49,.52-1.02,.99-1.56,1.46-.04,.03-.08,.06-.12,.08-.32,.22-.64,.42-.97,.62-.52,.31-1.05,.58-1.59,.85-1.34,.48-2.71,.83-4.13,1.03l-1.79,.76c-.87,.47-1.58,1.12-2.1,1.93-.16,.21-.32,.44-.46,.67-3.53-1.25-7.08-2.04-10.95-2.34-4.39-.35-8.94,.18-13.19,1.32-2.88,.77-4.98,3.33-5.37,6.24-.41,3.03,1.01,5.83,3.58,7.47,22.83,14.55,49.39,21.83,75.8,26.58,6.53,1.17,13.08,2.21,19.63,3.18,7.92,1.18,15.68,2.24,23.64,.78,4.37-.8,9.44-2.52,11.56-6.76,1.53-3.07,1.48-6.51-.14-9.53-1.17-2.18-2.98-3.76-4.99-5.13-1.61-1.1-3.5-1.73-5.31-2.42-1.77-.67-3.54-1.32-5.32-1.96-3.34-1.19-6.69-2.33-10.07-3.4-8.58-2.73-17.28-5.05-26.07-7-.04-.47-.13-.94-.27-1.42-.09-.29-.16-.59-.23-.88,.42-.28,.82-.61,1.19-.99,2.1-2.17,4.3-4.24,6.6-6.19,.52-.44,1.05-.88,1.59-1.31,.1-.08,.21-.18,.32-.28,.07-.05,.15-.11,.27-.2,1.2-.91,2.43-1.79,3.68-2.64,.32-.22,.66-.42,.98-.63,1.11,.22,2.3,.25,3.51,.01,4.91-.95,9.64-2.67,14.05-5.03,.08-.02,.16-.03,.24-.05,12.93-3.24,21.92-14.46,29-25.02,7-10.44,12.55-22.37,14.75-34.8,1.4-7.89,1.52-15.56,.32-23.48Zm-125.54-25.9h0Zm5.16-19.53c-.13-.08-.26-.15-.38-.23-.01,0-.02-.02-.03-.03,.18,.11,.32,.2,.41,.26Zm-1.24-1.37h.01c.1,.09,.24,.31,.41,.69-.03-.03-.05-.06-.08-.08-.12-.18-.25-.35-.35-.52-.01-.02-.02-.04-.03-.05l.03-.03Zm65.79,170.56s.1,.03,.15,.05l-.15-.02v-.02ZM61.33,71.92c.18-.22,.35-.45,.53-.67-.19,.27-.94,1.19-.53,.67Zm7.8,7.53c-.22-.32-.36-.55,0,0h0Zm.1,.14c.13,.15,.26,.3,.32,.37v.02c-.06-.04-.19-.21-.32-.39Zm88.86,156.82s.04,.03,.06,.05c-.18-.11-.29-.18-.38-.24,.11,.07,.22,.13,.32,.19Zm.18,.12l-.02-.02c.12,.07,.24,.15,.37,.22-.14-.08-.24-.14-.35-.2Z"/><path class="f" d="M137.11,19.91c.24-.14,.41-.25,.53-.34-.17,.1-.34,.21-.51,.31l-.02,.02Z"/></g><path class="d" d="M100.66,25.59c.38-2.46-1.3-4.16-3.77-4.11-1.92,.04-3.84,1.25-5.53,2.08-3.53,1.73-6.93,3.71-10.17,5.92-6.56,4.47-12.55,9.8-17.68,15.86-11.12,13.14-17.99,29.22-19.95,46.31-1.02,8.91-.62,17.97,1.12,26.77s4.68,17.24,9.74,24.46,12.41,12.65,18.73,18.92c5.49,5.45,10.76,12.58,10.37,20.71-.32,6.64-5.05,12.85-11.12,15.4-7.7,3.23-16.26-.63-24.25,.51-2.08,.3-4.03,.94-5.88,1.93-2.84,1.52-.32,5.84,2.52,4.32,3.49-1.86,7.53-1.64,11.34-1.27,4.08,.39,8.21,1.09,12.31,.6,7.41-.88,14-5.58,17.47-12.18,3.79-7.19,3.06-15.29-.64-22.36-3.96-7.56-10.56-13.08-16.78-18.7-3.11-2.8-6.2-5.7-8.76-9.02s-4.56-6.97-6.14-10.77c-3.27-7.86-5.02-16.43-5.48-24.92-.91-16.75,3.24-33.61,12.14-47.86,8-12.82,19.58-23.31,33.1-30.06,.86-.43,1.74-.85,2.62-1.25,.29-.13,.62-.25,.89-.39,.18-.1,.22-.13,.16-.02h-.07c-.51-.11-.88-.48-1.09-1.11v-1.33l-.04,.23c-.21,1.33,.34,2.69,1.75,3.08,1.19,.33,2.87-.4,3.08-1.75h0Z"/><path class="d" d="M81.4,165.61c-4.34-2.66-8.3-5.79-11.9-9.39l-3.54,3.54,11.17,9.23,3.03-3.93c-12.66-7.25-25.74-16.43-31.26-30.55-1.46-3.75-2.35-7.66-2.46-11.69l-4.66,1.26,15.11,28.24,3.93-3.03c-10.35-11.57-16.22-26.86-16.36-42.37l-4.91,.66,3.45,15.15,4.82-1.33c-6.2-21.84-1.86-45.98,10.72-64.77,3.55-5.3,7.78-10.1,12.56-14.32,1.01-.89,.91-2.62,0-3.54-1.01-1.01-2.52-.9-3.54,0-17.96,15.85-28,39.96-27.55,63.82,.13,6.8,1.12,13.6,2.97,20.14,.88,3.1,5.53,1.8,4.82-1.33l-3.45-15.15c-.63-2.77-4.94-2.14-4.91,.66,.15,16.87,6.58,33.35,17.82,45.91,1.95,2.18,5.23-.6,3.93-3.03l-15.11-28.24c-1.17-2.18-4.72-1.19-4.66,1.26,.43,16.53,11.56,29.87,24.4,39.1,3.78,2.72,7.75,5.15,11.79,7.45,2.38,1.36,5.28-2.06,3.03-3.93l-11.17-9.23c-1.04-.86-2.52-1.02-3.54,0-.96,.96-.96,2.58,0,3.54,3.88,3.89,8.22,7.3,12.91,10.17,2.75,1.68,5.27-2.64,2.52-4.32h0Z"/><path class="d" d="M110.32,11.75c-2.88-3.83-8.46-4.96-12.3-1.78s-3.69,8.67-.71,12.24c.6,.71,1.31,1.34,1.86,2.09,.2,.26,.39,.52,.43,.81-.03-.29-.11,.3-.04,.17-.35,.6-1.39,.96-1.98,1.21-1.3,.56-2.61,1.08-3.91,1.64-4.85,2.12-9.59,4.56-13.96,7.56-15.66,10.76-25.12,28.03-29.83,46.1-2.52,9.67-4.19,20.03-3.77,30.04,.22,5.25,1.14,10.49,3.15,15.36,1.73,4.19,4.03,8.06,6.76,11.68,5.5,7.29,12.19,13.51,18.28,20.28s12.82,15.03,12.46,24.57-8.91,14.6-16.99,16.42c-5.47,1.23-11.13,1.2-16.71,1.26-4.54,.05-9.32,0-13.59,1.76-2.1,.87-4.02,2.12-5.44,3.92-.83,1.06-1.04,2.5,0,3.54,.87,.87,2.7,1.07,3.54,0,2.51-3.19,6.6-3.9,10.45-4.11,5.3-.29,10.62-.02,15.91-.48,9.44-.83,19.32-4.05,24.75-12.37,5.67-8.69,2.61-19.51-2.61-27.6-4.92-7.63-11.58-13.98-17.78-20.56-5.81-6.16-11.66-12.8-14.68-20.85-3.6-9.58-2.83-20.21-1.26-30.13,2.76-17.52,9.27-35.28,22.06-48,7.04-7,15.72-11.57,24.81-15.35,2.17-.9,4.42-2.12,5.16-4.54s-.46-4.53-2-6.28c-1.12-1.27-2.42-2.35-2.3-4.11,.09-1.34,.88-2.62,2.25-3.03,1.14-.34,2.86-.02,3.67,1.05s2.16,1.63,3.42,.9c1.06-.62,1.71-2.34,.9-3.42h0Z"/><path class="d" d="M73.87,157.6c-5.48-4.73-10.11-10.06-13.93-16.07-.72-1.14-2.22-1.6-3.42-.9s-1.58,2.25-.9,3.42c2.9,4.98,6.67,9.45,11.13,13.11,2.24,1.84,5.11-.4,3.93-3.03-1.74-3.89-4.62-7.14-8.14-9.52-.81-.55-2.05-.39-2.78,.2-.85,.67-1.06,1.59-.9,2.63,.31,1.92,1.2,3.58,2.4,5.09,.84,1.06,2.66,.88,3.54,0,1.05-1.05,.84-2.47,0-3.54,.11,.14,.08,.09-.1-.16-.1-.15-.2-.31-.29-.47-.03-.06-.35-.69-.23-.4-.26-.59-.4-1.23-.5-1.86l-3.67,2.82c1.26,.85,2.57,2.03,3.72,3.41,.14,.17,.28,.34,.42,.51-.19-.24,.11,.16,.17,.24,.26,.36,.5,.73,.74,1.1,.49,.79,.92,1.61,1.3,2.46l3.93-3.03c-4.26-3.5-7.62-7.43-10.34-12.1l-4.32,2.52c4.05,6.37,9,12.15,14.71,17.08,1.02,.88,2.53,1,3.54,0,.9-.9,1.03-2.65,0-3.54h0Z"/><path class="d" d="M109.11,15.47c.06,.03,.12,.05,.18,.08l-.6-.25c1.22,.52,2.36,1.2,3.42,2.01l-.51-.39c.86,.67,1.65,1.43,2.36,2.26,.39,.46,1.18,.73,1.77,.73s1.35-.27,1.77-.73,.76-1.1,.73-1.77-.28-1.24-.73-1.77c-.95-1.12-2.04-2.06-3.23-2.92s-2.48-1.5-3.84-2.07c-.56-.23-1.43-.04-1.93,.25-.52,.3-1.01,.9-1.15,1.49-.15,.64-.11,1.36,.25,1.93l.39,.51c.31,.31,.68,.52,1.1,.64h0Z"/><path class="k" d="M95.04,22.3c-12.38,4.52-23.61,11.88-32.74,21.38-9.36,9.74-16.47,21.65-20.33,34.61-2.37,7.96-3.33,16.23-2.83,24.52s1.94,16.43,3.68,24.45c1.59,7.32,3.97,14.59,8.42,20.7,4.1,5.62,9.32,10.16,14.5,14.75s10.35,9.14,13.65,15.1c1.47,2.66,2.44,5.93,2.05,8.74-.36,2.59-1.33,5.41-2.97,7.48-.59,.74-1.43,1.41-1.97,1.6-1.28,.44-2.12,1.71-1.75,3.08,.34,1.24,1.79,2.19,3.08,1.75,5.61-1.93,8.24-8.96,8.66-14.41,.56-7.31-4.31-13.94-9-19.03s-10.09-9.3-15.06-14.03-9.27-10.04-11.77-16.56c-2.78-7.26-4.05-15.09-5.27-22.74-1.29-8.08-2-16.39-.76-24.52,2.08-13.62,8.22-26.63,16.98-37.23,8.23-9.95,18.67-17.96,30.5-23.15,1.4-.61,2.83-1.17,4.27-1.69,1.27-.46,2.12-1.7,1.75-3.08-.34-1.22-1.8-2.21-3.08-1.75h0Z"/><path class="k" d="M95.08,22.79c-12.04,5.92-22.8,14.52-31.23,24.96-9.05,11.2-15.46,24.36-18.54,38.44s-3.2,30.54,1.23,44.91c2.18,7.06,5.85,13.32,10.39,19.11,4.28,5.46,9.17,10.39,13.9,15.45,4.45,4.77,10.15,10.19,11.23,16.94,.35,2.18-.28,4.44-1.22,6.64s-2.32,4.43-4.16,6.09c-.63,.56-1.41,.98-2.15,1.16-3.12,.77-1.8,5.59,1.33,4.82,5.37-1.32,8.78-7.4,10.36-12.26,.87-2.68,1.15-5.42,.59-8.19-.72-3.51-2.51-6.76-4.61-9.62-8.28-11.28-19.83-19.83-26.8-32.13-3.67-6.46-5.55-13.73-6.53-21.06-.99-7.39-.99-14.93-.12-22.33,1.68-14.24,6.95-27.99,15.14-39.75,7.57-10.87,17.66-19.99,29.19-26.49,1.49-.84,3.01-1.63,4.54-2.39,1.21-.6,1.54-2.32,.9-3.42-.72-1.24-2.2-1.49-3.42-.9h0Z"/><path class="j" d="M80.44,28.37c-18.99,10.5-33.33,28.72-39.62,49.43-6.43,21.16-3.57,44.18,6.98,63.53,5.98,10.96,14.35,20.5,24.47,27.8,1.1,.79,2.78,.19,3.42-.9,.74-1.26,.2-2.63-.9-3.42-16.92-12.2-28.24-31.46-31.54-51.97-3.27-20.29,2.39-41.13,14.37-57.69,6.68-9.23,15.38-16.97,25.34-22.48,2.82-1.56,.3-5.88-2.52-4.32h0Z"/><path class="j" d="M81.8,33.46c4.4-2.74,8.98-5.17,13.72-7.28,1.2-.53,1.57-2.37,.9-3.42-.8-1.24-2.14-1.47-3.42-.9-4.74,2.11-9.32,4.54-13.72,7.28-1.11,.69-1.64,2.26-.9,3.42s2.23,1.64,3.42,.9h0Z"/><path class="j" d="M122.09,20.5c2.02-3.39,4.9-6.14,8.37-8.01,1.62-.87,3.41-1.62,5.24-1.89,.04,0,.71-.06,.99-.07,.25,0,.5,0,.74,.02,.04,0,.44,.07,.2,.02,.89,.17,1.25,.37,1.79,.98,.89,1.01,2.62,.91,3.54,0,1.01-1.01,.9-2.52,0-3.54-3.63-4.12-9.92-2.35-14.14-.3-4.58,2.23-8.45,5.89-11.04,10.25-1.65,2.77,2.67,5.29,4.32,2.52h0Z"/><path class="d" d="M79.77,40.06c-2.2,4.59-1.35,9.92,1.84,13.84,1.49,1.84,3.52,3.22,5.8,3.89,3.06,.9,6.25,.45,9.38,.44s5.35,.99,7.9,2.6,4.83,3.01,7.41,4.24c5.25,2.51,10.8,4.21,16.59,4.87,6.5,.74,13.01-.19,19-2.82,1.24-.54,1.52-2.35,.9-3.42-.75-1.27-2.18-1.44-3.42-.9-9.1,4.01-19.74,2.6-28.65-1.19-2.4-1.02-4.72-2.24-6.94-3.61s-4.45-2.95-6.97-3.89c-2.71-1.01-5.6-.92-8.44-.8-2.31,.09-4.81,.22-6.83-.97-3.21-1.91-4.8-6.49-3.23-9.77,.58-1.22,.34-2.7-.9-3.42-1.09-.64-2.84-.33-3.42,.9h0Z"/><path class="d" d="M60.46,62.67l1.45,7.37,4.82-1.33c-.62-2.39-.53-4.75,.2-7.09,.4-1.29-.47-2.73-1.75-3.08-1.43-.39-2.57,.49-3.08,1.75-2.14,5.34,.55,11.94,5.45,14.74,1.4,.8,2.89,1.2,4.48,1.39,1.81,.22,3.69,.03,5.48,.46,2.61,.64,4.72,2.35,6.64,4.16,2.24,2.12,4.3,4.44,6.72,6.36,2.64,2.1,5.56,3.7,8.72,4.87,6.38,2.38,13.41,2.65,20.07,1.41,7.88-1.47,15.26-5.17,21.77-9.75,1.1-.78,1.62-2.19,.9-3.42-.64-1.09-2.31-1.68-3.42-.9-10.18,7.17-22.83,12.12-35.33,8.7-2.88-.79-5.59-2-8.06-3.66-2.23-1.5-4.09-3.44-5.98-5.34-2.01-2.02-4.1-4.05-6.56-5.52-2.87-1.72-5.84-2.09-9.13-2.24-2.63-.12-4.77-.92-6.21-3.19-1.36-2.14-1.65-4.44-.72-6.76l-4.82-1.33c-.99,3.18-1.04,6.53-.2,9.75s5.44,1.8,4.82-1.33l-1.45-7.37c-.26-1.33-1.84-2.08-3.08-1.75-1.38,.38-2.01,1.75-1.75,3.08h0Z"/><path class="d" d="M123.2,47.01c6.97,6.98,21.4,10.83,28.23,1.57,.8-1.09,.18-2.79-.9-3.42-1.27-.74-2.62-.19-3.42,.9-2.08,2.82-6.36,3.22-9.56,2.82-4.1-.52-7.92-2.49-10.82-5.4-2.28-2.28-5.81,1.26-3.54,3.54h0Z"/><path class="d" d="M147.41,31.97c-2.17-1.8-4.48-3.45-6.97-4.79s-5.34-2.35-8.15-1.63c-1.03,.27-1.91,1.08-2.93,1.3-.6,.13-1.31-.04-1.92-.03-.68,0-1.35,.08-2.03,.18-2.63,.4-5.04,1.69-6.95,3.52-2.33,2.23,1.21,5.76,3.54,3.54,1.32-1.26,3.02-2.08,4.86-2.22,.98-.07,1.95,.08,2.93-.03,1.28-.14,2.18-.75,3.32-1.25,1.64-.72,3.55,.25,4.99,1.04,2.04,1.11,3.98,2.43,5.77,3.91,1.04,.86,2.52,1.02,3.54,0,.89-.89,1.05-2.67,0-3.54h0Z"/><g><path class="h" d="M67.39,76.85c-2.76,.88-4.46,3.44-6.85,4.92-4.57,2.82-10.52,3.23-15.38,.92,.01-.42-.09-.87-.35-1.32-1.01-1.72-2.61-2.87-4.42-3.46-2.7-1.49-5.82-2.32-8.57-1.27-2.2,.84-3.72,2.78-4.43,4.99-.34,1.06-.45,2.15-.45,3.24-.19,.31-.39,.63-.57,.94-2.01,3.52-3.71,6.93-6.92,9.53-2.11,1.7-4.56,2.89-7.15,3.59-.05-.01-.1-.02-.15-.03-.96-.99-2.71-1.32-3.64-.25-.36,.15-.66,.37-.9,.64-2.29,.41-2.69,4.44-.1,4.88,.71,.12,1.42,.24,2.13,.37,1.52,2.14,3.65,3.76,6.24,4.64,1.06,.36,2.26,.56,3.12,1.27-.75,2.45-1.82,4.79-3.15,6.98-.85,.24-1.74,.43-2.6,.69-.4-.35-.92-.58-1.58-.56-3.2,.13-6.07,2.46-6.65,5.66-.61,3.36,1.54,6.53,4.76,7.51,1.49,.46,3.09,.41,4.52-.2,1.47-.63,2.47-1.79,3.74-2.69,.15,.02,.3,.05,.44,.09,1.23,.32,2.35,1.12,3.01,2.2-.02,.04-.03,.09-.05,.13-1.19,2.92-3.86,5.59-3.77,9.22,.04,1.69,1.56,2.76,3.16,2.41,3.43-.73,5.47-3.68,6.63-6.77,1.05-2.82,.99-6.04,2.36-8.74,.62-1.23,1.46-2.02,2.78-2.46,1.82-.61,3.69-.97,5.33-2.01,1.12-.71,2.08-1.58,2.93-2.55,.65,.09,1.38-.08,2.06-.64,1.61-1.33,2.56-2.97,3.18-4.77,3.19-5.74,5.03-12.2,8.9-17.58,1.28-1.78,2.84-3.32,4.52-4.73,2.67-1.38,5.46-2.4,8.27-3.47,2.96-1.13,5.85-3.03,5.94-6.54,.09-3.42-3.11-5.82-6.37-4.78Z"/><path class="h" d="M218.25,142.26c-2.62-3.2-4.96-6.49-6.74-10.09,.82-5.08-.74-10.48-4.47-14.2-1.13-3.63-2.7-7.07-5.59-9.76-1.53-1.42-4.33-.48-4.27,1.77,.43,15.77-2.18,31.84-9.04,46.14-5.36,11.18-13.28,21.06-23.29,28.33-4.09,2.45-8.36,4.6-12.75,6.42-.73,.3-1.33,.83-1.63,1.49-1.32,.52-2.66,1.01-4.02,1.44-2.34,0-4.68,.15-7.02,.54-3.41,.56-6.7,1.64-9.71,3.21-.69-.47-1.57-.57-2.43,.06-1.94,1.44-4.08,3.15-4.98,5.43-.73,.75-1.42,1.55-2.07,2.4-1.37,1.8,.92,4.26,2.84,3.69,.93,1.27,2.35,2.14,4.09,2.23,2.29,.12,3.13-2.75,1.77-4.27-.55-.61-.58-2.03,.2-2.59,.56-.4,.97-.96,1.14-1.58,2.05-1.25,4.28-2.19,6.59-2.87,.41,.43,.98,.7,1.68,.68,8.57-.22,17.15-.04,25.7,.52,3.28,.66,6.62,1.12,9.96,.83,.94,.09,1.87,.18,2.8,.29,.89,.1,1.68-.48,2.13-1.24,1.74-.52,3.42-1.21,5.04-2.06,4.04-2.13,7.57-5.13,10.7-8.48,.2-.06,.4-.15,.59-.29,8.64-6.37,14.83-15.69,17.05-26.23,.13-.61,.06-1.24-.19-1.77,.94-1.93,2.16-4.39,4.36-5.04,1.71-.51,3.28-.44,4.63-1.81,1.16-1.17,1.74-2.88,1.73-4.51-.04-3.51-2.71-6.14-4.79-8.68Zm-18.66-4.34c.03-.15,.06-.29,.09-.44-.02,.23-.05,.46-.07,.7-.66,2.86-1.43,5.68-2.37,8.45,.92-2.86,1.71-5.77,2.36-8.71Zm-72.39,68.44h.01c.04,.08,.03,.06-.01,0Z"/><path class="h" d="M46.92,49.48c1.07-.45,1.91-1.21,2.84-1.87-.2,.3-.4,.6-.59,.9-.88,1.34-1.75,2.67-2.63,4.01-1.77,2.7,2.56,5.21,4.32,2.52,1.31-2,2.68-3.98,3.95-6.02,.37-.6,.63-1.24,.78-1.89,.16-.1,.32-.22,.47-.37,4.57-4.5,9.25-8.9,14.03-13.17,.47-.42,.67-.94,.7-1.48,.28-.97,.03-2.07-1.08-2.75-.52-.31-1.03-.62-1.55-.94-.57-.33-1.13-.4-1.63-.31,.03-.39,.05-.78,.08-1.18,.05-.51,.11-1.01,.21-1.5,.51-2.59,1.42-5.02,2.74-7.3,1.43-2.47-1.88-5-3.93-3.03-2.66,2.56-3.4,6.09-3.75,9.61-.12,.68-.21,1.36-.29,2.04-.1,.88-.1,1.78-.2,2.66-.11,.62-.26,1.23-.45,1.84-.51,1.17-1.46,2.11-2.43,2.99-.43-.08-.85-.07-1.29,.09,.4-1.5,.68-3.02,.6-4.62-.14-2.48-3.29-3.39-4.66-1.26-3.62,5.64-6.84,11.51-9.66,17.59-1.1,2.38,1.1,4.41,3.42,3.42Zm3.86-3.41s-.04,.03-.07,.06c0-.03,.03-.05,.07-.06Zm.32,.95h0c.12,.04,.09,.18,0,0Z"/></g><path class="g" d="M147.63,45.51c.81-4.25-1.17-8.26-4.42-10.95s-7.25-5.16-11.41-5.27c-3.89-.11-7.98,2.78-8.04,6.92s4.05,6.9,7.15,8.98c3.85,2.59,8.94,4.21,13.22,1.57,2.73-1.69,.22-6.01-2.52-4.32-1.05,.65-2.04,.82-3.38,.63-.3-.04-1.1-.26-1.58-.43-.63-.22-1.22-.54-1.8-.88-1.32-.76-2.58-1.67-3.79-2.59-.7-.53-1.8-1.52-2.13-2.21-.3-.63-.2-1.18,.23-1.61,.61-.62,1.56-1.08,2.31-1.05,2.75,.1,5.35,1.76,7.58,3.34,1.13,.8,2.22,1.82,2.92,2.99s1.06,2.45,.85,3.57c-.25,1.32,.37,2.7,1.75,3.08,1.22,.34,2.82-.41,3.08-1.75h0Z"/><path class="g" d="M146.33,46.38c1.32-3.36-.04-7.14-2.33-9.71s-5.97-3.95-9.32-4.9c-2.81-.8-6.3-1.61-8.95,.13-1.51,1-2.52,2.76-2.43,4.6,.09,1.93,1.1,3.65,2.47,4.97,3.05,2.93,7.5,4.31,11.6,4.84,1.34,.17,2.5-1.27,2.5-2.5,0-1.5-1.15-2.33-2.5-2.5-2.35-.31-4.89-1.25-7.01-2.57-.83-.52-1.55-1.11-1.99-2.04-.19-.39,.11,.28-.03-.12-.09-.26-.04-.02-.03,.05-.02-.12,.01-.25,0-.37-.04-.26,.03-.03,0,.05-.09,.27,.08-.16,.14-.26-.34,.51,0,.05,0,.04-.06,.2-.34,.1-.03,.03,.46-.11-.33,.04,.15-.08,.11-.03,.78-.18,.51-.14s.34-.01,.45-.02c.27,0,.54,0,.81,.03,.16,.01,.31,.03,.47,.05-.05,0-.37-.06-.08,0,.23,.04,.46,.08,.69,.13,.6,.13,1.19,.3,1.78,.47,2.32,.65,4.77,1.36,6.5,2.9,.23,.21,.45,.43,.66,.65,.09,.1,.18,.2,.27,.3-.19-.23,.12,.17,.17,.25,.17,.26,.34,.53,.48,.8,.06,.12,.12,.24,.18,.36,.18,.39-.09-.27,.05,.14,.11,.33,.2,.67,.28,1.01,.06,.29,.02,.04,0-.02,.02,.17,.03,.34,.03,.51,0,.13,0,.26,0,.38-.01,.18,0,.17,.03-.03l-.05,.25c-.08,.34-.18,.67-.31,.99-.5,1.26,.54,2.74,1.75,3.08,1.42,.39,2.58-.49,3.08-1.75h0Z"/><path class="g" d="M145.7,36.48c21.09,12.78,36.76,34.1,42.2,58.2,2.89,12.83,2.82,26.33-.06,39.15-1.44,6.42-3.55,12.7-6.38,18.64s-6.41,12.03-10.94,17.02c-5.23,5.76-11.99,9.61-18.89,13.04-7.76,3.85-15.63,7.47-23.54,11-1.23,.55-1.53,2.35-.9,3.42,.74,1.27,2.18,1.45,3.42,.9,7.38-3.29,14.72-6.69,21.99-10.24,6.51-3.18,12.95-6.64,18.37-11.51s9.36-10.82,12.73-17.03,5.98-12.72,7.85-19.47c3.72-13.43,4.43-27.61,2.13-41.35-2.14-12.8-7.14-25.13-14.27-35.96-8.03-12.19-18.7-22.57-31.19-30.14-2.76-1.67-5.27,2.65-2.52,4.32h0Z"/><path class="g" d="M142.2,33.95c10.86,9.38,20.3,20.38,27.54,32.79,7.08,12.14,12.12,25.7,13.76,39.7,1.59,13.59,.14,27.48-4.39,40.4-4.46,12.71-12.2,24.96-22.87,33.35-5.94,4.67-13.44,6.31-20.33,9.07-6.36,2.54-12.72,5.72-17.41,10.84-1.19,1.3-2.26,2.72-3.2,4.2-1.72,2.73,2.6,5.24,4.32,2.52,3.64-5.76,9.63-9.3,15.74-11.96,6.88-3.01,14.54-4.53,20.92-8.6s11.41-9.68,15.8-15.54,7.63-11.9,10.3-18.45c5.32-13.02,7.5-27.41,6.54-41.44s-5.43-28.91-12.23-41.89c-6.85-13.06-16.13-24.87-26.91-34.91-1.32-1.23-2.67-2.44-4.04-3.62-1.02-.88-2.53-1-3.54,0-.9,.9-1.03,2.65,0,3.54h0Z"/><path class="g" d="M192.86,129.54c-.06-17.31-3.14-34.63-9.13-50.87-1.71-4.64-3.66-9.2-5.81-13.65-.59-1.22-2.32-1.54-3.42-.9-1.24,.73-1.49,2.2-.9,3.42,7.24,14.97,11.87,31.28,13.53,47.83,.47,4.71,.71,9.44,.73,14.17,.01,3.22,5.01,3.22,5,0h0Z"/><path class="e" d="M182.44,96.96c-.09,0-.17,0-.26,.01-.29,.03-.59,.05-.87,.13s-.54,.2-.8,.32c-.07,.03-.15,.07-.22,.12-.63,.4-1.15,.92-1.53,1.57-.19,.32-.33,.68-.45,1.03-.06,.16-.1,.33-.12,.5-.05,.37-.13,.76-.1,1.14s.06,.76,.18,1.12c.09,.28,.21,.56,.35,.82,.04,.08,.09,.16,.15,.24,.39,.54,.71,.86,1.27,1.24,.29,.18,.6,.28,.93,.3,.33,.07,.66,.06,1-.04,.58-.16,1.21-.61,1.49-1.15,.31-.58,.46-1.28,.25-1.93l-.25-.6c-.22-.38-.52-.67-.9-.9-.03-.02-.06-.04-.09-.07l.51,.39c-.1-.08-.2-.18-.28-.28l.39,.51c-.08-.1-.14-.21-.19-.33l.25,.6c-.06-.15-.1-.31-.13-.48l.09,.66c-.02-.19-.02-.39,0-.58l-.09,.66c.03-.22,.09-.43,.18-.64l-.25,.6c.08-.19,.19-.37,.31-.54l-.39,.51c.1-.13,.22-.25,.35-.35l-.51,.39c.11-.08,.23-.15,.36-.21l-.6,.25c.12-.05,.25-.08,.38-.1l-.66,.09c.09-.01,.17-.01,.26-.01,.63,.02,1.33-.29,1.77-.73,.24-.23,.42-.49,.52-.8,.16-.3,.23-.62,.22-.96-.03-.65-.24-1.32-.73-1.77s-1.08-.71-1.77-.73h0Z"/><path class="e" d="M184.84,112.78c-3.83-.41-7.5,2.22-8.77,5.75s.39,7.69,3.44,9.8c1.08,.75,2.82,.23,3.42-.9,.67-1.28,.25-2.62-.9-3.42-.42-.29,.37,.35,.03,.03-.11-.1-.22-.2-.33-.3s-.2-.22-.31-.33c-.35-.39,.31,.47,.02,.03-.17-.25-.32-.5-.46-.77-.03-.07-.07-.13-.1-.2-.08-.17-.04-.09,.11,.25,.01-.1-.12-.33-.15-.43-.08-.25-.08-.66-.2-.88l.05,.37c-.01-.1-.02-.2-.03-.3,0-.12-.01-.25-.01-.37,0-.15,0-.3,.02-.45,.04-.58-.07,.32-.01,.07,.07-.29,.15-.58,.23-.87s-.25,.5-.05,.1c.07-.14,.14-.27,.21-.41s.17-.26,.25-.39c.27-.43-.33,.37-.02,.02,.21-.23,.42-.44,.65-.65,.39-.36-.47,.31-.02,.01,.13-.09,.25-.17,.38-.25s.27-.15,.4-.22l.14-.07c.24-.11,.18-.09-.18,.07,.21,.03,.65-.22,.87-.27,.13-.03,.33-.03,.45-.09-.15,.08-.57,.06-.13,.03,.33-.02,.66,0,.99,.03,1.3,.14,2.56-1.25,2.5-2.5-.07-1.47-1.1-2.35-2.5-2.5h0Z"/><path class="e" d="M176.61,136.14c-.24,.04-.48,.1-.71,.19-.41,.16-.83,.32-1.2,.57s-.71,.5-1.02,.8-.58,.66-.83,1c-.39,.54-.68,1.19-.86,1.82-.12,.42-.17,.88-.2,1.31-.04,.46,.05,.92,.12,1.38,.08,.33,.23,.61,.45,.85,.18,.27,.41,.49,.7,.64,.54,.31,1.33,.45,1.93,.25s1.19-.57,1.49-1.15l.25-.6c.12-.44,.12-.89,0-1.33v-.05l.08,.66c-.03-.27-.03-.55,0-.82l-.09,.66c.04-.33,.13-.64,.26-.95l-.25,.6c.13-.29,.28-.56,.47-.81l-.39,.51c.2-.26,.43-.5,.7-.7l-.51,.39c.23-.18,.48-.33,.75-.44l-.6,.25c.25-.11,.52-.18,.79-.22,.33-.08,.61-.23,.85-.45,.27-.18,.49-.41,.64-.7,.31-.54,.45-1.33,.25-1.93s-.57-1.19-1.15-1.49l-.6-.25c-.44-.12-.89-.12-1.33,0h0Z"/><path class="e" d="M170.26,151.73c-2.33,.45-4.23,2.33-4.96,4.56s.02,5.06,1.76,6.73c.94,.91,2.61,1.01,3.54,0s1.01-2.57,0-3.54c-.15-.15-.3-.3-.43-.47l.39,.51c-.21-.29-.39-.59-.53-.92l.25,.6c-.15-.36-.25-.74-.31-1.13l.09,.66c-.04-.35-.05-.71,0-1.06l-.09,.66c.05-.35,.13-.68,.26-1.01l-.25,.6c.15-.35,.33-.66,.56-.96l-.39,.51c.23-.29,.5-.55,.79-.78l-.51,.39c.27-.2,.56-.37,.87-.51l-.6,.25c.28-.12,.57-.21,.87-.27,.59-.11,1.2-.65,1.49-1.15,.31-.54,.45-1.33,.25-1.93-.44-1.37-1.7-2.01-3.08-1.75h0Z"/><path class="e" d="M151.67,169.85c-.29-.6,.06,.26-.04-.11-.05-.17-.09-.35-.13-.52,.11,.5,.01,.06,.02-.09,0-.18,0-.36,.02-.54-.03,.36-.03,.14,.04-.09,.05-.18,.1-.35,.16-.52-.11,.33-.05,.09,.06-.1,.09-.16,.18-.31,.28-.47-.18,.29-.07,.06,.08-.09,.13-.13,.25-.26,.39-.37-.49,.41,.81-.42,.19-.11,1.34-.65,2.47-1.48,2.47-3.15,0-1.26-.88-2.22-1.39-3.3-.28-.6-.48-1.44-.47-2.02,0-.12,.07-.65,0-.3,.04-.2,.09-.38,.16-.57,.08-.23-.14,.19,.09-.16,0,0,.36-.53,.2-.34-.17,.21,.24-.23,.28-.27,.3-.3-.07,.01,.14-.1,.23-.12,.31-.31,.13-.08l.22-.06c-.29,.02-.28,.02,.02,0,1.35-.06,2.5-1.1,2.5-2.5,0-1.3-1.14-2.56-2.5-2.5-2.87,.14-5.2,2.17-5.98,4.91-.4,1.42-.32,2.98,.06,4.39,.2,.73,.5,1.45,.83,2.14,.13,.27,.27,.54,.42,.8,.1,.17,.2,.34,.31,.51,.17,.26,.19,.3,.06,.13v-1.33c.09-.62,1.67-1.29,.33-.68-.2,.09-.39,.18-.58,.3-.42,.26-.83,.58-1.19,.92-.77,.72-1.33,1.62-1.73,2.59-.85,2.05-.75,4.24,.23,6.23,.59,1.21,2.32,1.54,3.42,.9,1.24-.72,1.49-2.2,.9-3.42h0Z"/><path class="e" d="M161.37,144.43c-.06-.12-.3-.64-.11-.19s-.03-.1-.06-.21c-.1-.31-.16-.63-.21-.95l.09,.66c-.07-.54-.06-1.08,0-1.63l-.09,.66c.07-.51,.19-1,.37-1.49,.21-.58-.23,.46-.04,.09,.05-.1,.09-.2,.15-.29,.12-.23,.25-.44,.39-.65,.29-.42-.14,.09-.13,.15,0-.06,.24-.28,.28-.33,.17-.19,.36-.36,.55-.53,.32-.29-.52,.37-.17,.12,.12-.08,.24-.17,.36-.24,.22-.13,.45-.25,.68-.35,.54-.24,1-.96,1.15-1.49,.16-.6,.09-1.4-.25-1.93s-.86-1-1.49-1.15c-.7-.16-1.28-.03-1.93,.25-2.15,.95-3.67,3-4.42,5.18s-.55,4.76,.56,6.84c.62,1.15,2.31,1.61,3.42,.9,1.17-.76,1.56-2.19,.9-3.42h0Z"/><path class="g" d="M143.63,155.22c-.74-1.2-.66-2.76,.46-3.78,.78-.71,1.83-1.31,2.4-2.34,.73-1.31,.61-2.89-.13-4.16-.55-.93-1.42-1.6-2-2.5-.52-.81-.85-1.65-1.06-2.58-.4-1.76-.15-3.65,.73-5.25,1.55-2.82-2.77-5.35-4.32-2.52-2.56,4.68-1.92,10.57,1.61,14.57,.18,.21,.38,.45,.58,.63,.44,.39-.01,.44,.17-.02-.11-.27-.06-.51,.15-.72l-.21,.21c.12-.06-.58,.46-.48,.38-1.05,.82-1.95,1.68-2.54,2.91-1.17,2.46-1.14,5.37,.31,7.72,1.69,2.73,6.01,.23,4.32-2.52h0Z"/><path class="e" d="M153.36,97c-4.03-.54-5.48,3.21-5.43,6.62,.02,1.66,.31,3.37,.88,4.93,.28,.77,.6,1.88,1.13,2.52,.26,.32,.02,.91,.31-.09s-.18-.33-.64-.04c-5.24,3.32-9.54,8.78-8.43,15.28,.23,1.33,1.87,2.08,3.08,1.75,1.41-.39,1.97-1.74,1.75-3.08-.75-4.42,3.51-7.94,6.77-10.03,1.28-.82,2.21-1.92,2.27-3.5,.06-1.48-.81-2.62-1.34-3.93-.43-1.06-.7-2.23-.76-3.38-.03-.59-.06-1.24,.04-1.83,.19-1.16,.58-.2-.95-.4,1.34,.18,2.68-.32,3.08-1.75,.32-1.16-.4-2.89-1.75-3.08h0Z"/><path class="e" d="M118.13,135.46c-2.57-.8-5.75,.06-7.45,2.18-.58,.72-.96,1.39-1.29,2.26-.24,.65-.34,1.37-.38,2.06-.08,1.38,.31,2.87,1.06,4.04,.35,.54,.86,.97,1.49,1.15,.6,.16,1.4,.09,1.93-.25,1.1-.71,1.65-2.24,.9-3.42-.15-.23-.27-.47-.38-.72l.25,.6c-.15-.38-.25-.78-.31-1.18l.09,.66c-.05-.41-.05-.82,0-1.23l-.09,.66c.06-.41,.16-.8,.31-1.18l-.25,.6c.15-.35,.33-.67,.56-.97l-.39,.51c.22-.29,.48-.54,.76-.77l-.51,.39c.34-.26,.71-.48,1.1-.65l-.6,.25c.4-.16,.81-.27,1.24-.33l-.66,.09c.39-.05,.79-.05,1.18,0l-.66-.09c.26,.04,.52,.09,.77,.17,1.25,.39,2.78-.46,3.08-1.75,.31-1.36-.41-2.66-1.75-3.08h0Z"/><path class="e" d="M114.57,152.08c-3.94-2.04-9.09-.34-10.75,3.87-1.84,4.69,1.62,8.67,3.09,12.87l2.41-3.16c-3.91-.37-7.77,2.17-9.08,5.85s.31,7.94,3.48,10.25c1.09,.8,2.79,.18,3.42-.9,.74-1.27,.2-2.62-.9-3.42-1.35-.99-1.86-3.1-1.19-4.61,.74-1.65,2.58-2.34,4.26-2.18,1.56,.15,2.91-1.72,2.41-3.16-.58-1.66-1.38-3.22-2.16-4.79-.6-1.21-1.32-2.6-1.28-3.98,.06-1.97,2.21-3.12,3.75-2.32,2.85,1.48,5.38-2.83,2.52-4.32h0Z"/><path class="g" d="M128.56,173.6c-2.56-.06-5.26,1.47-6.36,3.82-1.24,2.66-.8,5.72,1.18,7.9,.88,.97,2.65,.96,3.54,0,.95-1.04,.94-2.5,0-3.54-.08-.08-.15-.17-.22-.25l.39,.51c-.25-.33-.45-.67-.61-1.05l.25,.6c-.15-.38-.25-.77-.31-1.18l.09,.66c-.05-.41-.04-.81,0-1.22l-.09,.66c.06-.37,.15-.72,.29-1.07l-.25,.6c.15-.33,.33-.64,.55-.93l-.39,.51c.23-.28,.48-.54,.76-.77l-.51,.39c.35-.27,.72-.49,1.12-.66l-.6,.25c.34-.13,.68-.23,1.04-.29l-.66,.09c.25-.03,.5-.05,.76-.04,1.31,.03,2.56-1.17,2.5-2.5s-1.1-2.47-2.5-2.5h0Z"/><path class="e" d="M83.15,159.99c-.03-.07-.1-.44-.14-.48,.11,.11,.03,.56,.04,.08s.08-.01-.03,.08c.01-.01,.14-.46,.14-.49,0,.19-.16,.45,.01,.07,.1-.15,.05-.1-.14,.17l.11-.12c.16-.15,.16-.16,0-.03-.18,.13-.16,.12,.04-.02,.14-.08,.29-.16,.43-.24,1.76-.98,2.6-2.5,2.82-4.46,.07-.6,.07-1.2,.09-1.79,0-.14,.02-.29,.02-.43,.02-.58-.13,.54,0-.01,.03-.14,.06-.27,.1-.41,.14-.48,.08,0-.03,.03l.26-.45c.03,.09-.36,.41-.01,.04,.04-.05,.24-.3,.31-.3-.26,.19-.31,.23-.16,.13,.07-.05,.14-.1,.22-.14,.07-.04,.5-.31,.16-.11-.31,.19,.08-.02,.19-.05,.08-.02,.17-.04,.25-.06,.19-.04,.11-.03-.24,.03,.01-.04,.49,0,.52,0,1.31,.05,2.56-1.19,2.5-2.5-.06-1.4-1.1-2.44-2.5-2.5-1.91-.08-3.87,.82-5.06,2.31-.65,.81-1.16,1.71-1.33,2.74-.15,.88-.18,1.75-.21,2.64,0,.17-.02,.34-.03,.51-.03,.57,.14-.55,0-.01,0,.02-.13,.45-.12,.46,.16-.35,.19-.41,.07-.17l-.08,.13c.24-.29,.28-.34,.1-.14-.15,.14-.16,.15-.02,.03,.29-.19-.27,.13-.33,.17-.49,.27-.96,.57-1.36,.95-1.48,1.4-2.12,3.76-1.4,5.69,.45,1.22,1.72,2.19,3.08,1.75,1.2-.39,2.23-1.76,1.75-3.08h0Z"/><path class="e" d="M118.38,105.45c.61-1.71-.7-3.44-2.37-3.76-1.37-.26-2.57,.14-3.66,.96-1.73,1.31-2.91,3-3.68,5.02-1.44,3.76-.67,8.16,1.97,11.19,.86,.99,2.66,.95,3.54,0,.97-1.05,.92-2.48,0-3.54-.4-.45,.03-.05,0,.01,0,0-.26-.37-.27-.39-.17-.26-.31-.54-.46-.82-.23-.42,.18,.51,0,.02-.05-.15-.11-.29-.16-.44-.09-.27-.16-.55-.22-.83-.03-.15-.05-.31-.08-.46-.06-.23,.05,.62,.01,.04-.02-.29-.03-.58-.03-.87,0-.22,.14-.75,.06-.95-.05,.38-.07,.47-.04,.27,.01-.08,.02-.16,.04-.23,.03-.16,.06-.31,.1-.47,.07-.31,.16-.61,.26-.91,.04-.12,.1-.25,.14-.37,.07-.22-.26,.52,0,.02,.13-.26,.26-.51,.41-.76,.08-.13,.17-.27,.25-.4,.32-.47,.1,0-.02,0,.08,0,.54-.61,.63-.69,.11-.11,.23-.21,.35-.32,.39-.37-.46,.31-.01,0,.13-.09,.27-.17,.39-.26,.38-.29-.53,.12-.08,.02l-.38,.05c.21,0,.19,0-.05-.03-.24-.04-.26-.04-.07,0-.97-.29-1.43-1.11-1.38-2.45-.44,1.23,.5,2.79,1.75,3.08,1.4,.32,2.6-.43,3.08-1.75h0Z"/><path class="e" d="M85.48,125.04c.24,.1,.32,.16,.46,.36-.14-.25-.16-.25-.05,0l-.07-.21c-.06-.29-.07-.3-.03-.02v-.23c-.09-.52-.09,.21,.02-.27,.09-.28,.09-.3,0-.05l.11-.2c-.08,.08,.34-.38,.36-.4,.3-.28,.75-.52,1.22-.75,.99-.48,2.39-.76,3.29-1.68,1.29-1.32,1.23-3.32,.18-4.74-.69-.94-1.51-1.69-1.91-2.68-.41-1.03-.45-1.84-.19-2.78,.15-.55,.67-1.11,1.23-1.41,.24-.13,.63-.29,.89-.32-.37,.04,.72,.03,.34,0-.34-.04,.74,.25,.29,.05,1.23,.55,2.69,.35,3.42-.9,.63-1.07,.34-2.86-.9-3.42-3.73-1.68-8.16,.05-9.78,3.85-.8,1.87-.85,4.04-.23,5.98,.3,.92,.71,1.84,1.25,2.64,.32,.47,.67,.92,1.04,1.35,.1,.11,.34,.4,.4,.42,.03,.01-.07-.33-.08-.22l.34-1.26c-.19,.38-.1,.32,.26-.18,.17-.05,.17-.05,0,0-.32,.05-.67,.24-.97,.36-.67,.27-1.34,.54-1.96,.9-1.36,.78-2.56,1.92-3.18,3.37-1.23,2.89-.02,6.06,2.89,7.25,1.25,.51,2.75-.55,3.08-1.75,.39-1.43-.49-2.56-1.75-3.08h0Z"/><path class="e" d="M74.97,90.6c-2.31,.71-4.94,1.7-6.12,3.99-1.25,2.42-.9,5.72,1.64,7.17,1.14,.65,2.79,.3,3.42-.9s.32-2.73-.9-3.42c-.09-.05-.18-.11-.26-.17l.51,.39c-.14-.11-.26-.24-.37-.38l.39,.51c-.11-.15-.19-.3-.27-.46l.25,.6c-.09-.22-.15-.44-.19-.67l.09,.66c-.04-.3-.04-.59,0-.89l-.09,.66c.04-.33,.13-.64,.26-.95l-.25,.6c.11-.25,.24-.48,.41-.7l-.39,.51c.23-.29,.49-.54,.77-.77l-.51,.39c.49-.38,1.02-.66,1.59-.91l-.6,.25c.64-.27,1.3-.48,1.96-.68,.61-.19,1.17-.59,1.49-1.15s.45-1.33,.25-1.93c-.41-1.26-1.74-2.16-3.08-1.75h0Z"/><path class="g" d="M67.31,53.73c-.54,3.61-.76,7.24-.52,10.89,.1,1.5,.06,3.37,1.1,4.57,1.12,1.31,2.82,1.29,4.33,.73,1.33-.49,2.49-.9,3.94-.8,1.37,.09,2.72,.55,3.93,1.18,2.88,1.49,5.04,3.9,7.13,6.32s4.29,4.9,6.94,6.85c2.34,1.73,4.98,3.03,7.73,3.99,5.94,2.07,12.37,2.3,18.53,1.26,7.46-1.27,14.49-4.45,20.99-8.25,2.08-1.22,.2-4.46-1.89-3.24-10.16,5.94-22.14,10.4-33.99,7.41-5.61-1.42-10.13-4.4-13.95-8.7-3.84-4.33-7.72-9.26-13.78-10.35-1.48-.27-2.95-.29-4.43,0-.76,.15-1.44,.45-2.15,.72-.27,.1-.62,.14-.88,.26,.43-.2,.43,.51,.31-.53-.43-3.73-.28-7.61,.28-11.31,.15-1.01-.25-2-1.31-2.31-.88-.25-2.16,.31-2.31,1.31h0Z"/><path class="g" d="M82.41,38.87c-.02,2.79-.06,5.58-.06,8.37,0,2.23,.52,4.37,2.61,5.52,1.92,1.05,4.17,.85,6.17,.18,2.39-.79,4.48-1.59,7.05-1.27,4.79,.6,9.05,3.55,13.21,5.77,4.49,2.39,9.23,4.51,14.14,5.91,5.46,1.55,11.26,2.1,16.78,.52,2.32-.66,1.33-4.28-1-3.62-8.93,2.55-18.42-1.18-26.34-5.18-4.17-2.1-8.11-4.72-12.56-6.22-2.02-.68-4.2-1.11-6.33-1.01-2.28,.11-4.22,.96-6.37,1.61-.84,.25-1.87,.5-2.73,.14-.92-.39-.89-1.27-.9-2.15-.01-2.86,.04-5.71,.06-8.57,.02-2.41-3.73-2.42-3.75,0h0Z"/><path class="e" d="M56.48,109.18c-2.05,2.1-2.82,5.11-2.14,7.96,.17,.71,.46,1.42,.82,2.05,.12,.22,1.19,1.86,1.38,1.77,.09-.04-.29-1.42,.07-1.33-.12-.03-.6,.39-.7,.45-.61,.38-1.19,.78-1.73,1.26-3.91,3.47-4.83,9.91-1.91,14.27,.75,1.12,2.2,1.61,3.42,.9,1.11-.65,1.65-2.29,.9-3.42-2.05-3.07-.95-6.93,2.12-8.86,1.17-.73,2.24-1.67,2.58-3.06,.22-.91,.06-1.86-.39-2.68-.33-.6-.89-1-1.28-1.54-.88-1.24-.69-3.11,.4-4.22,2.25-2.3-1.28-5.84-3.54-3.54h0Z"/><path class="e" d="M67.74,141.92c-1.41-.86-1.44-2.87,.2-3.57,.83-.35,1.96-.43,2.85-.93,1.35-.75,2.18-2.1,1.98-3.67s-1.33-2.22-2.12-3.38c-.6-.88-.88-1.93-.76-2.97,.21-1.88,1.98-3.1,3.71-3.03,1.35,.06,2.5-1.19,2.5-2.5,0-1.4-1.15-2.44-2.5-2.5-3.58-.16-6.88,2.17-8.17,5.47s-.27,7.1,2.11,9.59c.11,.12,.23,.23,.35,.35,.53,.65,.57,.2,.13-1.34,.53-.46,.61-.58,.24-.34l.14-.06c-.58,.08-1.25,.31-1.81,.49-1.7,.55-3.18,1.76-4.04,3.33-1.83,3.32-.5,7.44,2.67,9.37,2.76,1.67,5.27-2.65,2.52-4.32h0Z"/><path class="g" d="M95.82,188.08c-.11-.05-.23-.08-.35-.1-.27-.05-.56-.1-.84-.09s-.55,.05-.81,.11-.52,.19-.77,.3c-.28,.17-.51,.39-.67,.67-.17,.29-.25,.61-.26,.95l-.29,2.62c0,.26,.04,.5,.16,.72,.08,.23,.2,.43,.39,.6,.17,.18,.37,.31,.6,.39,.22,.12,.46,.17,.72,.16,.48-.02,.99-.18,1.33-.55l.29-.38c.17-.29,.25-.61,.26-.95l.29-2.62-.93,1.62,.04-.02-.45,.19c.14-.06,.29-.09,.44-.12l-.5,.07c.15-.02,.3-.01,.45,0l-.5-.07c.14,.02,.27,.06,.39,.11,.25,.08,.5,.09,.75,.03,.25-.01,.48-.09,.7-.22,.22-.12,.39-.28,.53-.48,.17-.18,.28-.39,.34-.64,.11-.48,.09-1.02-.19-1.44l-.29-.38c-.23-.23-.51-.39-.83-.48h0Z"/><path class="g" d="M85.4,199.29c2.41,0,2.42-3.75,0-3.75s-2.42,3.75,0,3.75h0Z"/><path class="g" d="M95.08,204.11l.04-.46c0-.26-.04-.5-.16-.72-.08-.23-.2-.43-.39-.6-.17-.18-.37-.31-.6-.39-.22-.12-.46-.17-.72-.16l-.5,.07c-.32,.09-.59,.25-.83,.48l-.29,.38c-.17,.29-.25,.61-.26,.95l-.04,.46c0,.26,.04,.5,.16,.72,.08,.23,.2,.43,.39,.6,.17,.18,.37,.31,.6,.39,.22,.12,.46,.17,.72,.16l.5-.07c.32-.09,.59-.25,.83-.48l.29-.38c.17-.29,.25-.61,.26-.95h0Z"/><path class="g" d="M97.66,201.07l.08-.92c0-.26-.04-.5-.16-.72-.08-.23-.2-.43-.39-.6-.17-.18-.37-.31-.6-.39-.22-.12-.46-.17-.72-.16l-.5,.07c-.32,.09-.59,.25-.83,.48l-.29,.38c-.17,.29-.25,.61-.26,.95l-.08,.92c0,.26,.04,.5,.16,.72,.08,.23,.2,.43,.39,.6,.17,.18,.37,.31,.6,.39,.22,.12,.46,.17,.72,.16l.5-.07c.32-.09,.59-.25,.83-.48l.29-.38c.17-.29,.25-.61,.26-.95h0Z"/><path class="g" d="M111.22,192.54c-.05,0-.1,0-.16,0-.21,0-.43,.04-.64,.08-.05,0-.1,.02-.15,.04-.2,.07-.39,.15-.58,.24-.23,.11-.43,.29-.62,.45-.08,.07-.15,.15-.22,.23-.16,.2-.34,.4-.45,.64s-.23,.48-.3,.73-.1,.53-.12,.79,.04,.54,.08,.79c0,.06,.02,.12,.04,.18,.07,.2,.15,.4,.25,.59,.03,.05,.06,.1,.09,.15,.12,.17,.25,.36,.4,.51,.34,.34,.84,.55,1.33,.55,.26,0,.5-.04,.72-.16,.23-.08,.43-.2,.6-.39,.33-.36,.57-.83,.55-1.33s-.19-.97-.55-1.33c-.03-.03-.07-.07-.1-.11l.29,.38c-.05-.07-.09-.14-.13-.22l.19,.45c-.04-.09-.06-.19-.08-.29l.07,.5c-.01-.12-.01-.23,0-.35l-.07,.5c.02-.14,.06-.27,.11-.39l-.19,.45c.05-.13,.12-.24,.21-.35l-.29,.38c.08-.1,.17-.19,.27-.27l-.38,.29c.08-.06,.17-.11,.26-.15l-.45,.19c.09-.03,.18-.06,.27-.07l-.5,.07c.08,0,.16,0,.24,0,.26,0,.5-.04,.72-.16,.23-.08,.43-.2,.6-.39,.18-.17,.31-.37,.39-.6,.12-.22,.17-.46,.16-.72-.02-.48-.18-.99-.55-1.33l-.38-.29c-.29-.17-.61-.25-.95-.26h0Z"/><path class="g" d="M108.87,198.42c-.3-.03-.61,.03-.89,.09s-.56,.19-.81,.33c-.52,.28-.91,.71-1.24,1.19-.16,.24-.27,.53-.37,.79-.11,.28-.13,.58-.17,.88-.07,.59,.12,1.18,.38,1.71,.12,.22,.28,.39,.48,.53,.18,.17,.39,.28,.64,.34,.25,.08,.5,.09,.75,.03,.25-.01,.48-.09,.7-.22,.4-.26,.75-.64,.86-1.12l.07-.5c0-.34-.09-.65-.26-.95-.01-.02-.02-.05-.03-.07l.19,.45c-.04-.11-.07-.21-.09-.33l.07,.5c-.01-.12-.01-.24,0-.36l-.07,.5c.02-.14,.06-.27,.11-.4l-.19,.45c.06-.14,.14-.27,.23-.39l-.29,.38c.09-.12,.2-.23,.32-.32l-.38,.29c.1-.07,.2-.14,.31-.19l-.45,.19c.11-.05,.23-.08,.35-.1l-.5,.07c.1-.01,.19-.01,.29,0,.26,0,.5-.04,.72-.16,.23-.08,.43-.2,.6-.39,.18-.17,.31-.37,.39-.6,.12-.22,.17-.46,.16-.72-.02-.48-.18-.99-.55-1.33l-.38-.29c-.29-.17-.61-.25-.95-.26h0Z"/><path class="g" d="M112.03,212.95l.5-.42c.18-.17,.31-.37,.39-.6,.12-.22,.17-.46,.16-.72,0-.26-.04-.5-.16-.72-.08-.23-.2-.43-.39-.6l-.38-.29c-.29-.17-.61-.25-.95-.26l-.5,.07c-.32,.09-.59,.25-.83,.48l-.5,.42c-.18,.17-.31,.37-.39,.6-.12,.22-.17,.46-.16,.72,0,.26,.04,.5,.16,.72,.08,.23,.2,.43,.39,.6l.38,.29c.29,.17,.61,.25,.95,.26l.5-.07c.32-.09,.59-.25,.83-.48h0Z"/><path class="g" d="M112.44,209.46c2.41,0,2.42-3.75,0-3.75s-2.42,3.75,0,3.75h0Z"/><path class="e" d="M145.39,34.81c23.35,13.08,37.37,37.52,42.41,63.25,2.74,13.97,3.39,28.73-.3,42.59-3.47,13.05-10.47,25.56-20.74,34.46-11.04,9.56-25.28,14.34-38.88,18.96-3.03,1.03-1.73,5.86,1.33,4.82,12.94-4.39,26.3-8.93,37.34-17.24,11.48-8.64,19.61-21.04,24.22-34.57,4.96-14.54,5.05-30,2.77-45.05-2.16-14.24-6.78-28.25-14.25-40.61-7.68-12.7-18.39-23.65-31.38-30.93-2.81-1.57-5.33,2.74-2.52,4.32h0Z"/><path class="l" d="M66.47,85.01l1.18-.82-3.67-1.49c.2,1.02,.95,1.91,1.81,2.45s2,.7,3,.44,1.88-.97,2.37-1.86c.63-1.14,.79-2.68-.04-3.75-.67-.87-1.64-1.27-2.72-1.37-.77-.07-1.53,.17-2.21,.5s-1.23,.9-1.64,1.52c-.2,.3-.35,.67-.44,1.02-.13,.54-.14,.95-.07,1.48,.22,1.67,1.52,3.01,3.14,3.44,.74,.2,1.62,.22,2.36,0,.98-.3,1.74-.91,2.31-1.75,.45-.67,.62-1.45,.69-2.25,.07-.83-.18-1.64-.53-2.38-.67-1.45-2.24-2.34-3.81-2.36-1.31-.02-2.78,.59-3.62,1.6-.57,.69-.94,1.41-1.06,2.3s.03,1.7,.46,2.46c.74,1.3,2.13,1.93,3.57,2.06,.16,.01,.31,.01,.47,0,.36-.03,.74-.06,1.09-.18,.65-.22,1.3-.55,1.76-1.08,.64-.73,1.02-1.62,1.01-2.61-.01-1.06-.44-1.96-1.1-2.77-.54-.67-1.33-1.11-2.13-1.39s-1.71-.26-2.55-.09c-1.57,.32-2.81,1.49-3.7,2.76-.65,.93-1.04,2.09-.7,3.22,.32,1.05,1.14,1.76,2.1,2.2,.43,.2,.87,.39,1.31,.56,.51,.19,1.01,.26,1.55,.32,.89,.1,1.87-.1,2.64-.58,.89-.56,1.52-1.35,1.87-2.34,.07-.2,.09-.39,.12-.6s.07-.4,.05-.6c-.03-.61-.18-1.23-.52-1.75-1.08-1.69-3.21-2.18-5.06-1.63-1.49,.44-2.73,1.43-3.58,2.72-.35,.54-.62,1.19-.76,1.82s-.09,1.34,.25,1.93c.3,.52,.9,1.01,1.49,1.15,.64,.15,1.36,.11,1.93-.25,.53-.34,1.01-.86,1.15-1.49,.05-.23,.12-.45,.21-.67l-.25,.6c.13-.29,.29-.56,.48-.81l-.39,.51c.21-.27,.45-.51,.72-.72l-.51,.39c.25-.19,.52-.35,.81-.47l-.6,.25c.29-.12,.59-.2,.9-.25l-.66,.09c.2-.02,.41-.02,.61,0l-.66-.09c.18,.02,.34,.07,.51,.13l-.6-.25c.11,.05,.22,.11,.32,.18l-.51-.39c.08,.06,.14,.12,.21,.2l-.39-.51c.06,.08,.11,.16,.15,.25l-.25-.6c.04,.09,.06,.17,.08,.26l-.09-.66c.01,.11,.01,.22,0,.34l.09-.66c-.02,.11-.05,.22-.1,.33l.25-.6c-.06,.13-.14,.25-.22,.37l.39-.51c-.1,.11-.2,.22-.32,.31l.51-.39c-.12,.09-.24,.16-.38,.23l.6-.25c-.15,.06-.29,.1-.45,.12l.66-.09c-.24,.03-.46,.02-.7,0l.66,.09c-.41-.06-.79-.19-1.17-.35l.6,.25c-.38-.16-.78-.32-1.11-.56l.51,.39c-.06-.05-.11-.1-.16-.15l.39,.51c-.04-.06-.08-.11-.11-.18l.25,.6c-.02-.05-.03-.11-.04-.16l.09,.66c0-.06,0-.12,0-.18l-.09,.66c.02-.1,.05-.18,.08-.27l-.25,.6c.14-.31,.34-.6,.55-.88l-.39,.51c.24-.31,.51-.58,.82-.82l-.51,.39c.22-.16,.45-.3,.7-.41l-.6,.25c.23-.09,.46-.16,.7-.2l-.66,.09c.21-.03,.41-.03,.62,0l-.66-.09c.18,.03,.35,.08,.51,.14l-.6-.25c.19,.08,.36,.18,.53,.3l-.51-.39c.16,.12,.3,.26,.43,.42l-.39-.51c.1,.14,.19,.28,.25,.44l-.25-.6c.05,.14,.09,.27,.11,.42l-.09-.66c.01,.12,0,.24,0,.36l.09-.66c-.02,.11-.05,.22-.09,.32l.25-.6c-.04,.09-.09,.18-.15,.26l.39-.51c-.07,.09-.15,.17-.24,.24l.51-.39c-.11,.08-.22,.14-.34,.2l.6-.25c-.16,.06-.32,.11-.49,.13l.66-.09c-.19,.02-.38,.02-.58,0l.66,.09c-.19-.03-.38-.07-.56-.14l.6,.25c-.16-.07-.31-.15-.44-.25l.51,.39c-.09-.07-.17-.16-.25-.25l.39,.51c-.07-.09-.13-.19-.18-.3l.25,.6c-.05-.12-.08-.24-.1-.36l.09,.66c-.01-.12-.01-.24,0-.37l-.09,.66c.02-.16,.06-.31,.13-.46l-.25,.6c.06-.13,.13-.24,.21-.36l-.39,.51c.11-.15,.24-.27,.38-.39l-.51,.39c.18-.14,.38-.26,.59-.35l-.6,.25c.2-.08,.39-.13,.6-.16l-.66,.09c.19-.02,.37-.02,.55,0l-.66-.09c.16,.02,.32,.07,.47,.13l-.6-.25c.14,.06,.26,.14,.38,.23l-.51-.39c.12,.1,.23,.21,.33,.34l-.39-.51c.11,.15,.19,.3,.26,.47l-.25-.6c.07,.19,.12,.38,.15,.59l-.09-.66c.02,.2,.02,.4,0,.6l.09-.66c-.03,.18-.07,.34-.14,.51l.25-.6c-.06,.14-.14,.27-.23,.4l.39-.51c-.08,.1-.17,.2-.28,.28l.51-.39c-.12,.09-.24,.17-.38,.23l.6-.25c-.12,.04-.24,.08-.36,.1l.66-.09c-.17,.02-.33,.02-.5,0l.66,.09c-.19-.03-.37-.08-.55-.15l.6,.25c-.16-.07-.3-.15-.44-.25l.51,.39c-.13-.1-.25-.22-.35-.35l.39,.51c-.07-.1-.13-.2-.18-.32l.25,.6c-.05-.12-.08-.23-.1-.36l.09,.66c-.01-.12-.01-.24,0-.37l-.09,.66c.02-.12,.05-.23,.1-.33l-.25,.6c.05-.11,.11-.2,.18-.3l-.39,.51c.09-.11,.18-.21,.29-.29l-.51,.39c.14-.11,.3-.2,.47-.27l-.6,.25c.15-.06,.3-.1,.46-.12l-.66,.09c.14-.02,.27-.02,.4,0l-.66-.09c.11,.02,.22,.05,.33,.09l-.6-.25c.09,.04,.17,.09,.25,.14l-.51-.39c.06,.05,.12,.1,.18,.16l-.64-1.1s.02,.09,.02,.14l-.09-.66c0,.1,0,.19,0,.29l.09-.66c-.02,.15-.06,.28-.11,.42l.25-.6c-.05,.11-.11,.21-.18,.31l.39-.51c-.09,.12-.19,.22-.31,.31l.51-.39c-.08,.06-.16,.1-.25,.15l.6-.25c-.11,.05-.23,.08-.35,.1l.66-.09c-.13,.01-.25,.01-.37,0l.66,.09c-.12-.02-.24-.06-.36-.11l.6,.25c-.11-.05-.22-.12-.32-.19l.51,.39c-.1-.08-.19-.16-.27-.26l.39,.51c-.08-.1-.14-.2-.19-.32l.25,.6c-.04-.09-.06-.19-.08-.29-.29-1.51-2.41-2.37-3.67-1.49l-1.18,.82c-.54,.38-.97,.84-1.15,1.49-.16,.6-.09,1.4,.25,1.93s.86,1,1.49,1.15,1.38,.13,1.93-.25h0Z"/><path class="l" d="M68.39,87.13c.95,.03,1.87-.3,2.62-.87,.43-.34,.7-.63,1.03-1.09,.25-.35,.4-.73,.57-1.14,.56-1.4,.4-3.1-.32-4.41-.89-1.61-2.83-2.53-4.63-2.45s-3.5,.85-4.7,2.15c-.66,.72-1.11,1.47-1.42,2.39-.14,.43-.19,.89-.25,1.34-.03,.27-.05,.55-.03,.83,.07,.91,.26,1.8,.74,2.59,.58,.93,1.41,1.58,2.44,1.94,2.15,.74,4.38-.54,5.86-2.03,.78-.79,1.38-1.7,1.75-2.75,.4-1.16,.26-2.53-.35-3.59-1.09-1.92-3.74-2.73-5.77-1.92-.72,.29-1.25,.6-1.85,1.13-.41,.37-.76,.83-1.06,1.29-.5,.79-.84,1.73-1.03,2.65-.13,.66-.1,1.33,.25,1.93,.3,.52,.9,1.01,1.49,1.15,.64,.15,1.36,.11,1.93-.25,.53-.34,1.02-.86,1.15-1.49,.09-.46,.23-.92,.41-1.35l-.25,.6c.15-.35,.34-.68,.57-.98l-.39,.51c.2-.25,.41-.47,.67-.67l-.51,.39c.17-.13,.35-.23,.54-.32l-.6,.25c.22-.09,.45-.15,.69-.19l-.66,.09c.24-.03,.48-.03,.72,0l-.66-.09c.21,.03,.41,.09,.61,.17l-.6-.25c.17,.07,.33,.16,.47,.28l-.51-.39c.13,.1,.23,.21,.33,.34l-.39-.51c.08,.11,.15,.23,.21,.36l-.25-.6c.05,.14,.09,.28,.12,.43l-.09-.66c.02,.18,.02,.35,0,.52l.09-.66c-.03,.24-.1,.47-.19,.69l.25-.6c-.14,.32-.32,.61-.53,.9l.39-.51c-.36,.46-.77,.86-1.23,1.22l.51-.39c-.34,.26-.69,.49-1.08,.66l.6-.25c-.21,.08-.41,.14-.63,.18l.66-.09c-.19,.02-.37,.03-.56,.01l.66,.09c-.17-.02-.33-.06-.5-.13l.6,.25c-.15-.07-.29-.15-.43-.25l.51,.39c-.13-.1-.24-.22-.34-.34l.39,.51c-.13-.17-.22-.35-.31-.54l.25,.6c-.1-.25-.16-.5-.2-.76l.09,.66c-.04-.34-.04-.68,0-1.03l-.09,.66c.05-.32,.13-.63,.26-.93l-.25,.6c.12-.29,.28-.55,.47-.79l-.39,.51c.23-.29,.49-.54,.78-.76l-.51,.39c.32-.24,.65-.43,1.02-.58l-.6,.25c.33-.13,.68-.23,1.04-.28l-.66,.09c.3-.04,.59-.04,.89,0l-.66-.09c.25,.04,.48,.1,.71,.19l-.6-.25c.23,.1,.44,.22,.64,.37l-.51-.39c.12,.1,.24,.21,.34,.34l-.39-.51c.12,.16,.22,.32,.3,.51l-.25-.6c.09,.22,.15,.45,.18,.69l-.09-.66c.03,.26,.03,.52,0,.78l.09-.66c-.04,.28-.11,.54-.22,.8l.25-.6c-.09,.19-.19,.38-.31,.54l.39-.51c-.11,.15-.24,.28-.39,.39l.51-.39c-.12,.09-.24,.16-.38,.22l.6-.25c-.14,.05-.28,.09-.43,.11l.66-.09c-.1,0-.2,.01-.3,0-1.31-.04-2.56,1.18-2.5,2.5,.06,1.39,1.1,2.45,2.5,2.5h0Z"/><path class="l" d="M50.81,54.71c1.23-3.8,4.3-6.6,7.3-9.08,3.83-3.17,7.78-6.2,11.68-9.29,.85-.68,.9-2.15,.39-3.03-.58-.99-1.73-1.38-2.82-1.15-2.09,.45-3.9,1.45-5.51,2.84l4.27,1.77c-.63-6.21,.12-12.34,2.24-18.2l-4.82-1.33c-1.75,6.07-2.59,13.71,2.85,18.25l1.77-4.27c-9.07,.87-15.63,7.4-21.43,13.84l4.18,1.1c-.2-.75,.45-1.51,.95-2.14,.89-1.12,1.9-2.14,2.66-3.36,1.67-2.69,2.07-5.92,1.45-8.99-.46-2.32-3.42-2.17-4.57-.6-3.15,4.31-5.63,9-7.53,13.99-.44,1.15,.39,2.52,1.45,2.95,1.23,.5,2.36,0,3.12-1.02,2.84-3.84,4.99-8.1,6.5-12.63l-4.57,.6c1.23,2.68,3.88,4.7,6.8,5.14s4.34-2.87,1.93-4.57c-1.52-1.07-2.7-2.89-2.94-4.76-.32-2.5-3.11-3.35-4.66-1.26-3.27,4.43-5.83,9.28-7.76,14.43-.47,1.26,.53,2.74,1.75,3.08,1.4,.39,2.6-.48,3.08-1.75,1.77-4.74,4.26-9.17,7.26-13.24l-4.66-1.26c.49,3.77,2.29,6.88,5.42,9.07l1.93-4.57c-1.81-.27-3.05-1.18-3.81-2.84-.96-2.1-3.95-1.26-4.57,.6-1.37,4.12-3.42,7.94-6,11.43l4.57,1.93c1.74-4.57,4.14-8.85,7.02-12.8l-4.57-.6c.52,2.62-.55,4.81-2.21,6.75-1.9,2.23-3.69,4.65-2.86,7.74,.47,1.75,2.9,2.52,4.18,1.1,4.73-5.25,10.39-11.65,17.89-12.37,1.01-.1,1.89-.55,2.28-1.54,.35-.86,.25-2.09-.52-2.73-4.03-3.36-2.84-8.98-1.57-13.39,.9-3.13-3.74-4.32-4.82-1.33-2.25,6.23-3.09,12.95-2.42,19.53,.22,2.19,2.55,3.25,4.27,1.77,.96-.83,2.07-1.29,3.3-1.55l-2.43-4.18c-4.1,3.25-8.29,6.42-12.29,9.8-3.48,2.94-6.55,6.37-7.97,10.78-.99,3.07,3.83,4.38,4.82,1.33h0Z"/><path class="l" d="M9.23,104.15c.84,.95,1.86,1.53,3.05,1.94l.66-4.91h-.33l1.26,.33c-.22-.1-.51-.58-.71-.81-.37-.43-.79-.76-1.3-1.02-1.23-.62-2.72-.43-3.66,.6-.88,.96-1.07,2.47-.43,3.61,.68,1.24,1.9,1.55,3.22,1.34,1.39-.23,2-1.87,1.75-3.08-.31-1.47-1.5-2.67-2.97-2.97-3.13-.65-4.45,3.91-1.33,4.82,1.99,.58,4.15,1.16,5.12,3.15,.61,1.26,1.42,2.15,2.74,2.68,.99,.4,1.6,.35,1.8,1.47,.5,2.74,5.27,2.14,4.91-.66-.27-2.12-1.26-3.37-2.54-5.01-.19-.24-.39-.48-.51-.76,.13,.3-.07-.45,0-.08,0-.03-.03-.43,.02-.42-.05-.01-.63,.56-.9,.57,2.88-.08,3.32-4,.66-4.91-.65-.22-1.28-.54-1.82-.97l-1.1,4.18c2.95-.79,5.79-2,8.4-3.59,1.35-.82,1.69-2.79,.51-3.93l-1.21-1.16v3.54c1.6-1.69,3.15-3.42,4.64-5.2,.8-.95,1.01-2.26,.2-3.28-.71-.89-2.2-1.39-3.23-.64-1.76,1.29-3.41,2.84-3.33,5.2,.09,2.68,2.43,4.26,4.97,3.9,2.31-.33,4.63-1.22,6.85-1.96,2.36-.79,4.68-1.66,6.98-2.6,1.25-.51,2.13-1.66,1.75-3.08-.32-1.18-1.82-2.26-3.08-1.75-2.89,1.18-5.83,2.25-8.81,3.19-.69,.22-1.38,.43-2.07,.63-.27,.08-2.17,.44-2.23,.62-.03,.09,.24,.34,.47,.5-.11-.08,.24,.32,.19,.32,.14,.02,.69-.56,.83-.66l-3.03-3.93c-1.5,1.78-3.04,3.51-4.64,5.2-.91,.96-1,2.58,0,3.54l1.21,1.16,.51-3.93c-2.27,1.38-4.64,2.4-7.2,3.09-1.68,.45-2.6,2.96-1.1,4.18,1.24,1.01,2.5,1.74,4.03,2.26l.66-4.91c-2.69,.07-4.27,2.44-4.11,4.99,.08,1.23,.5,2.31,1.23,3.3,.42,.57,1.72,1.67,1.81,2.41l4.91-.66c-.29-1.63-1.35-3.13-2.78-3.96-.54-.32-1.47-.39-1.93-.75-.25-.2-.45-.9-.65-1.24-1.66-2.79-4.83-3.97-7.79-4.84l-1.33,4.82c-.19-.16-.36-.33-.52-.52l1.75-3.08-.18,.03,1.93,.25-.13-.07,.9,.9,.21,1.2-.64,1.1,.12-.15-1.1,.64-.16,.03-1.26-.34c.35,.16,.72,.88,1.07,1.2,.72,.66,1.55,.95,2.52,.99,2.93,.12,3.24-4.04,.66-4.91-.4-.13-.57-.35-.84-.65-.89-1.01-2.62-.91-3.54,0-1.01,1.01-.9,2.52,0,3.54h0Z"/><path class="l" d="M27.94,92.2c1.79-4.33,4.64-8.16,8.11-11.28l-3.54-3.54c-2.12,1.92-3.27,4.53-4.22,7.18-.79,2.2-1.42,4.63-2.86,6.44s-3.56,2.79-5.51,4.12c-2.27,1.55-4.2,3.38-5.03,6.07-.95,3.08,3.88,4.4,4.82,1.33,.26-.86,.68-1.39,1.43-2.08s1.58-1.2,2.54-1.81c2.12-1.35,4.23-2.69,5.77-4.71s2.47-4.64,3.34-7.12c.76-2.19,1.53-4.31,3.25-5.88,2.39-2.17-1.15-5.68-3.54-3.54-4.15,3.74-7.26,8.34-9.39,13.49-.52,1.25,.56,2.75,1.75,3.08,1.44,.39,2.56-.49,3.08-1.75h0Z"/><path class="l" d="M14.91,99.21l-4.47,.51c-.34-.01-.67,.06-.96,.22-.31,.1-.58,.27-.8,.52-.43,.43-.76,1.15-.73,1.77s.24,1.32,.73,1.77c.46,.42,1.12,.81,1.77,.73l4.47-.51c.34,.01,.67-.06,.96-.22,.31-.1,.58-.27,.8-.52,.43-.43,.76-1.15,.73-1.77s-.24-1.32-.73-1.77c-.46-.42-1.12-.81-1.77-.73h0Z"/><path class="l" d="M12.77,116.77c-1.79,1.79-4.11,2.99-5.49,5.19-1.27,2.03-1.63,4.88-.36,6.99,1.43,2.36,5.03,3.26,6.63,.55,.66-1.12,.71-2.44,.51-3.69-.05-.29-.24-1.02-.24-1.05-.02-.15,.06-.47,0-.6,.26,.53-2.71,.93-1.24,.97l-1.77-4.27c-2.11,2.27-1.62,5.63,.87,7.37,1.13,.79,2.75,.18,3.42-.9,1.26-2.02,1.88-4.36,1.75-6.74-.07-1.35-1.1-2.5-2.5-2.5-1.49,0-2.34,1.15-2.5,2.5-.19,1.56,.23,3.15,1.07,4.46,.72,1.13,2.22,1.61,3.42,.9,3.67-2.2,7.14-4.73,10.38-7.53,1.96-1.69-.14-4.78-2.43-4.18l-5.96,1.55,1.93,4.57c7.67-4.06,15.16-8.46,22.45-13.18,2.27-1.47,.88-5.53-1.93-4.57-5.77,1.97-11.01,5.1-15.44,9.29-2.35,2.21,1.19,5.74,3.54,3.54,3.79-3.58,8.3-6.32,13.24-8l-1.93-4.57c-7.29,4.72-14.78,9.11-22.45,13.18-2.54,1.35-.78,5.28,1.93,4.57l5.96-1.55-2.43-4.18c-2.92,2.53-6.05,4.76-9.36,6.75l3.42,.9c-.43-.67-.48-1.16-.38-1.94h-5c.08,1.56-.24,2.89-1.07,4.22l3.42-.9c.18,.13,.35,.26,.14,.49,1.49-1.6,.43-4.2-1.77-4.27-2.31-.07-3.65,1.91-3.76,4.03-.04,.82,.17,1.59,.32,2.39,.06,.31-.06,.23,.04,.52,.05-.18,.04-.13-.04,.16,.72-.93,1.42-1.21,2.08-.85-.06,.17-.06-.4-.08-.15-.02,.29,.03-.84-.01-.55,.08-.57,.35-1.07,.7-1.52,1.22-1.52,3.09-2.48,4.47-3.86,2.28-2.28-1.26-5.82-3.54-3.54h0Z"/><path class="l" d="M22.7,142.27l4.42-9.77c1.14-2.52,2.11-5.98,4.4-7.72s5.17-2.26,7.53-3.77c2.59-1.65,4.7-3.99,6.05-6.75,.59-1.21,.33-2.7-.9-3.42-1.1-.64-2.82-.32-3.42,.9-1.24,2.52-3.1,4.45-5.61,5.72s-5.38,2.09-7.56,4.1c-2.39,2.2-3.51,5.54-4.81,8.42l-4.42,9.77c-.56,1.23-.35,2.69,.9,3.42,1.07,.63,2.86,.34,3.42-.9h0Z"/><path class="l" d="M23.2,101.78c4.68-1.18,8.85-4.57,10.8-9.02,1.15-2.63,1.34-5.37,1.94-8.14,.38-1.77,1.16-4.08,2.93-4.68,1.28-.44,2.12-1.72,1.75-3.08-.34-1.24-1.79-2.18-3.08-1.75-2.48,.85-4.33,2.7-5.39,5.07-1.2,2.66-1.3,5.52-1.96,8.32-.98,4.16-4.17,7.41-8.32,8.45-3.12,.79-1.8,5.61,1.33,4.82h0Z"/><path class="l" d="M62.82,82.85c.09,.72,.19,1.34,.58,1.98s.87,1.09,1.48,1.5c.83,.55,1.95,.85,2.94,.76,1.42-.13,2.7-.79,3.45-2.05,.63-1.07,.76-2.49,.33-3.65s-1.15-2.19-2.25-2.76c-1.28-.66-2.83-.7-4.09,.05-2.06,1.24-2.88,4.13-1.72,6.25,.68,1.24,1.98,2.03,3.38,2.08,1.22,.04,2.46-.53,3.31-1.4s1.46-2.13,1.33-3.35c-.18-1.68-1.15-2.92-2.72-3.51-1.17-.44-2.53-.24-3.63,.32-1.28,.66-2.06,1.95-2.16,3.36-.21,2.84,3.01,5.38,5.71,4.34,1.1-.42,2.08-1.22,2.4-2.41,.25-.92,.12-1.93-.38-2.74-.94-1.5-2.74-2.3-4.47-1.92-1.43,.32-2.57,1.48-3.26,2.71-.49,.88-.78,1.85-1.4,2.65l.39-.51c-.17,.2-.34,.39-.55,.55l.51-.39c-.15,.11-.3,.2-.47,.28l.6-.25c-.13,.05-.26,.09-.39,.12l.66-.09c-.13,.01-.25,.01-.37,0l.66,.09c-.13-.02-.24-.05-.36-.1l.6,.25c-.15-.06-.28-.14-.41-.23l.51,.39c-.12-.1-.23-.2-.33-.32l.39,.51c-.07-.1-.13-.19-.18-.3l.25,.6c-.04-.11-.07-.21-.08-.32l.09,.66c0-.05,0-.11,0-.16l-.09,.66c.01-.09,.03-.16,.06-.24l-.25,.6c.04-.08,.08-.15,.14-.23,.36-.49,.41-1.37,.25-1.93s-.61-1.21-1.15-1.49c-.58-.31-1.28-.46-1.93-.25s-1.08,.6-1.49,1.15c-1.01,1.35-.51,3.34,.61,4.45,1.06,1.03,2.73,1.57,4.15,1.01,1.34-.52,2.33-1.49,3.01-2.75,.44-.82,.72-1.7,1.28-2.46l-.39,.51c.16-.21,.33-.39,.53-.56l-.51,.39c.18-.14,.36-.25,.57-.34l-.6,.25c.13-.05,.25-.08,.39-.1l-.66,.09c.1,0,.19,0,.29,0l-.66-.09c.16,.02,.32,.06,.47,.12l-.6-.25c.15,.07,.29,.15,.42,.25l-.51-.39c.1,.08,.19,.17,.27,.26l-.39-.51c.07,.1,.14,.19,.19,.3l-.25-.6c.03,.08,.06,.16,.08,.24l-.09-.66c.01,.09,.01,.16,0,.25l.09-.66c-.01,.09-.03,.16-.07,.25l.25-.6c-.03,.06-.06,.11-.09,.16l.39-.51c-.07,.09-.14,.17-.24,.24l.51-.39c-.1,.07-.19,.12-.29,.18l.6-.25c-.13,.05-.25,.09-.38,.12l.66-.09c-.17,.02-.32,.02-.49,0l.66,.09c-.17-.03-.32-.08-.47-.14l.6,.25c-.15-.07-.3-.16-.43-.26l.51,.39c-.13-.11-.25-.22-.36-.35l.39,.51c-.12-.16-.22-.33-.3-.52l.25,.6c-.05-.13-.08-.25-.1-.38l.09,.66c-.01-.13-.01-.26,0-.39l-.09,.66c.02-.13,.05-.25,.1-.37l-.25,.6c.06-.13,.13-.25,.22-.37l-.39,.51c.08-.09,.15-.17,.24-.24l-.51,.39c.14-.11,.28-.19,.44-.27l-.6,.25c.19-.08,.39-.13,.59-.16l-.66,.09c.18-.02,.35-.02,.53,0l-.66-.09c.17,.03,.34,.07,.5,.13l-.6-.25c.13,.06,.25,.13,.37,.22l-.51-.39c.09,.08,.17,.16,.24,.25l-.39-.51c.07,.1,.13,.2,.18,.31l-.25-.6c.04,.11,.07,.22,.1,.33l-.09-.66c.02,.14,.02,.28,0,.42l.09-.66c-.03,.17-.08,.34-.14,.5l.25-.6c-.08,.16-.17,.31-.28,.46l.39-.51c-.14,.17-.28,.31-.45,.45l.51-.39c-.15,.11-.3,.2-.46,.27l.6-.25c-.16,.07-.33,.11-.5,.14l.66-.09c-.15,.01-.28,.01-.43,0l.66,.09c-.12-.02-.23-.05-.34-.1l.6,.25c-.11-.05-.21-.11-.3-.18l.51,.39c-.11-.08-.2-.18-.29-.28l.39,.51c-.08-.11-.14-.22-.2-.34l.25,.6c-.07-.18-.12-.35-.14-.54l.09,.66c-.02-.19-.02-.38,0-.58l-.09,.66c.03-.22,.09-.44,.17-.65l-.25,.6c.08-.18,.17-.34,.29-.5l-.39,.51c.1-.13,.21-.24,.34-.35l-.51,.39c.13-.1,.26-.18,.41-.25l-.6,.25c.13-.05,.26-.08,.4-.11l-.66,.09c.15-.02,.3-.01,.45,0l-.66-.09c.15,.03,.29,.07,.42,.12l-.6-.25c.14,.06,.26,.14,.38,.22l-.51-.39c.17,.13,.31,.28,.45,.44l-.39-.51c.13,.17,.23,.35,.32,.55l-.25-.6c.08,.2,.14,.4,.17,.61l-.09-.66c.02,.18,.02,.35,0,.53l.09-.66c-.03,.18-.07,.34-.14,.51l.25-.6c-.05,.11-.11,.21-.18,.31l.39-.51c-.09,.12-.19,.22-.31,.31l.51-.39c-.11,.08-.23,.15-.36,.21l.6-.25c-.16,.06-.31,.11-.48,.14l.66-.09c-.23,.03-.45,.03-.68,0l.66,.09c-.2-.03-.39-.09-.58-.16l.6,.25c-.19-.08-.36-.18-.52-.29l.51,.39c-.16-.12-.29-.26-.42-.41l.39,.51c-.08-.11-.15-.23-.21-.36l.25,.6c-.05-.13-.09-.27-.12-.41l.09,.66v-.09c-.09-.69-.23-1.26-.74-1.77-.43-.43-1.15-.76-1.77-.73s-1.32,.24-1.77,.73c-.42,.45-.81,1.13-.73,1.77h0Z"/><path class="l" d="M205.17,113.49c-4.25,0-6.34,4.14-7.06,7.79-.96,4.89-1.77,9.83-2.53,14.76-1.47,9.47-1.93,19.72,3.45,28.14l3.93-3.03c-9.52-12.06-6.25-28.83-1.61-42.11,1.25-3.57,3.97-8.49-.06-11.3-1.11-.77-2.78-.2-3.42,.9-.73,1.25-.21,2.65,.9,3.42-.53-.37-.22-.5-.35,.23-.15,.88-.56,1.74-.87,2.58-.67,1.82-1.32,3.65-1.92,5.49-1.25,3.82-2.3,7.71-2.97,11.68-1.22,7.23-1.23,14.74,1,21.79,1.26,3.97,3.18,7.59,5.76,10.86,1.76,2.23,5.44-.66,3.93-3.03-4.44-6.93-4.25-15.47-3.1-23.33,.64-4.34,1.45-8.66,2.2-12.99,.3-1.73,.47-3.6,1.18-5.23,.21-.48,.49-.97,.78-1.28,.32-.34,.31-.34,.75-.34,3.22,0,3.22-5,0-5h0Z"/><path class="l" d="M189.73,150.96c-1.5,5.37-4.15,10.33-7.82,14.52-.96,1.1-1.96,2.23-2.35,3.67-.44,1.6-.04,3.2,.66,4.65,1.44,2.98,3.33,5.81,4.99,8.68s5.94,.27,4.32-2.52c-1.53-2.64-3.13-5.26-4.6-7.94-.54-.99-.75-1.43-.05-2.35,.81-1.06,1.75-2.02,2.56-3.07,3.27-4.26,5.68-9.13,7.12-14.3,.86-3.1-3.96-4.43-4.82-1.33h0Z"/><path class="l" d="M125.86,204.6c.66-.7,1.15-.05,.5-.31-.24-.1-.55-.14-.8-.19-.74-.14-1.39-.19-2.13,.02-1.42,.4-2.71,1.62-2.87,3.13-.19,1.78,1.18,3.38,3.01,3.31,1.67-.07,2.83-1.25,3.38-2.74,.34-.91,.29-1.96,.66-2.85,.05-.13,.23-.38,.51-.59,.22-.17,.73-.42,1.08-.56,2.33-.92,5.01-1.02,7.44-1.53,11.04-2.32,21.63-7.16,30.65-13.92,5.15-3.86,9.83-8.27,13.88-13.28l-3.93-3.03c-2.13,3.15-4.75,5.96-7.72,8.33-2.7,2.15-5.74,3.86-7.83,6.67s-2.52,6.7-.75,9.9,5.12,5.1,8.68,5.5c2.86,.32,3.3-4.17,.66-4.91-6.43-1.82-13-3.04-19.65-3.71-2.4-.24-3.51,3.69-1.26,4.66,9.69,4.17,20.25,5.93,30.76,4.8,1.34-.14,2.5-1.05,2.5-2.5,0-1.24-1.15-2.64-2.5-2.5-9.58,1.02-19.37-.3-28.24-4.12l-1.26,4.66c6.2,.63,12.32,1.83,18.32,3.53l.66-4.91c-2.09-.23-4.24-1.94-4.75-4-.59-2.36,1.35-4.27,3-5.65,2.32-1.94,4.9-3.52,7.15-5.57,2.49-2.28,4.66-4.88,6.54-7.66,1.57-2.32-2.13-5.25-3.93-3.03-5.83,7.2-12.93,13.24-20.98,17.82s-16.74,7.33-25.88,8.91c-2.28,.39-4.72,1.09-6.41,2.77-.84,.83-1.41,1.89-1.69,3.03-.12,.48-.17,.97-.27,1.46-.03,.16-.22,.57-.18,.7-.11-.37,1.8-.69,1.1-.68l1.26,.34-.18-.14,.9,.9-.1-.16,.34,1.26c.02,.17-.4,.99-.55,1.09-.04,.02-.6,.11-.6,.1-.01,.07,1.57,.3,1.62,.31,1.27,.15,2.49-.18,3.39-1.13,2.2-2.34-1.32-5.88-3.54-3.54h0Z"/><path class="l" d="M154.99,194.69c.28,.35,.66,.63,1.03,.87,.1,.07,.21,.12,.32,.17,.3,.13,.61,.28,.93,.37s.66,.12,.99,.15c.12,.01,.24,.02,.37,.02,.34-.01,.68-.06,1.01-.13,.13-.02,.25-.06,.37-.11,.33-.08,.61-.23,.85-.45,.27-.18,.49-.41,.64-.7,.18-.29,.28-.6,.3-.93,.07-.33,.06-.66-.04-1l-.25-.6c-.22-.38-.52-.67-.9-.9l-.6-.25c-.44-.12-.89-.12-1.33,0-.16,.06-.33,.1-.5,.13l.66-.09c-.2,.02-.39,.02-.59,0l.66,.09c-.21-.03-.41-.08-.6-.16l.6,.25c-.19-.08-.37-.18-.54-.31l.51,.39c-.13-.11-.26-.23-.36-.36-.23-.24-.49-.42-.8-.52-.3-.16-.62-.23-.96-.22-.34-.01-.67,.06-.96,.22-.31,.1-.58,.27-.8,.52-.44,.48-.76,1.1-.73,1.77l.09,.66c.12,.42,.33,.79,.64,1.1h0Z"/><path class="l" d="M202.33,167.53c3.22,0,3.22-5,0-5s-3.22,5,0,5h0Z"/><path class="l" d="M220.09,157.66c2.61-2.95,3.15-7.66,.76-10.93-.74-1.02-1.9-1.54-3.12-1.02-1.11,.47-1.81,1.75-1.45,2.95,.22,.73,.38,1.46,.57,2.2,.07,.29-.02-.41,.01,.08,.01,.18,.02,.35,.02,.53,0,.13,.05,.41-.02,.53,.05-.32,.06-.4,.03-.22-.01,.08-.03,.15-.05,.23-.03,.13-.08,.25-.11,.37-.07,.28,.26-.47,.04-.09-.07,.11-.12,.23-.19,.34-.23,.37-.08,0,.07-.07-.03,.01-.31,.3-.32,.33,.05-.14,.46-.31,.08-.08-.36,.22-.03-.1,.13-.02-.06-.03-.38,.1-.44,.12l2.43,4.18c4.09-3.52,4.2-10.21,.67-14.12-.88-.97-2.65-.96-3.54,0-.95,1.04-.94,2.5,0,3.54,.08,.09,.15,.19,.24,.28,.2,.2-.35-.52-.08-.1,.12,.18,.24,.36,.35,.55,.1,.18,.16,.43,.29,.58-.11-.13-.19-.52-.06-.13,.03,.09,.06,.18,.09,.27,.07,.23,.13,.46,.19,.7,.02,.09,.04,.19,.06,.29,.08,.43-.05,0-.02-.16-.03,.19,.04,.45,.04,.65,0,.24,0,.49-.01,.73,0,.1-.02,.19-.02,.29,0,.31,.11-.6,.02-.16-.04,.21-.08,.43-.13,.64s-.11,.42-.18,.63c-.04,.11-.09,.23-.12,.34-.08,.29,.25-.52,.05-.13-.1,.19-.19,.39-.3,.57-.08,.14-.32,.38-.36,.54,.23-.29,.29-.37,.17-.22-.03,.04-.06,.07-.09,.11-.08,.09-.16,.18-.24,.27-.17,.18-.35,.34-.53,.5-.8,.69-.96,2.15-.39,3.03,.63,.98,1.69,1.38,2.82,1.15,2.05-.41,3.52-2.17,4.15-4.08,.68-2.07,.13-4.3-.48-6.31l-4.57,1.93c.19,.26,.36,.52,.5,.8,.27,.53-.05,.06,0-.02-.02,.03,.13,.37,.15,.45,.05,.15,.09,.3,.12,.46,.02,.1,.04,.21,.06,.31l-.04-.35c-.07,.26,.05,.75,.04,1.03,0,.16-.02,.32-.03,.47-.02,.25,.11-.61,0-.04-.06,.31-.15,.61-.26,.91-.19,.53,.12-.22,0-.02-.08,.14-.14,.28-.22,.42s-.17,.26-.26,.4c-.11,.15-.06,.09,.15-.19-.07,.08-.14,.16-.21,.24-.87,.98-1.04,2.58,0,3.54,.95,.87,2.61,1.05,3.54,0h0Z"/><path class="l" d="M41.68,103.66c.62,.05,1.19-.2,1.74-.44,.05-.02,.1-.05,.16-.07-.17,.07-.19,.08-.07,.03,.08-.03,.17-.05,.25-.07,.2-.06-.34,.01,0,0,.06,0,.13,.01,.19,0-.23-.04-.28-.04-.15-.01,.12,.04,.08,.02-.13-.06,.11,.06,.07,.03-.11-.1,.09,.09,.06,.05-.08-.12,.06,.1,.05,.07-.03-.09,.03,.14,.03,.11-.01-.09,0,0-.01,.29-.01,.32-.01,.23,.06-.33,0,.02-.02,.09-.04,.18-.06,.27-.04,.17-.1,.33-.16,.5-.04,.09-.02,.04,.06-.14-.02,.04-.04,.09-.06,.13-.04,.08-.08,.17-.13,.25-.09,.17-.2,.32-.3,.48-.12,.18,.2-.24-.02,.03-.06,.07-.12,.14-.19,.21-.12,.13-.25,.25-.38,.36-.03,.02-.05,.05-.08,.07-.1,.08-.07,.06,.09-.07-.08,.04-.16,.11-.23,.16-.16,.1-.32,.2-.49,.28-.04,.02-.08,.04-.13,.06-.12,.05-.09,.04,.1-.04-.09,.02-.18,.07-.26,.09-.18,.06-.36,.1-.55,.13-.64,.12-1.07,.93-.87,1.54,.22,.69,.85,1,1.54,.87,1.57-.29,2.95-1.34,3.79-2.67,.46-.73,.72-1.54,.83-2.4,.07-.52,.02-1.08-.26-1.54-.32-.52-.87-.84-1.47-.92-.49-.07-.99-.02-1.45,.17-.18,.07-.36,.15-.53,.23-.04,.02-.08,.03-.12,.05,.24-.15,.12-.05,.03-.01-.1,.04-.21,.06-.32,.1-.12,.04,.12-.02,.13-.01-.04-.02-.19,0-.25,0-.65-.06-1.28,.61-1.25,1.25,.03,.73,.55,1.19,1.25,1.25h0Z"/><path class="l" d="M40.81,92.92c1.67-.09,3.34-.4,4.93-.93,.48-.16,.83-.53,.9-1.04,.06-.45-.15-1.04-.6-1.25-1.67-.75-3.47-1.14-5.3-1.02-.53,.03-1.08,.36-1.21,.92-.05,.22-.05,.44,0,.66,.06,.27,.32,.63,.57,.75,1.65,.74,3.4,1.14,5.22,1.12,.65,0,1.28-.57,1.25-1.25s-.55-1.26-1.25-1.25c-.37,0-.74,0-1.11-.04-.11-.01-.23-.02-.34-.04-.26-.03,.27,.04,0,0-.18-.03-.37-.06-.55-.1-.36-.08-.72-.17-1.08-.28-.18-.06-.35-.12-.53-.18-.08-.03-.16-.06-.24-.09-.13-.05-.11-.04,.06,.03-.05-.02-.1-.05-.16-.07l-.63,2.33c.39-.02,.78-.03,1.18,0,.2,.01,.39,.03,.59,.05,.25,.03-.27-.05,0,0,.1,.02,.19,.03,.29,.05,.37,.07,.74,.16,1.1,.27,.19,.06,.37,.12,.56,.19,.08,.03,.16,.06,.24,.09,.13,.05,.1,.04-.07-.03,.05,.02,.1,.05,.15,.07l.3-2.28c-.73,.25-1.47,.44-2.23,.59-.17,.03-.35,.07-.52,.09-.1,.02-.2,.03-.31,.05-.33,.05,.2-.02-.06,0-.38,.04-.76,.08-1.15,.1-.65,.04-1.28,.55-1.25,1.25,.03,.65,.55,1.29,1.25,1.25h0Z"/><path class="l" d="M26.5,131.74c-.37,1.48-1.07,2.8-2.1,3.91l1.96,1.51,1.06-2.04c.74-1.43-1.29-2.62-2.16-1.26-.74,1.15-1.56,2.18-2.53,3.15-.49,.5-1.01,.97-1.56,1.42-.23,.19-.43,.34-.67,.52-.07,.05-.93,.58-.93,.59,0-.03,.08,0,.08,.01,.05,.02,.09,.05,.13,.09,.07,.11,.07,.11,0-.02,.07,.21-.02-.1-.04-.15-.08-.25-.02,.09-.02-.15-.01-.71,.01-1.08,.21-1.75,.32-1.1,.98-2.05,1.94-2.81,.53-.42,.44-1.33,0-1.77-.52-.52-1.24-.42-1.77,0-1.07,.85-1.84,1.99-2.35,3.24-.48,1.18-.72,2.64-.42,3.9,.17,.69,.59,1.33,1.23,1.65,.84,.43,1.79,.22,2.57-.24,1.21-.72,2.33-1.72,3.33-2.72,1.12-1.12,2.12-2.38,2.97-3.71l-2.16-1.26-1.06,2.04c-.29,.55-.19,1.23,.32,1.61,.48,.36,1.21,.37,1.64-.1,1.32-1.42,2.27-3.13,2.74-5.01,.16-.65-.21-1.36-.87-1.54s-1.37,.22-1.54,.87h0Z"/><path class="l" d="M42.4,113.97c2.12-3.08,3.86-6.38,5.28-9.84l-2.41-.66c-.83,3.91-1.87,7.77-3.12,11.56-.44,1.32,1.7,2.27,2.28,.96,1.75-3.92,2.9-8.01,3.47-12.27,.09-.67-.64-1.25-1.25-1.25-.75,0-1.16,.58-1.25,1.25-.5,3.78-1.57,7.52-3.13,11.01l2.28,.96c1.25-3.79,2.29-7.65,3.12-11.56,.14-.66-.19-1.35-.87-1.54-.72-.2-1.28,.25-1.54,.87-1.33,3.25-3.03,6.35-5.02,9.24-.38,.56-.1,1.39,.45,1.71,.62,.36,1.33,.11,1.71-.45h0Z"/><path class="l" d="M44.73,103.49c2.82-1.41,5.41-3.25,7.67-5.44l-1.96-1.51-5.96,9.66c-.35,.57-.12,1.38,.45,1.71,.61,.36,1.34,.12,1.71-.45l6.6-10.07c.37-.56,.11-1.38-.45-1.71-.61-.36-1.34-.12-1.71,.45l-6.6,10.07,2.16,1.26,5.96-9.66c.76-1.23-.95-2.49-1.96-1.51-2.12,2.05-4.53,3.73-7.17,5.05-.6,.3-.77,1.16-.45,1.71,.36,.62,1.1,.75,1.71,.45h0Z"/><path class="l" d="M15.27,128.57c1.97-1.67,3.69-3.57,5.22-5.65l-2.16-1.26c-.6,1.3-1.64,2.23-3.03,2.6l1.41,1.84,6.86-11.88c.59-1.02-.38-2-1.41-1.84s-1.98,.53-2.85,1.07c-1.37,.83-.12,3,1.26,2.16,.71-.43,1.44-.68,2.26-.81l-1.41-1.84-6.86,11.88c-.55,.95,.36,2.12,1.41,1.84,1.97-.53,3.67-1.89,4.53-3.75,.68-1.47-1.21-2.56-2.16-1.26-1.39,1.9-3.03,3.62-4.83,5.14-.51,.44-.45,1.32,0,1.77,.51,.51,1.25,.44,1.77,0h0Z"/><path class="i" d="M5.58,100.49c.04,.44,.09,.9,.21,1.33s.3,.84,.49,1.23c.1,.21,.22,.41,.36,.6,.27,.36,.53,.72,.86,1.03l1.77-4.27c-.07,0-.13,0-.2,0l.66,.09c-.07-.01-.13-.03-.19-.05l.6,.25c-.07-.03-.14-.07-.2-.11l.51,.39c-.07-.06-.14-.12-.19-.19l.39,.51c-.07-.09-.13-.19-.18-.3l.25,.6c-.04-.1-.07-.2-.08-.31l.09,.66c-.01-.11-.01-.21,0-.32l-.09,.66c.02-.1,.05-.2,.09-.3l-.25,.6c.06-.14,.13-.26,.22-.38l-.39,.51c.12-.15,.26-.28,.41-.4l-.51,.39c.2-.15,.41-.28,.64-.39l-3.67-2.82c-.03,.11-.06,.22-.08,.33-.05,.31-.11,.64-.11,.96s.06,.65,.11,.96c.02,.11,.04,.22,.07,.33,.09,.29,.22,.58,.35,.86,.05,.1,.1,.2,.16,.29,.17,.26,.36,.51,.57,.74,.08,.09,.17,.17,.26,.24,.23,.24,.49,.42,.8,.52,.3,.16,.62,.23,.96,.22,.34,.01,.67-.06,.96-.22,.31-.1,.58-.27,.8-.52,.44-.48,.76-1.1,.73-1.77l-.09-.66c-.12-.42-.33-.79-.64-1.1-.14-.11-.26-.23-.36-.36l.39,.51c-.11-.15-.2-.31-.28-.48l.25,.6c-.07-.17-.12-.35-.14-.54l.09,.66c-.02-.18-.03-.37,0-.55l-.09,.66c.02-.12,.04-.23,.08-.35l.09-.66-.09-.66-.25-.6c-.16-.29-.37-.53-.64-.7-.16-.15-.34-.26-.55-.32-.19-.11-.41-.17-.63-.17-.22-.06-.44-.06-.66,0-.33,.02-.64,.11-.93,.3-.19,.09-.37,.19-.54,.31-.31,.22-.65,.45-.91,.74s-.53,.61-.7,.97c-.28,.62-.42,1.01-.45,1.7-.02,.37,.03,.77,.16,1.12,.22,.63,.43,1,.87,1.5,.23,.27,.53,.5,.85,.66,.51,.25,1.1,.47,1.69,.4l.66-.09,.6-.25,.51-.39c.24-.23,.42-.49,.52-.8,.11-.19,.17-.41,.17-.63,.06-.22,.06-.44,0-.66,0-.23-.06-.44-.17-.63-.1-.31-.27-.58-.52-.8-.15-.14-.29-.29-.42-.45l.39,.51c-.21-.27-.38-.56-.51-.87l.25,.6c-.13-.31-.22-.64-.26-.97l.09,.66s-.01-.09-.01-.13c.01-.34-.06-.67-.22-.96-.1-.31-.27-.58-.52-.8-.23-.24-.49-.42-.8-.52-.3-.16-.62-.23-.96-.22l-.66,.09c-.42,.12-.79,.33-1.1,.64l-.39,.51c-.23,.39-.34,.81-.34,1.26h0Z"/><path class="i" d="M10.26,118.72c-1.35,1.67-2.68,3.44-2.78,5.67-.09,1.91,.94,3.92,2.61,4.88,1.95,1.13,3.97,.43,5.61-.86,1.79-1.41,3.54-2.86,5.31-4.29l10.38-8.4c3.1-2.51,6.24-4.98,8.34-8.44,1.26-2.08-1.31-4.82-3.42-3.42l-14.07,9.34c-4.14,2.75-8.39,6.34-13.38,7.34l2.43,4.18c5.8-4.92,12.44-8.92,19.51-11.72l-2.43-4.18c-5.17,4.1-11.01,7.29-16.8,10.42-2.5,1.36-5.63,2.75-6.33,5.83s2.16,6.59,5.46,5.63c3.08-.9,1.77-5.72-1.33-4.82,.14-.04,.44,.05,.59,.09,.63,.19-.09,.24,.12,0,.03-.04,.02,.22,.09,.07,.32-.65,1.35-1.09,1.94-1.41,2.27-1.25,4.56-2.46,6.81-3.73,4.53-2.55,8.9-5.31,12.98-8.54,1.92-1.52-.16-5.08-2.43-4.18-7.93,3.15-15.21,7.49-21.72,13.01-.84,.71-.92,2.13-.39,3.03,.59,1,1.73,1.37,2.82,1.15,5.29-1.06,9.76-4.65,14.16-7.57l14.48-9.61-3.42-3.42c-1.46,2.4-3.62,4.22-5.77,5.97-2.64,2.15-5.29,4.29-7.94,6.43l-7.88,6.38c-.14,.12-1.83,1.27-1.82,1.39,0-.08,.86-.13,.62,.04,.01,0-.18-.19-.16-.26,.19-.83,.72-1.69,1.34-2.45,.85-1.05,1.03-2.51,0-3.54-.88-.88-2.68-1.06-3.54,0h0Z"/><path class="i" d="M23.82,140.8c2.48-3.35,4.36-7.12,5.64-11.09,.41-1.26-.48-2.76-1.75-3.08-1.85-.45-3.31,.57-4.29,2.05-.67,1.01-1.29,2.05-1.93,3.08l-3.89,6.21c-.53,.85-.4,2.01,.2,2.78,.56,.72,1.71,1.26,2.63,.9,1.54-.62,2.88-1.52,3.96-2.79,.98-1.15,1.79-2.42,2.55-3.72,.66-1.13,.3-2.79-.9-3.42s-2.72-.31-3.42,.9c-.3,.51-.6,1.02-.92,1.52-.16,.25-.33,.5-.5,.74-.02,.03-.21,.33-.24,.33,.21-.27,.26-.33,.14-.19-.05,.06-.1,.13-.15,.19-.37,.45-.78,.85-1.22,1.24-.34,.29,.33-.22,.07-.06-.11,.07-.21,.15-.32,.22-.13,.08-.27,.16-.41,.23-.15,.08-.63,.27,.02,0l2.82,3.67,3.33-5.32,1.67-2.66c.26-.41,.51-.83,.78-1.24,.05-.09,.11-.17,.17-.26-.23,.29-.26,.34-.08,.14,.2-.18,.15-.14-.15,.12-.41,.22-.83,.28-1.25,.18l-1.75-3.08c-.3,.92-.58,1.92-1.02,2.78,.31-.61-.06,.13-.11,.25-.1,.23-.2,.45-.31,.67-.2,.42-.4,.83-.61,1.25-.89,1.73-1.93,3.38-3.09,4.94-.36,.49-.41,1.37-.25,1.93s.61,1.21,1.15,1.49c1.31,.69,2.59,.23,3.42-.9h0Z"/><path class="i" d="M36.4,74.77c-1.23-.06-2.39,.27-3.5,.78-.54,.25-1,.61-1.46,.97-.49,.39-.84,.85-1.22,1.34-.18,.29-.28,.6-.3,.93-.07,.33-.06,.66,.04,1,.16,.58,.61,1.21,1.15,1.49,.58,.31,1.28,.46,1.93,.25l.6-.25c.38-.22,.67-.52,.9-.9l.04-.05-.39,.51c.23-.29,.5-.56,.79-.79l-.51,.39c.35-.27,.72-.49,1.13-.66l-.6,.25c.39-.16,.78-.27,1.2-.33l-.66,.09c.29-.04,.58-.05,.87-.04,.62,.03,1.34-.3,1.77-.73s.76-1.15,.73-1.77-.24-1.32-.73-1.77-1.08-.7-1.77-.73h0Z"/><path class="i" d="M50.17,56.5c.9-4.62,4.84-8.41,8.08-11.58,3.56-3.49,7.51-6.53,11.78-9.1,1.63-.98,1.61-3.33,0-4.32-4.32-2.66-8.87,1.96-11.83,4.67-3.35,3.06-6.33,6.47-9.03,10.12-.8,1.09-.18,2.79,.9,3.42,1.27,.74,2.62,.19,3.42-.9,2.13-2.88,4.52-5.56,7.1-8.03,1.32-1.27,2.7-2.47,4.12-3.63,.58-.47,1.2-.96,1.89-1.25,.53-.22,.58-.29,.91-.08v-4.32c-4.73,2.85-9.14,6.26-13.06,10.15s-8.05,8.16-9.09,13.52c-.26,1.32,.37,2.7,1.75,3.08,1.23,.34,2.82-.41,3.08-1.75h0Z"/><path class="i" d="M129.27,208.13c-.62-1.16-.37-2.31,.35-3.34,.63-.89,.34-2.29-.39-3.03-.83-.83-2.01-.86-3.03-.39-2.58,1.2-4.12,3.86-4.2,6.66l3.16-2.41h.11l.9,.91c.41,.57-.31,1.16,.36,.33,.32-.4,.7-.77,1.08-1.11,.71-.64,1.51-1.16,2.34-1.63,1.84-1.03,3.84-1.68,5.86-2.26,2.34-.67,4.71-1.22,7-2.05,1.19-.43,2.36-.94,3.5-1.5,.94-.45,1.9-1.09,2.94-1.24h-1.33c-.31-.07-.78-.83-.38-.16,.19,.32,.49,.65,.76,.92,.44,.45,.98,.87,1.52,1.2,1.14,.69,2.41,1,3.73,1.1,2.56,.2,3.28-3.46,1.26-4.66-.45-.27-.28-.74,.01-1,1.77-1.6-.09-5.12-2.43-4.18-1.62,.65-2.84,1.74-3.41,3.43-.23,.7-.3,1.44-.23,2.17,.04,.38,.1,.74,.22,1.1,.1,.25,.2,.5,.31,.74,.2,.41,.21,.42,.06,.03l.34-1.26c.19-.39,.92-.29,.28-.35-.27-.02-.57,.06-.85,.07-.58,.02-1.15,0-1.72-.12l1.1,4.18c1.52-1.74,2.91-3.59,4.14-5.54,1.72-2.73-2.61-5.24-4.32-2.52-1.01,1.6-2.11,3.11-3.35,4.53-1.13,1.29-.88,3.81,1.1,4.18,2.33,.44,5.99,.79,7.61-1.39,.94-1.27,.74-2.67,.09-4.02-.01-.02-.02-.41-.05-.4l-2.43-4.18c-2.71,2.45-2.07,7.03,1,8.86l1.26-4.66c-1.63-.13-1.95-1.61-3.14-2.4-1.79-1.19-3.71-.14-5.42,.67-3.48,1.67-7.04,2.63-10.74,3.69-3.38,.97-6.68,2.27-9.45,4.48-1.31,1.05-2.75,2.44-3.33,4.06-.71,2,.23,4.21,2.35,4.79,1.61,.43,3.12-.79,3.16-2.41,.03-1.15,.73-1.88,1.73-2.35l-3.42-3.42c-1.75,2.48-1.77,5.76-.35,8.38,1.53,2.83,5.85,.31,4.32-2.52h0Z"/><path class="i" d="M155.22,188.78c-2.23,1.79-3.17,5.28-2.14,7.95,1.12,2.89,4.01,5,7.18,4.8,1.3-.08,2.56-1.09,2.5-2.5-.06-1.28-1.1-2.59-2.5-2.5-.32,.02-.64,0-.97-.03l.66,.09c-.24-.04-.48-.09-.71-.16-.06-.02-.28-.13-.34-.12,.15-.02,.6,.28,.15,.06-.2-.1-.39-.21-.57-.34-.43-.29,.31,.27,.12,.1-.09-.08-.18-.16-.27-.24-.07-.07-.14-.14-.21-.22-.32-.35,.05-.03,.08,.13-.04-.19-.29-.43-.39-.61-.13-.25-.08-.42,.05,.16-.03-.12-.08-.23-.12-.34-.07-.23-.11-.47-.15-.71l.09,.66c-.04-.4-.04-.8,0-1.21l-.09,.66c.04-.28,.1-.56,.18-.83,.07-.23,.34-.65-.04,.03,.07-.12,.12-.26,.19-.38s.14-.24,.22-.36c.04-.07,.09-.13,.14-.2-.26,.33-.33,.42-.2,.27,.21-.22,.41-.44,.65-.63,.47-.37,.73-1.2,.73-1.77,0-.61-.27-1.35-.73-1.77s-1.1-.76-1.77-.73c-.7,.03-1.22,.3-1.77,.73h0Z"/><path class="i" d="M200.69,115.05c.13-.27,.29-.52,.47-.76l-.39,.51c.23-.29,.49-.55,.78-.78l-.51,.39c.29-.22,.61-.41,.95-.55l.51-.39,.39-.51,.25-.6c.1-.33,.12-.66,.04-1,0-.23-.06-.44-.17-.63-.06-.21-.17-.4-.32-.55-.11-.19-.26-.34-.45-.45-.24-.22-.52-.37-.85-.45-.14-.05-.28-.09-.43-.13-.36-.08-.72-.12-1.09-.15-.51-.04-1.04,.04-1.53,.14-.33,.08-.61,.23-.85,.45-.27,.18-.49,.41-.64,.7-.18,.29-.28,.6-.3,.93-.07,.33-.06,.66,.04,1l.25,.6c.22,.38,.52,.67,.9,.9l.6,.25c.44,.12,.89,.12,1.33,0,.07-.01,.13-.02,.2-.03l-.66,.09c.28-.03,.57-.03,.85,0l-.66-.09c.23,.03,.45,.09,.67,.17l-.6-4.57c-.24,.1-.48,.23-.7,.37-.39,.26-.76,.54-1.1,.86s-.62,.7-.89,1.07c-.16,.21-.29,.44-.4,.68-.18,.29-.28,.6-.3,.93-.07,.33-.06,.66,.04,1,.08,.33,.23,.61,.45,.85,.18,.27,.41,.49,.7,.64l.6,.25c.44,.12,.89,.12,1.33,0l.6-.25c.38-.22,.67-.52,.9-.9h0Z"/><path class="i" d="M218.64,150.38c0,.57-.03,1.13-.1,1.69l.09-.66c-.13,.98-.39,1.94-.76,2.86-.1,.33-.12,.66-.04,1,.02,.33,.11,.64,.3,.93,.3,.52,.9,1.01,1.49,1.15,.64,.15,1.36,.11,1.93-.25l.51-.39c.31-.31,.52-.68,.64-1.1,.67-1.64,.97-3.46,.95-5.22,0-.65-.27-1.31-.73-1.77-.43-.43-1.15-.76-1.77-.73s-1.32,.24-1.77,.73-.74,1.09-.73,1.77h0Z"/><g><path class="m" d="M133.03,34.6c-1.1-.25-2.31-.55-3.44-.52-1.28,.03-2.58,.55-3.2,1.74-.75,1.46-.19,2.98,.77,4.17,1.43,1.77,3.63,3.01,5.72,3.83,2.1,.82,4.45,1.18,6.7,.99,2.23-.19,5.55-.99,5.53-3.84,0-1.45-1.07-2.38-2.21-3.07-1.11-.67-2.29-1.21-3.5-1.68-1.53-.59-3.14-.97-4.77-1.19-.53-.16-1.07-.3-1.61-.43Z"/><path class="m" d="M216.08,138.65c-2.38-3.19-2.8-6.84-3.29-10.68-.41-3.21-1.17-6.24-2.52-9.19-2.56-5.57-6.95-10.25-12.31-13.21-.04-.45-.08-.9-.13-1.34-1.33-11.38-5.82-21.99-11.19-32.01-2.63-4.92-5.43-9.76-8.33-14.53-2.89-4.77-6.01-9.44-9.72-13.63-7.21-8.15-16.75-13.47-26.57-17.87-1.97-.88-3.95-1.73-5.93-2.58,2.46-2.06,5.02-4.14,6.9-6.67,2.25-3.04,2.36-6.87-.14-9.81-5.1-6.01-14.73-2.63-19.81,1.57-2.33,1.93-4.17,4.38-5.45,7.1-4.59-5.35-10.35-10.53-17.9-9.55-3.8,.49-7.29,2.75-7.71,6.81-.3,2.94,1.07,5.44,2.87,7.6-7.62,2.33-14.84,5.8-21.45,10.22-.04-.45-.31-.85-.89-.98-1.43-.31-3.28-.62-4.16-1.94-.85-1.28-.25-2.91,.24-4.2,.99-2.62,2.88-6.14,.98-8.8-.91-1.29-2.6-1.72-4.09-1.33-1.54,.4-2.68,1.6-3.45,2.95-1.94,3.39-2.45,7.29-2.53,11.13-.02,.88-.04,1.76-.23,2.62-.11,.5-.25,1.02-.51,1.46-.21,.36-.12,.47-.42,.1-.82-.98-.32-2.82-.75-4.01-.5-1.37-1.81-2.3-3.29-2.04-1.52,.26-2.64,1.56-3.41,2.81-2.25,3.63-4.16,7.52-6.22,11.25-1.04,1.88-2.21,3.75-3.12,5.7-.58,1.24-.91,2.8,.11,3.92,.97,1.06,2.37,.94,3.61,.52,.47-.16,1.15-.57,1.65-.54,.34,.02,.18-.13,.23,.1,.05,.28-.48,.86-.63,1.06-1.14,1.48-2.31,3.02-1.88,5.02,.29,1.36,1.39,2.5,2.72,2.79-.12,.2-.24,.39-.36,.59-2.96,5.16-5.34,10.65-7.09,16.33-.97-.72-2.04-1.28-3.29-1.46-1.92-.28-3.88,.32-5.47,1.4-3.78,2.54-4.87,6.96-6.61,10.9-1.61,3.66-4.17,7.18-7.69,9.19-1.65,.94-3.49,1.47-5.4,1.39-2-.09-4.08-.89-5.8,.58-2.49,2.13-1.53,6.38,.74,8.27,1.57,1.31,3.51,1.95,5.4,2.63,1.91,.69,4.05,1.58,4.96,3.57,1.82,4-5.17,4.37-7.38,5.31-3.32,1.41-5.88,4.95-5.69,8.63,.18,3.49,2.92,6.39,6.36,6.95,1.66,.27,3.31-.04,4.71-.99,.82-.55,3.85-3.59,4.24-1.26,.34,2.02-1.72,4.02-2.56,5.69-.77,1.54-1.1,3.27-.55,4.95,.51,1.57,1.78,2.82,3.49,2.85,1.92,.03,3.8-1.32,5.24-2.46,3.2-2.53,5.18-6.09,6.04-10.04,.4-1.87,.64-3.86,1.47-5.6,.91-1.89,2.5-2.81,4.46-3.34,.28-.08,.57-.14,.86-.21,1.44,10,5.35,19.58,11.4,27.69,3.35,4.5,7.24,8.51,11.69,11.94,4.24,3.26,9.09,5.65,13.26,8.99,4.41,3.54,7.38,8.26,6.97,14.09-.37,5.25-3.78,9.83-8.52,12.02-5.3,2.44-11.25,.83-16.74,.06-5.32-.75-10.84-.78-15.42,2.44-4.13,2.91-6.78,7.29-9.48,11.46-2.56,3.94-5.31,7.97-9.78,9.87-.94,.4-1.13,1.77-.67,2.57,.55,.97,1.64,1.07,2.57,.67,8.6-3.65,11.16-13.57,17.4-19.73,1.49-1.47,3.22-2.68,5.22-3.32,2.74-.88,5.62-.77,8.44-.44,5.86,.7,11.84,2.43,17.69,.69,5.29-1.58,9.72-5.57,11.79-10.69,2.2-5.44,1.56-11.92-1.68-16.81-3.07-4.65-7.85-7.66-12.48-10.57-4.74-2.98-9.13-6.24-12.98-10.33-8.1-8.63-13.5-19.82-15.05-31.56,.4-.14,.79-.28,1.17-.46,1.7-.81,3.03-2.16,3.99-3.76,2.02-3.39,2.59-7.46,4.21-11.04,3.24-7.2,8.64-13.57,15.75-17.16,1.75-.89,3.58-1.56,5.48-2.05,1.55-.41,.9-2.82-.66-2.41-7.46,1.97-13.75,6.76-18.33,12.89-2.28,3.05-4.09,6.43-5.44,9.99-1.29,3.39-1.78,7.74-4.57,10.3-.6,.55-1.27,.94-1.98,1.25-.29-.66-.88-1.15-1.69-1.15-.94,0-1.98,.86-1.88,1.88,.01,.1,.02,.2,.04,.3-1.8,.41-3.6,.84-5.05,2.01-3.07,2.47-3.21,6.59-4.14,10.12-1.01,3.82-3.63,7.25-7.2,9.02-.67,.33-1.5,.69-2.1,.06-.52-.55-.6-1.53-.52-2.24,.22-1.93,1.89-3.54,2.68-5.27,.76-1.64,1.09-3.71-.07-5.26-1.09-1.45-2.92-1.53-4.45-.75-1.53,.78-2.69,2.43-4.46,2.71-1.57,.24-3.23-.48-4.32-1.59-2.69-2.74-.89-7.13,2.05-8.87,2.85-1.69,6.92-1.12,9.05-4.04,2.49-3.4-.49-7.42-3.68-8.96-2.77-1.34-8.18-1.91-8.23-5.92-.03-2.43,2.07-1.93,3.85-1.72,1.8,.22,3.65,0,5.36-.63,3.6-1.33,6.47-4.07,8.61-7.19,2.44-3.55,3.24-7.85,5.55-11.44,1.08-1.68,2.74-3.17,4.76-3.54,2.24-.41,3.82,1.04,5.31,2.49,5.57,5.45,14.1,9.59,21.48,4.91,1.53-.97,2.78-2.25,3.71-3.8,.83-1.39-1.34-2.64-2.16-1.26-2.03,3.41-6.17,4.93-10.01,4.54-4.1-.41-7.58-2.76-10.54-5.49,.35-.21,.63-.55,.78-1.04,5.97-19.7,20.06-36.55,38.06-46.44,5.11-2.81,10.51-5.01,16.12-6.58,.17-.05,.32-.12,.45-.19,1.56,.29,3.14-1.76,1.71-3.16-1.9-1.86-4.43-4.24-4.03-7.18,.38-2.81,3.98-3.45,6.29-3.32,6.41,.36,10.88,5.99,14.61,10.56,.64,.79,1.99,.66,2.65,0,.03-.03,.05-.06,.08-.09,.38-.21,.7-.55,.86-1.07,2.06-6.37,8.57-11.96,15.52-11.6,3.3,.17,6.64,3.02,4.63,6.43-.89,1.52-2.29,2.68-3.59,3.83-1.77,1.56-3.54,3.12-5.31,4.68-1.15,1.01-.51,2.43,.57,2.95,.15,.27,.36,.49,.65,.62,9.7,4.12,19.73,8.32,27.85,15.2,8.44,7.15,13.95,16.94,19.37,26.41,5.54,9.67,10.74,19.73,13.18,30.68,2.56,11.53,1.4,23.79-.69,35.31-.53,2.91-1.22,5.76-2.04,8.56-.22,.12-.38,.36-.31,.68,.01,.06,.03,.12,.05,.18-1.92,6.29-4.6,12.3-8.19,17.93-4.94,7.74-11.35,14.61-18.76,20.05-3.71,2.72-7.67,5.11-11.82,7.1-4.32,2.07-8.83,3.53-13.42,4.88-4.9,1.44-9.94,2.93-14.26,5.75-2.1,1.37-4.2,3.03-5.28,5.36-1.04,2.25-.8,4.83,1.02,6.61,1.7,1.66,4.18,2.12,6.43,2.54,2.86,.53,5.74,.91,8.63,1.29,5.62,.73,11.28,1.38,16.76,2.88,8.63,2.36,17.73,7.88,20.52,16.93,.63,2.06,.83,4.14,.65,6.29-.2,2.4,3.55,2.39,3.75,0,.81-9.59-5.84-17.88-13.66-22.6-8.93-5.38-19.59-6.1-29.73-7.48,.92-.71,.24-2.54-1.13-2.19-.84,.21-1.35-.54-1.6-1.25-.39-1.11-.1-2.15,.78-2.91,2.2-1.9,5.91-1.74,8.62-1.98,7.36-.64,14.76-.98,22,.72,3.37,.79,6.73,1.74,10.23,1.66,3.31-.07,6.55-.89,9.6-2.14,5.58-2.28,10.68-5.81,15.16-9.82,8.85-7.92,15.34-18.37,18.54-29.81,.35-1.26,.65-2.73,1.94-3.35,1.26-.61,2.68-.66,3.89-1.44,1.93-1.25,2.82-3.44,2.96-5.66,.38-6-4.39-9.56-7.63-13.91ZM48.82,56.07c-.13-.04-.28-.05-.45-.03-.94,.11-1.41-.63-1.29-1.52,.11-.82,.71-1.47,1.21-2.09,.79-.99,1.67-2.23,1.33-3.58-.71-2.8-3.55-1.6-5.37-1.1-.39,.11-.62,.27-.76-.09-.16-.41,.53-1.38,.7-1.68,1.04-1.9,2.09-3.79,3.14-5.69,1.85-3.35,3.63-6.76,5.56-10.06,.52-.89,2.18-3.08,2.52-.94,.21,1.32,0,2.53,.72,3.75,.59,1.01,1.62,1.77,2.83,1.59,1.48-.23,2.21-1.73,2.61-3.02,.45-1.46,.45-3.02,.48-4.53,.04-2.02,.25-3.98,.83-5.92,.44-1.46,.98-3.15,2.03-4.29,.49-.53,1.21-1.01,1.98-.86,.88,.18,1.01,1.06,.99,1.83-.08,3.15-2.6,5.76-2.41,8.97,.2,3.34,3.12,4.73,5.99,5.42-8.98,6.38-16.72,14.52-22.61,23.84Zm171.67,98.92c-.77,1.26-2.02,1.56-3.35,1.94-1.34,.38-2.53,.98-3.33,2.16-.81,1.19-1.11,2.64-1.51,4-3.33,11.5-10.24,21.86-19.45,29.48-4.94,4.09-10.74,7.77-17.06,9.19-7.17,1.61-13.97-1.63-21.07-2.21-4.14-.34-8.31-.19-12.45,.12-2.03,.15-4.07,.33-6.1,.53-1.53,.15-3.1,.34-4.55,.89-2.63,.99-4.69,3.11-4.22,6.08,.19,1.2,.78,2.33,1.65,3.06-2.08-.27-4.33-.54-6.16-1.43-2.33-1.13-1.27-3.28,.18-4.73,3.57-3.56,8.93-5.21,13.63-6.63,4.73-1.43,9.44-2.78,13.99-4.75,4.28-1.86,8.38-4.13,12.23-6.76,6.23-4.25,11.81-9.39,16.58-15.19,2.3,4.15,4.93,8.12,7.88,11.84,.5,.63,1.38-.26,.88-.88-2.99-3.76-5.62-7.79-7.92-12.01,4.84-6.1,8.77-12.9,11.59-20.17,2.3,6.56,5.67,12.71,9.97,18.21,.5,.63,1.37-.26,.88-.88-4.5-5.75-7.92-12.27-10.15-19.2,.85-2.38,1.59-4.81,2.19-7.28,1.43-5.85,2.26-11.84,2.86-17.83,.46-4.62,.7-9.28,.48-13.92,4.21,2.71,7.6,6.55,9.77,11.1,1.31,2.76,2.01,5.69,2.39,8.71,.41,3.27,.72,6.59,2.32,9.54,2.58,4.76,8.53,8.08,8.56,13.99,0,1.05-.17,2.14-.73,3.05Z"/><path class="m" d="M82.55,37.33c-1.05,4.99-2.04,10.73,1.63,14.93,1.53,1.75,3.67,2.73,6.01,2.6,2.89-.16,5.61-1.22,8.53-1.23,3.08-.01,5.81,.89,8.35,2.62,2.21,1.51,4.28,3.17,6.63,4.46,4.39,2.41,9.26,3.9,14.24,4.45,5.72,.63,11.55-.03,16.97-1.97,.75-.27,.43-1.48-.33-1.21-9.21,3.31-19.64,2.78-28.48-1.45-2.18-1.04-4.22-2.32-6.16-3.75-1.93-1.42-3.85-2.87-6.14-3.64-2.39-.81-4.98-.91-7.47-.62-2.66,.31-5.58,1.65-8.24,.87-2.55-.75-4.27-3.23-4.92-5.7-.86-3.3-.1-6.78,.59-10.04,.17-.78-1.04-1.12-1.21-.33Z"/><path class="m" d="M85.05,76.5c4.42,4.97,9.5,8.91,15.74,11.34,6.15,2.39,12.86,3.1,19.37,2.05,7.44-1.2,14.42-4.64,19.93-9.77,.59-.55-.3-1.43-.88-.88-9.57,8.92-23.52,12.17-36,8.14-6.02-1.95-11.52-5.43-15.8-10.1-1.84-2.01-3.54-4.26-5.89-5.73-2.35-1.48-4.85-1.43-7.52-1.28-1.48,.08-3.22,.24-4.54-.58-1.79-1.12-1.94-3.73-2.09-5.61-.33-4.01,.23-8.01,1.59-11.79,.27-.76-.93-1.08-1.21-.33-1.24,3.45-1.85,7.11-1.72,10.77,.1,2.78,.23,6.73,3.06,8.19,2.48,1.28,5.48,.35,8.13,.51,3.37,.21,5.71,2.7,7.82,5.07Z"/><path class="m" d="M183.41,97.93c.78,.22,1.11-.99,.33-1.21-2.01-.56-4.19,.33-5.4,1.99-1.25,1.71-1.02,4.03,.24,5.67,.72,.93,1.74,1.62,2.9,1.84,.79,.15,1.12-1.06,.33-1.21-1.95-.37-3.47-2.47-2.98-4.45,.48-1.93,2.68-3.16,4.58-2.63Z"/><path class="m" d="M175.37,120.57c-.47,3.45,1.35,6.97,4.35,8.7,.7,.4,1.33-.68,.63-1.08-2.57-1.48-4.17-4.52-3.75-7.5,.41-2.89,2.64-5.33,5.42-6.12,.77-.22,.44-1.43-.33-1.21-3.28,.93-5.86,3.81-6.32,7.21Z"/><path class="m" d="M173.21,139.16c-.91,2.2-.78,4.77,.37,6.86,.39,.7,1.47,.07,1.08-.63-.8-1.44-1-3.17-.62-4.77,.19-.79,.52-1.52,.98-2.19,.22-.32,.49-.68,.85-.84,.14-.06,.67-.09,.62,.16-.16,.79,1.05,1.12,1.21,.33,.27-1.34-1.2-2.15-2.34-1.63-1.05,.48-1.72,1.69-2.15,2.71Z"/><path class="m" d="M171.79,153.66c.8,.05,.8-1.2,0-1.25-2.68-.18-5.3,1.56-6.18,4.09-.88,2.52,.16,5.4,2.27,6.95,.65,.48,1.27-.61,.63-1.08-1.67-1.23-2.37-3.58-1.69-5.54,.71-2.03,2.88-3.31,4.98-3.17Z"/><path class="m" d="M153.99,153.85c.78-.19,.45-1.4-.33-1.21-2.28,.56-4.19,2.3-4.85,4.57-.57,1.97-.1,4.1,1.1,5.72-2.11,.66-2.87,3.37-2.78,5.48,.06,1.57,.69,5.54,3.21,4.5,.73-.3,.41-1.51-.33-1.21-1.5,.62-1.63-2.87-1.64-3.63-.03-1.72,.6-4.16,2.78-4.04,.54,.03,.82-.71,.44-1.07-3.12-2.95-1.77-8.1,2.4-9.12Z"/><path class="m" d="M162.53,135.87c.78-.18,.45-1.38-.33-1.21-2.7,.62-4.99,2.55-6.04,5.12-1.1,2.68-.66,5.88,1.04,8.2,.47,.64,1.56,.02,1.08-.63-1.48-2.02-1.91-4.72-.98-7.07,.88-2.24,2.92-3.88,5.24-4.41Z"/><path class="m" d="M141.94,133.88c-1.9,1.78-2.93,4.3-2.97,6.9-.02,1.26,.2,2.53,.67,3.7,.22,.56,.49,1.1,.82,1.6,.54,.81,1.57,1.41,.65,2.41-.82,.88-1.64,1.45-2.19,2.57-.49,.99-.76,2.08-.82,3.18-.13,2.35,.75,4.73,2.59,6.24,.62,.51,1.51-.37,.88-.88-1.83-1.51-2.55-3.92-2.11-6.23,.21-1.1,.67-2.17,1.42-3.02,.65-.74,1.97-1.19,2.07-2.28,.1-1.11-.95-1.91-1.5-2.76-.67-1.06-1.07-2.29-1.19-3.54-.25-2.6,.65-5.21,2.56-7,.59-.55-.3-1.43-.88-.88Z"/><path class="m" d="M152.2,97.13c-2.57,.65-4.41,2.89-4.92,5.46-.55,2.76,.45,5.52,1.94,7.83-6.84,2.22-9.8,10.53-5.59,16.58,.46,.66,1.54,.03,1.08-.63-3.92-5.63-1.02-13.38,5.66-15,.37-.09,.61-.59,.37-.92-1.44-2.03-2.57-4.44-2.33-6.99,.22-2.35,1.79-4.54,4.12-5.13,.78-.2,.45-1.4-.33-1.21Z"/><path class="m" d="M127.07,176.49c.8,.01,.8-1.24,0-1.25-2.55-.05-5.03,1.77-5.64,4.27-.6,2.46,.63,5.17,2.85,6.37,.71,.38,1.34-.7,.63-1.08-1.72-.93-2.75-3.03-2.27-4.96,.49-1.98,2.42-3.39,4.44-3.35Z"/><path class="m" d="M111.15,106.03c1.01-.92,2.52-1.59,3.81-.85,.7,.4,1.33-.68,.63-1.08-3.35-1.94-6.64,1.81-7.54,4.73-1.04,3.34-.25,7.14,2.08,9.75,.54,.6,1.42-.29,.88-.88-1.91-2.14-2.59-5.21-1.91-7.98,.34-1.38,1-2.72,2.05-3.68Z"/><path class="m" d="M117.86,136.54c-1.76-1.16-4.17-1.13-5.97-.06-1.92,1.15-2.79,3.36-2.47,5.53,.17,1.18,.73,2.3,1.6,3.13,.58,.56,1.47-.33,.88-.88-1.22-1.17-1.6-3.01-1.08-4.61,.52-1.59,2.06-2.61,3.7-2.72,.96-.06,1.89,.16,2.69,.69,.67,.44,1.3-.64,.63-1.08Z"/><path class="m" d="M105.4,178.51c-2.79-.85-4.79-3.84-4.25-6.76,.56-3.02,3.58-5.03,6.55-4.78,.75,.06,.78-1,.17-1.23-2.97-1.12-3.13-5.26-2.66-7.89,.29-1.65,.93-3.35,2.27-4.42,1.35-1.08,3.22-1.39,4.7-.42,.68,.44,1.3-.64,.63-1.08-1.62-1.06-3.65-.95-5.31-.02-1.92,1.07-2.98,3.15-3.42,5.23-.6,2.83-.46,6.61,1.69,8.69-2.91,.57-5.43,2.9-5.88,5.92-.52,3.5,1.84,6.95,5.17,7.97,.77,.24,1.1-.97,.33-1.21Z"/><path class="m" d="M91.6,145.18c-2.92-.74-6.45-.2-8.38,2.32-1.33,1.73-1.62,4.2-.67,6.13-2.27,0-4.24,2.18-4.52,4.49-.21,1.67,.12,3.74,1.02,5.18,.72,1.15,2.1,2.22,3.44,1.35,.67-.44,.05-1.52-.63-1.08-1.02,.67-1.91-1.1-2.16-1.85-.4-1.2-.62-2.54-.38-3.8,.37-1.9,2.43-3.83,4.43-2.72,.6,.34,1.3-.49,.76-.98-1.74-1.59-1.63-4.46-.12-6.17,1.69-1.91,4.53-2.25,6.89-1.65,.78,.2,1.11-1.01,.33-1.21Z"/><path class="m" d="M92.97,105.9c.8,.05,.8-1.2,0-1.25-3.62-.23-7.25,1.85-8.71,5.2-1.33,3.03-.7,6.62,1.36,9.14-2.42,.82-4.11,3.24-4.36,5.78-.14,1.37,.15,2.86,1,3.97,.79,1.04,2.41,1.78,3.45,.66,.54-.59-.34-1.48-.88-.88-.99,1.08-2.13-1.49-2.26-2.14-.19-.93-.08-1.89,.23-2.78,.64-1.89,2.16-3.35,4.16-3.64,.48-.07,.59-.75,.28-1.04-2.26-2.17-3.09-5.67-1.8-8.57,1.29-2.92,4.43-4.64,7.56-4.44Z"/><path class="m" d="M71.84,121.71c.39-1.34-1.15-1.83-2.21-1.59-1.71,.4-3.28,2.28-4.1,3.73-1.57,2.79-1.3,6.25,.69,8.61-2.5,.64-3.43,4.8-3.79,6.99-.53,3.15,.4,7.16,4.15,7.55,.8,.08,.79-1.17,0-1.25-3.09-.32-3.31-4.09-2.87-6.42,.37-1.92,1.17-6.6,4.09-5.51,.7,.26,1.04-.77,.48-1.14-2.07-1.41-2.97-4.05-2.37-6.46,.29-1.15,.89-2.22,1.68-3.11,.42-.47,.89-.9,1.4-1.26,.25-.18,.5-.37,.8-.46,.06-.02,.88-.14,.85,0-.23,.77,.98,1.1,1.21,.33Z"/><path class="m" d="M75.93,92.73c.78,.19,1.12-1.02,.33-1.21-2.71-.65-5.73,.8-6.82,3.39-1.07,2.55-.05,5.64,2.22,7.16,.67,.45,1.3-.63,.63-1.08-1.76-1.18-2.53-3.67-1.7-5.63,.85-2,3.24-3.14,5.33-2.64Z"/><path class="m" d="M60.08,111.03c.8,.05,.8-1.2,0-1.25-2.77-.18-5.56,1.64-6.28,4.38-.61,2.3,.34,4.74,2.14,6.2-2.66,1.08-4.81,3.36-5.52,6.19-.82,3.27,.35,6.8,2.83,9.04,.6,.54,1.48-.34,.88-.88-4.72-4.27-2.8-12.02,3.4-13.55,.5-.12,.64-.9,.15-1.14-2-.99-3.27-3.3-2.67-5.52,.59-2.22,2.84-3.6,5.07-3.46Z"/><path class="m" d="M92.76,193.91c.3,.16,.68,.07,.86-.22,.17-.29,.07-.69-.22-.86-.06-.03-.12-.07-.18-.11-.02-.01-.04-.03-.07-.04h0c-.11-.09-.21-.19-.3-.29-.02-.02-.07-.09-.07-.09-.03-.05-.07-.09-.1-.14-.03-.05-.06-.11-.09-.16-.01-.02-.06-.13-.07-.15-.04-.11-.08-.21-.11-.32-.02-.07-.03-.14-.05-.21,0-.03,0-.06-.01-.09h0c0-.15-.02-.28-.01-.41,0-.06,0-.12,.01-.18,0-.04,.01-.08,.02-.12,.03-.13,.07-.25,.11-.38h0s.02-.05,.03-.07c.04-.07,.07-.14,.12-.21,.02-.03,.04-.06,.06-.09v-.02s.05-.04,.05-.05c.02-.03,.05-.05,.07-.08,.04-.05,.09-.09,.14-.13,.02-.02,.04-.03,.06-.05,.01,0,.03-.02,.05-.03,.11-.07,.23-.14,.35-.2,.02-.01,.05-.02,.07-.03h0c.08-.03,.15-.06,.23-.08,.11-.03,.21-.05,.32-.07,0,0,.13-.02,.15-.02,.07,0,.14,0,.22,0,.08,0,.16,0,.24,.01,.03,0,.05,0,.08,0-.13-.01,0,0,.02,0,.15,.03,.3,.07,.44,.12,.02,0,.04,.01,.06,.02,.02,0,.05,.02,.06,.03,.07,.04,.14,.07,.21,.12,.02,.02,.1,.07,.12,.08,.06,.05,.12,.1,.18,.16,.24,.24,.64,.24,.88,0,.24-.24,.24-.65,0-.88-1.07-1.05-2.83-1.19-4.1-.44-1.3,.77-1.8,2.4-1.33,3.81,.26,.79,.78,1.48,1.52,1.88Zm-.29-3.79s.05-.1,0,0h0Zm-.13,.49c0-.08,0-.03,0,0h0Z"/><path class="m" d="M110.05,198.96c.71,.36,1.33-.67,.63-1.08-1.04-.6-2.98-1.89-1.8-3.26,1.26-1.47,3.39-.59,4.84,.04,.73,.32,1.37-.76,.63-1.08-1.18-.52-2.43-1.07-3.75-1.01-1.07,.04-2.13,.53-2.78,1.39-.65,.86-.7,1.99-.17,2.92,.11,.19,.24,.35,.38,.52-.93,.1-1.8,.52-2.37,1.35-.88,1.3-.58,3.43,.93,4.12,.73,.33,1.36-.75,.63-1.08-.89-.41-1.05-1.65-.48-2.41,.75-1,2.31-.92,3.31-.42Z"/><path class="m" d="M94.2,199.65c-.42,.53-.51,1.23-.34,1.85-1.07,.13-2.09,.78-2.41,1.85-.47,1.57,1.07,3.39,2.71,2.94,.77-.21,.45-1.42-.33-1.21-.14,.04-.12,.04-.28,.03-.06,0,.02,.01-.07-.02,0,0-.18-.06-.11-.03-.2-.09-.35-.21-.47-.37-.13-.17-.21-.34-.26-.57-.03-.14-.02-.38,.03-.5,.34-.87,1.47-1.08,2.28-.78,.68,.25,1.07-.79,.48-1.14-.43-.25-.57-.92-.25-1.3,.32-.37,.98-.35,1.33,.03,.54,.6,1.42-.29,.88-.88-.82-.91-2.43-.88-3.19,.09Z"/><path class="m" d="M84.26,195.89c-1.04,.48-1.38,1.71-1.1,2.76,.17,.62,.53,1.2,.99,1.64,.24,.22,.65,.25,.88,0,.22-.24,.25-.64,0-.88-.08-.07-.15-.15-.22-.23-.01-.01-.06-.08-.07-.09l-.05-.07c-.06-.09-.11-.18-.16-.27-.02-.05-.05-.09-.07-.14v-.02l-.02-.03c-.04-.1-.07-.2-.09-.3-.01-.04-.02-.09-.03-.13v-.05c-.02-.1-.02-.2-.01-.3v-.04s.02-.11,.04-.16c.01-.05,.03-.1,.05-.14h0s.04-.09,.06-.12c0-.01,.02-.03,.02-.04,.05-.05,.09-.1,.14-.14h.01s.05-.05,.08-.06c.03-.02,.07-.04,.1-.06h.03c.07-.03,.14-.06,.21-.08,.03,0,.07-.01,.1-.02,.08,0,.15,0,.23,0h.02s.07,.02,.1,.02c.03,0,.05,.02,.08,.03l.03,.02s.05,.03,.07,.05c.01,0,.02,.02,.03,.03l.03,.03s.05,.07,.06,.09c.16,.29,.58,.4,.86,.22,.29-.19,.39-.55,.22-.86-.52-.94-1.72-1.06-2.62-.64Zm.06,1.83v-.02c0-.09,0-.02,0,.02Z"/><path class="m" d="M114.71,206.98c-1.42-.55-3.52-1.09-4.52,.48-.3,.48-.42,1.13-.3,1.71-.18,.03-.36,.09-.54,.18-.57,.3-.97,.94-.88,1.59,.1,.64,.66,1.07,1.14,1.44,.53,.42,1.09,.79,1.68,1.11,.71,.38,1.34-.69,.63-1.08-.41-.22-.81-.47-1.19-.74-.32-.23-.69-.49-.95-.79-.06-.08-.08-.12-.08-.16,.02-.1,.11-.19,.2-.24,.33-.2,.82-.08,1.18,0,.33,.06,.67-.09,.77-.44,.08-.31-.1-.7-.44-.77-.05,0-.09-.02-.14-.03h-.02l-.02-.02h0s-.06-.06-.09-.09c.11,.13-.07-.19-.02-.04-.01-.03-.04-.17-.05-.19,0-.08,0-.17,0-.25,0-.03,0-.03,0-.04,0,0,0,0,0-.03,0-.04,.02-.08,.03-.12,.01-.05,.1-.27,.06-.18,.03-.05,.05-.11,.08-.16,0,0,.05-.07,.06-.09,.01,0,.11-.11,.12-.12,.02-.01,.09-.06,.09-.06,.05-.03,.1-.05,.15-.07,.26-.1,.55-.12,.82-.1,.65,.03,1.28,.29,1.88,.52,.32,.12,.69-.13,.77-.44,.1-.35-.12-.65-.44-.77Z"/><path class="m" d="M133.19,30.8c-3.73-.15-8.15-1.36-11.14,1.63-.57,.57,.31,1.45,.88,.88,2.67-2.67,6.96-1.4,10.26-1.26,.8,.03,.8-1.22,0-1.25Z"/><path class="m" d="M148.03,36.44c-2.34-1.03-4.7-2.07-6.8-3.54-1-.7-1.84-1.55-2.77-2.34-.83-.71-1.76-1.28-2.88-1.25-.8,.02-.81,1.27,0,1.25,1.07-.03,1.88,.75,2.62,1.44,.86,.81,1.76,1.55,2.75,2.21,2.02,1.34,4.25,2.33,6.46,3.3,.73,.32,1.37-.76,.63-1.08Z"/><path class="m" d="M149.71,44.02c-5.26,7.17-16.61,3.93-22.65-.4-.66-.47-1.28,.61-.63,1.08,6.7,4.8,18.66,7.72,24.36-.05,.48-.65-.61-1.27-1.08-.63Z"/></g><path class="m" d="M17.77,116.29c7.58-5.97,15.92-10.92,24.76-14.78,.74-.32,.1-1.4-.63-1.08-8.95,3.9-17.34,8.94-25.02,14.97-.63,.5,.26,1.38,.88,.88h0Z"/><path class="m" d="M20.64,103.84c8.56-4.81,17.58-8.73,26.94-11.71,.76-.24,.44-1.45-.33-1.21-9.46,3-18.59,6.97-27.24,11.83-.7,.39-.07,1.47,.63,1.08h0Z"/><path class="m" d="M16.55,128.58c5.73-6.02,11.99-11.53,18.7-16.43,.64-.47,.02-1.56-.63-1.08-6.8,4.97-13.14,10.53-18.95,16.63-.55,.58,.33,1.47,.88,.88h0Z"/><path class="m" d="M21.5,132.68l6.67-8.24c.21-.26,.25-.62,0-.88-.22-.22-.67-.26-.88,0l-6.67,8.24c-.21,.26-.25,.62,0,.88,.22,.22,.67,.26,.88,0h0Z"/><path class="c" d="M137.38,43.25l.19-2.24h-5l-.23,2.68h5l.17-2.07h-5l-.24,2.8c-.01,.34,.06,.67,.22,.96,.1,.31,.27,.58,.52,.8,.23,.24,.49,.42,.8,.52,.3,.16,.62,.23,.96,.22,.65-.03,1.32-.24,1.77-.73l.39-.51c.23-.39,.34-.81,.34-1.26l.24-2.8c.01-.34-.06-.67-.22-.96-.1-.31-.27-.58-.52-.8-.23-.24-.49-.42-.8-.52-.3-.16-.62-.23-.96-.22-.65,.03-1.32,.24-1.77,.73l-.39,.51c-.23,.39-.34,.81-.34,1.26l-.17,2.07c-.01,.34,.06,.67,.22,.96,.1,.31,.27,.58,.52,.8,.23,.24,.49,.42,.8,.52,.3,.16,.62,.23,.96,.22,.65-.03,1.32-.24,1.77-.73l.39-.51c.23-.39,.34-.81,.34-1.26l.23-2.68c.01-.34-.06-.67-.22-.96-.1-.31-.27-.58-.52-.8-.23-.24-.49-.42-.8-.52-.3-.16-.62-.23-.96-.22-.65,.03-1.32,.24-1.77,.73l-.39,.51c-.23,.39-.34,.81-.34,1.26l-.19,2.24c-.01,.34,.06,.67,.22,.96,.1,.31,.27,.58,.52,.8,.23,.24,.49,.42,.8,.52,.3,.16,.62,.23,.96,.22,.65-.03,1.32-.24,1.77-.73l.39-.51c.23-.39,.34-.81,.34-1.26h0Z"/></g></g></svg>