<?xml version="1.0" encoding="UTF-8"?><svg xmlns="http://www.w3.org/2000/svg" viewBox="0 0 101.44 395.61"><defs><style>.c{fill:#f4bcb8;}.d{fill:#998f8f;}.e{fill:#332a29;}.f{fill:#8c8281;}.g{fill:#d89c9a;}.h{fill:#231f20;}.i{fill:#5b4f4f;}.j{fill:#493f3f;}.k{fill:#776e6d;}</style></defs><g id="a"/><g id="b"><g><g><path class="k" d="M95,268.28c.4-17.89,.98-35.81,4.67-53.38,.16-.75,.08-1.43-.15-2.01,.03-.61,.07-1.22,.07-1.83,0-1.38-.66-2.33-1.57-2.86,.3-4.11,.44-8.23,.33-12.34-.03-1.18-.19-2.38-.45-3.55,.12-.23,.23-.47,.31-.74,1.44-5.08,1.5-10.05,.23-15.18-.54-2.17-2.47-2.8-4.15-2.36-.44-.46-.88-.92-1.33-1.37-.39-.43-.76-.83-1.12-1.2,.07-1.12-.42-2.23-1.76-2.9-1.65-.83-3.21-1.79-4.72-2.81-.12-.22-.24-.44-.35-.65-.7-1.27-1.8-1.75-2.9-1.71-2.22-1.7-4.39-3.48-6.61-5.17-.27-.52-.67-1-1.29-1.38-1.02-.63-2.08-1.2-3.14-1.73-1.05-.66-2.12-1.29-3.24-1.85-.7-.35-1.41-.44-2.09-.34-3-.96-6.12-1.54-9.32-1.68-6.95-.31-13.52,2.01-20.53,1.33-1.43-.14-2.56,.8-3.11,2.02-5.07,.77-12.36,8.07-14.65,9.92-3.31,2.66-7.7,5.78-10.55,9.52-.58,.49-1.14,.99-1.65,1.54-2.99,3.18-2.73,7.43-2.97,11.54-.35,5.84-.65,11.69-.92,17.54-.05,1.01,.28,1.79,.81,2.34-1.84,17.79,.4,35.97,2.14,53.68,.7,7.16,1.51,14.32,2.4,21.47-.44,.55-.72,1.26-.72,2.15-.17,24.27-1.27,48.51-3.28,72.69-.91,1.66-1.23,3.58-.84,5.48-1.09,2.17,.24,4.08,2.11,4.65,.45,.83,.91,1.66,1.36,2.5,.69,1.26,1.78,2.26,3.05,2.94,1.96,2.71,4.06,5.34,6.14,8.01,3.58,4.61,7.63,13.43,14.34,13.42,4.2-.01,8.12-.56,12.37-.06,4.22,.5,8.37,1.23,12.64,1.26,6.24,.05,14.13,.04,20.3-2.25,.37,.14,.76,.22,1.14,.2,2.02-.09,3.27-1.5,3.49-3.41v-.02c-.09,1,.02,.14,.08-.13v-.02s.03-.05,.04-.07c.03-.05,.06-.1,.09-.15,.15-.1,.42-.43,.52-.52,.74-.61,1.05-1.6,1.01-2.58,.99-.29,1.85-1.02,2.2-2.33,.74-2.71,2.71-5.22,4.34-7.58,.98-1.19,1.94-2.39,2.9-3.59,2.53-2.22,5.16-4.29,7.52-6.74,.99-1.03,1.16-2.23,.85-3.28,.26-.63,.31-1.37,.05-2.21-.54-1.78-1.02-3.57-1.47-5.37,.64-4.44-.28-9.25-.6-13.62-.45-6.23-.9-12.45-1.35-18.68-.06-.83-.33-1.51-.73-2.03-.33-3.27-.63-6.55-.88-9.83,.31-14.22,.62-28.44,.94-42.66Zm-15.51,121.35s0-.02,0-.04v.03h0Z"/><path class="f" d="M77.81,250.82c-.52-19.4-1.31-38.79-2.34-58.16-.03-.53-.11-1.02-.21-1.5,1.07-2.54,.73-5.52-2.06-7.93-.12-.1-.24-.2-.36-.3-.31-.32-.66-.61-1.04-.87-7.23-5.79-15.83-9.33-25.22-9.5-7.21-.13-16,2.66-20.13,8.7-.86,.9-1.52,2.12-1.86,3.69-5.75,26.65-3.44,54.55-2.4,81.57,.19,4.9,.41,9.81,.63,14.71-.81,18.34-.8,36.71,.06,55.05,.49,10.5,1.07,21.08,3.26,31.38,.5,2.36,.98,4.8,2,6.99,1.02,2.21,2.82,3.81,4.62,5.37,3.43,2.97,7.1,5.84,11.72,6.5,5.47,.78,10.76-1.43,15.51-3.9,3.84-1.99,7.93-4.15,10.01-8.02,.18-.16,.36-.32,.52-.47,5.7-5.3,7.26-12.57,7.56-20.05,1.35-34.35,.64-68.93-.28-103.28Zm-28.95,107.31c.42,.15,.85,.26,1.29,.34,0,.07-.01,.14-.02,.21-.34,0-.69,0-1.03-.02-.08-.18-.17-.35-.25-.53Z"/><path class="d" d="M66.53,326.85c-1.78-29.52-2.39-59.11-1.83-88.67,.15-7.91,.5-15.81,.53-23.72,.03-7.07,1.16-17.9-3.39-23.76-4.73-6.1-13.91-5.78-19.85-1.78-4.95,3.33-7.51,8.32-7.84,13.84-2.52,6.29-2.25,13.53-2.56,20.18-.66,14.22-1.19,28.44-1.39,42.68-.41,28.86,.64,57.72,4.55,86.33,.95,6.93,.84,14.53,8.59,17.08,6.1,2.01,12.95,.07,17.56-4.32,10.07-9.59,6.38-25.57,5.64-37.86Z"/><g><path class="i" d="M99.53,192.41c-.4-.9-.81-1.8-1.21-2.7,.8,.27,1.77-.45,1.21-1.36-.4-.65-.79-1.31-1.19-1.96,.51-.23,.88-.84,.51-1.41-.07-.11-.14-.22-.21-.33,.42-.25,.67-.77,.36-1.32-.38-.6-.73-1.22-1.11-1.83,.41-.25,.65-.8,.41-1.36-.15-.34-.3-.68-.46-1.01,.22-.35,.27-.83-.06-1.23-.98-1.18-1.98-2.32-3.01-3.45-.04-1.37-1.03-2.13-2.11-2.25-.94-.98-1.9-1.94-2.89-2.88-.45-.43-1.02-.32-1.37,.02-.16-.33-.33-.65-.52-.97-.35-.7-.71-1.4-1.1-2.08-.31-.55-1.15-.07-.87,.48-.19-.2-.38-.39-.6-.56-.25-.2-.55-.14-.72,.04-.16-.2-.3-.42-.46-.62-1.24-1.55-2.62-2.98-4.11-4.29-.48-.42-1.19,.28-.71,.71,4.97,4.35,8.56,10.15,10.29,16.52,.04,.45,.06,.9,.09,1.35-.37,24.44-.73,48.88-1.1,73.32-.19,12.95-.4,25.9-.23,38.86,.09,6.43,.27,12.86,.59,19.28,.33,6.51,.77,13.01,.84,19.52,.16,13.96-1.08,27.91-3.67,41.63-3.35,6.43-8.23,12.06-14.17,16.23-2.55,1.79-5.28,3.31-8.15,4.52-.59,.25-.38,1.06,.27,.96,1.21-.18,2.4-.46,3.57-.8-.06,.32,.19,.71,.6,.6,1.05-.28,2.04-.65,3-1.1,.32-.07,.63-.15,.93-.26-.07,.05-.13,.11-.2,.17-.4,.32,.03,.97,.49,.84,.48-.15,.93-.37,1.35-.62-.01,.37,.12,.73,.5,1.04,.19,.16,.38,.18,.61,.08,.62-.28,.88-.99,.75-1.63,.95-1.01,1.76-2.13,2.43-3.34,.76-.76,1.52-1.53,2.28-2.29-.11,.47,.61,.82,.93,.34,.24-.36,.46-.73,.69-1.1,.08-.04,.15-.09,.2-.17,.55-.8,1.06-1.62,1.55-2.46l.07-.07c.08-.08,.12-.18,.13-.27,.53-.92,1.02-1.87,1.47-2.83,.21,.22,.6,.28,.79-.07,.25-.46,.48-.94,.71-1.41,.23,.03,.51-.11,.55-.35,.1-.58,.25-1.14,.44-1.69,1.18,.18,2.57-.55,2.81-1.79,.13-.69,.25-1.39,.38-2.08,.24-.06,.48-.19,.7-.42,1.16-1.16,2.32-2.33,3.48-3.49,.99-.99,2.09-1.96,2.7-3.25,.7-1.48,.46-3.1,.33-4.67-.15-1.73-.3-3.45-.45-5.18-.52-5.8-1.11-11.6-1.74-17.39-.04-1.08-.09-2.16-.19-3.23-.08-.82-.38-1.62-1.15-1.93-.01-11.17-.92-22.33-1.26-33.5,.3-.14,.53-.42,.53-.86,0-.33-.02-.67-.04-1-.39-8.9-.32-17.82,.23-26.72,.16-.16,.27-.39,.27-.71-.06-8.58,.4-17.15,1.39-25.67,.03-.29-.05-.51-.2-.67,.08-.17,.13-.36,.15-.57,1.29-13.94,2.11-27.92,2.46-41.91,0-.38-.09-.68-.27-.91,.05-.76,.08-1.52,.07-2.27,.98,.05,1.58-.86,1.33-1.82-.11-.44-.31-.89-.55-1.32,.31-.3,.46-.76,.19-1.19-.09-.14-.17-.27-.25-.41,.54-.15,.97-.76,.66-1.45Zm-24.9,196.63s.1-.03,.15-.04c-.23,.15-.46,.31-.69,.45,.18-.14,.36-.28,.55-.41Zm1.84-1.31c.15-.1,.29-.2,.44-.3l-.02,.02c-.11,.09-.22,.18-.34,.27-.03,0-.06,0-.08,0Zm-7.97,4.33s0,.02,.01,.03c-.06,.02-.12,.04-.18,.06,.06-.03,.11-.06,.17-.09Z"/><path class="i" d="M38.77,392.81c-11.18-3.18-19.5-12.33-23.64-22.94-3.2-22.87-4.39-46.02-3.58-69.09,.24-6.85,.66-13.7,1.25-20.53,.05-.59-.19-1.13-.57-1.57,.15-9.88-.15-19.78-.52-29.66-.59-16.07-1.33-32.18-.45-48.26,.49-9.01,1.52-17.97,3.36-26.8,.02-.09,.02-.18,.03-.28,.2-.43,.41-.86,.63-1.29,4.64-6.34,10.26-11.94,16.62-16.55,.51-.37,.06-1.2-.5-.86-1.28,.76-2.57,1.53-3.83,2.34-.15-.04-.31-.02-.44,.13-.13,.14-.26,.27-.38,.41-1.54,1.04-3,2.16-4.33,3.43-.18-.18-.46-.24-.68,0-.59,.65-1.16,1.32-1.71,2-.12-.04-.26-.04-.4,.03-1.09,.57-1.92,1.5-2.61,2.54-1.73,1.16-3.32,2.5-4.77,3.99-.28,.26-.54,.53-.78,.82-.04,.04-.07,.08-.11,.11h0s-.06,.07-.08,.1c-.03,.05-.05,.09-.06,.14-.39,.16-.74,.41-1,.74-.06,0-.13,.01-.2,.03-7.66,2.04-7.15,11.77-7.26,17.97-.05,2.54-.05,5.08-.03,7.62-.29,5.01-.37,10.03-.23,15.05,.09,3.13,.26,6.26,.52,9.38,.19,2.3,.41,4.6,1.29,6.72,.04,1.66,.07,3.32,.11,4.98,.15,6.07,.32,12.14,.49,18.2,.03,.89,.44,1.53,1.01,1.93,.27,6.73,.55,13.45,.82,20.18,.02,.49,.23,.85,.53,1.1-.03,7.48-.28,14.97-.94,22.43-.04,.44,.09,.86,.32,1.23-.39,9.57-.42,19.15-.12,28.72-.04,0-.08-.01-.12-.01-.39,.02-.79,.14-1.06,.44-.29,.31-.39,.64-.44,1.06-.13,1.08-.17,2.17-.1,3.25,.06,1,.18,2.08,.72,2.95-.41,1.79-.37,3.63-.26,5.47-.12,2.15-.18,4.3-.16,6.44-.12,.89-.26,1.79-.45,2.7-.57,2.7-1.18,5.39-1.66,8.11-.45,2.54-1.33,5.67-.57,8.2,.23,.76,.86,1.09,1.5,1.05,.39,.59,.98,1.08,1.46,1.56,.47,.47,.93,.94,1.4,1.41,.06,.1,.12,.21,.18,.31,1.01,1.55,2.38,2.78,3.77,3.98,.05,.05,.11,.08,.17,.12,.29,.49,.78,.86,1.35,1.05,.28,.63,.56,1.26,.83,1.89,.12,.3,.25,.59,.39,.88,.12,.33,.24,.67,.36,1,.21,.6,1.18,.34,.96-.27l-.2-.56c.06,0,.12,0,.17-.03,.59,1.89,1.24,3.76,1.99,5.6,.24,.59,1.21,.33,.96-.27-.15-.35-.27-.71-.41-1.07,.12-.02,.24-.08,.31-.18,.88,1.1,1.76,2.21,2.65,3.31,.09,.13,.18,.26,.27,.39-.04,.12-.04,.25,.05,.38,.36,.52,.74,1.03,1.12,1.54,.08,.14,.17,.28,.26,.41,.63,1.87,1.97,3.37,3.74,4.22l.04,.04c.19,.19,.37,.39,.57,.58,.34,.33,.76,.07,.82-.29,1.4,.43,2.85,.65,4.33,.62,.07,0,.12-.02,.17-.04,.11,.02,.21,0,.29-.04,.26,.09,.53,.15,.8,.19,.46,.07,.73-.43,.59-.74,.87,.15,1.74,.29,2.6,.41,.86,.17,1.73,.31,2.61,.39h0s.09,.01,.13,.02c.57,.05,.66-.83,.13-.98Zm-14.47-4.71c-.09-.12-.17-.25-.26-.37,.12,.12,.24,.23,.36,.35-.04,0-.07,.01-.1,.02Zm-2.16-2.42s-.04,.02-.06,.04c-.09-.15-.18-.3-.27-.45,.12,.14,.22,.28,.34,.41Zm-6.39-11.79l-.02-.08c.04,.08,.08,.16,.11,.23l-.1-.16Zm3.9-208.49s.04,.02,.06,.03c-.13,.14-.26,.28-.38,.42,.11-.15,.21-.3,.32-.45Z"/></g><g><path class="j" d="M3.45,214.4c-.05,3.2-.04,6.4,.02,9.59,.06,2.96,.15,5.93,.26,8.89-.26,.15-.44,.41-.41,.81,1.55,18.34,3.09,36.72,2.82,55.14-.08,5.2-.31,10.39-.71,15.57-.1,1.28,1.9,1.28,2,0,1.43-18.37,.56-36.81-.84-55.15-.2-2.68-.42-5.36-.64-8.05,.07-.13,.11-.29,.11-.48-.83-19.06-1.69-38.52,2.95-57.2,.89-3.59,1.98-7.15,3.73-10.38,0-.02,.02-.04,.03-.05,.61-1.13,1.3-2.21,2.09-3.24,.18-.24,.23-.48,.18-.69,.63-.7,1.31-1.37,2.07-2,.4-.34,.37-1.07,0-1.41-.43-.39-.98-.36-1.41,0-1.65,1.38-3.09,3.01-4.27,4.82-.3-.08-.64-.04-.93,.19-1.59,1.26-2.84,2.75-3.82,4.38-.06,.02-.12,.03-.19,.06-.63,.33-1.18,.82-1.6,1.4-.59-.42-1.63-.1-1.61,.79,.1,3.64,.03,7.27-.21,10.9-.12,1.23-.21,2.45-.29,3.64-.01,.19,.03,.34,.09,.48l-.24,2.92c-.43,3.47-.7,6.98-.86,10.48l-.08,.96c0,.09,.02,.15,.03,.22-.09,2.39-.15,4.77-.18,7.14-.02,1.19,1.6,1.26,1.93,.27Z"/><path class="j" d="M30.38,391.89c-2.06-.86-4.11-1.77-5.71-3.39-1.61-1.62-2.95-3.55-4.33-5.37-2.85-3.78-5.56-7.68-8.12-11.66-1.23-1.91-2.65-3.86-3.49-5.98-.9-2.27-.96-4.82-1.17-7.22-.43-4.96-.69-9.93-.78-14.91-.1-5.55,.03-11.1,.36-16.64,.08-1.29-1.92-1.28-2,0-.45,7.51-.5,15.04-.17,22.55-.35,.13-.64,.42-.68,.88-.23,2.46-.22,4.92,.02,7.37-.38,.1-.7,.4-.69,.92,.02,.94,.11,1.88,.23,2.81-.35,.08-.66,.31-.72,.68-.1,.63-.11,1.24-.06,1.85-.12,.02-.24,.05-.36,.12-.44,.26-.67,.92-.36,1.37,.93,1.35,1.87,2.71,2.8,4.06,.31,.44,.88,.65,1.37,.36,.17-.1,.3-.27,.38-.46,.56,.88,1.11,1.77,1.67,2.65,1,1.93,2.16,3.78,3.48,5.52,.49,.64,1.34,.5,1.71,.02,1.52,2.21,3.08,4.39,4.69,6.54,1.55,2.07,3.07,4.29,4.93,6.11,.04,.04,.09,.08,.13,.12-.04,.03-.09,.04-.12,.08-.14,.15-.23,.34-.26,.55-.26,.38-.24,.93,.11,1.26,.69,.65,1.48,1.2,2.34,1.61,.25,.12,.5,.18,.77,.1,.22-.06,.44-.23,.57-.42,.08-.09,.15-.18,.2-.3,.05-.13,.07-.27,.07-.41,.86,.42,1.75,.8,2.64,1.17,1.19,.49,1.7-1.44,.53-1.93Z"/><path class="j" d="M97.61,359.25c.12-.88,.24-1.76,.32-2.64,.08-.79-.8-1.13-1.42-.89,.35-2.7,.58-5.41,.57-8.14-.04-9.26-.61-18.55-1.01-27.81,.05-.71,.09-1.41,.16-2.12,.04-.34-.09-.59-.28-.74-.06-1.27-2.05-1.28-2,0,.04,.95,.08,1.9,.12,2.84-.34,4.54-.27,9.1,.25,13.63,.03,.29,.17,.51,.36,.67,.17,4.18,.32,8.36,.39,12.54,.08,4.93-.59,9.72-1.41,14.56-.71,4.2-1.5,8.47-4.05,12-.76,1.04,.98,2.04,1.73,1.01,1.08-1.49,1.85-3.13,2.45-4.83,.47,.49,1.47,.5,1.72-.36,.31-1.05,.6-2.11,.85-3.18,.06,.47,.35,.87,.86,.93,.45,.05,1.02-.22,1.1-.72,.31-1.93,.44-3.87,.36-5.83-.03-.7-.57-1-1.08-.95Z"/><path class="j" d="M88.16,374.24c-2.08,3.12-4.26,6.26-6.72,9.14-.16,.03-.3,.13-.37,.32-.03,.08-.07,.15-.1,.23-1.99,2.27-4.16,4.37-6.62,6.13-.21,.15-.42,.28-.63,.43-.21,.1-.41,.23-.58,.39-1.25,.8-2.56,1.5-3.92,2.09-.45,.2-.23,.98,.25,.93,.33-.03,.65-.08,.98-.12,.1,.17,.29,.29,.54,.22,.62-.16,1.22-.37,1.81-.6,1.56-.31,3.1-.71,4.6-1.25,.5-.18,.46-1.02-.13-.98l-.63,.04c2.29-1.75,4.11-4.1,5.21-6.79,1.28-1.47,2.48-3,3.63-4.56,1.23-1.67,2.4-3.39,3.55-5.12,.36-.54-.51-1.04-.86-.5Zm-13.11,16.57l-.26,.2s.02-.06,.03-.09c.07-.05,.15-.1,.22-.16,0,.02,0,.03,0,.05Z"/><path class="j" d="M99.76,191.18c-.36-2.11-.79-4.19-1.09-6.32-.14-.99-.29-1.99-.47-2.97,0-.04,.02-.08,.02-.12-.02-1.32-.23-2.61-.64-3.85,0-.03-.02-.06-.03-.1-.08-.23-.15-.47-.24-.7-.14-.35-.46-.57-.8-.65l-.19-.23c-.48-.89-1.07-1.73-1.79-2.51-.19-.2-.42-.29-.65-.29-.04-.06-.07-.13-.12-.19-.39-.57-1.08-.58-1.5-.24-.84-1.32-1.81-2.55-2.97-3.63-.23-.22-.51-.16-.69,.01-.56-.68-1.14-1.35-1.76-1.98-.45-.46-1.16,.25-.71,.71,5.6,5.66,8.24,13.43,9.91,21.1,.16,1.49,.29,2.96,.41,4.39,.85,10.21,.67,20.47,.11,30.68-.31,5.76-.75,11.51-1.18,17.26-.05,.64,.95,.64,1,0,.78-10.43,1.57-20.86,1.65-31.32,.03-3.35-.03-6.71-.18-10.06,.02,.19,.05,.38,.07,.58,.07,.63,1.07,.64,1,0-.1-.97-.23-1.94-.36-2.9,.35-.06,.68-.29,.85-.68,.81-1.92,.68-3.96,.34-5.97Zm-7.99-17.09c.66,1.09,1.21,2.24,1.69,3.43-.51-1.17-1.07-2.31-1.69-3.43Z"/></g><path class="j" d="M93.77,329.01c1.12,8.79,.51,17.92-.48,26.69-.91,7.98-2.83,16.01-7.63,22.59-.76,1.04,.98,2.04,1.73,1.01,4.84-6.64,6.83-14.73,7.81-22.77,.53-4.33,.8-8.69,.99-13.05,.21-4.83,.2-9.67-.41-14.47-.16-1.26-2.16-1.28-2,0h0Z"/><path class="e" d="M91.3,168.18c-9.03-13.4-17.69-27.03-25.98-40.9-2.35-3.93-4.67-7.88-6.96-11.85-.5-.87-1.55-.48-1.78,.26l-.31-.32s-.04-.06-.05-.1l1.6-1.25c1.18-.93,2.53-1.78,3.37-3.06,.55-.84,.79-1.88,.4-2.78-.11-.53-.35-1.03-.72-1.47-.18-.42-.7-.62-1.18-.52-.52-.15-1.01-.35-1.49-.65-.58-.36-1.12-.06-1.35,.42-.58-.45-1.28-.16-1.56,.33-.38-.19-.76-.38-1.14-.57-.23-.11-.44-.13-.64-.09-.13-3.09-.25-6.17-.35-9.26,.03-.11,.06-.23,.05-.37-.01-.25-.02-.51-.03-.76,.2-.16,.33-.4,.31-.75-.28-4.52-.36-9.05-.27-13.57,.39-.1,.72-.4,.74-.92,.72-18.38,1.51-36.77,2.37-55.14,.24-5.24,.5-10.48,.75-15.72,.03-.7-.55-1.01-1.09-.94,.01-1.2,0-2.4-.05-3.6,.02-.17,.03-.34,.05-.5,.07-.65,.06-1.34-.14-1.95,.28-.07,.55-.15,.83-.22,1.24-.33,.72-2.26-.53-1.93-.75,.2-1.49,.39-2.24,.59-.71-.05-1.4,.25-1.82,.91-.34,.54-.03,1.19,.5,1.42,0,.12-.01,.23-.02,.35-.17,.12-.29,.3-.32,.54v.05c-.04,.09-.08,.18-.09,.3l-.08,.95c-.58,4.31-.97,8.64-1.16,12.98-.58,4.11-.94,8.24-1.05,12.39-.01,.46,.21,.73,.51,.87-.41,4.28-.73,8.56-.94,12.85-.14,2.54-.23,5.09-.29,7.63-.02,.06-.06,.11-.07,.18-1.29,8.24-1.71,16.58-1.21,24.9,.03,.42,.25,.69,.53,.84,.03,1.47,.07,2.94,.12,4.41-.01,1.38,0,2.75,0,4.13-.05,1.09-.04,2.18,.04,3.26,0,.35,0,.7,.01,1.05,0,.19,.06,.35,.14,.49,.07,.5,.15,1.01,.24,1.51,.03,.14,.08,.26,.15,.35,.15,1.96,.32,3.92,.51,5.87,.15,1.77,.29,3.55,.44,5.32,.05,.64,.58,.96,1.08,.96,.03,.22,.07,.45,.1,.67l-.12-.1c-.53-.44-1.17-.24-1.5,.17-.21-.17-.41-.34-.62-.52-.65-.54-1.45-.14-1.66,.45-.56-.02-1.06,.41-1.08,.94l-.39-.34c-.32-.27-.67-.3-.98-.2-.46-.26-.92-.51-1.39-.75-.94-.48-1.69,.47-1.39,1.23-.31,.35-.41,.94-.11,1.38-.49,.31-.74,1.09-.27,1.61l.67,.73c-.16,.33-.15,.74,.19,1.09,.71,.73,1.46,1.4,2.25,2.03l.58,.53c-.88,1.21-1.76,2.43-2.63,3.64-4.52,5.27-8.6,10.9-12.19,16.85-.33,.54-.1,1.03,.29,1.28-.68,1.01-1.35,2.02-2.03,3.04-.18,.26-.21,.52-.15,.73-5.13,7.5-10.26,15-15.39,22.5-.53,.78,.2,1.47,.94,1.43,0,.02,0,.03,0,.05l-.1,.09c-1.87,.93-3.41,2.27-4.66,3.95-.43,.59,.15,1.53,.84,1.53,.35,.22,.81,.26,1.21-.1,.3-.28,.59-.57,.89-.84,.26,.03,.53-.04,.77-.3l.44-.49c1.6-1.15,2.94-2.61,3.97-4.37,.01-.02,.01-.04,.02-.06,1.75-1.9,3.44-3.87,5.05-5.91,.48-.61,.17-1.38-.36-1.65,6.56-9.8,13.12-19.61,19.69-29.41,.31,.08,.64,.04,.91-.25l3.7-4.09c.45-.5,.27-1.12-.11-1.46,.47-.74,.95-1.48,1.42-2.21,.19-.29,.16-.6,.04-.87,.18-.27,.37-.55,.55-.82,.09,.08,.16,.18,.25,.26,.48,.45,1.03,.35,1.36,0,.09,.04,.17,.09,.26,.13-.12,.15-.19,.34-.17,.6,.07,.87,.14,1.73,.21,2.6-.5,4.62-.57,9.27-.45,13.92,.05,1.78,.12,3.55,.2,5.33-.16,.16-.28,.38-.28,.68-.05,1.77-.05,3.54,.04,5.3,0,.04,0,.08,0,.12-.06,1.33-.18,2.65-.35,3.98l-.14-.04c-1.23-.39-1.76,1.54-.53,1.93,1.07,.34,2.14,.68,3.21,1.02,.44,.14,.89-.1,1.13-.46,.03-.05,.05-.1,.07-.15,.76-.14,.98-.98,.59-1.53,0-.17-.03-.35-.09-.55,.05-.3,.08-.6,.08-.89,.07-7.29-.19-14.6-.28-21.89,0-.38-.18-.63-.42-.79,.1-2.73-.08-5.45-.52-8.17,.24,.01,.48-.05,.71-.23l.64-.51c-.14,.26-.18,.58-.02,.93,1.24,2.78,2.65,5.48,4.23,8.09,.32,.53,.83,.59,1.23,.38,1.68,2.76,3.49,5.46,5.25,8.15,4.18,6.41,8.36,12.81,12.54,19.22,.1,.16,.23,.26,.37,.34,2.91,5.47,6.01,11.02,11.22,14.38,.11,.07,.21,.1,.31,.13,.13,.2,.26,.4,.39,.59,.72,1.06,2.45,.06,1.73-1.01Zm-32.27-57.83s-.04-.05-.07-.08c.1,0,.19,0,.28-.03-.06,.07-.12,.13-.18,.19-.02-.03-.02-.05-.04-.08Z"/><g><path class="c" d="M60.86,228.03c-.4-.94-1.28-2.16-2.34-2.84-.32-.35-.67-.68-1.06-.96-1.68-1.21-4.1-1.34-6.09-1-1.33,.23-2.56,1.04-3.1,2.2-.39,0-.8,.14-1.21,.49-.12,.1-.19,.22-.24,.35-.97-.91-2.11-1.64-2.9-1.98-2.71-1.19-6.34-.61-7.87,2.14-1.63,2.93-.36,6.98,.94,9.81,1.06,2.31,2.82,4.37,5.1,5.46,.11,.12,.25,.21,.44,.25,.1,.02,.2,.03,.3,.04,.54,.2,1.1,.36,1.69,.45,.26,.04,.5-.01,.7-.12,.22,.02,.44,.03,.66,.05l2.34,.3c.75,.11,1.5,.21,2.25,.29,.45,.05,.73-.17,.86-.47,.05,0,.11,0,.16,0,.94,.25,1.93,.42,2.79,.2,.85-.23,1.45-.89,1.61-1.69,.76-.34,1.27-1.08,1.16-1.93,.12-.15,.21-.31,.26-.48,.91,.35,1.69-.48,1.29-1.39-.04-.08-.08-.16-.11-.24,.54-.05,1.01-.52,.88-1.23,0-.04-.02-.08-.03-.11,.44,.19,1,.11,1.26-.39,.39-.74,.59-1.53,.67-2.32,.3-1.63,.26-3.3-.41-4.85Zm-23.24,.06s-.02-.02-.04-.03c0-.02,.01-.04,.02-.06l.02,.09Z"/><path class="c" d="M63.73,210.73c-.2-.5-.67-.85-1.23-.7-.37,.1-.71,.49-.74,.89-.18,.22-.28,.51-.2,.84l.1,.45c-.05,.16-.16,.35-.23,.45-.24,.41-.51,.82-.64,1.28-.1,.35-.12,.73-.05,1.08-.64-.09-1.14,.59-1.05,1.19-.33,.3-.49,.8-.27,1.21-.46,.23-.74,.75-.41,1.31-.31,.37-.35,1.02,.04,1.35,.41,.34,.82,.68,1.23,1.03,.34,.29,.8,.39,1.21,.16,.32-.19,.57-.65,.47-1.03,.37-.14,.64-.53,.66-.94,.48-.18,.87-.68,.66-1.2-.1-.26-.22-.51-.35-.75,.06-.06,.11-.12,.16-.18,.13,.1,.28,.2,.46,.28,.61,.26,1.27-.38,1.27-.96-.01-1.96-.37-3.91-1.09-5.74Z"/><path class="c" d="M44.53,215.34c.5,.83,1.21,1.37,2.09,1.74,.34,.14,.77-.05,1-.31,.27,0,.55-.11,.73-.28,.08-.08,.15-.18,.19-.28,.29,.01,.6-.09,.79-.28,.13-.13,.2-.28,.24-.44,.42-.23,.67-.76,.41-1.35h0s.04-.04,.06-.06c.28-.28,.31-.61,.26-.97-.29-2.07-.77-4.11-1.44-6.1-.28-.83-1.35-.97-1.83-.24-.73,1.12-.97,2.53-.64,3.83-.02,.21,.02,.44,.11,.65l.12,.26c-.3-.06-.61,0-.85,.25-.05,.05-.09,.13-.12,.19-.33-.01-.67,.14-.86,.39-.27,.36-.25,.8-.02,1.16-.01,.02-.04,.03-.05,.05-.19,.26-.23,.56-.16,.84-.17,.27-.23,.61,0,.97Zm5.06-2.94h0s.02,.02,0,0Zm0,0h0c.09,.03,.04,.03,0,0Z"/><path class="c" d="M35.49,220.86c.37,.21,.9,.12,1.19-.16,.42-.42,.34-.99,0-1.41-.91-1.16-1.36-2.62-1.73-4.02-.33-1.25-.57-3.38-2.19-3.6-.59-.08-1.31,.24-1.27,.96,.01,.17,.04,.34,.06,.51-.89,.55-.93,2.2-.72,3.19,.29,1.32,.92,2.62,1.54,3.81,.31,.6,.64,1.35,1.15,1.81,.86,.77,2.18,.02,1.97-1.09Z"/></g><path class="c" d="M95.13,305.7c-.12-.52-.25-1.04-.37-1.55-.32-1.35-1.79-2.05-3.08-1.75-13.2,3.14-26.67,4.85-40.23,5.13-.25,0-.47,.06-.68,.13h-.41s-.02-.01-.03-.01c-2.92-.4-5.84-.55-8.79-.39-.24,.01-.43,.11-.59,.24-3.28-.8-6.57-1.59-9.85-2.39-.74-.18-1.24,.4-1.23,1-.59-.55-1.22-1.03-1.98-1.36-.74-.32-1.6,.22-1.5,.98-.93-.65-1.85-1.3-2.78-1.95-.74-.52-1.49,.21-1.46,.94-.55-.41-1.09-.83-1.64-1.24-.71-.54-1.34,.09-1.41,.79l-2.07-1.83c-.71-.63-1.93,.04-1.71,.89-.41-.4-.84-.78-1.25-1.19-.49-.5-1.2-.29-1.53,.17l-.49-.94c-.35-.68-1.58-.62-1.79,.14-.14-.32-.28-.64-.42-.96-.28-.64-.91-.62-1.35-.29-.6-.34-1.62,.07-1.52,.86,.02,.17,.05,.34,.08,.5-.24,.22-.39,.54-.3,.95,.04,.17,.08,.33,.12,.5l.16,.67c-.37,.11-.68,.41-.66,.91,.01,.31,.1,.6,.24,.84,.08,1.03,.75,1.86,1.8,2.24,3.68,1.34,7.49,2.2,11.36,2.7l.18,.03h0c.22,.02,.44,.06,.66,.09,.37,.04,.72-.04,1.03-.2,.84,.5,1.72,.9,2.63,1.2l.2,.18c.38,.34,.8,.35,1.12,.18,1.06,.23,2.15,.33,3.24,.3,.24,.1,.47,.07,.67-.04,.47-.03,.94-.09,1.41-.18,.61,.19,1.23,.37,1.84,.58,.37,.13,.66,.03,.87-.16,.39,.22,.81,.41,1.26,.55,.26,.08,.52,.02,.74-.11,.13,.08,.28,.14,.47,.15,1.19,.06,2.38,.12,3.58,.17,1.99,.13,3.97,.32,5.94,.57,.31,.04,.54-.08,.71-.28,.46,.54,1.13,.91,1.86,.86l4.05-.29c6.7,1.27,13.83,.2,20.52-.53,7.28-.79,14.42-2.09,21.18-5.01,1.02-.44,1.38-1.84,1.15-2.82Zm-57.53,5.03l.18,.12s0,.06,0,.09c-.06-.07-.11-.14-.17-.21Z"/><g><path class="g" d="M11.28,302.2c-.09-.54-.37-.95-.81-1.27-.33-.24-.78-.16-1.11,.08-.21-.3-.62-.47-.97-.43-.52,.07-.82,.48-.87,.98l-.39,3.8c-.05,.52,.5,1.02,1,1,.08,0,.14-.03,.21-.05,.02,.06,.03,.13,.05,.19,.25,.63,.63,1.07,1.27,1.31,.29,.11,.64,0,.87-.18,.04-.03,.08-.07,.11-.11,.53-.05,.92-.45,.94-.99,.06-1.33-.05-2.66-.27-3.97-.01-.13-.02-.26-.04-.38Z"/><path class="g" d="M94.14,304.02c-.06-.52-.41-1.03-1-1-.15,0-.3,.05-.44,.12-.01,0-.02-.02-.03-.03-.31-.27-.7-.37-1.09-.21-.23,.1-.42,.29-.52,.52-.12-.06-.26-.1-.4-.11-.17-.2-.42-.34-.72-.33-.5,.02-1.05,.44-1,1,.16,1.98,.19,3.97,.08,5.95-.03,.5,.4,.92,.87,.98,.44,.06,1.02-.22,1.1-.72,.01-.09,.02-.18,.04-.27h0c.04-.25,.07-.5,.1-.76,.29,.21,.65,.28,.99,.13,.22-.09,.36-.24,.46-.42,.53,.29,1.35,.04,1.46-.61,.24-1.42,.3-2.85,.12-4.28Z"/></g></g><g><path class="h" d="M99.85,364.06c-3.02-24.14-4.48-48.48-4.33-72.81,.08-12.19,.58-24.36,1.42-36.52,.85-12.18,1.94-24.34,2.59-36.53,.73-13.79,.88-27.63-.53-41.38-.03-.33-.19-.57-.41-.73-.04-.15-.12-.29-.26-.42-.59-.57-1.19-1.12-1.79-1.68-9.99-15.5-19.99-30.99-29.98-46.49l-8.22-12.75h0c1.17-1.28,2.37-2.53,3.61-3.73,.15-.15,.23-.34,.26-.54,.21-.18,.35-.44,.37-.75,.11-1.44,0-2.9-.29-4.32-.1-.51-.74-.86-1.23-.7-.04,.01-.06,.04-.09,.05-.14-.09-.29-.15-.49-.16-1.88-.1-3.76-.15-5.64-.17,.29-26.91,.92-53.81,1.95-80.7,.3-7.8,.63-15.61,.99-23.41,.06-1.29-1.94-1.28-2,0-1.24,27.01-2.13,54.04-2.61,81.07-.14,7.67-.24,15.35-.32,23.02-.79,0-1.59,0-2.38,0-1.76-26.64-1.43-53.37,.46-79.99,.54-7.64,1.21-15.26,1.97-22.88,.13-1.28-1.87-1.27-2,0-2.67,26.69-4.1,53.52-3.46,80.34,.18,7.53,.52,15.06,1.02,22.58-2.37,.06-4.75,.16-7.12,.32-.51,.04-.8,.37-.91,.76-.08,.14-.14,.3-.16,.48-.16,1.71-.06,3.43,.25,5.12,.03,.15,.11,.27,.21,.38,.03,.19,.1,.38,.26,.52,.85,.79,1.66,1.62,2.46,2.47-.07,.06-.14,.14-.2,.23-10.16,15.75-20.32,31.5-30.47,47.25-2.77,4.3-5.54,8.59-8.31,12.89-.56,.52-1.12,1.04-1.67,1.56-.14,.13-.21,.28-.26,.42-.21,.16-.37,.4-.41,.73-2.51,24.47-.06,49.04,1.74,73.47,1.79,24.32,2.27,48.69,1.02,73.05-.7,13.61-1.91,27.2-3.61,40.72-.32,.36-.43,.91,0,1.36,8.32,8.58,15.82,17.91,22.4,27.89,.12,.19,.28,.31,.44,.38h0c.08,.03,.16,.06,.25,.07,.06,.01,.11,.04,.17,.05,3.47,.26,6.96,.46,10.45,.59,8.12,.56,16.27,.58,24.4,.06,2.24-.07,4.48-.15,6.72-.25,3.3-.15,6.61-.35,9.89-.76,.35-.04,.59-.23,.75-.48,.26-.03,.52-.17,.71-.45,6.57-9.98,14.07-19.31,22.4-27.89,.43-.45,.32-1,0-1.36Zm-13.18-201.7c1.39,2.15,2.77,4.3,4.16,6.45-2.35-2.05-4.74-4.06-7.18-6.01,0-.16-.05-.32-.16-.49-9.6-14.62-19.2-29.23-28.81-43.85,.26,0,.52-.08,.68-.29,.52-.63,1.07-1.23,1.61-1.85,9.9,15.35,19.8,30.69,29.69,46.04Zm-19.11-11.1c-.15-.11-.33-.19-.58-.19-3.78,.09-7.55,.2-11.33,.3,0-.01,0-.02,0-.03-.57-9.79-.92-19.6-1.08-29.41,8.18,12.45,16.35,24.89,24.53,37.34-3.6-2.73-7.28-5.35-11.04-7.85-.17-.11-.34-.16-.5-.16Zm-33.79,.8c-.22-.05-.46-.02-.7,.14-4.2,2.79-8.3,5.73-12.29,8.8,7.29-10.99,14.73-21.88,22.07-32.84,1.85-2.76,3.69-5.54,5.52-8.32,.24,10.5,.02,21-.67,31.48,0,.1,.02,.18,.04,.26-4.66,.14-9.31,.29-13.96,.46Zm15.93-.72c.73-11.02,.94-22.07,.64-33.11l1.86,.1,.32,.49c.13,10.85,.5,21.69,1.13,32.53,0,.03,.02,.05,.02,.08-1.34,.04-2.69,.07-4.03,.11,.02-.07,.05-.12,.05-.2Zm10.78-44.73h0s.01,.08,.02,.12v.08c.03,.11,.03,.1,0-.03,.02,.05,.02,.18,.03,.23,0,.08,.02,.16,.02,.23,.02,.17,.03,.34,.04,.51,.04,.61,.03,1.23-.01,1.84-.01,.01-.03,.02-.05,.03-2.22,2.15-4.32,4.44-6.3,6.82l-6.69-.35s-.04,.01-.07,.01c-1.55-1.9-3.23-3.71-5.02-5.39,0-.03,0-.05,0-.08-.04-.2-.07-.4-.1-.6,0-.03-.03-.21-.03-.22,0-.07-.02-.14-.03-.21-.04-.39-.07-.78-.09-1.17-.02-.56,0-1.12,.02-1.68,6.08-.39,12.17-.45,18.25-.14Zm-23.92,22.2c2.74-4.26,5.49-8.51,8.23-12.77,.51,.58,1.03,1.15,1.52,1.76,.2,.24,.53,.31,.85,.26-8.08,12.27-16.38,24.39-24.56,36.59-2.3,3.43-4.58,6.86-6.85,10.31-.01,.02-.02,.04-.03,.06-1.87,1.52-3.71,3.07-5.53,4.66,8.79-13.62,17.57-27.25,26.36-40.87ZM3.59,218.99c-.73-13.68-.87-27.41,.5-41.05,.03-.03,.07-.03,.11-.07,9.18-8.8,19.11-16.76,29.69-23.81,11.02-.4,22.04-.73,33.07-.99,.03,.03,.06,.05,.1,.08,10.65,7.08,20.64,15.09,29.87,23.94,.03,.03,.07,.04,.11,.07,2.45,24.36,.02,48.81-1.77,73.13-1.25,16.96-1.84,33.93-1.67,50.91-21.86,5.62-44.91,6.44-67.12,2.37-6.28-1.15-12.49-2.7-18.58-4.6-.1-.03-.2-.03-.29-.03,.01-2.3,.03-4.6,.01-6.91-.08-12.19-.58-24.36-1.42-36.52-.85-12.18-1.94-24.34-2.59-36.53Zm90.11,89.39c-.19-.09-.4-.13-.66-.07-21.96,5.69-45.12,6.54-67.44,2.45-6.12-1.12-12.17-2.62-18.12-4.47,.03-1.78,.08-3.55,.09-5.33,21.91,6.82,45.27,8.79,68.02,5.76,6.06-.81,12.07-1.97,18-3.48,.02,1.71,.06,3.42,.1,5.13Zm-17.96,83.88c-4.65,.56-9.35,.79-14.05,.91-.11-.04-.24-.06-.39-.05-.49,.04-.98,.06-1.47,.09-1.05,.02-2.1,.04-3.15,.06-7.41,.12-14.83,.06-22.24-.18-.49-.02-.97-.04-1.46-.06-2.63-.21-5.25-.47-7.86-.79-.11-.01-.2,0-.29,.02-6.39-9.59-13.63-18.61-21.63-26.91,2.38-18.9,3.79-37.93,4.24-56.97,21.7,6.65,44.8,8.54,67.3,5.55,6.34-.84,12.63-2.07,18.83-3.68,.07-.02,.11-.06,.17-.08,.12,4.39,.27,8.79,.49,13.18,.71,13.78,1.94,27.53,3.66,41.22-8.22,8.53-15.64,17.81-22.16,27.7Z"/><path class="h" d="M34.17,225.98c-2.72,5.24,.72,12.49,5.01,15.82,2.49,1.93,5.61,2.82,8.73,2.37,5.81,.85,10.92-3.04,13.24-8.2,1.24-2.77,2-6.08,.93-9.03-1.05-2.89-3.76-4.02-6.62-4.5-2.72-.46-5.69,0-7.54,2.06-1.58-1.75-4.03-2.43-6.4-2.21-2.69,.25-6,1.11-7.35,3.7Zm1.57,1.34c.58-1.4,1.78-2.05,3.16-2.48,2.65-.82,6.32-1.17,7.98,1.59,.25,.42,.66,.53,1.03,.45,.37,.08,.78-.03,1.03-.45,1.67-2.76,5.33-2.41,7.98-1.59,1.39,.43,2.58,1.08,3.16,2.48,.63,1.49,.59,3.23,.25,4.79-1.17,5.45-5.93,10.97-11.95,10.12-.12-.04-.26-.06-.41-.05h-.01s-.04,0-.06,0c-.02,0-.04,0-.06,0h-.01c-.15,0-.28,0-.41,.05-6.02,.86-10.78-4.67-11.95-10.12-.33-1.56-.37-3.29,.25-4.79Z"/><path class="h" d="M34.54,222.98c.25,.03,.49-.08,.67-.26,.04-.02,.08-.02,.12-.04,2.39-1.32,2.3-4.28,1.3-6.46-.56-1.23-1.4-2.3-1.99-3.51-.6-1.23-.78-2.58-.66-3.93,.08-.86-1.15-1.33-1.71-.71-1.99,2.21-2.79,5.21-2.58,8.14,.21,3.01,1.46,6.34,4.84,6.77Zm-2.26-11.13c.36,1.3,.97,2.52,1.72,3.74,.86,1.4,2.39,4.18,.34,5.34-2.16-.45-2.64-3.55-2.68-5.35-.03-1.27,.16-2.55,.61-3.74Z"/><path class="h" d="M59.76,221.9s.08,.02,.12,.04c.18,.18,.41,.29,.67,.26,3.38-.43,4.63-3.76,4.84-6.77,.21-2.93-.59-5.93-2.58-8.14-.55-.62-1.78-.16-1.71,.71,.12,1.31-.05,2.62-.61,3.82-.58,1.26-1.46,2.36-2.04,3.62-1,2.18-1.09,5.14,1.3,6.46Zm1.33-7.09c.75-1.22,1.37-2.44,1.72-3.74,.45,1.18,.64,2.47,.61,3.74-.04,1.8-.51,4.9-2.68,5.35-2.04-1.16-.51-3.94,.34-5.34Z"/><path class="h" d="M48.38,218.17c.15-.05,.26-.12,.36-.2,.78-.17,1.47-.65,1.97-1.34,.79-1.09,.82-2.52,.66-3.81-.35-2.85-1.21-5.6-2.47-8.18-.31-.64-1.42-.67-1.73,0-.68,1.5-1.32,3.02-1.93,4.55-.58,1.44-1.29,2.95-1.53,4.5-.21,1.37,.04,2.8,1.14,3.74,.97,.82,2.31,1.14,3.53,.74Zm-2.36-5.42c.59-1.73,1.28-3.43,2.01-5.12,.52,1.35,.92,2.74,1.18,4.17,.18,.95,.39,2.01,.17,2.97-.14,.59-.64,1.43-1.37,1.29-.36-.07-.66,.05-.88,.25-.44-.04-.87-.22-1.17-.58-.67-.83-.25-2.09,.06-2.98Z"/></g></g></g></svg>