<?xml version="1.0" encoding="UTF-8"?><svg xmlns="http://www.w3.org/2000/svg" viewBox="0 0 227.22 72.62"><defs><style>.c{fill:#998f8f;}.d{fill:#231f20;}.e{fill:#353333;}</style></defs><g id="a"/><g id="b"><g><g><rect class="e" x="13.95" y="10.16" width="202.21" height="58.41"/><path class="c" d="M221.84,5.62c-1.12-1.24-3.28-1.84-4.86-1.29-.11,.04-.2,.1-.31,.14-1.04-.89-2.3-1.62-3.83-2.16-.36-.13-.72-.18-1.08-.21-.35-.2-.72-.36-1.14-.46-2.42-.56-4.69-.55-7.11-.08-.72,.14-1.36,.5-1.91,.98-3.32-.69-6.75-.97-10.17-1.06-9.23-.23-18.49,.09-27.72,.17-.64,0-1.22,.11-1.74,.3-.16-.02-.33-.05-.5-.06-20.93-1.41-41.9-1.58-62.85-.51-.14,0-.27,.02-.4,.04-.72-.49-1.63-.8-2.73-.81-23.08-.24-46.14,.56-69.15,2.35-1.04-.52-2.13-.97-3.23-1.34-.39-.16-.77-.27-1.16-.36-.08-.02-.16-.05-.25-.08v.02c-.42-.08-.86-.14-1.33-.2-1.13-.14-2.79,.65-3.54,1.46-.13,.14-.24,.3-.36,.45-1.02-.49-2.06-.86-3.06-1.09-2.45-.57-5.25-.58-7.46,.79-2.66,1.65-4.09,4.85-3.38,7.92,.11,.48,.27,.93,.44,1.37,.08,7.12,.22,14.24,.4,21.36-.16,4.47-.32,8.94-.48,13.41-.04,1.11,.29,2.04,.84,2.79,0,1.16,.02,2.38,.07,3.6-1.37,1.15-2.12,2.91-1.52,4.96,.34,1.15,.84,2.26,1.48,3.3-1.6,2.62-.9,7,2.71,7.87,3.45,.84,6.96,1.4,10.49,1.66,1.12,.3,2.28,.5,3.47,.59,.86,.06,1.6-.12,2.24-.44,.08,0,.17,0,.25,0,.14,.18,.27,.36,.44,.52,.45,.49,.99,.83,1.61,1.03,.6,.31,1.24,.46,1.93,.43,.44-.06,.89-.12,1.33-.18,.85-.24,1.58-.67,2.21-1.29l.78-1.01c.15-.25,.26-.51,.36-.77,12.54,1.22,25.13,1.69,37.77,1.32,.96-.03,1.77-.28,2.44-.68,.21,.04,.42,.07,.65,.09,24.96,1.83,49.99,1.75,74.94-.24,.46-.04,.88-.13,1.27-.25,.48,.16,1,.25,1.59,.26,17.46,.3,34.91,.14,52.36-.45,.11,.08,.22,.15,.32,.21,1.07,.63,2.65,.89,3.85,.5,.21-.07,.41-.16,.61-.25,.58,.24,1.2,.38,1.84,.35,1.03-.05,1.89-.34,2.7-.85,.27,.12,.54,.23,.84,.32,9.36,2.82,11.62-10.85,11.58-17.05-.04-5.9-.37-11.83-.83-17.75,.31-4.93,.62-9.86,.93-14.79,.33-5.2,1.11-10.74-2.64-14.9Zm-71.55,54.64c-.44,0-.84,.03-1.21,.11-.49-.12-1.04-.17-1.64-.12-24.95,1.98-49.98,2.06-74.94,.24-1.11-.08-2.02,.16-2.75,.6-.11,0-.22-.01-.34,0-16.28,.48-32.55-.34-48.67-2.59-.31-1.41-.91-2.84-1.68-4.17,.24-.6,.38-1.31,.37-2.13-.1-11.41,.11-22.82,.62-34.22,1.88-.67,3.31-2.11,3.66-4.54,.64-.05,1.27-.11,1.91-.16,.56-.05,1.12-.17,1.65-.36,22.7-1.74,45.46-2.51,68.24-2.28,.06,0,.12,0,.19,0,.75,.53,1.73,.84,2.95,.78,20.95-1.07,41.92-.91,62.85,.51,.75,.05,1.42-.05,1.99-.25,.08,0,.16,.01,.24,0,8.2-.07,16.41-.2,24.61-.19,6.92,0,13.65,.28,19.47,4.43,.3,.21,.6,.38,.9,.52,.38,2.4,.56,4.84,.53,7.36,0,.23,.01,.46,.03,.67-.24,.59-.38,1.26-.37,2.03,.09,6.85,.56,13.66,1.4,20.46-.49,.53-.89,1.2-1.14,2.05-.61,2.09-1.33,5.2-1.61,8.4-1.85,.11-3.66,.94-4.89,2.31-.04,.04-.06,.08-.1,.12-17.41,.58-34.83,.74-52.25,.44Z"/></g><g><path class="d" d="M210.1,72.62H17.11c-9.44,0-17.11-5.22-17.11-11.64V11.64C0,5.22,7.68,0,17.11,0H210.1c9.44,0,17.11,5.22,17.11,11.64V60.98c0,6.42-7.68,11.64-17.11,11.64ZM17.11,3c-7,0-12.7,3.88-12.7,8.64V60.98c0,4.76,5.7,8.64,12.7,8.64H210.1c7,0,12.7-3.88,12.7-8.64V11.64c0-4.76-5.7-8.64-12.7-8.64H17.11Z"/><path class="d" d="M193.81,62.46H33.41c-9.44,0-17.11-5.22-17.11-11.64V21.8c0-6.42,7.68-11.64,17.11-11.64H193.81c9.44,0,17.11,5.22,17.11,11.64v29.02c0,6.42-7.68,11.64-17.11,11.64ZM33.41,13.16c-7,0-12.7,3.88-12.7,8.64v29.02c0,4.76,5.7,8.64,12.7,8.64H193.81c7,0,12.7-3.88,12.7-8.64V21.8c0-4.76-5.7-8.64-12.7-8.64H33.41Z"/></g></g></g></svg>