<?xml version="1.0" encoding="UTF-8"?><svg xmlns="http://www.w3.org/2000/svg" viewBox="0 0 8.47 12.1"><defs><style>.c{fill:#d39822;}.d{fill:#191924;}</style></defs><g id="a"/><g id="b"><g><path class="c" d="M1.86,6.06c-.26,.54-.43,.98-.42,1.6,0,.34,.05,.69,.17,1,.2,.52,.41,.95,.81,1.34,.42,.42,.85,.63,1.4,.82,.44,.12,.89,.12,1.33,0,.42-.12,.79-.33,1.1-.64,.23-.3,.48-.59,.67-.92s.34-.69,.48-1.04c.18-.44,.26-.89,.33-1.36,.08-.6,.08-1.13,0-1.73-.04-.28-.07-.55-.14-.82-.1-.37-.48-.5-.86-.47-.65,.05-.41-1.32-1.04-1.7-1.07-.63-2.09-.67-3.07,.09-.36,.28-.8,.41-1,.83-.18,.37-.58,.49-.7,.88-.18,.57-.26,1.18-.3,1.78-.1,1.34,.26,2.66,.84,3.85,.26,.54,.93,.99,1.49,1.15,.6,.16,1.4,.09,1.93-.25s1-.86,1.15-1.49l.09-.66c0-.45-.12-.87-.34-1.26-.05-.09-.09-.19-.13-.29l.25,.6c-.16-.39-.27-.79-.33-1.21l.09,.66c-.06-.47-.06-.94,0-1.41l-.09,.66c.06-.42,.17-.82,.33-1.21l-.25,.6c.05-.11,.1-.22,.16-.32l-.39,.51c.05-.06,.09-.1,.15-.15l-.51,.39s.07-.04,.11-.06l-.6,.25s.08-.02,.12-.03l-.66,.09s.08,0,.12,0l-.66-.09c.06,.01,.12,.03,.18,.05l-.6-.25c.08,.04,.15,.08,.23,.13l-.51-.39c.09,.08,.17,.16,.25,.25l-.39-.51c.1,.13,.18,.27,.24,.42l-.25-.6c.13,.31,.21,.63,.26,.96l-.09-.66c.05,.36,.04,.71,0,1.07l.09-.66c-.05,.36-.14,.7-.28,1.03l.25-.6c-.12,.28-.28,.55-.46,.8l.39-.51-.04,.06,2.43-.64-.05-.02,.6,.25c-.05-.02-.1-.05-.15-.08l.51,.39c-.06-.05-.11-.1-.16-.16l.39,.51s-.06-.1-.09-.15l.25,.6c-.03-.07-.05-.14-.07-.22l.09,.66c0-.08-.01-.15,0-.23l-.09,.66c.01-.06,.03-.11,.05-.17l-.25,.6,.02-.05c.18-.29,.28-.6,.3-.93,.07-.33,.06-.66-.04-1-.16-.58-.61-1.21-1.15-1.49-.58-.31-1.28-.46-1.93-.25-.59,.19-1.22,.57-1.49,1.15h0Z"/><path class="d" d="M.37,5.93c-.04,1.8,.04,3.98,1.46,5.29s3.42,1.06,4.86-.06c1.62-1.27,2.09-3.31,1.58-5.25-.29-1.1-.85-2.11-1.54-3-.61-.79-1.42-1.85-2.52-1.88-1.2-.04-2.24,1.05-2.9,1.93C.57,3.95,.15,5.11,0,6.34c-.04,.34,.32,.62,.62,.62,.37,0,.59-.29,.62-.62,.09-.81,.38-1.58,.81-2.27,.4-.65,1.02-1.4,1.74-1.71,.77-.33,1.49,.74,1.89,1.25,.53,.68,.99,1.45,1.26,2.27,.47,1.44,.36,3-.78,4.09-.89,.84-2.33,1.29-3.36,.45-1.26-1.02-1.22-3.03-1.19-4.49,.02-.8-1.23-.8-1.25,0H.37Z"/></g></g></svg>