<?xml version="1.0" encoding="UTF-8"?><svg xmlns="http://www.w3.org/2000/svg" viewBox="0 0 116.17 396"><defs><style>.c{fill:#f4bcb8;}.d{fill:#998f8f;}.e{fill:#332a29;}.f{fill:#8c8281;}.g{fill:#d89c9a;}.h{fill:#c98383;}.i{fill:#231f20;}.j{fill:#5b4f4f;}.k{fill:#493f3f;}.l{fill:#776e6d;}</style></defs><g id="a"/><g id="b"><g><g><path class="l" d="M114.85,363.07c-.95-4.99-2.52-9.85-4.62-14.46,.01-.47-.09-.96-.29-1.42-2.85-6.69-5.48-13.47-7.93-20.32-.41-1.14-1.46-1.94-2.67-1.81-2.02-4.85-3.99-9.71-5.88-14.61-.17-.44-.43-.83-.76-1.14-1.72-12.19-2.56-24.5-2.48-36.83,0-.41-.07-.76-.21-1.07,.05-1.25,.12-2.51,.2-3.76,.72-5.22,1.44-10.44,2.16-15.66,.09-.63,.01-1.25-.23-1.78,.16-1.28,.31-2.56,.47-3.83,.05-.38-.05-.74-.22-1.07,.38-1.22,.76-2.43,1.14-3.66,.2-.25,.37-.55,.49-.87,2.43-6.18,4.85-12.36,7.28-18.54,.08-.2,.11-.4,.11-.6,1.89-3.06,3.37-6.35,4.44-9.79,2.96-4.17,4.44-9.17,5.51-14.11,1.2-5.53,2.01-11.14,2.51-16.78,.66-.79,.86-1.99,.27-2.87-1.2-1.81-2.79-3.12-4.49-4.44-1.67-1.29-3.32-2.61-4.94-3.97-3.38-2.82-6.64-5.77-9.8-8.84-.67-.65-1.52-.79-2.28-.6-1.76-1.74-3.56-3.45-5.39-5.12-.63-.57-1.48-.81-2.26-.67-.13-.09-.25-.2-.39-.28-1.52-.91-3.65-.61-5.35-.64-1.82-.03-3.63-.05-5.45-.07-3.63-.04-7.27-.05-10.9,0-1.73,.02-3.47,.06-5.2,.12-.49,.02-.98,.03-1.47,.04-1.38-.15-2.75-.3-4.13-.45-1.16-.13-1.92,.53-2.23,1.41-.1,.04-.21,.07-.31,.12-1.77,.84-3.45,1.97-5.15,2.96-1.79,1.04-3.58,2.08-5.38,3.12-.99,.57-1.3,1.48-1.18,2.35-1.1,.63-2.15,1.33-3.2,2.09-1.83,1.33-3.67,2.67-5.27,4.29-.2,.2-.34,.43-.45,.67-1.06,.63-2.05,1.31-2.77,2.27-.2-.15-.42-.26-.67-.32-.64-.15-1.36-.11-1.93,.25-.53,.34-1,.86-1.15,1.49-.08,.35-.2,.68-.32,1.01-.19,.4-.42,.79-.68,1.15-.07,.08-.14,.17-.21,.24-.41,.45-.68,1.01-.72,1.63-.29,.19-.53,.45-.68,.79-1.03,2.37-1.2,4.9-1.54,7.44-.32,2.4-.64,4.8-.96,7.2-.03,.23,0,.45,.06,.66-.24,.36-.46,.73-.66,1.13-3.02,5.96-5.42,12.1-7.33,18.37-1.58,1.63-2.8,3.64-3.47,5.93l-.29,1c-2.4,4.05-4.13,8.52-4.79,13.19-.43,3.06-.19,6.12,.77,8.83-.68,5.5-.68,11.05,.84,16.77-.24,5.29-.35,10.58-.41,15.85-.11,9.99,.21,20.18,1.44,30.2-.49,.46-.8,1.09-.75,1.77,.34,4.97,1.37,9.8,3.05,14.44,1.06,3.53,2.33,6.99,3.73,10.42,1.62,4.6,3.57,9.08,5.91,13.41-.42,.6-.61,1.36-.38,2.08,.07,.23,.13,.46,.2,.68,0,.02,0,.03,0,.05,.03,.3,.07,.6,.12,.89,.01,.08,.03,.16,.05,.24,.1,.36,.26,.71,.41,1.05,.04,.08,.09,.16,.13,.24,.64,2.37,1.16,4.78,1.55,7.2,.26,1.62,.45,3.26,.58,4.89,.14,1.78,.25,3.55,1.61,4.88,.28,.27,.57,.45,.87,.57,.69,1.83,2.58,3.34,3.86,4.7,1.99,2.1,3.95,4.23,5.87,6.39,1.44,1.62,2.84,3.27,4.24,4.92,1.38,2.5,3,4.85,4.82,7.04,.19,.68,.66,1.18,1.28,1.49,.61,.63,1.56,.81,2.38,.58,.21,.13,.44,.24,.72,.31,7.72,1.9,15.71,2.72,23.66,2.34,4-.19,7.95-.75,11.89-1.41,.57-.1,1.13-.19,1.7-.28,2.91-.14,5.81-.33,8.71-.58,.95,.84,2.4,1.09,3.31-.07,.49-.64,.96-1.29,1.43-1.94,.48-.2,.91-.54,1.18-1.02,4.87-8.68,10.97-16.56,18.14-23.46,.63-.6,.82-1.3,.73-1.95,.37-.59,.48-1.32,.34-2.04Z"/><g><path class="j" d="M115.04,364.34c-.55-2.52-1.32-4.96-2.2-7.37,.17-.1,.3-.29,.24-.54-.1-.46-.22-.9-.35-1.35,0-.08,0-.17-.04-.26-.04-.08-.07-.16-.11-.25-.44-1.4-.99-2.77-1.61-4.11,.26-.07,.48-.31,.37-.6-.26-.7-.56-1.38-.88-2.06,.14-.2,.18-.47,.07-.78-.91-2.47-2.2-4.7-3.71-6.77,.03-.2,.02-.4-.1-.63-4.06-7.59-7.68-15.41-10.82-23.43-.15-.4-.48-.59-.81-.64l-2.08-6.42c-.6-4.83-1.65-9.6-2.5-14.39,.01-.11,.02-.22,0-.33-.28-2.21-.51-4.43-.69-6.64,.05-3.93-.04-7.86-.29-11.79,0-.04-.01-.08-.02-.12,.52-5.93,1.64-11.82,2.58-17.7,.81-5.1,1.49-10.24,1.57-15.41,0-.27-.06-.52-.16-.76l.03-.1c.98-2.83,1.88-5.68,2.71-8.56,2.12-3.13,3.96-6.44,5.5-9.9,.14-.32,.11-.68-.04-.98-.02-.37-.24-.71-.53-.9,.82-1.63,1.68-3.24,2.62-4.8,.13-.21,.08-.41-.04-.55,1.02-1.72,2.03-3.44,3.05-5.16,.26-.45,.13-.87-.15-1.15,1.03-1.57,1.99-3.17,2.7-4.91,.05-.11,.04-.21,.01-.29,.29-.58,.58-1.16,.85-1.75,.09-.21,.04-.4-.07-.55l.59-1.1c.3-.57-.56-1.07-.86-.5-2.1,3.93-4.2,7.85-6.3,11.78-4,6.75-8.03,13.49-11.99,20.26-.37,.54-.74,1.07-1.1,1.61-.03,.03-.05,.07-.08,.11-.91,1.36-1.81,2.72-2.7,4.09-1.4,2.17-2.81,4.39-3.55,6.89-.77,2.61-.86,5.38-1.04,8.08-.82,11.84-1.6,23.69-1.52,35.56,.01,1.85,.05,3.69,.11,5.53-.06,.13-.1,.28-.1,.46,.17,4.15,.38,8.32,.95,12.43,.06,.59,.1,1.18,.17,1.76,.02,.19,.09,.34,.18,.48,.36,2.05,.83,4.07,1.45,6.06,.33,2.26,.9,4.49,2.15,6.42,.98,1.51,2.36,2.68,3.66,3.9,1.57,1.47,3.13,2.93,4.7,4.4,1.38,1.29,2.8,2.59,4.19,3.92,3.07,3.55,6.05,7.17,8.23,11.34,2.49,6.17,5.38,12.19,6.8,18.72,.14,.63,1.1,.36,.96-.27Z"/><path class="j" d="M69.37,394.29c-2.58-.07-5.15-.2-7.73-.36-.07-.14-.2-.26-.4-.27-3.37-.31-6.7-.97-9.93-1.99-2.94-.93-6.11-2.04-8.41-4.17-1.18-1.09-2.03-2.44-2.88-3.79-.92-1.47-1.85-2.94-2.77-4.41-1.89-3.01-3.78-6.01-5.67-9.02-.92-1.47-1.85-2.94-2.77-4.41-.9-1.43-1.91-2.84-2.55-4.41-.65-1.59-.96-3.33-1.32-5-.34-1.59-.67-3.19-1.13-4.75-1.8-6.02-6.22-10.47-9.78-15.46-4.13-5.78-7.37-12.16-9.62-18.9-.2-.61-1.17-.35-.96,.27,1.5,4.49,3.43,8.83,5.76,12.94-.31,.04-.58,.37-.38,.73l.48,.89c-.14,.14-.19,.35-.06,.57,.34,.57,.68,1.13,1.02,1.7-.03,.11-.01,.23,.07,.34,.21,.27,.41,.54,.62,.8,.69,1.15,1.38,2.29,2.07,3.44-.57,.39-.88,1.15-.47,1.96,1.48,2.9,3.1,5.79,4.5,8.76-.22,.24-.35,.57-.32,1.01,.35,4.38,1.04,8.71,2.04,12.99-.96,.29-1.66,1.57-.73,2.51,.54,.55,1.14,.95,1.79,1.23,1.52,1.76,3.04,3.52,4.56,5.28,.18,.21,.38,.34,.59,.42,3.96,5.67,8.39,11.01,13.23,15.95-.18,.19-.24,.49,0,.68,.03,.03,.07,.05,.1,.07h0c.3,.21,.59,.42,.89,.63-.48-.25-1.07,.34-.61,.76l3.08,2.77c.37,.33,.96,.01,.84-.49-.02-.09-.06-.18-.08-.27,.08,.06,.15,.12,.23,.19,.03,.03,.06,.06,.09,.09h0c.1,.07,.19,.16,.3,.23,.53,.39,1.1,.3,1.54-.02,.38,.15,.76,.3,1.15,.43,.44,.15,.7-.32,.58-.66l.33,.1c.2,.06,.35,0,.46-.11,7.39,.95,14.82,1.56,22.28,1.77,.64,.02,.64-.98,0-1Zm-39.18-23.18l.26,.48c-.06-.07-.11-.15-.16-.22-.05-.07-.12-.1-.19-.12,.04-.04,.07-.09,.09-.13Zm-1.11-.47l.03,.06s-.03,.03-.05,.04l-.03-.05s.04-.03,.05-.05Zm11.17,20.59s.06,.07,.09,.1c.03,.03,.05,.07,.07,.1-.3-.24-.61-.48-.91-.72,.25,.18,.5,.35,.75,.52Zm1.46-3.48h-.01c-.06-.09-.11-.17-.17-.25,.07,.08,.14,.15,.22,.23-.01,0-.02,.01-.04,.02Zm-6.04-9.09h0Zm-12.8-26.49s0-.06,0-.09c.09,.33,.19,.65,.27,.98-.09-.3-.17-.59-.27-.89Zm-.87-2.44c-.09-.23-.17-.46-.27-.68,.11,.23,.21,.47,.31,.71-.02,0-.03-.01-.05-.02Zm3.31,11.97s-.04,.09-.05,.14c-.03-.05-.06-.1-.09-.14s-.07-.07-.1-.11c-.07-.38-.13-.75-.2-1.13,.13,.42,.28,.83,.45,1.24Z"/><path class="j" d="M111.34,194.38c-.12,.63,.75,.88,.96,.27,.33-.94,.56-1.9,.72-2.86,.09-.06,.16-.15,.19-.28,.49-2.11,.64-4.28,.49-6.43-.04-1.85-.25-3.7-.62-5.52,.35,.13,.84-.15,.67-.58-.02-.04-.04-.08-.05-.12h0v-.02c-.37-.85-.76-1.67-1.21-2.47-.16-.29-.46-.3-.67-.16-.1,0-.2,.04-.28,.1-.29-.46-.64-.87-1.06-1.22-.25-.4-.51-.8-.79-1.19-.31-.43-.95-.16-.95,.25-.85-1.45-1.82-2.82-2.9-4.1-.42-.49-1.12,.22-.71,.71,5.45,6.45,7.78,15.34,6.2,23.63Z"/><path class="j" d="M18.3,187.3c.56,.07,.62-.7,.19-.94-.13-.29,.19-1.21,.25-1.45,.14-.55,.32-1.09,.52-1.61,.41-1.05,.95-2.05,1.55-3.01,1.21-1.93,2.67-3.68,4.14-5.42,.42-.5-.21-1.11-.71-.71-.89,.72-1.7,1.53-2.42,2.4-.2-.2-.54-.24-.76,.09-.34,.51-.67,1.02-1.01,1.53-.16,.24-.07,.46,.09,.6l-.28,.66c-.08,.18-.05,.34,.03,.48-.19,.31-.39,.6-.56,.92-.63,1.14-1.16,2.36-1.5,3.62-.23,.83-.86,2.68,.47,2.84Z"/></g><g><path class="k" d="M48.15,392.4c-3.7-1.15-6.44-4.1-9-6.87-2.7-2.91-5.23-5.97-7.57-9.17-4.53-6.21-8.38-12.91-11.46-19.95-1.78-4.08-3.28-8.29-4.51-12.57-.36-1.23-2.29-.71-1.93,.53,1.36,4.7,3.06,9.31,5.05,13.77-.49,.12-.94,.57-.82,1.22,.29,1.61,.7,3.19,1.2,4.73-.32,.14-.55,.43-.52,.86,.1,1.43,.93,2.54,2.34,2.89,.27,.07,.5,.03,.69-.07,2.03,2.74,4.13,5.44,6.19,8.16,3.17,4.18,6.34,8.35,9.52,12.53-.21,.35-.24,.8,.11,1.2,.36,.4,.75,.78,1.15,1.13,.69,.68,1.37,1.36,2.06,2.04l.02,.02c.11,.15,.25,.25,.4,.32,.37,.23,.77,.16,1.07-.07,1.79,.81,3.75,1.25,5.76,1.27,1.15,.01,1.33-1.63,.27-1.96Zm-26.12-27.49s0-.02,0-.03c.04,.07,.08,.15,.12,.22-.04-.06-.08-.13-.12-.19Z"/><path class="k" d="M110.34,347.14c-.62-1.8-1.4-3.54-2.32-5.2,.07-.18,.1-.39,.02-.63-1.27-3.76-3.23-7.16-5.55-10.31,.69-.36,1.16-1.18,.65-2.05l-4.52-7.74c-1.08-1.84-2.08-3.81-3.35-5.55-.1-1.35-.57-2.81-.82-4.01-.38-1.84-.82-3.66-1.28-5.48-.2-.77-.71-1.2-1.3-1.36-.04-.83-.08-1.66-.13-2.48-.2-3.9-.39-7.79-.59-11.69-.03-.66-.33-1.15-.74-1.47-.78-13.87,.2-27.79,3.01-41.4,.12-.58-.07-1.06-.4-1.39,.9-2.37,1.8-4.73,2.7-7.1,.36-.94-.26-1.6-1.04-1.77,.66-1.26,1.31-2.52,1.93-3.8,1.88-3.87,3.7-7.77,5.69-11.58,.59-1.14-1.13-2.15-1.73-1.01-1.79,3.43-3.44,6.94-5.13,10.43-1.73,3.58-3.63,7.08-5.36,10.66-1.86,3.87-3.11,7.82-3.61,12.09-.53,4.51-.6,9.09-.7,13.62-.22,9.25-.05,18.5,.52,27.74,.28,4.62,.66,9.23,1.14,13.83,.4,3.85,.94,7.81,3.28,11.03,2.51,3.45,5.88,6.27,8.59,9.59,2.88,3.52,5.34,7.41,6.81,11.73,.08,.24,.23,.39,.4,.5,.74,1.84,1.72,3.59,2.92,5.18,.31,.41,1.11,.2,.91-.39Z"/></g><path class="f" d="M101.37,356.19c.59-5.51-4.81-9.88-9.01-13.52-1.21-1.48-2.69-2.83-4.37-4.07-2.87-2.77-5.67-5.61-8.39-8.53-7.84-21.51-11.67-43.62-7.87-66.68,4.19-25.42,14.35-49.36,24.57-72.84,1.49-3.43,1.86-8.18-1.41-10.91-2.53-2.11-5.05-4.23-7.58-6.34-2.39-2-5.46-2.93-8.31-2.38-8.77-3.14-19.78-1.86-28.06,1.27-7.72,2.92-11.95,8.6-14.13,16.39-2.35,8.41-4.31,16.95-6.28,25.45-3.94,16.95-8.4,34.02-10.11,51.37-1.32,13.41,.05,26.96,3.07,40.08,1.23,7.2,2.98,14.3,5.33,21.18,.33,.98,.68,1.96,1.04,2.94,1.68,5.8,3.57,11.54,5.69,17.2,2.83,7.56,5.9,15.16,9.55,22.38,4.05,8,10.49,10.15,18.68,12.37,8.05,2.18,16.99,5.82,23.85-1.06,2.82-2.83,5.02-6.55,7.36-9.79,2.26-3.13,5.19-6.23,6.18-10.02,.42-1.59,.45-3.08,.2-4.5Z"/><path class="d" d="M62.35,305.68c-1.72-6.55-2.74-13.24-3.14-19.96,.46-24.24,9.28-48.16,19.56-70.08,2.82-6.02,7.59-12.8,7.52-19.69-.07-7.24-6-10.58-12.34-11.55-6.58-1-15.25-2.94-21.74-.78-1.28,.43-2.42,1.11-3.39,1.96-1.7,.77-3.05,2.18-3.6,4.11-12.09,42.46-21.11,91.14-7.08,133.23,2.89,10.33,6.75,20.37,11.65,29.93,4.78,9.3,14.05,21.71,25.88,21.49,6.5-.12,9.7-6.93,10.33-12.55,.8-7.12-2.15-13.6-5.98-19.42-7.65-11.62-14.11-23.11-17.66-36.69Z"/><path class="e" d="M107.13,169.36c-9.03-13.4-17.69-27.03-25.98-40.9-2.35-3.93-4.67-7.88-6.96-11.85-.5-.87-1.55-.48-1.78,.26l-.31-.32s-.04-.06-.05-.1l1.6-1.25c.8-.63,1.68-1.24,2.42-1.96,.01-.01,.03-.03,.04-.04,.07-.07,.14-.13,.21-.2,.08-.08,.15-.18,.22-.28,.16-.19,.33-.38,.47-.59,.55-.84,.79-1.88,.4-2.78-.08-.38-.25-.73-.46-1.07,.14-.18,.23-.4,.22-.62-.02-.47-.3-.8-.73-.96-.82-.32-1.72-.31-2.55-.06-.47-.21-.9,0-1.14,.36-.14,0-.28-.03-.42-.04-.14-.04-.27-.05-.41-.04-.64-.08-1.28-.19-1.9-.38-.26-.08-.5-.04-.7,.06-.13-3.02-.24-6.04-.34-9.07,.03-.11,.06-.23,.05-.37-.01-.25-.02-.51-.03-.76,.2-.16,.33-.4,.31-.75-.11-1.83-.19-3.66-.24-5.5,.44,.02,.94-.24,1.02-.71,.4-2.34,.43-4.71,.07-7.04,.08-1.24,.18-2.48,.35-3.71,.07-.49-.11-.97-.58-1.17,.68-17.17,1.42-34.34,2.22-51.5,.24-5.24,.5-10.48,.75-15.72,.03-.7-.55-1.01-1.09-.94,.01-1.2,0-2.4-.05-3.6,.02-.17,.03-.34,.05-.5,.07-.65,.06-1.34-.14-1.95,.28-.07,.55-.15,.83-.22,1.24-.33,.72-2.26-.53-1.93-.75,.2-1.49,.39-2.24,.59-.71-.05-1.4,.25-1.82,.91-.34,.54-.03,1.19,.5,1.42,0,.12-.01,.23-.02,.35-.17,.12-.29,.3-.32,.54v.05c-.04,.09-.08,.18-.09,.3l-.08,.95c-.58,4.31-.97,8.64-1.16,12.98-.58,4.11-.94,8.24-1.05,12.39,0,.27,.07,.47,.2,.62-.09,.1-.15,.22-.2,.34-.04,0-.08-.03-.12-.02-.55,.02-.99,.44-1,1l-.02,2.29c0,.5,.38,.92,.87,.98,.15,.02,.29,0,.43-.04-.23,2.85-.44,5.7-.58,8.56-.14,2.54-.23,5.09-.29,7.63-.02,.06-.06,.11-.07,.18-1.29,8.24-1.71,16.58-1.21,24.9,.03,.42,.25,.69,.53,.84,.03,1.47,.07,2.94,.12,4.41-.01,1.38,0,2.75,0,4.13-.05,1.09-.04,2.18,.04,3.26,0,.35,0,.7,.01,1.05,0,.19,.06,.35,.14,.49,.07,.5,.15,1.01,.24,1.51,.03,.14,.08,.26,.15,.35,.15,1.96,.32,3.92,.51,5.87,.15,1.77,.29,3.55,.44,5.32,.05,.64,.58,.96,1.08,.96,.03,.22,.07,.45,.1,.67l-.12-.1c-.53-.44-1.17-.24-1.5,.17-.21-.17-.41-.34-.62-.52-.27-.22-.56-.28-.83-.23-.46-.08-.92-.05-1.37,.07-.08-.06-.17-.1-.27-.12h0c-.04-.07-.07-.14-.13-.19-.19-.17-.44-.3-.71-.29-.14,0-.28,.04-.41,.09-.15-.05-.32-.07-.48-.08-.17-.02-.35,.02-.52,.04l-.24,.1c-.12,.06-.21,.15-.28,.26-.11,.14-.18,.32-.2,.5-.02,0-.04-.02-.06-.03-.94-.48-1.69,.47-1.39,1.23-.31,.35-.41,.94-.11,1.38-.49,.31-.74,1.09-.27,1.61l.24,.26c.06,.25,.2,.47,.37,.66-.08,.29-.03,.62,.25,.91,.71,.73,1.46,1.4,2.25,2.03l.58,.53c-.88,1.21-1.76,2.43-2.63,3.64-4.52,5.27-8.6,10.9-12.19,16.85-.33,.54-.1,1.03,.29,1.28-.68,1.01-1.35,2.02-2.03,3.04-.18,.26-.21,.52-.15,.73-5.13,7.5-10.26,15-15.39,22.5-.2,.29-.22,.57-.13,.8-.02,.02-.04,.03-.06,.04l-.16,.2c-.09,.16-.14,.32-.14,.5v.3c0,.14,.02,.27,.09,.39,0,.02,.02,.02,.03,.04-1.33,.86-2.48,1.95-3.44,3.25-.29,.39-.12,.92,.21,1.25-.04,.02-.09,.02-.14,.04l-.2,.16c-.12,.12-.21,.27-.26,.44l-.04,.27c0,.18,.05,.35,.14,.5l.15,.3c.06,.12,.15,.21,.26,.28,.1,.09,.21,.15,.34,.18,.13,.04,.27,.05,.4,.02,.13,0,.26-.05,.37-.12l.2-.16c.12-.12,.21-.27,.26-.44l.04-.27c0-.18-.05-.35-.14-.5l-.13-.26c.2-.02,.4-.09,.58-.26,.3-.28,.59-.57,.89-.84,.26,.03,.53-.04,.77-.3l.44-.49c1.6-1.15,2.94-2.61,3.97-4.37,.01-.02,.01-.04,.02-.06,1.75-1.9,3.44-3.87,5.05-5.91,.48-.61,.17-1.38-.36-1.65,6.56-9.8,13.12-19.61,19.69-29.41,.31,.08,.64,.04,.91-.25l3.7-4.09c.45-.5,.27-1.12-.11-1.46,.47-.74,.95-1.48,1.42-2.21,.19-.29,.16-.6,.04-.87,.18-.27,.37-.55,.55-.82,.09,.08,.16,.18,.25,.26,.48,.45,1.03,.35,1.36,0,.09,.04,.17,.09,.26,.13-.12,.15-.19,.34-.17,.6l.04,.52c-.04,.1-.08,.21-.08,.33-.42,10.34-.84,20.68-1.26,31.02-.79,.21-1,1.52-.08,1.89v.2c-.05,1.13,1.47,1.27,1.89,.42,.47,.15,.93,.3,1.4,.44,.44,.14,.89-.1,1.13-.46,.03-.05,.05-.1,.07-.15,.76-.14,.98-.98,.59-1.53,0-.17-.03-.35-.09-.55,.05-.3,.08-.6,.08-.89,.07-7.29-.19-14.6-.28-21.89,0-.38-.18-.63-.42-.79,.1-2.73-.08-5.45-.52-8.17,.24,.01,.48-.05,.71-.23l.64-.51c-.14,.26-.18,.58-.02,.93,1.24,2.78,2.65,5.48,4.23,8.09,.32,.53,.83,.59,1.23,.38,1.68,2.76,3.49,5.46,5.25,8.15,4.18,6.41,8.36,12.81,12.54,19.22,.1,.16,.23,.26,.37,.34,2.91,5.47,6.01,11.02,11.22,14.38,.11,.07,.21,.1,.31,.13,.13,.2,.26,.4,.39,.59,.72,1.06,2.45,.06,1.73-1.01Z"/><g><path class="c" d="M67,224.31c-1.01-.65-2.31-.79-3.35-.21-.14-.19-.28-.39-.43-.58-.91-1.11-2.58-.79-3.54,0-.11,.09-.2,.19-.3,.29-.41-.02-.87,.04-1.4,.26-.84,.34-1.34,.92-1.64,1.63-.23,0-.46,.04-.68,.12-.17-.29-.37-.57-.61-.82-.05-.05-.11-.08-.16-.12-.11-.14-.21-.3-.34-.43-1.23-1.23-2.93-1.58-4.59-1.32-2.57,.4-5.22,2.19-6.38,4.54-1.46,2.94-.63,6.36,1.09,8.99,.86,1.32,1.91,2.49,3.14,3.47,.35,.28,.74,.47,1.13,.62,.97,1.24,2.25,2.16,3.92,2.54,1.59,.36,3.23-.04,4.37-1.24,.03-.03,.05-.06,.07-.09,.68,.86,1.64,1.39,2.77,1.08,.81-.22,1.55-.95,1.77-1.79,.41,.02,.87-.05,1.38-.25,1.36-.55,1.92-1.68,2.07-2.98,.42-.08,.83-.25,1.19-.53,.13-.1,.24-.21,.35-.32,.41-.09,.82-.29,1.2-.65,3.55-3.41,3.2-9.47-1.01-12.2Zm-16,3.68h.04s.02,.06,.02,.09c-.06,0-.1-.04-.11-.08h.04Z"/><path class="c" d="M44.12,220.54c.15-.62,.07-1.29-.01-1.92-.09-.7-.26-1.39-.7-1.96-.02-.03-.04-.05-.07-.07-.04-.28-.08-.56-.11-.85-.07-.76-.13-1.52-.24-2.27-.1-.68-.19-1.47-.53-2.08-.4-.73-1.28-1-1.99-.55-.59,.38-.83,1.15-1.01,1.79-.36,1.27-.38,2.59-.16,3.88,.24,1.39,.87,2.65,1.73,3.75-.11,.28-.1,.6,.04,.89,.29,.64,1.08,.9,1.74,.74,.68-.16,1.15-.71,1.31-1.37Z"/><path class="c" d="M52.97,214.54c.13,.18,.25,.36,.38,.54-.22,.32-.31,.77-.06,1.08,.44,.58,1.08,1,1.84,.9,.6-.08,1.03-.53,.98-1.08,.09,.04,.17,.09,.26,.13,.37,.17,.77,.19,1.11-.08,.3-.24,.48-.66,.36-1.05-.02-.08-.07-.14-.1-.22,.04-.07,.09-.12,.12-.19,.08-.2,.09-.39,.06-.58,.36-.3,.53-.84,.27-1.29-.21-.36-.43-.73-.64-1.09,.32-1.52,.11-3.05-.64-4.41-.43-.78-1.58-.55-1.83,.24-.14,.46-.19,.93-.18,1.41-.03,.02-.07,.02-.11,.04-.5,.29-.59,.88-.36,1.37,0,.01,.02,.03,.02,.04-.45,.22-.74,.72-.53,1.21-.21,.02-.42,.09-.59,.26-.31,.31-.36,.83-.14,1.21-.07,.13-.11,.28-.12,.43-.27,.33-.38,.79-.11,1.14Z"/><path class="c" d="M71.93,215.02c.53-.16,.93-.63,.95-1.22,.02-.55-.21-1.11-.46-1.59-.14-.27-.31-.51-.5-.75l-.03-.04c.15-.36,.04-.85-.22-1.11-.42-.42-.99-.33-1.41,0-.62,.48-.57,1.42-.17,2.02,.07,.1,.14,.19,.2,.28-.61,.06-1.13,.56-1.17,1.18-.05,.02-.11,.04-.16,.07-.29,.15-.51,.53-.5,.86,0,.03,0,.05,0,.08-.31,.1-.57,.35-.7,.68-.22,.58-.17,1.19,0,1.78-.48,.15-.85,.72-.67,1.22,.35,.99,.97,1.79,1.86,2.35,.54,.34,1.32,.01,1.47-.6,.04-.17,.05-.33,.07-.49,.32,.03,.65-.07,.95-.36,.52-.52,.5-1.21,.3-1.85,.1-.05,.2-.11,.29-.2,.65-.58,.48-1.39,.05-2.05-.06-.09-.11-.17-.17-.26Zm-.8-1.22s-.02-.03-.03-.05c0,.02,.01,.04,.03,.05h0Zm.64-2.19s-.04,.08-.08,.11c.04-.03,.05-.08,.08-.11Z"/></g><path class="c" d="M92.98,303.14c-.41-1.24-1.75-2.18-3.08-1.75-.36,.12-.68,.32-.96,.56-.7-.02-1.38,.16-1.96,.54-1.01-.36-2.2-.16-2.97,.65-.35,.37-.64,.82-.75,1.33-11.74,1.07-23.62,2.65-35.41,1.74-.79-.06-1.51,.38-1.97,1.01-2.28-.39-4.6-.56-6.9-.78-3.79-.36-7.59-.72-11.38-1.08-.43-.04-.81,.03-1.13,.19-.05-.02-.1-.05-.15-.06-6.83-2.21-13.79-3.98-20.81-5.47-1.21-.26-2.47,.25-2.95,1.45-.19,.47-.23,.92-.16,1.34-.14,.21-.26,.44-.34,.71-.33,1.22,.41,2.83,1.75,3.08,1.65,.31,3.3,.61,4.94,.92,.29,.35,.69,.63,1.24,.78,4.13,1.14,8.41,2.26,12.71,2.27,.32,.47,.77,.83,1.34,.94,4.28,.81,8.61,1.35,12.95,1.64,3.72,.93,7.58,1.02,11.32,.27,.44,.38,.99,.62,1.58,.58,9.04-.6,18.05-1.57,27.01-2.87,.13-.02,.25-.06,.37-.11,2-.29,3.96-.71,5.89-1.33,1.04,.03,2.12-.13,3-.72h0c.42,.21,.88,.32,1.37,.3,.55-.02,1.04-.19,1.46-.45,1.09,1.65,3.98,1.18,4.44-.8,.39-1.67,.07-3.28-.46-4.87Z"/><path class="g" d="M91.96,302.68c-.22-.44-.8-.58-1.24-.4h0c-.31-.27-.7-.39-1.09-.21-.27,.12-.52,.39-.59,.69-.46-.03-.94,.24-1.06,.74-.03-.15-.07-.3-.11-.45-.18-.9-1.39-.91-1.81-.23-.39-.09-.81,0-1.01,.43-.08-.02-.15-.07-.24-.07-.1-.01-.2,0-.29,0-.06-.03-.13-.05-.2-.06-.18-.16-.42-.27-.66-.27-.4,0-.91,.31-.96,.73-.18,1.33-.24,2.65-.09,3.98,.07,.59,.11,1.23,.42,1.75,.36,.6,1.03,.91,1.72,.73,.48-.13,.86-.45,1.17-.86,.14,0,.27-.03,.39-.08,.17,.14,.39,.23,.62,.23,.33,0,.71-.21,.87-.52,.46,.45,1.37,.28,1.61-.33,.25,.24,.66,.33,.97,.25,.27-.08,.48-.27,.6-.51,.1,.13,.2,.27,.32,.38,.67,.61,1.64,.16,1.71-.71,.14-1.8-.25-3.59-1.05-5.2Z"/><path class="h" d="M92.08,307.23c.2-.18,.33-.42,.3-.69-.1-.77-.2-1.54-.3-2.31-.04-.28-.09-.5-.29-.71,0,0-.03-.01-.04-.02l-.06-.26c-.1-.49-.63-.78-1.1-.72-.21,.03-.41,.14-.57,.29-.26-.04-.52,0-.73,.16-.25-.28-.64-.45-1.01-.33-.4,.13-.77,.52-.73,.96l.04,.57s0,.02-.01,.02c-.29,1.37,0,2.72,.34,4.05,.13,.48,.62,.78,1.1,.72,.38-.05,.74-.36,.83-.75,.23,.25,.46,.51,.7,.74,.38,.36,1.04,.4,1.41,0,.35-.38,.39-.98,.03-1.37,.05-.11,.08-.23,.08-.36Z"/></g><g><path class="i" d="M115.89,364.69c-3.02-24.14-24.38-49.42-24.23-73.75,.08-12.19,.58-24.36,1.42-36.52,.85-12.18,7.38-29.04,12.49-40.12,4.29-9.31,10.87-23.1,9.46-36.85-.03-.33-.19-.57-.41-.73-.04-.15-.12-.29-.26-.42-.59-.57-1.19-1.12-1.79-1.68-9.99-15.5-19.99-30.99-29.98-46.49l-8.22-12.75h0c1.17-1.28,2.37-2.53,3.61-3.73,.15-.15,.23-.34,.26-.54,.21-.18,.35-.44,.37-.75,.11-1.44,0-2.9-.29-4.32-.1-.51-.74-.86-1.23-.7-.04,.01-.06,.04-.09,.05-.14-.09-.29-.15-.49-.16-1.88-.1-3.76-.15-5.64-.17,.29-26.91,.92-53.81,1.95-80.7,.3-7.8,.63-15.61,.99-23.41,.06-1.29-1.94-1.28-2,0-1.24,27.01-2.13,54.04-2.61,81.07-.14,7.67-.24,15.35-.32,23.02-.79,0-1.59,0-2.38,0-1.76-26.64-1.43-53.37,.46-79.99,.54-7.64,1.21-15.26,1.97-22.88,.13-1.28-1.87-1.27-2,0-2.67,26.69-4.1,53.52-3.46,80.34,.18,7.53,.52,15.06,1.02,22.58-2.37,.06-4.75,.16-7.12,.32-.51,.04-.8,.37-.91,.76-.08,.14-.14,.3-.16,.48-.16,1.71-.06,3.43,.25,5.12,.03,.15,.11,.27,.21,.38,.03,.19,.1,.38,.26,.52,.85,.79,1.66,1.62,2.46,2.47-.07,.06-.14,.14-.2,.23-10.16,15.75-20.32,31.5-30.47,47.25-2.77,4.3-5.54,8.59-8.31,12.89-.56,.52-1.12,1.04-1.67,1.56-.14,.13-.21,.28-.26,.42-.21,.16-.37,.4-.41,.73C15.65,202.71-1.67,217.57,.13,242c1.79,24.32-2.96,57.64,3.5,81.16,3.28,11.96,15.38,28.79,13.68,42.32-.32,.36-.43,.91,0,1.36,8.32,8.58,15.82,17.91,22.4,27.89,.12,.19,.28,.31,.44,.38h0c.08,.03,.16,.06,.25,.07,.06,.01,.11,.04,.17,.05,3.47,.26,6.96,.46,10.45,.59,8.12,.56,16.27,.58,24.4,.06,2.24-.07,4.48-.15,6.72-.25,3.3-.15,6.61-.35,9.89-.76,.35-.04,.59-.23,.75-.48,.26-.03,.52-.17,.71-.45,6.57-9.98,14.07-19.31,22.4-27.89,.43-.45,.32-1,0-1.36Zm-23.73-56.63c-.19-.09-2.72-.12-2.97-.06-21.96,5.69-45.12,6.54-67.44,2.45-6.12-1.12-12.17-2.62-18.12-4.47,.03-1.78,.08-3.55,.09-5.33,21.91,6.82,45.27,8.79,68.02,5.76,6.06-.81,13.5-2.04,19.43-3.54,.02,1.71,.94,3.47,.98,5.18Zm10.54-145.07c1.39,2.15,2.77,4.3,4.16,6.45-2.35-2.05-4.74-4.06-7.18-6.01,0-.16-.05-.32-.16-.49-9.6-14.62-19.2-29.23-28.81-43.85,.26,0,.52-.08,.68-.29,.52-.63,1.07-1.23,1.61-1.85,9.9,15.35,19.8,30.69,29.69,46.04Zm-32.09-40.42c8.18,12.45,16.35,24.89,24.53,37.34-3.6-2.73-7.28-5.35-11.04-7.85-.17-.11-.34-.16-.5-.16-.15-.11-.33-.19-.58-.19-3.78,.09-7.55,.2-11.33,.3,0-.01,0-.02,0-.03-.57-9.79-.92-19.6-1.08-29.41Zm-12.12-11.23s0-.05,0-.08c-.04-.2-.07-.4-.1-.6,0-.03-.03-.21-.03-.22,0-.07-.02-.14-.03-.21-.04-.39-.07-.78-.09-1.17-.02-.56,0-1.12,.02-1.68,6.08-.39,12.17-.45,18.25-.14h0s.01,.08,.02,.12v.08c.03,.11,.03,.1,0-.03,.02,.05,.02,.18,.03,.23,0,.08,.02,.16,.02,.23,.02,.17,.03,.34,.04,.51,.04,.61,.03,1.23-.01,1.84-.01,.01-.03,.02-.05,.03-2.22,2.15-4.32,4.44-6.3,6.82l-6.69-.35s-.04,.01-.07,.01c-1.55-1.9-3.23-3.71-5.02-5.39Zm7.89,7.52l1.86,.1,.32,.49c.13,10.85,.5,21.69,1.13,32.53,0,.03,.02,.05,.02,.08-1.34,.04-2.69,.07-4.03,.11,.02-.07,.05-.12,.05-.2,.73-11.02,.94-22.07,.64-33.11Zm-2.6,33.37c-4.66,.14-9.31,.29-13.96,.46-.22-.05-.46-.02-.7,.14-4.2,2.79-8.3,5.73-12.29,8.8,7.29-10.99,14.73-21.88,22.07-32.84,1.85-2.76,3.69-5.54,5.52-8.32,.24,10.5,.02,21-.67,31.48,0,.1,.02,.18,.04,.26Zm-11.18-22.79c2.74-4.26,5.49-8.51,8.23-12.77,.51,.58,1.03,1.15,1.52,1.76,.2,.24,.53,.31,.85,.26-8.08,12.27-16.38,24.39-24.56,36.59-2.3,3.43-4.58,6.86-6.85,10.31-.01,.02-.02,.04-.03,.06-1.87,1.52-3.71,3.07-5.53,4.66,8.79-13.62,17.57-27.25,26.36-40.87ZM10.82,210.77c5.15-9.79,7.94-18.56,9.31-32.2,.03-.03,.07-.03,.11-.07,9.18-8.8,19.11-16.76,29.69-23.81,11.02-.4,22.04-.73,33.07-.99,.03,.03,.06,.05,.1,.08,10.65,7.08,20.64,15.09,29.87,23.94,.03,.03,.07,.04,.11,.07,2.45,24.36-18.59,48-21.67,72.19-2.26,17.77-2.14,31.8-.7,50.68-21.86,5.62-45.88,6.68-68.09,2.6-6.28-1.15-12.49-2.7-18.58-4.6-.1-.03-.2-.03-.29-.03,.01-2.3,.03-4.6,.01-6.91-.08-12.19-.58-24.36-1.42-36.52-.85-12.18,2.82-33.63,8.5-44.44Zm80.97,182.12c-4.65,.56-9.35,.79-14.05,.91-.11-.04-.24-.06-.39-.05-.49,.04-.98,.06-1.47,.09-1.05,.02-2.1,.04-3.15,.06-7.41,.12-14.83,.06-22.24-.18-.49-.02-.97-.04-1.46-.06-2.63-.21-5.25-.47-7.86-.79-.11-.01-.2,0-.29,.02-6.39-9.59-13.63-18.61-21.63-26.91,2.38-18.9-16.11-38.87-15.66-57.91,21.7,6.65,44.8,8.54,67.3,5.55,6.34-.84,12.63-2.07,18.83-3.68,.07-.02,3.04,.23,3.1,.21,.12,4.39,5.56,12.89,7.53,16.82,6.17,12.31,11.87,24.54,13.6,38.23-8.22,8.53-15.64,17.81-22.16,27.7Z"/><path class="i" d="M42.5,225.7c-2.72,5.24,.72,12.49,5.01,15.82,2.49,1.93,5.61,2.82,8.73,2.37,5.81,.85,10.92-3.04,13.24-8.2,1.24-2.77,2-6.08,.93-9.03-1.05-2.89-3.76-4.02-6.62-4.5-2.72-.46-5.69,0-7.54,2.06-1.58-1.75-4.03-2.43-6.4-2.21-2.69,.25-6,1.11-7.35,3.7Zm1.57,1.34c.58-1.4,1.78-2.05,3.16-2.48,2.65-.82,6.32-1.17,7.98,1.59,.25,.42,.66,.53,1.03,.45,.37,.08,.78-.03,1.03-.45,1.67-2.76,5.33-2.41,7.98-1.59,1.39,.43,2.58,1.08,3.16,2.48,.63,1.49,.59,3.23,.25,4.79-1.17,5.45-5.93,10.97-11.95,10.12-.12-.04-.26-.06-.41-.05h-.01s-.04,0-.06,0c-.02,0-.04,0-.06,0h-.01c-.15,0-.28,0-.41,.05-6.02,.86-10.78-4.67-11.95-10.12-.33-1.56-.37-3.29,.25-4.79Z"/><path class="i" d="M42.86,222.71c.25,.03,.49-.08,.67-.26,.04-.02,.08-.02,.12-.04,2.39-1.32,2.3-4.28,1.3-6.46-.56-1.23-1.4-2.3-1.99-3.51-.6-1.23-.78-2.58-.66-3.93,.08-.86-1.15-1.33-1.71-.71-1.99,2.21-2.79,5.21-2.58,8.14,.21,3.01,1.46,6.34,4.84,6.77Zm-2.26-11.13c.36,1.3,.97,2.52,1.72,3.74,.86,1.4,2.39,4.18,.34,5.34-2.16-.45-2.64-3.55-2.68-5.35-.03-1.27,.16-2.55,.61-3.74Z"/><path class="i" d="M68.08,221.63s.08,.02,.12,.04c.18,.18,.41,.29,.67,.26,3.38-.43,4.63-3.76,4.84-6.77,.21-2.93-.59-5.93-2.58-8.14-.55-.62-1.78-.16-1.71,.71,.12,1.31-.05,2.62-.61,3.82-.58,1.26-1.46,2.36-2.04,3.62-1,2.18-1.09,5.14,1.3,6.46Zm1.33-7.09c.75-1.22,1.37-2.44,1.72-3.74,.45,1.18,.64,2.47,.61,3.74-.04,1.8-.51,4.9-2.68,5.35-2.04-1.16-.51-3.94,.34-5.34Z"/><path class="i" d="M56.71,217.9c.15-.05,.26-.12,.36-.2,.78-.17,1.47-.65,1.97-1.34,.79-1.09,.82-2.52,.66-3.81-.35-2.85-1.21-5.6-2.47-8.18-.31-.64-1.42-.67-1.73,0-.68,1.5-1.32,3.02-1.93,4.55-.58,1.44-1.29,2.95-1.53,4.5-.21,1.37,.04,2.8,1.14,3.74,.97,.82,2.31,1.14,3.53,.74Zm-2.36-5.42c.59-1.73,1.28-3.43,2.01-5.12,.52,1.35,.92,2.74,1.18,4.17,.18,.95,.39,2.01,.17,2.97-.14,.59-.64,1.43-1.37,1.29-.36-.07-.66,.05-.88,.25-.44-.04-.87-.22-1.17-.58-.67-.83-.25-2.09,.06-2.98Z"/></g></g></g></svg>