<?xml version="1.0" encoding="UTF-8"?><svg xmlns="http://www.w3.org/2000/svg" viewBox="0 0 204.71 234.5"><defs><style>.c{fill:#fff;}.d{fill:#ed9e20;}.e{fill:#ffc97b;}.f{fill:#ffb32c;}.g{fill:#ffbe55;}.h{fill:#ff822e;}.i{fill:#cc5d11;}.j{fill:#cc7c12;}.k{fill:#e2901a;}.l{fill:#e06817;}.m{fill:#231f20;}</style></defs><g id="a"/><g id="b"><g><path class="l" d="M198,136.29c.31,1.13,1.14,3.5-.28,4.22-.6,.31-1.66,.13-2.32,.21-.83,.11-1.57,.37-2.24,.87-2.45,1.79-2.8,5.49-3.85,8.14-2.4,6.05-6.43,11.36-11.45,15.48-.79,.65-.66,1.98,0,2.65,.77,.78,1.87,.64,2.65,0,5.54-4.54,9.79-10.48,12.41-17.14,.61-1.55,1-3.16,1.58-4.71,.19-.53,.47-1.24,1-1.5,.62-.29,1.5-.12,2.18-.2,1.84-.2,3.28-1.25,4.02-2.96,.86-1.98,.44-4.07-.11-6.07-.64-2.32-4.26-1.34-3.62,1h0Z"/><g><path class="f" d="M165.83,97.94c-.05-6.14-1.32-11.95-3.74-17.58-2.35-5.47-5.4-10.65-8.38-15.79-3.05-5.27-6.2-10.51-9.47-15.65-5.11-8.05-11.22-16.5-19.91-20.97-2.33-1.2-4.84-2.13-7.43-2.57-.79-.14-1.62-.28-2.45-.37,.76-.33,1.51-.66,2.27-1,1.58-.7,3.32-1.64,4.71-2.87,.12,.06,.23,.12,.35,.16,.33,.1,.66,.12,1,.04,.33-.02,.64-.11,.93-.3,.37-.17,.71-.45,1.01-.73,.31-.29,.58-.64,.78-1.01,.2-.36,.38-.76,.47-1.17,.07-.31,.11-.63,.13-.94,0-.03,0-.06,0-.09l.41-.83c.29-.58,.46-1.28,.25-1.93l-.1-.23c.14-.21,.29-.41,.43-.63,1.26-2.02-.81-4.01-2.82-3.67-2.5,.42-4.94,1.15-7.26,2.16-.76-.27-1.67-.17-2.52,.55-1,.85-1.99,1.71-2.99,2.56-1.73,1.21-3.36,2.58-4.82,4.11-.03-.03-.05-.07-.09-.11-1.15-.95-2.29-1.9-3.44-2.85-.63-.53-1.38-.69-2.06-.6-.62-.92-1.26-1.82-1.95-2.69-1.65-2.1-3.52-4.2-6.09-5.13-2.55-.93-5.57-.14-7.15,2.1-1.56,2.19-1.05,5.49-.13,7.84,.63,1.6,1.5,3.04,2.59,4.29-.04,.04-.09,.07-.13,.11-.21,.21-.4,.45-.58,.68-.06,.07-.13,.13-.18,.21-1.01-.8-2.32-.6-3.3,.19-12.92,10.45-23.53,23.79-30.84,38.72-1.89,3.87-3.56,7.84-5.02,11.89-.67,.59-1.03,1.5-.73,2.47,1.41,4.54,6.2,6.33,10.46,7.22,1.45,.3,2.92,.45,4.37,.07,1.22-.32,2.26-1.08,3.48-1.39,1.6-.41,3.42,.05,4.76,1.04,2.71,2,2.57,6.33,.04,8.43-1.75,1.46-4.2,1.91-6.14,3.07-.52,.31-1.01,.66-1.49,1.04-.45,.09-.87,.3-1.19,.67-.38,.44-.73,.9-1.06,1.37-2.16,1.18-4.11,2.67-5.52,4.74-.47,.69-.85,1.46-1.14,2.26-1.02,1.38-1.82,2.92-2.31,4.55-.42,.29-.83,.6-1.17,.98-1.29,1.48-1.56,3.19-.77,4.98,.3,.68,.98,1.06,1.71,1.17,.21,.34,.43,.66,.63,.97,.35,.53,.71,1.06,1.07,1.59,0,.03,0,.06,0,.1,.48,7.57,5.99,12.98,11.71,17.31,4.98,3.77,11.21,7.48,13.14,13.82,.35,1.16,1.21,1.71,2.1,1.77,.03,.5,.05,.99,.08,1.49-.43,7.33-3.95,14.43-9.85,18.96-7.38,5.67-17.26,6.44-25.9,9.01-3.27,.97-6.44,2.23-9.35,3.94-.57-.14-1.15-.22-1.7-.2-1.94,.09-3.95,.72-5.3,2.2-1.26,1.37-2.42,3.37-2.2,5.3,.39,3.4,1.22,6.63,3.24,9.47,1.64,2.32,3.46,4.28,5.69,6.02,4.62,3.61,9.78,6.38,14.92,9.17,11.23,6.11,23.11,11.22,36.03,11.96,5.01,.29,9.9-.27,14.65-1.55,7.71,.34,15.47-.05,23.05-.86,8.24-.88,16.81-1.8,24.8-4.3,2.91-.63,5.91-1.32,8.53-2.59,2.95-1.44,5.18-4.67,3.29-7.88-.81-1.38-2.24-2.39-3.44-3.4l-.03-.03c-.6-.73-1.33-1.33-2.17-1.75-.77-.62-1.53-1.26-2.31-1.86-5.69-4.43-11.66-8.5-17.89-12.13-3.47-2.03-7.02-3.92-10.64-5.67-3.19-1.55-6.54-2.95-9.4-5.07-2.33-1.73-4.17-4-4.55-6.91,0-.07,0-.14-.02-.2,.38-1.34,.73-2.69,1.05-4.05,.38-.24,.74-.53,1.06-.83,1.11-1.07,2.22-2.1,3.49-2.98,5.2-3.61,11.27-5.68,16.72-8.86,6.9-4.02,13.06-9.29,18.21-15.41,.43-.08,.87-.27,1.28-.63,3.44-3.04,5.97-6.76,7.87-10.83,3.09-5.75,5.05-12.08,5.74-18.66,.07-.63-.12-1.13-.44-1.53,.65-4.48,1.11-9,1.07-13.51Zm-85.05,43.83c.11,.13,.18,.24,.2,.32-.04-.08-.11-.2-.2-.32Zm-4.66-59.93s.05,.06,.08,.09l.02,.04c-.09-.11-.16-.18-.19-.23,.03,.03,.06,.06,.1,.09Zm30.47-58.82c-.02-.12-.03-.23-.05-.35h0c.09,.09,.18,.17,.28,.25l-.24,.1Zm-30.67,58.63v.03s-.04-.06-.06-.09l.06,.06Zm5.29,60.94c.25,.41,.46,.82,.67,1.25,.24,.69,.44,1.4,.59,2.11-.06,0-.12,0-.19,.01-.32-1.24-.72-2.46-1.24-3.62,.05,.08,.11,.16,.16,.25ZM91.61,12.62s.03,.01,.04,.02c-.53-.12-1.07-.12-1.59,.04h0l.02-.02h0c.1-.05,.22-.09,.27-.11,.17-.03,.38-.06,.38-.07,.17,0,.36,.02,.37,0,.13,.03,.25,.06,.38,.09,.06,.02,.1,.04,.13,.05Z"/><path class="d" d="M85.18,24.73c-20.1,10.72-32.61,31.61-35.47,53.87-.78,6.04-.87,12.17-.3,18.23,.55,5.94,1.55,11.97,3.6,17.6s4.96,10.16,9.11,14.17c3.56,3.44,7.6,6.36,11.08,9.89,3.67,3.72,6.32,8.18,6.37,13.53,.05,5.24-2.1,10.28-6.04,13.75-1.01,.89-.91,2.62,0,3.54,1.01,1.01,2.52,.9,3.54,0,7.72-6.81,9.71-18.79,4.75-27.77-4.9-8.87-14.85-13.14-20.43-21.42-3.22-4.77-4.87-10.35-5.93-15.95-1.12-5.9-1.56-11.93-1.36-17.94,.39-11.54,3.34-23.03,9.1-33.08s14.21-18.61,24.51-24.11c2.84-1.51,.32-5.83-2.52-4.32h0Z"/><path class="d" d="M73.14,137.25c-18-9.98-23.05-33.67-20.66-52.61,2.44-19.38,12.88-38.08,28.53-49.88,2.26-1.7,4.71-3.1,6.98-4.77s4.73-3.9,5.24-6.9c.27-1.57,0-3.1-.69-4.53-.61-1.26-1.62-2.25-2.39-3.4-.5-.75-.88-1.37-.51-2.21,.41-.94,1.24-1.35,2.2-1.28,1.35,.11,2.5-1.23,2.5-2.5,0-1.44-1.15-2.39-2.5-2.5-3.06-.24-5.84,1.87-6.91,4.65s.15,5.44,1.91,7.71c1.27,1.64,2.12,2.91,.7,4.7-1.58,1.99-3.98,3.18-6.05,4.57-8.88,5.98-16.37,13.86-22.08,22.89-11.38,17.99-15.82,41.02-9.87,61.67,3.36,11.66,10.25,22.71,21.08,28.71,2.82,1.56,5.34-2.75,2.52-4.32h0Z"/><path class="d" d="M95.45,6.92c-3.56-.26-6.61,2.47-7.64,5.72-.52,1.64-.44,3.45,.25,5.03,.39,.89,.98,1.64,1.63,2.36,.48,.54,1.19,1.09,1.4,1.81,.42,1.43-.79,3.07-1.64,4.11-1.35,1.65-2.98,3.11-4.54,4.56-3.23,3.01-6.61,5.87-9.79,8.94-11.52,11.1-19.44,25.75-22.32,41.5-1.46,7.98-1.77,16.21-.49,24.24,.66,4.14,1.9,8.23,3.93,11.9,1.77,3.19,4.21,5.98,6.85,8.47,4.94,4.65,11,8.45,14.98,14.04,3.89,5.48,4.66,12.07,2.75,18.47-4.44,14.86-19.86,21.31-34.19,22.19-1.96,.12-3.92,.15-5.89,.12-3.22-.06-3.22,4.94,0,5,15.31,.27,32.32-4.08,41.09-17.7,3.9-6.06,5.8-13.45,4.68-20.61-1.12-7.19-5.78-12.81-11.08-17.47s-11.17-8.59-14.66-14.66c-3.97-6.91-4.53-15.46-4.2-23.26,.66-15.3,6.42-30.52,16.17-42.35,5.5-6.67,12.42-11.88,18.5-17.98,2.79-2.8,5.99-6.76,4.61-11.01-.34-1.04-.91-1.88-1.6-2.72-.52-.62-1.24-1.17-1.61-1.91,.11,.21-.17-.57-.15-.44-.01-.07-.03-.58,0-.82,.04-.29,.3-.92,.59-1.35,.62-.89,1.39-1.25,2.37-1.18,1.35,.1,2.5-1.22,2.5-2.5,0-1.44-1.15-2.4-2.5-2.5h0Z"/><path class="d" d="M52.3,80.01c-.04-.65-.02-1.3,.06-1.94l-.09,.66c.12-.9,.36-1.77,.7-2.6l-.25,.6c.28-.66,.63-1.29,1.05-1.88,.36-.5,.41-1.35,.25-1.93s-.61-1.21-1.15-1.49c-.58-.31-1.28-.46-1.93-.25s-1.1,.59-1.49,1.15c-1.54,2.19-2.33,5.02-2.16,7.69,.04,.67,.25,1.29,.73,1.77,.43,.43,1.15,.76,1.77,.73s1.32-.24,1.77-.73,.77-1.11,.73-1.77h0Z"/><path class="d" d="M88.36,16.64c3.3,7.15-.81,15.22-5.19,20.86-2.43,3.13-5.16,6.03-7.73,9.05s-5.23,6.37-7.61,9.74c-4.72,6.69-8.61,14.03-10.85,21.93-2.35,8.3-3.22,17.51-1.52,26.02,1.46,7.3,5.82,13.07,11.03,18.18,4.75,4.66,10.18,8.91,13.71,14.65,6.64,10.82,4.14,25.89-5.44,34.12-5.42,4.66-12.48,6.91-19.35,8.43-3.56,.79-7.16,1.38-10.76,1.97s-7.29,1.21-10.68,2.79c-1.67,.78-3.2,1.87-4.5,3.17-2.27,2.28,1.26,5.82,3.54,3.54,2.49-2.5,5.96-3.41,9.34-4.06,3.68-.7,7.4-1.2,11.08-1.9,7.28-1.39,14.69-3.39,20.96-7.46,6.03-3.92,10.47-9.55,12.8-16.36,2.2-6.46,2.36-13.77,.28-20.28s-6.78-12.04-11.84-16.85c-4.82-4.58-10.17-8.98-13.25-15-1.84-3.61-2.52-7.69-2.68-11.71-.18-4.33,.12-8.68,.94-12.94,1.59-8.24,5-15.84,9.57-22.84s9.96-12.71,15.15-18.96c5.23-6.31,9.98-13.99,9.03-22.55-.24-2.14-.8-4.09-1.7-6.05-.57-1.23-2.34-1.53-3.42-.9-1.26,.74-1.46,2.19-.9,3.42h0Z"/><path class="d" d="M79.34,140.89l-6.72-6.23c-.96-.89-2.6-1.02-3.54,0-.44,.48-.76,1.1-.73,1.77s.29,1.23,.73,1.77c2.03,2.43,4.38,4.53,6.96,6.36,.5,.36,1.36,.41,1.93,.25s1.21-.61,1.49-1.15c.31-.58,.46-1.28,.25-1.93s-.59-1.1-1.15-1.49c-.39-.28-.77-.56-1.15-.85l.51,.39c-1.94-1.51-3.72-3.23-5.3-5.12l-3.54,3.54,6.72,6.23c.96,.89,2.6,1.02,3.54,0,.89-.97,1.02-2.59,0-3.54h0Z"/><path class="k" d="M83.21,24.51c-21.66,10.26-31.52,35.26-34.79,57.6-1.64,11.23-1.48,22.93,3.23,33.45,2.37,5.29,6.04,9.77,10.06,13.89s8.32,7.8,11.59,12.43,5.99,10.54,4.82,16.28-6.24,9.77-10.87,13.17c-1.09,.8-1.63,2.17-.9,3.42,.63,1.07,2.33,1.7,3.42,.9,4.4-3.24,9.07-6.69,11.58-11.69s2.48-11,.58-16.32c-1.98-5.56-5.47-10.25-9.49-14.49s-8.4-8.01-11.96-12.59c-6.83-8.77-8.56-19.96-7.87-30.8,.35-5.6,1.36-11.13,2.68-16.58,1.44-5.93,3.25-11.82,5.77-17.39,5.15-11.36,13.24-21.54,24.7-26.97,1.22-.58,1.54-2.33,.9-3.42-.73-1.25-2.2-1.48-3.42-.9h0Z"/><path class="k" d="M60.61,128.65l-.11,.21,.9-.9c1.2-.85,1.77,.51,1.2-.48-.31-.53-.68-1.04-1.01-1.56-.66-1.05-1.28-2.12-1.88-3.2-1.12-2.04-2.14-4.14-3.01-6.3-1.78-4.4-3.09-8.99-3.92-13.67-1.63-9.14-1.3-18.66,.95-27.67s6.1-16.99,11.34-24.34c5.28-7.41,11.91-13.39,19.28-18.65,2.3-1.64,4.73-3.35,6.54-5.56s2.17-4.9,.99-7.58c-.42-.97-.98-1.85-1.51-2.76-.45-.76-1.07-1.68-1.13-2.59-.08-1.3,1.43-2.77,2.74-2.52s2.7-.37,3.08-1.75c.34-1.22-.41-2.82-1.75-3.08-5.29-1-10.36,3.93-8.73,9.3,.62,2.04,2.12,3.71,2.86,5.61,.3,.78,.37,1.14-.11,1.85-.72,1.07-1.88,1.97-2.87,2.78-2.04,1.68-4.29,3.1-6.41,4.69s-4.05,3.17-5.95,4.9c-3.7,3.36-7.04,7.09-10.06,11.08-12.54,16.57-17.8,37.75-13.96,58.21,1.08,5.77,2.91,11.36,5.38,16.68,1.22,2.62,2.6,5.16,4.16,7.59,.8,1.25,1.57,2.63,2.93,3.35,1.56,.82,3.53,.48,4.4-1.15,1.52-2.83-2.79-5.36-4.32-2.52h0Z"/><path class="k" d="M85.25,25.81c-3.88,2.88-7.6,5.98-11.11,9.31-.95,.9-.98,2.64,0,3.54s2.52,.96,3.54,0c1.65-1.57,3.35-3.09,5.09-4.56,.86-.72,1.73-1.43,2.61-2.13,.21-.16,.41-.33,.62-.49,.13-.1,.26-.2,.39-.3-.16,.12-.25,.19-.04,.03,.47-.36,.95-.72,1.42-1.07,.54-.4,.96-.82,1.15-1.49,.16-.6,.09-1.4-.25-1.93-.67-1.04-2.3-1.73-3.42-.9h0Z"/><path class="k" d="M85.7,26.48c-10.99,7.45-20.78,17.3-27.38,28.88-3.58,6.28-5.66,13.07-7.22,20.09s-2.72,13.65-2.42,20.57,2.17,13.14,5.69,18.91c3.27,5.34,7.52,10,11.6,14.71,7.28,8.41,16.59,20.84,11.06,32.52-2.86,6.05-8.46,10.3-14.34,13.2-6.5,3.21-13.79,4.59-21.01,4.22-3.22-.17-3.21,4.83,0,5,12.82,.66,27.08-4.06,35.67-13.94,4.2-4.83,6.65-10.89,6.21-17.35-.45-6.59-3.29-12.8-6.95-18.21-6.82-10.09-17.54-18.05-21.36-29.99-2.08-6.51-1.9-13.52-.88-20.21,1.07-7,2.59-14.2,5.22-20.79s7.12-13.03,11.94-18.53,10.52-10.58,16.7-14.76c2.65-1.79,.15-6.13-2.52-4.32h0Z"/><path class="k" d="M75.94,139.43c-1.14-.62-2.26-1.3-3.34-2.03-.57-.39-1.12-.79-1.67-1.2-.2-.15-.16-.12,.02,.01-.13-.11-.27-.21-.4-.32-.27-.21-.53-.43-.79-.65-2.02-1.71-3.86-3.62-5.5-5.69l-3.03,3.93,9.75,7.15c1.06,.78,2.83,.21,3.42-.9,.69-1.3,.23-2.59-.9-3.42l-9.75-7.15c-1-.74-2.53-.25-3.23,.64-.82,1.06-.59,2.29,.2,3.28,3.45,4.35,7.82,8,12.7,10.66,1.15,.63,2.78,.32,3.42-.9s.33-2.75-.9-3.42h0Z"/><path class="k" d="M82.12,34.14c4.98-2.17,10.3-5.48,10.36-11.58,.01-1.52-.33-3.08-.89-4.49-.33-.82-.69-1.61-1.13-2.38-.37-.64-.86-1.29-1.12-1.99-.87-2.38,3.62-2.13,4.85-2.09,3.22,.1,3.21-4.9,0-5-3.39-.11-7.09,.32-9.09,3.45-.92,1.45-1.11,3.25-.61,4.88s1.52,2.85,2.2,4.33c1.07,2.3,1.11,4.83-.64,6.67s-4.18,2.89-6.46,3.88c-1.24,.54-1.52,2.35-.9,3.42,.75,1.28,2.18,1.44,3.42,.9h0Z"/><path class="k" d="M108.77,22.33c2.72-2.57,5.48-5.17,8.86-6.86,1.39-.69,3.1-1.27,4.63-1.33,.71-.03,1.4,.06,1.83,.38-.02-.02,.26,.36,.14,.18,.06,.09,.14,.38,.05,.08,0,.28,0,.34,0,.17,0-.17-.02-.12-.09,.16-.47,1.27,.52,2.74,1.75,3.08,1.39,.38,2.61-.47,3.08-1.75,.96-2.62-.71-5.54-3.13-6.63-2.56-1.15-5.58-.69-8.15,.22-4.89,1.73-8.79,5.25-12.49,8.76-2.34,2.22,1.2,5.75,3.54,3.54h0Z"/><path class="j" d="M82.92,24.44c-20.7,13.26-34.4,35.34-37.16,59.76-.72,6.37-.66,12.82,.17,19.17,.85,6.51,2.32,13.08,5.8,18.73,3.49,5.67,8.51,10.26,13.15,14.96,2.42,2.45,4.85,4.89,7.26,7.35,2.05,2.1,4.06,4.3,4.7,7.24,.68,3.1-.21,6.52-1.41,9.38-1.05,2.5-2.53,4.87-4.31,6.91-3.83,4.39-8.87,7.47-14.56,8.74-3.14,.7-1.81,5.52,1.33,4.82,10.74-2.38,19.87-10.75,23.12-21.26,.99-3.19,1.37-6.64,.65-9.92s-2.56-5.76-4.69-8.08c-4.65-5.08-9.73-9.79-14.51-14.76-4.38-4.56-7.92-9.38-9.74-15.51s-2.5-12.83-2.46-19.31c.07-12.45,3.17-24.86,9.1-35.81s15.18-21.12,26.08-28.11c2.7-1.73,.2-6.06-2.52-4.32h0Z"/><path class="j" d="M92.31,6.42c-3.22-1.01-6.67,.72-8.42,3.45-1.94,3.03-1.44,6.87-.05,9.99,.24,.54,.95,1,1.49,1.15,.6,.16,1.4,.09,1.93-.25s1-.86,1.15-1.49c.16-.7,.04-1.28-.25-1.93-.23-.52,.19,.54,0,0-.04-.13-.09-.26-.14-.39-.1-.29-.18-.57-.25-.87-.04-.16-.07-.32-.1-.48-.02-.09-.11-.57-.03-.15s0-.06,0-.15c-.01-.16-.02-.32-.02-.49,0-.27,.02-.54,.03-.81,.02-.56-.12,.57,0,.03,.03-.13,.05-.26,.08-.39,.06-.27,.24-.58,.26-.84-.02,.19-.21,.45-.03,.09,.06-.12,.13-.24,.2-.36,.06-.1,.13-.19,.19-.29,.26-.42-.39,.42-.05,.07,.16-.17,.31-.34,.48-.5,.21-.19,.41-.2-.08,.04,.1-.05,.19-.14,.28-.2,.21-.14,.43-.26,.66-.37,.38-.19-.44,.16-.16,.07,.11-.03,.21-.07,.32-.11,.13-.04,.26-.06,.39-.1,.47-.13-.61,.03-.13,.01,.22,0,.44,0,.67,0,.47,.01-.59-.15-.13,0,.13,.04,.26,.07,.39,.11,1.25,.39,2.78-.46,3.08-1.75,.31-1.36-.41-2.66-1.75-3.08h0Z"/><path class="j" d="M92.49,11.71c.38,0,.76,.02,1.13,.07l-.66-.09c.75,.1,1.48,.31,2.18,.6l-.6-.25c.67,.29,1.29,.65,1.87,1.1l-.51-.39c.2,.16,.39,.32,.57,.49,.48,.45,1.1,.73,1.77,.73,.61,0,1.35-.27,1.77-.73s.76-1.1,.73-1.77-.24-1.31-.73-1.77c-2.04-1.9-4.73-3-7.53-2.99-.64,0-1.31,.28-1.77,.73s-.76,1.15-.73,1.77c.06,1.35,1.1,2.5,2.5,2.5h0Z"/><path class="j" d="M127.72,11.65c-.52-2.79-3.63-3.71-6.1-3.56-2.63,.15-5.13,.84-7.51,1.97-4.66,2.21-8.21,6.23-10.06,11h4.82c-1.48-3.59-3.43-6.81-5.98-9.74-.89-1.02-2.63-.91-3.54,0-1.01,1.01-.89,2.51,0,3.54,1.94,2.23,3.57,4.8,4.7,7.53,.95,2.32,3.89,2.41,4.82,0,1.21-3.12,3.63-5.71,6.51-7.36,1.45-.83,2.99-1.4,4.63-1.73,.78-.16,1.61-.27,2.41-.22,.04,0,.8,.18,.81,.17-.19,.18-.51-1.1-.35-.25,.25,1.33,1.85,2.08,3.08,1.75,1.39-.38,1.99-1.74,1.75-3.08h0Z"/><path class="d" d="M74.62,45.21c-2.54,1.48-4.7,3.67-6.12,6.25-.6,1.1-.35,2.46,.64,3.23s2.43,.72,3.28-.2l4.18-4.53c.45-.48,.73-1.1,.73-1.77,0-.61-.27-1.35-.73-1.77s-1.1-.76-1.77-.73-1.32,.24-1.77,.73l-4.18,4.53,3.93,3.03c.35-.63,.74-1.23,1.17-1.8l-.39,.51c.74-.95,1.59-1.81,2.55-2.55l-.51,.39c.48-.37,.98-.7,1.5-1s.98-.89,1.15-1.49,.09-1.4-.25-1.93-.86-1-1.49-1.15-1.33-.09-1.93,.25h0Z"/><path class="d" d="M74.57,44.97c-1.39,4.24-1.51,8.89-.34,13.2,1.05,3.89,3.35,8.82,7.68,9.82,1.12,.26,2.3,.17,3.39-.17,.94-.29,1.84-.86,2.85-.79,1.89,.13,3.43,1.53,4.74,2.77,1.64,1.56,3.24,3.18,5.24,4.28s4.12,1.74,6.34,2.05c5.51,.77,10.91-.63,16.17-2.12,3.09-.87,1.78-5.7-1.33-4.82-4.07,1.15-8.22,2.36-12.5,2.17-1.78-.08-3.6-.41-5.24-1.13s-3.05-1.94-4.39-3.23c-2.97-2.86-6.48-5.68-10.89-4.8-1.43,.29-2.79,1.51-4.13,.48-1.25-.97-2.03-2.62-2.57-4.06-1.49-4-1.56-8.27-.23-12.32,1.01-3.06-3.82-4.38-4.82-1.33h0Z"/><path class="d" d="M64.35,65.92c-.22,4.11,0,8.72,2.73,12.04,3.56,4.33,9.28,3.17,13.82,1.34,1.15-.47,1.99-1.42,1.79-2.74-.17-1.14-1.2-2.28-2.46-2.17l-4.29,.38c-3.18,.28-3.25,4.82,0,5,2.36,.13,4.12,2.65,5.47,4.67,1.81,2.7,3.52,5.43,6.05,7.52,4.96,4.1,11.54,6.2,17.97,5.62,3.72-.33,7.31-1.44,10.47-3.46,2.7-1.73,.19-6.06-2.52-4.32-4.87,3.13-10.89,3.61-16.35,1.85-2.59-.84-5.04-2.23-7.02-4.1-2.16-2.04-3.52-4.66-5.25-7.03-2.21-3.03-4.89-5.52-8.81-5.75v5l4.29-.38-.66-4.91c-2.73,1.1-6.95,2.81-8.91-.04-1.61-2.33-1.45-5.75-1.31-8.53,.17-3.22-4.83-3.21-5,0h0Z"/><path class="d" d="M107.98,41.74c1.09-1.33,2.23-2.78,3.68-3.73,.67-.44,1.37-.82,2.19-.91,.87-.09,2,.22,2.96,.17,1.95-.11,3.53-1.22,5.41-.25,1.48,.76,3.5,2,4.17,3.57,.53,1.24,2.36,1.52,3.42,.9,1.28-.75,1.43-2.17,.9-3.42-.96-2.24-3.58-4.02-5.64-5.18-1.25-.71-2.6-1.2-4.04-1.32s-2.71,.49-4.13,.69c-1.22,.17-2.48-.23-3.73-.07s-2.39,.55-3.49,1.16c-2.1,1.18-3.74,3.02-5.25,4.86-.85,1.04-1.02,2.51,0,3.54,.88,.88,2.68,1.05,3.54,0h0Z"/><path class="d" d="M107.96,52.1c2.77,4.11,7.29,6.4,12.18,6.77,5.2,.39,10.39-1.74,14.55-4.72,1.09-.79,1.62-2.18,.9-3.42-.63-1.08-2.32-1.69-3.42-.9-3.32,2.38-7.17,4.19-11.34,4.07-3.27-.09-6.69-1.56-8.55-4.33-.75-1.12-2.2-1.61-3.42-.9-1.11,.65-1.65,2.3-.9,3.42h0Z"/><path class="g" d="M122.99,33.45c16.78,15.52,29,36.39,33.3,58.93,2.24,11.76,1.88,24.05-2.33,35.33-4.03,10.79-11.78,19.07-21.2,25.45-5.19,3.51-10.74,6.33-16.14,9.49-4.81,2.81-9.84,6.69-10.8,12.54-.22,1.33,.35,2.69,1.75,3.08,1.2,.33,2.85-.41,3.08-1.75,.8-4.84,5.17-7.66,9.14-9.92,4.91-2.8,9.91-5.41,14.63-8.54,9.95-6.58,18.4-14.96,23.17-26.05,9.97-23.18,3.99-49.93-7.43-71.44-6.07-11.44-14.11-21.86-23.62-30.65-2.36-2.18-5.9,1.35-3.54,3.54h0Z"/><path class="g" d="M130.89,42.98c13.51,16.21,23.53,35.69,25.28,56.97,.47,5.65,.46,11.4-.22,17.04-.72,6.05-2.81,11.66-5.94,16.86-5.36,8.91-13.07,16.34-22.12,21.45-5.32,3-11.47,4.71-16.09,8.85-4.26,3.83-6.55,10.55-3.43,15.75,1.66,2.75,5.98,.24,4.32-2.52-2.37-3.94,.84-8.6,4.1-10.84,4.52-3.11,9.93-4.73,14.65-7.52,9.2-5.43,17.06-13.14,22.64-22.26,3.24-5.3,5.57-11.07,6.51-17.23,.9-5.85,1.06-11.85,.69-17.75-.67-10.75-3.23-21.27-7.42-31.19-4.8-11.36-11.58-21.7-19.46-31.15-.87-1.04-2.64-.89-3.54,0-1.03,1.03-.87,2.5,0,3.54h0Z"/><path class="g" d="M130.96,47.23c-1.68-4.46-5.03-8.25-9.45-10.16-2.47-1.07-5.27-1.8-7.95-1.11-2.47,.64-4.35,2.66-4.96,5.12-1.27,5.08,2.12,9.5,6.59,11.51s11.12,3.58,14.29-1.44c1.47-2.33,1.45-5.43,.4-7.91-1.22-2.87-3.61-4.9-6.12-6.64l-2.52,4.32c1.37,.93,2.93,2.43,3.87,3.74,.53,.74,1.13,1.65,1.44,2.43,.05,.13,.17,.55,.17,.57,0,.04,0,.48,0,.08,0,.38-.12,.12,.1-.08,.11-.1,.66-.22,.13-.09-1.31,.33-2.1,1.8-1.75,3.08s1.76,2.07,3.08,1.75c1.95-.49,3.23-2.27,3.4-4.22,.15-1.75-.62-3.4-1.5-4.87-1.61-2.7-3.82-4.95-6.42-6.7-1.12-.76-2.77-.21-3.42,.9-.73,1.25-.21,2.65,.9,3.42,1.36,.94,2.86,2.18,3.69,3.56,.1,.16,.18,.32,.27,.48,.37,.66-.04-.29,.16,.35,.11,.34,.21,.69,.27,1.04,.07,.42,.02-.55,0,.17,0,.2,.01,.4,0,.6,0,.13-.08,.63,0,.16-.04,.23-.09,.46-.16,.69-.02,.08-.33,.71-.09,.26-.07,.13-.15,.27-.23,.4-.32,.59,.17-.15-.1,.13-.13,.14-.26,.28-.42,.4,.32-.24-.15,.05-.23,.1-.37,.21,.49-.11-.23,.1-.16,.05-.33,.09-.49,.13-.3,.05-.34,.06-.1,.03-.17,.02-.35,.03-.52,.03-.4,0-.8-.01-1.2-.06-.49-.06,.56,.13-.27-.05-.18-.04-.35-.07-.53-.11-.96-.21-1.91-.51-2.83-.85-1.35-.5-2.87-1.35-3.92-2.53-.28-.31-.21-.23-.45-.62-.11-.19-.21-.38-.3-.58,.19,.42,.04,.08,.01-.01-.09-.36-.2-.7-.26-1.07,.1,.59,0-.12,0-.21,0-.22,0-.44,.01-.65,0-.47,0-.09-.01,.02,.04-.21,.08-.42,.14-.62,.04-.14,.09-.27,.13-.4-.19,.54,.05-.07,.1-.16,.07-.12,.14-.23,.22-.35-.33,.47,.09-.05,.15-.12,.08-.09,.36-.26-.02,0,.19-.13,.4-.27,.62-.36-.32,.12,.55-.11,.49-.1-.1,.02-.41,.01,.19-.02,.29-.01,.58,0,.87,0,0,0,.48,.04,.21,0,.95,.12,1.91,.43,2.8,.78-.1-.04-.36-.17,.1,.05,.27,.13,.54,.25,.8,.39,.41,.22,.81,.46,1.2,.71,.87,.56,1.22,.86,2.05,1.7,.3,.3,.57,.62,.85,.94,.53,.6-.23-.35,.23,.3,.15,.21,.29,.41,.43,.63,.28,.42,.53,.86,.77,1.32,.08,.15,.15,.3,.22,.46,.12,.27,.14,.31,.05,.1,.06,.16,.13,.32,.18,.47,.47,1.26,1.69,2.13,3.08,1.75,1.21-.33,2.22-1.8,1.75-3.08h0Z"/><path class="g" d="M142.43,53.06c3.22,0,3.22-5,0-5s-3.22,5,0,5h0Z"/><path class="g" d="M156.09,79.16c7.84,15.83,5.79,35.02-1.52,50.65-.57,1.22-.34,2.7,.9,3.42,1.14,.66,2.78,.3,3.42-.9,7.87-14.63,9.05-32.62,2.87-48.09-.5-1.25-1.67-2.13-3.08-1.75-1.19,.33-2.25,1.81-1.75,3.08,5.7,14.25,4.92,30.69-2.37,44.23l4.32,2.52c6.32-13.52,9.05-29.01,5.78-43.73-.92-4.15-2.38-8.16-4.26-11.97-1.43-2.88-5.74-.35-4.32,2.52h0Z"/><path class="e" d="M129.75,35.42c7.32,10.81,15.1,21.45,21.61,32.78,6.23,10.83,11.04,23.01,10.34,35.71-.35,6.3-2.25,12.41-4.13,18.4s-3.76,11.38-6.84,16.52c-5.8,9.66-15.57,15.72-25.56,20.36-5.38,2.5-11.92,4.25-15.4,9.44-3.09,4.61-1.79,11.56,3.55,13.7,1.25,.5,2.75-.55,3.08-1.75,.39-1.42-.49-2.57-1.75-3.08-.09-.04-.41-.27-.55-.41-.2-.19-.38-.42-.58-.84-.31-.64-.43-1.49-.37-2.43,.11-1.75,1.26-3.4,2.85-4.64,1.99-1.55,4.43-2.51,6.72-3.49,2.54-1.08,5.06-2.21,7.54-3.43,9.96-4.92,19.29-11.56,25.01-21.3,3.1-5.27,5.16-11.1,6.99-16.91,1.94-6.13,3.79-12.34,4.35-18.78,1.09-12.58-3.1-25.02-8.92-36-3.3-6.23-7.19-12.12-11.13-17.96-4.15-6.15-8.32-12.29-12.48-18.44-1.79-2.65-6.13-.15-4.32,2.52h0Z"/><path class="e" d="M145.26,56.91c6.94,10.99,12.13,23.14,14.18,36.03,1.87,11.81,.72,24.06-3.74,35.18-2.43,6.07-5.98,11.71-10.43,16.49-2.19,2.35,1.34,5.9,3.54,3.54,8.67-9.31,13.97-21.37,15.74-33.92,1.86-13.23-.04-26.67-4.67-39.16-2.68-7.24-6.17-14.16-10.3-20.69-1.71-2.71-6.04-.21-4.32,2.52h0Z"/><g><path class="h" d="M201.79,139.04c-.19-2.26-1.29-4.44-3.07-5.86-.58-.46-1.26-.74-1.95-.71-.53-.98-1.07-1.96-1.6-2.93-.63-1.15-1.81-1.41-2.82-1.08-.57-.99-1.14-1.99-1.71-2.98-.34-.6-.92-.95-1.55-1.09-1.05-2.83-1.9-5.76-2.92-8.37-2.69-6.87-6.94-13.02-12.47-17.87-.22-.31-.51-.54-.83-.69-.37-.31-.74-.64-1.12-.93-1.07-.83-2.5-1.04-3.54,0-.54,.54-.82,1.47-.7,2.29-.08,.39-.08,.78,.02,1.17,.08,.2,.17,.4,.25,.6,.22,.38,.52,.67,.9,.9l.27,.14c-1.08,11.85-4.4,23.69-9.96,34.3-4.82,8.03-11.18,15.13-18.7,20.68-4.97,3.67-10.42,6.71-16.21,8.87-.44,.17-.83,.43-1.14,.75-1.58,.47-3.1,1.1-4.49,1.99-.85,.54-1.63,1.16-2.34,1.84-.53,.27-1.08,.53-1.61,.81-.87,.45-1.25,1.33-1.21,2.21-.64,.36-1.15,.95-1.37,1.72-.26,.9-.09,1.81,.38,2.51-.04,.26-.1,.51-.12,.77-.14,1.35,1.25,2.5,2.5,2.5,1.47,0,2.36-1.15,2.5-2.5,.02-.24,.06-.47,.11-.69,.15-.16,.31-.32,.45-.49,.38-.02,.77-.14,1.14-.42,.17-.13,.33-.27,.49-.41l.02,.02c.28-.23,.56-.47,.84-.7,.99-.49,1.87-1.26,2.49-2.26,.18-.29,.28-.62,.32-.95,.47-.23,.95-.45,1.42-.68,.14-.02,.27-.04,.41-.08,.42-.13,.84-.22,1.26-.31,.26,.21,.57,.38,.95,.5,2.67,.8,5.56,.8,8.2-.08,2.48,.53,4.95,1.22,7.39,1.67,2.03,.37,4.15,.63,6.25,.63,.81,.09,1.62,.16,2.44,.17,4.84,.06,9.6-1.22,14.23-2.52,.73-.2,1.21-.62,1.49-1.12,1.1,1.45,3.53,1.53,5.27,1.07,2.12-.57,3.91-1.93,5.54-3.34,1.69-1.46,3.25-3.08,4.68-4.81,.6,.03,1.22-.19,1.75-.79,2.18-2.51,3.75-5.25,4.88-8.13,.57-.13,1.09-.51,1.44-1.21,1.49-2.98,2.97-5.95,4.46-8.93,.23-.46,.66-.98,.8-1.46,.02-.06,.03-.09,.05-.13,1.38,.76,2.82,.93,4.25,.2,.27-.14,.51-.36,.7-.62,.39-.29,.69-.71,.83-1.27,.16-.65,.17-1.28,.06-1.89Zm-26.51-19.94c.02-.08,.04-.15,.07-.23l.05,.14s-.08,.06-.12,.09Zm20.67,23.5c.14-.31,.24,.05,0,0h0Z"/><path class="h" d="M44.6,48.48c.34,.09,.7,.1,1.05,.04,.11,.03,.22,.06,.34,.07,.27,.04,.54,.04,.8,.02-.6,3.15-.48,6.43,.38,9.54,.12,.44,.36,.82,.67,1.12,0,.04-.01,.09-.01,.13-.11,1.35,1.23,2.5,2.5,2.5,1.45,0,2.38-1.15,2.5-2.5,.07-.87,.19-1.72,.34-2.57,.43-.28,.81-.65,1.09-1.11,.54-.87,.87-1.89,1.2-2.89,4-5.37,7.75-10.92,11.22-16.66,.96-1.58-.26-3.84-2.16-3.76-1.51,.06-2.52-1.51-3.17-3.02-.04-1.05-.15-2.1-.22-3.1-.18-2.62-.45-5.22-.78-7.82-.16-1.23-.83-2.3-2.17-2.46-1.16-.14-2.48,.56-2.74,1.79-.88,4.12-.66,8.44,.88,12.38h0c-.03,1.74-.45,3.42-2.57,3.67-.33,.04-.6-.02-.9-.09-.56-1.3-2.02-2.18-3.45-1.19-4.31,2.98-5.69,7.95-6.56,12.85-.24,1.33,.36,2.69,1.75,3.08Z"/><path class="h" d="M63.99,84.15c-.07,.09-.12,.2-.16,.3-2.85,.41-5.74,.55-8.51-.1-4.66-1.09-7.26-4.83-10.84-7.64-3.34-2.62-8-4.09-12.04-2.13-2.05,1-3.25,2.84-3.93,4.96-.61,1.9-1.24,3.63-2.52,5.21-1.23,1.52-2.76,2.73-4.5,3.62-1.87,.95-4.19,.87-5.95,2-.48,.31-.85,.69-1.17,1.1-1.7-.31-3.6,1.18-2.97,3.07,.52,1.55,1.28,2.86,2.38,4.07,.65,.72,1.43,.89,2.13,.73,1.05,.78,2.29,1.32,3.54,1.81,.57,.64,1.03,1.35,1.19,2.14,.11,.54,.07,1.02-.06,1.46-1.08,.65-2.36,.98-3.55,1.26-1.99,.47-4.03,.75-5.99,1.35-2.23,.69-4.87,1.81-5.62,4.25-.89,2.89,1.34,5.41,4.06,6.03,2.92,.66,5.67-.71,8.29-1.79,.51-.21,1.17-.46,1.86-.65,.1-.01,.2-.03,.3-.04,.42-.06,.81-.12,1.19-.18,.65-.01,1.24,.12,1.67,.52,1.19,1.12-.87,3.79-1.66,4.76-.2,.25-.36,.52-.48,.8-.15,.07-.29,.16-.44,.23-1.6,.74-1.67,3.6,0,4.32,3.22,1.38,6.78,1.09,9.71-.9,2.76-1.87,4.5-4.8,5.52-7.92,.43-1.31,.55-2.86,1.22-4.07,.57-1.02,1.39-1.06,2.49-.96,2.84,.26,5.55,1.27,8.36,.17,5.53-2.17,6.38-8.61,9.52-12.94,1.55-2.14,3.71-4,6.15-5.04,1.12-.48,2.36-.8,3.57-.87,1.75-.1,3.47,.03,5.04-.92,2.93-1.77,3.62-6.17,1.36-8.73-2.56-2.89-7.01-2.14-9.17,.74Zm-31.49-.81c.01,.13,.03,.25,.05,.38-.06-.03-.11-.07-.17-.1,.04-.08,.08-.16,.11-.25v-.03Z"/></g><path class="g" d="M77.73,44.43c-.37,4-.65,8.12,.33,12.06,.81,3.24,3.4,9.03,7.5,5.96,.67-.51,1.25-1.08,2.1-1.26,.78-.17,1.58-.09,2.35,.12,1.81,.48,3.28,1.58,4.61,2.86,2.91,2.78,5.49,5.77,9.54,6.85,4.8,1.28,10.13,.43,15.02,.17,2.4-.13,2.42-3.88,0-3.75-4.01,.22-8.22,.8-12.22,.32s-6.31-2.9-8.98-5.55c-2.53-2.52-5.54-4.75-9.26-4.85-1.76-.05-3.39,.52-4.77,1.61-.13,.11-.31,.22-.42,.35l-.14,.12c-.29,.11-.28,.19,.03,.24,.35,.81,.1-.17,.12-.02-.02-.13-.26-.38-.33-.49-.51-.8-.92-1.64-1.21-2.54-1.29-3.91-.89-8.16-.52-12.18,.22-2.4-3.53-2.39-3.75,0h0Z"/><path class="g" d="M69.7,47.81c-1.06,6.01-1.37,12.13-.77,18.21,.24,2.43,.21,5.75,2,7.64,1.61,1.69,4.16,1.64,6.24,1.02,1.7-.51,4.69-2.5,5.75-.14,.42,.95,.57,2.03,.88,3.02,.38,1.22,.89,2.43,1.48,3.56,2.22,4.24,5.93,7.72,10.33,9.61,5.67,2.43,12.08,2.18,17.64-.41,2.18-1.02,.28-4.25-1.89-3.24-8.45,3.94-18.57,.35-22.85-7.85-1.84-3.53-1.76-9.54-7.06-9.58-2.3-.02-4.15,1.42-6.37,1.67-.59,.07-1.23,.08-1.59-.44-.6-.87-.57-2.66-.68-3.66-.72-6.12-.56-12.34,.5-18.4,.41-2.36-3.2-3.37-3.62-1h0Z"/><path class="f" d="M149.21,94.09c-1.08,.41-1.82,1.36-1.93,2.52s.57,2.23,1.54,2.73c.3,.16,.68,.08,.86-.22,.16-.28,.08-.7-.22-.86-.09-.05-.17-.1-.26-.15-.09-.06,0,.01-.04-.03-.04-.03-.08-.07-.11-.1-.03-.03-.06-.06-.08-.09,0,0-.1-.12-.07-.08,.04,.05-.05-.07-.06-.08-.03-.04-.05-.08-.08-.13s-.05-.09-.07-.13c-.02-.03-.04-.08-.01-.02-.04-.09-.07-.19-.09-.29-.01-.05-.02-.1-.03-.15-.01-.07,0,.07,0-.04,0-.1-.01-.2,0-.3,0-.04,0-.08,.01-.12-.02,.12,0-.01,.01-.04,.02-.1,.05-.19,.08-.28,.03-.1-.06,.12,.02-.04,.02-.04,.04-.09,.07-.13,.04-.08,.09-.15,.14-.23,.1-.15-.04,.04,.03-.04,.03-.04,.06-.07,.1-.11,.07-.07,.14-.14,.22-.2-.05,.04-.02,.01,.02,0,.04-.03,.08-.05,.12-.08s.09-.05,.13-.07c.11-.06-.06,.02,.07-.03,.32-.12,.53-.42,.44-.77-.08-.3-.45-.56-.77-.44h0Z"/><path class="e" d="M123.4,112.28c-1.3-1.49-3.16-3.8-1.6-5.77,1.36-1.71,4.01-2.17,6.06-2.01,.59,.05,.76-.69,.44-1.07-.73-.86-1.47-1.72-2.19-2.59s-1.33-1.81-1-3.03c.58-2.13,2.94-2.75,4.88-2.29,.78,.19,1.12-1.02,.33-1.21-2.45-.59-5.28,.2-6.27,2.73-1.16,2.97,1.63,5.23,3.36,7.27l.44-1.07c-2.55-.2-5.86,.56-7.32,2.88-1.58,2.51,.34,5.16,1.97,7.03,.53,.61,1.41-.28,.88-.88h0Z"/><path class="e" d="M123.47,111.71c-1.1-1.13-2.03-3.02-.83-4.43,.58-.68,1.5-.66,2.32-.75,1.13-.13,2.24-.34,3.34-.67,.75-.23,1.18-1.13,.75-1.84-1.02-1.64-2.99-2.73-3-4.86,0-.75,.23-1.63,1.02-1.87,1.01-.31,2.01-.13,2.99-.65,1.43-.74,.17-2.9-1.26-2.16-.5,.26-1.12,.2-1.67,.27-.65,.08-1.25,.24-1.8,.61-1.08,.73-1.62,2-1.75,3.27s.2,2.63,.88,3.71,1.76,1.85,2.43,2.93l.75-1.84c-1.45,.44-2.87,.5-4.34,.78-1.3,.24-2.4,1-3.05,2.16-1.37,2.44-.36,5.22,1.47,7.09,1.12,1.16,2.89-.61,1.77-1.77h0Z"/><path class="e" d="M150.38,93.55c-.83-.16-1.7-.02-2.39,.49s-1.21,1.2-1.35,2.04c-.29,1.79,.85,3.43,2.54,3.99,.62,.21,1.39-.24,1.54-.87,.16-.69-.21-1.32-.87-1.54-.06-.02-.11-.04-.17-.06l.3,.13c-.15-.06-.29-.13-.42-.22-.1-.07-.17-.18,.06,.05-.06-.06-.12-.1-.18-.16s-.11-.12-.16-.17c-.14-.16,.17,.25,.05,.06-.09-.13-.17-.27-.23-.41l.13,.3c-.08-.18-.13-.37-.16-.56l.04,.33c-.02-.18-.02-.35,0-.53l-.04,.33c.02-.15,.06-.3,.12-.44l-.13,.3c.05-.11,.1-.22,.17-.33,.15-.23-.19,.21-.04,.05,.04-.04,.08-.09,.12-.13s.08-.08,.13-.12c.16-.15-.25,.16-.07,.06,.11-.07,.22-.14,.35-.19l-.3,.13c.14-.06,.28-.1,.43-.12l-.33,.04c.15-.02,.3-.02,.45,0l-.33-.04s.08,.01,.11,.02c.33,.07,.66,.05,.96-.13,.26-.15,.51-.45,.57-.75,.14-.62-.19-1.4-.87-1.54h0Z"/><path class="e" d="M147.97,106.51c-1.89,.05-3.54,1.5-3.79,3.37s1.01,3.71,2.81,4.22c.63,.18,1.39-.22,1.54-.87s-.2-1.34-.87-1.54c-.05-.01-.15-.07-.21-.07,.18,.08,.22,.1,.13,.06-.03-.01-.06-.03-.1-.05-.12-.06-.24-.18-.36-.23l.14,.11s-.07-.06-.11-.09c-.04-.04-.09-.08-.13-.13-.04-.04-.18-.24-.07-.06s0,0-.03-.05c-.08-.12-.15-.25-.21-.37-.11-.23,.09,.28,.02,.03-.02-.07-.04-.14-.06-.21-.02-.06-.01-.16-.05-.21,.04,.06,.03,.31,.01,.08,0-.07,0-.14,0-.21,0-.05,.04-.31,0-.08s0,0,.01-.05c.02-.07,.03-.14,.06-.21,.03-.11,.14-.25-.02,.03,.04-.06,.06-.13,.1-.19s.07-.12,.11-.18l.04-.06c.08-.11,.06-.08-.07,.08,.09-.05,.19-.21,.27-.29,.04-.04,.11-.07,.14-.12-.16,.12-.19,.14-.08,.07l.06-.04c.12-.08,.25-.14,.38-.21-.29,.16-.13,.06-.03,.02,.07-.02,.14-.04,.21-.06,.05-.01,.27-.04,.04-.02-.24,.03,.07,0,.12,0,.65-.02,1.28-.56,1.25-1.25s-.55-1.27-1.25-1.25h0Z"/><path class="e" d="M144.49,124.87c-.23-.15,.14,.13,.03,.02-.1-.1,.12,.23,.03,.04-.02-.04-.15-.21-.04-.06s0-.01-.01-.08-.03-.13-.04-.2c-.03-.15,.01,.27,.01,.04,0-.14,0-.29,0-.43s.02-.29,.03-.43c.01-.12,0-.37,.05-.47l-.02,.14s.01-.1,.02-.15c.01-.08,.03-.16,.04-.24,.03-.16,.06-.32,.11-.48,.02-.06,.04-.12,.06-.19,.01-.05,.03-.09,.05-.14,.03-.09,.02-.06-.04,.08,0-.11,.17-.33,.23-.42,.1-.16-.02-.02-.02,.02,0-.03,.17-.19,.2-.21,.02-.02,.12-.13,.14-.12-.12,.09-.14,.11-.07,.05,.03-.02,.05-.04,.08-.05,.13-.09,.27-.16,.41-.23s.13-.1,0-.01c.05-.04,.16-.06,.23-.09,.32-.12,.65-.21,.97-.3,.63-.18,1.08-.89,.87-1.54s-.86-1.06-1.54-.87c-.82,.23-1.68,.49-2.37,.99-.84,.61-1.38,1.45-1.64,2.45-.2,.78-.32,1.65-.3,2.46,.02,1.04,.38,1.98,1.27,2.57,.55,.36,1.41,.13,1.71-.45,.33-.63,.14-1.33-.45-1.71h0Z"/><path class="e" d="M139.65,133.03c-.88,.48-1.59,1.39-1.78,2.38-.23,1.18,.09,2.32,.87,3.23,.2,.23,.59,.37,.88,.37s.67-.14,.88-.37c.49-.53,.46-1.24,0-1.77-.04-.04-.07-.09-.11-.13l.2,.25c-.11-.16-.21-.32-.29-.5l.13,.3c-.08-.2-.14-.4-.17-.61l.04,.33c-.03-.21-.03-.42,0-.63l-.04,.33c.03-.2,.08-.39,.16-.58l-.13,.3c.09-.2,.2-.39,.33-.56l-.2,.25c.13-.16,.27-.3,.42-.42l-.25,.2c.1-.08,.21-.15,.32-.21,.57-.31,.81-1.15,.45-1.71s-1.1-.78-1.71-.45h0Z"/><path class="e" d="M128.42,143.02c-.38,.04-.6-.18-.76-.58-.13-.31-.34-.96-.21-1.28,.18-.43,.85-.85,1.2-1.12,.52-.39,1.08-.74,1.64-1.05,.77-.42,.74-1.36,.25-1.96-.53-.66-1.66-1.4-1.76-2.31,0-.09-.01-.17,.07-.29-.04,.07-.28,.02,.08,0,.58-.05,1.12,.08,1.69-.14,.63-.25,1.07-.84,.87-1.54-.16-.6-.91-1.12-1.54-.87-.33,.13-.66,.05-1.03,.06-.44,.01-.88,.09-1.27,.3-.78,.42-1.25,1.24-1.35,2.11-.23,1.95,1.38,3.11,2.46,4.47l.25-1.96c-.88,.49-1.7,1.06-2.48,1.7-.84,.7-1.6,1.51-1.64,2.67-.06,1.93,1.21,4.56,3.49,4.32,.67-.07,1.25-.52,1.25-1.25,0-.62-.57-1.32-1.25-1.25h0Z"/><path class="e" d="M131.58,123.74s-.05-.01-.08-.02l.3,.13s-.05-.02-.07-.04l.25,.2s-.06-.05-.09-.08l.2,.25s-.06-.09-.08-.15l.13,.3c-.03-.07-.04-.14-.06-.22l.04,.33c-.02-.15,0-.29,0-.44l-.04,.33c.03-.25,.1-.49,.2-.72l-.13,.3c.1-.23,.23-.44,.38-.64l-.2,.25c.15-.18,.31-.34,.49-.49l-.25,.2c.18-.13,.37-.24,.58-.33l-.3,.13c.23-.09,.46-.16,.7-.19l-.33,.04c.26-.03,.52-.04,.78,0l-.33-.04c.11,.02,.22,.04,.33,.07,.63,.17,1.39-.21,1.54-.87s-.2-1.36-.87-1.54c-1.44-.38-3.12,.07-4.08,1.25-.46,.56-.81,1.21-.91,1.94-.06,.43-.1,.85,.03,1.27,.18,.57,.61,1.06,1.2,1.21,.32,.08,.67,.04,.96-.13,.26-.15,.51-.45,.57-.75,.15-.64-.19-1.38-.87-1.54h0Z"/><path class="e" d="M121.01,131.39c-.69-.38-1.53-1.32-1.3-2.2,.09-.36,.36-.33,.69-.43,.6-.17,1.21-.4,1.62-.91,.54-.66,.45-1.46-.25-1.96-.89-.64-2.1-1.49-2.3-2.66-.14-.82,.52-1.8,1.38-1.89,.67-.07,1.25-.52,1.25-1.25,0-.62-.57-1.32-1.25-1.25-2.12,.23-3.95,1.96-3.9,4.19s1.85,3.81,3.55,5.02l-.25-1.96c-.3,.37-1.22,.42-1.72,.72-.85,.5-1.28,1.46-1.33,2.41-.09,1.78,1.03,3.49,2.55,4.34,1.41,.79,2.67-1.37,1.26-2.16h0Z"/><path class="e" d="M105.06,99.39c-.43-.63-1.12-.92-1.87-.7-.5,.14-.89,.47-1.25,.83-.68,.68-1.23,1.46-1.56,2.37-.29,.79-.32,1.75-.01,2.55,.37,.98,1.02,1.69,2.01,2.05,.62,.22,1.4-.25,1.54-.87,.16-.71-.21-1.3-.87-1.54-.23-.08,.24,.15,.04,.01-.04-.02-.08-.05-.12-.07-.2-.11,.2,.19,.04,.03-.04-.04-.08-.08-.12-.12-.15-.15,.02,0,.04,.07-.01-.05-.07-.1-.1-.14-.03-.05-.06-.1-.08-.15-.13-.21,.09,.28,.01,.04-.04-.11-.07-.22-.1-.34-.01-.05-.05-.27-.01-.04s0,0,0-.05c0-.11,.03-.25,0-.36-.03,.2-.04,.26-.02,.16,0-.04,.01-.08,.02-.12,.01-.07,.03-.13,.05-.2s.04-.13,.06-.2l.03-.08c.04-.1,.04-.1,0,0-.04,.1-.04,.1,0,0l.04-.07c.03-.06,.06-.12,.1-.18,.08-.13,.16-.26,.25-.39,.02-.03,.17-.23,.05-.08s.05-.05,.06-.07c.18-.21,.38-.42,.58-.61,.03-.03,.06-.05,.08-.08,.07-.06,.03-.03-.12,.09,.03,0,.26-.12,.03-.04-.24,.08,.03,0,.04,0l-.21,.03c-.33,0-.59-.16-.8-.46,.37,.54,1.11,.83,1.71,.45,.53-.34,.85-1.13,.45-1.71h0Z"/><path class="e" d="M104.99,120.08c-.06-.48-.18-.88-.54-1.22-.33-.31-.73-.46-1.17-.5-.62-.07-1.26,.21-1.8,.49-.91,.48-1.69,1.25-2.22,2.13-.62,1.02-.93,2.27-.66,3.44,.3,1.29,1.4,2.21,2.71,2.3,.65,.04,1.28-.61,1.25-1.25-.03-.71-.55-1.2-1.25-1.25-.29-.02,.29,0,0,0l-.08-.03c.16,.07,.19,.08,.11,.04-.02-.02-.18-.08-.18-.11,.13,.1,.16,.12,.09,.06-.03-.03-.06-.06-.09-.09-.16-.15,.08,.15,0,.02-.04-.06-.07-.12-.11-.18-.12-.2,.04,.18,0,.02-.02-.08-.05-.16-.07-.24-.07-.29-.01,.23,0-.07,0-.08,0-.17,0-.25,0-.05,0-.1,.01-.15l-.02,.13s.05-.26,.07-.3c.03-.11,.07-.38,.15-.46-.07,.15-.08,.18-.04,.1,.02-.04,.04-.08,.06-.12,.03-.06,.07-.13,.1-.19,.07-.13,.15-.25,.23-.37,.1-.15,.08-.07-.02,0,.06-.05,.12-.14,.17-.2,.1-.11,.2-.21,.3-.31,.06-.06,.13-.12,.19-.17,.17-.15-.14,.09-.01,0s.26-.18,.4-.26c.1-.06,.32-.11,.39-.2-.06,.08-.21,.08-.01,0,.05-.02,.19-.09,.25-.07-.15,.01-.18,.02-.08,.02,.1,0,.07,0-.1-.01-.36-.08-.49-.42-.53-.75,.05,.34,.11,.63,.37,.88,.22,.22,.57,.38,.88,.37,.6-.03,1.34-.56,1.25-1.25h0Z"/><path class="e" d="M100.18,129.74c-1.95,.76-3.53,2.32-4.03,4.41-.6,2.53,.86,4.17,3.01,5.2l-.25-1.96c-1.26,1.03-2.7,1.66-3.75,2.96s-1.69,2.83-1.67,4.49c.03,3.32,2.84,5.99,6.19,5.35,1.58-.3,.91-2.71-.66-2.41-2.25,.43-3.38-2.16-2.9-4,.62-2.38,2.83-3.22,4.56-4.63,.6-.49,.43-1.64-.25-1.96-1.2-.57-2.24-1.12-1.79-2.62,.32-1.07,1.17-2,2.21-2.41,1.48-.58,.84-3-.66-2.41h0Z"/><path class="e" d="M110.71,151.04s-.09-.06-.14-.09l.25,.2c-.07-.06-.14-.12-.19-.19l.2,.25c-.07-.09-.12-.18-.17-.29l.13,.3c-.05-.12-.08-.25-.1-.38l.04,.33c-.01-.14-.01-.27,0-.41l-.04,.33c.03-.2,.09-.38,.17-.57l-.13,.3c.13-.3,.31-.57,.5-.83l-.2,.25c.2-.26,.43-.5,.7-.71l-.25,.2c.18-.14,.37-.25,.57-.34l-.3,.13c.16-.07,.33-.12,.51-.14l-.33,.04c.16-.02,.31-.02,.47,0l-.33-.04h.06c.34,.07,.65,.06,.96-.12,.26-.15,.51-.45,.57-.75,.07-.32,.06-.68-.13-.96-.17-.26-.43-.52-.75-.57-.48-.08-.89-.09-1.37,.02-.33,.08-.66,.23-.95,.41-.63,.39-1.13,.93-1.54,1.53s-.75,1.38-.71,2.13c.04,.87,.45,1.71,1.23,2.14,.57,.32,1.39,.16,1.71-.45s.16-1.37-.45-1.71h0Z"/><path class="e" d="M85.58,131.15c-.06-.1-.12-.2-.17-.3-.02-.04-.11-.24-.02-.04s0-.01-.01-.04c-.08-.22-.13-.44-.16-.67l.04,.33c-.03-.27-.03-.54,0-.82l-.04,.33c.02-.13,.05-.27,.08-.4,.02-.07,.04-.13,.06-.19,.07-.23-.13,.25-.02,.05,.06-.11,.12-.22,.19-.33,.12-.19-.19,.22-.05,.06,.05-.05,.1-.11,.15-.16,.04-.04,.09-.08,.14-.12,.1-.09-.27,.2-.06,.05,.1-.07,.2-.13,.31-.19,.05-.02,.26-.12,.04-.03s0,0,.05,0c.13-.04,.25-.07,.38-.09l-.33,.04c.2-.03,.4-.03,.6,0l-.33-.04c.12,.02,.24,.04,.35,.08,.63,.19,1.39-.22,1.54-.87s-.2-1.34-.87-1.54c-1.56-.46-3.2,.28-4.1,1.58s-.78,3.24,.06,4.57c.35,.55,1.13,.82,1.71,.45s.82-1.12,.45-1.71h0Z"/><path class="e" d="M85.1,118.15l-.05,.08,.45-.45c.18-.1,.36-.12,.54-.04,.2,.07,.22,.06,.06-.01-.16-.13,0,.02-.1-.06-.08-.07-.15-.14-.22-.22,.11,.12-.03-.04-.07-.1-.21-.34-.3-.59-.33-.96-.04-.46,0-1,.06-1.36,.04-.21,.08-.43,.14-.64,.03-.11,.06-.21,.09-.31,0,0,.14-.36,.06-.18,.09-.19,.19-.38,.32-.55-.1,.14,.06-.07,.09-.09,.07-.08,.15-.15,.23-.22-.16,.13,.14-.09,.15-.09,.09-.05,.18-.1,.27-.15,.06-.03,.26-.12,.1-.05,.1-.04,.2-.08,.29-.11,.91-.33,1.87-.57,2.66-1.14,.55-.39,.81-1.09,.45-1.71-.32-.54-1.16-.84-1.71-.45-.92,.66-2.1,.76-3.22,1.39-1.23,.69-1.96,1.91-2.26,3.26-.32,1.45-.38,3,.3,4.35,.63,1.27,2.8,2.85,3.85,1.07,.82-1.39-1.34-2.65-2.16-1.26h0Z"/><path class="e" d="M89.78,109.22c.1,.07-.1-.09-.12-.1-.08-.08-.16-.16-.24-.24-.18-.2-.16-.18-.3-.4-.25-.39-.44-.77-.57-1.16-.08-.24-.15-.48-.2-.73-.03-.13-.06-.27-.08-.41,.02,.14,0,0,0-.06-.02-.22-.03-.44-.02-.66,0-.13,.01-.26,.02-.4-.02,.17,.01-.06,.02-.12,.04-.21,.1-.42,.17-.63s-.13,.23,.05-.12c.05-.1,.1-.19,.16-.29,.17-.28,.34-.46,.56-.6,.08-.06,.17-.1,.26-.15,.19-.11-.03,0,.08-.05,.09-.04,.19-.07,.28-.09,.03,0,.34-.07,.18-.05s.15,0,.18,0,.34,.01,.18,0,.15,.03,.18,.04c.11,.03,.22,.07,.33,.12,.62,.26,1.37-.28,1.54-.87,.2-.72-.25-1.28-.87-1.54-1.14-.48-2.54-.24-3.56,.41-1.08,.68-1.83,1.79-2.11,3.04-.58,2.59,.45,5.66,2.62,7.23,.55,.4,1.39,.09,1.71-.45,.37-.63,.1-1.31-.45-1.71h0Z"/><path class="e" d="M76.4,112.57c-.18-1.29-1.63-1.96-2.79-1.74s-2.01,1.34-2.23,2.43c-.44,2.21,.89,4.62,3.01,5.38,.62,.22,1.4-.25,1.54-.87,.16-.72-.22-1.28-.87-1.54-1.61-.64-3.08,.56-4,1.75-.4,.52-.54,1.27,0,1.77,.45,.41,1.34,.55,1.77,0,.16-.21,.32-.42,.5-.62,.08-.08,.15-.17,.24-.24,.05-.05,.11-.1,.17-.15-.09,.07-.1,.08-.03,.03,.11-.06,.21-.14,.33-.19-.2,.09,.02,.01,.11-.01-.26,.08,0,0,.09,0-.16-.03-.17-.03-.02,0,.07,.02,.13,.04,.2,.07l.66-2.41c-.13-.05-.08-.05,0,0-.07-.04-.15-.08-.23-.13-.02-.01-.21-.14-.09-.05s-.05-.05-.08-.07c-.12-.11-.22-.22-.33-.34-.08-.09-.06-.09,0,0-.04-.06-.08-.12-.12-.18-.09-.14-.17-.28-.24-.43-.01-.02-.1-.23-.05-.1s-.02-.08-.03-.11c-.05-.16-.09-.31-.12-.47-.03-.14,0-.1,0,.01,0-.09-.01-.18-.01-.27,0-.07,0-.14,0-.21,0-.17-.05,.18,0,.02,.02-.07,.03-.14,.05-.21,.03-.11,.08-.21,0-.05,.06-.12,.13-.24,.21-.35-.06,.09-.09,.11,0,.02,.2-.2-.12,.04,.02-.03,.03-.01,.22-.12,.07-.05-.2,.09,.18-.1-.04,0-.17,.08,.06-.05,.11,0-.02-.02-.25-.06-.07,0-.09-.03-.16-.1-.05-.01-.08-.06-.12-.15-.04-.03-.26-.38,.06,.13-.07-.11-.08-.15,0,.05,0,.1,.09,.65,.95,1.06,1.54,.87,.71-.23,.97-.84,.87-1.54h0Z"/><path class="e" d="M72.68,117.08c-1.57,.77-2.45,2.52-2.78,4.17-.22,1.09-.21,2.18,.24,3.2,.4,.91,1.14,1.55,2.06,1.89,.61,.23,1.4-.25,1.54-.87,.16-.71-.22-1.29-.87-1.54,.1,.04,.14,.08,.02,0-.03-.02-.27-.16-.12-.06,.13,.08-.04-.04-.07-.06-.05-.05-.09-.1-.14-.14-.12-.11,.13,.22-.02-.03-.04-.06-.07-.11-.1-.17s-.06-.12-.09-.18c.05,.1,.05,.14,.01,.01-.17-.61-.13-1.11,.04-1.76,.07-.29,.17-.57,.27-.85-.04,.1-.06,.13,0,.01,.03-.06,.06-.13,.09-.19,.07-.14,.14-.27,.23-.4,.04-.06,.07-.11,.11-.17,.02-.02,.15-.2,.05-.08-.11,.13,.07-.08,.1-.11,.05-.05,.09-.1,.14-.14s.1-.09,.15-.13c.1-.09,.07-.04-.02,.01,.15-.09,.28-.18,.43-.25,.59-.29,.8-1.17,.45-1.71-.39-.6-1.08-.76-1.71-.45h0Z"/><path class="e" d="M85.1,131.5c-1.06-.17-2.05-.05-3.04,.38-.89,.38-1.64,1.05-2.17,1.86-.61,.93-.87,2.17-.56,3.25s1.11,1.93,2.18,2.28c.62,.2,1.39-.24,1.54-.87,.16-.69-.21-1.32-.87-1.54-.24-.08,.22,.13,.02,.01-.06-.04-.13-.08-.19-.11-.21-.12,.17,.18,.02,0-.02-.02-.13-.16-.16-.16,.12,.16,.13,.18,.06,.07l-.04-.06c-.04-.06-.07-.13-.11-.2-.13-.22,.07,.24,0,.02-.02-.07-.05-.14-.06-.22-.01-.05-.02-.1-.03-.15l.02,.15s0-.22,0-.27c0-.06,0-.12,.01-.18l-.02,.15c-.02-.05,.04-.2,.06-.27,.02-.09,.06-.17,.08-.26,.08-.26-.11,.18,.02-.04,.1-.17,.2-.34,.3-.5,.06-.1-.18,.22,0,0,.05-.06,.11-.12,.16-.17s.11-.11,.17-.16c.03-.03,.06-.05,.09-.08,.08-.07,.08-.07,0,0-.09,.07-.09,.07,0,0,.03-.02,.06-.04,.1-.07,.07-.04,.13-.08,.2-.12s.14-.08,.21-.11c.04-.02,.27-.17,.1-.05s.05-.01,.11-.03c.07-.03,.15-.05,.23-.07s.15-.04,.23-.06c.05,0,.33-.05,.11-.02s.06,0,.11,0c.08,0,.16,0,.24,0s.16,0,.24,0c.09,0,.4,.06,.02,0,.34,.05,.65,.06,.96-.13,.26-.15,.51-.45,.57-.75,.14-.6-.18-1.43-.87-1.54h0Z"/><path class="e" d="M80.35,89.16c-.94-.66-2.07,0-2.76,.69-.51,.52-.92,1.15-1.25,1.8-.42,.82-.77,1.74-.52,2.67s1.11,1.71,2.13,1.73c.65,.02,1.28-.59,1.25-1.25s-.55-1.23-1.25-1.25c-.21,0,.26,.06,.12,.02-.12-.04,.29,.16,.1,.04-.15-.09,.11,.07,.1,.09,0,.01-.2-.23-.03-.01,.14,.18,0,0-.01-.03-.1-.16,.06,.11,.04,.12,0,0-.04-.14-.05-.15-.04-.12,0,.33,.01,.1,0-.07,0-.13,0-.2,0-.15-.06,.24-.01,.1,.04-.12,.08-.26,.11-.38,.04-.15-.13,.28-.02,.04,.02-.05,.05-.1,.07-.15,.06-.12,.12-.23,.18-.34,.11-.2,.22-.4,.34-.59,.07-.11,.14-.21,.21-.31,.1-.14-.02,.04-.06,.07,.04-.04,.08-.1,.12-.14,.16-.18,.35-.32,.51-.5-.06,.07-.22,.15-.05,.05,.09-.05,.22-.07-.08,.02,.17-.05-.1,0-.14,0-.11,0-.21-.03-.3-.08-.11-.05-.12-.06-.04,0,.54,.37,1.41,.12,1.71-.45,.34-.64,.13-1.31-.45-1.71h0Z"/><path class="e" d="M61.32,117.25c-.69-.24-.18-1.22,.13-1.52,.81-.79,2.08-.91,3.14-1.08,.79-.12,1.15-1.22,.75-1.84-.55-.84-1.38-1.31-2-2.07s-.39-1.76-.19-2.6,.48-1.65,1.31-2.03,1.85-.34,2.75-.32c1.61,.04,1.61-2.46,0-2.5-1.31-.04-2.65,.03-3.86,.59-1.31,.61-2.1,1.82-2.5,3.18s-.6,2.87-.08,4.18c.25,.63,.66,1.16,1.16,1.61,.43,.39,.94,.73,1.26,1.21l.75-1.84c-1.93,.3-4.07,.88-5.03,2.77-.9,1.78-.17,3.98,1.76,4.64,1.52,.52,2.18-1.89,.66-2.41h0Z"/><path class="e" d="M90.3,156.92c-1.47-.08-2.88,.69-3.69,1.9s-.84,2.96-.15,4.28c.3,.58,1.16,.8,1.71,.45,.59-.38,.77-1.09,.45-1.71-.02-.04-.04-.08-.06-.12-.05-.12-.04-.08,.05,.11-.01-.06-.05-.13-.07-.19-.05-.15-.08-.3-.1-.46l.04,.33c-.03-.27-.04-.54,0-.81l-.04,.33c.02-.16,.05-.31,.1-.46,.02-.06,.04-.13,.06-.19,.05-.12,.03-.08-.05,.11,.02-.04,.04-.08,.06-.12,.06-.12,.13-.23,.21-.34,.08-.1,.05-.07-.08,.1,.03-.03,.06-.07,.08-.1,.04-.05,.09-.09,.13-.14s.1-.09,.14-.13c.17-.15-.26,.18-.02,.02,.12-.08,.24-.15,.36-.21,.04-.02,.08-.04,.12-.06-.19,.08-.24,.1-.15,.06,.07-.03,.14-.05,.21-.07,.14-.04,.29-.08,.44-.1l-.33,.04c.19-.03,.39-.03,.58-.02,.65,.04,1.28-.6,1.25-1.25-.03-.71-.55-1.21-1.25-1.25h0Z"/><path class="e" d="M81.12,165.6c-1.36,.42-2.48,1.53-2.85,2.92s.09,3.04,1.17,4.06c.48,.45,1.3,.51,1.77,0s.51-1.29,0-1.77c-.08-.08-.16-.2-.26-.27,.04,.03,.15,.22,.06,.08-.03-.05-.07-.1-.1-.15-.06-.09-.11-.19-.16-.29-.11-.23,.07,.2,.03,.06-.02-.06-.04-.12-.06-.18-.03-.11-.05-.22-.08-.32-.04-.15,.02,.3,0,.08,0-.06,0-.12-.01-.18,0-.11,0-.22,0-.33,.01-.22-.05,.23,0,.08,.01-.06,.02-.12,.04-.18,.03-.1,.06-.2,.1-.3,.04-.14-.14,.29-.03,.07,.02-.04,.04-.08,.07-.13,.05-.08,.17-.21,.19-.3,0,.04-.18,.22-.07,.09,.04-.04,.08-.09,.12-.13,.08-.09,.17-.16,.26-.24,.1-.1-.26,.18-.06,.04,.04-.03,.08-.05,.12-.08,.1-.06,.2-.12,.31-.17,.15-.08-.06,.04-.1,.04,.06-.01,.14-.05,.2-.07,.62-.19,1.09-.88,.87-1.54s-.87-1.08-1.54-.87h0Z"/><path class="e" d="M86.23,174.68c.06,0,.41,.02,.2-.03,.14,.06,.17,.07,.08,.03-.08-.05-.06-.03,.06,.06-.03-.03-.17-.23-.1-.09,.06,.07,.06,.06,0-.04l.05,.12c-.03-.14-.04-.12-.01,.05v-.1c.03-.33-.02,.28,.01-.05-.01,.13-.08,.15,0,0,.02-.04,.05-.08,.08-.12-.09,.11-.1,.13-.04,.06,.06-.05,.12-.12,.18-.17-.21,.19,.02,0,.07-.02,.21-.12-.22,.02,.08-.03,.03,0,.34-.06,.18-.04s.16,0,.19,0c.02,0,.4,.04,.15,0,.24,.04,.47,.11,.7,.18,.47,.16,1.02-.07,1.31-.45s.38-.98,.1-1.39c-.06-.08-.12-.17-.17-.26-.03-.06-.06-.12-.09-.18,.05,.13,.06,.15,.03,.06-.02-.1-.06-.19-.08-.29-.01-.05-.02-.1-.03-.15,.02,.15,.02,.17,.01,.08,0-.12,0-.24,0-.36,0-.26-.07,.2,0-.07,.03-.1,.05-.2,.08-.3,.06-.24-.11,.16,.03-.08,.05-.09,.11-.17,.16-.26-.12,.22,0,0,.06-.06,.07-.07,.15-.14,.22-.21-.21,.18,.02,0,.08-.04,.09-.05,.18-.1,.27-.14-.25,.13,.01,0,.08-.02,.04-.01,.41-.09,.23-.06s.2,0,.24,0c.65,0,1.28-.58,1.25-1.25s-.55-1.24-1.25-1.25c-1.41-.01-2.84,.77-3.51,2.04s-.62,2.89,.21,4.06l1.41-1.84c-1.57-.53-3.65-.27-4.46,1.37-.4,.81-.45,1.77,.06,2.55,.24,.36,.56,.69,.95,.89,.52,.26,1,.29,1.56,.21,.65-.09,1.06-.95,.87-1.54-.23-.71-.84-.97-1.54-.87h0Z"/><path class="e" d="M99.63,173.61c-.76-.8-1.51-1.77-1.35-2.84,.05-.32,.23-.61,.52-.75-.17,.08,.19-.05,.2-.05-.16,.03,.06,0,.13,0,.09,0,.09,0,0-.01,.06,.01,.13,.03,.19,.05,0,0,.11,.1,.05,.04,.69,.64,1.82,.37,2.09-.55,.24-.8,.07-1.57-.29-2.3-.23-.46-.73-1.07-.87-1.41-.05-.13-.07-.27-.12-.4,.07,.2-.06-.22-.02,.02-.03-.17,.11-.08-.03,0-.04,.02-.17,.06-.18,.08,.05-.06,.14,0,.2,.03,.13,.05,.09,.02,.18,.06,.29,.13,.56,.32,.81,.51,.54,.41,1.4,.09,1.71-.45,.37-.64,.09-1.3-.45-1.71-.7-.53-1.55-.96-2.45-.95-.98,0-1.9,.68-2.17,1.63-.24,.86,0,1.74,.41,2.5,.19,.36,.46,.68,.66,1.04,.09,.15,.14,.28,.21,.43,.04,.16,.05,.2,.02,.12,.03-.08,.02-.04-.03,.12l2.09-.55c-1.73-1.61-4.37-.63-5.14,1.45s.47,4.16,1.87,5.64c1.11,1.17,2.87-.6,1.77-1.77h0Z"/><path class="e" d="M105.42,177.95c-.89-1.11-2.75-.97-3.59,.11s-.48,2.93,.82,3.49l.63-2.33c-1.69-.05-3.32,1.13-3.76,2.77s.33,3.41,1.76,4.26c.56,.33,1.4,.15,1.71-.45s.15-1.35-.45-1.71c-.05-.03-.1-.06-.15-.09-.17-.1,.05,0,.04,.04,0-.02-.22-.22-.25-.25-.13-.14,.04,.01,.03,.05,0-.01-.09-.13-.1-.15-.05-.08-.1-.26-.16-.31,.05,.04,.08,.22,.03,.05-.02-.06-.04-.11-.05-.17s-.03-.11-.04-.17c-.04-.19,.03,.03,0,.07,.03-.05,0-.28,0-.35,0-.2-.03,.05-.02,.07-.02-.03,.04-.18,.05-.22,.02-.06,.04-.11,.05-.17,.04-.15-.1,.18-.02,.05,.06-.1,.12-.21,.18-.31,.08-.14-.14,.15-.03,.04,.04-.04,.08-.09,.12-.13s.09-.08,.13-.12c.11-.12-.18,.11-.04,.03,.1-.06,.2-.13,.31-.19,.03-.02,.22-.1,.06-.03s.03,0,.06-.02c.06-.02,.12-.03,.17-.05,.04,0,.23-.07,.06-.02-.16,.05,0,0,.06,0,.08,0,.15,0,.23,0,.53,.02,1.09-.4,1.21-.92s-.06-1.19-.57-1.41c-.05-.02-.12-.07-.17-.09-.12-.03,.19,.18,.05,.03,.08,.09,.12,.2,.04,.04-.06-.12,.06,.29,.03,.05-.03-.19,.01,.09,0,.11-.01,.02,.04-.33-.02-.06-.05,.26,.03-.05,.02-.05l-.07,.16c.05-.09,.05-.09-.01,0-.06,.07-.07,.09-.02,.04,.07-.07,.03-.04-.11,.08,0,0,.13-.07,.13-.07-.02,.07-.25,.09-.05,.04,.15-.04-.29,.02-.07,.02s-.22-.04-.07-.01c.21,.04-.04,.05-.05-.04,0,0,.12,.08,.13,.08-.14-.11-.18-.14-.11-.07,.03,.03,.05,.06,.07,.09,.41,.51,1.35,.46,1.77,0,.5-.54,.44-1.22,0-1.77h0Z"/><path class="l" d="M167.25,98.22c2.44,6.95,1.47,14.55-.42,21.51-1.64,6.02-4.21,11.72-7.55,16.99-6.71,10.56-16.58,19.2-28.12,24.11-3.81,1.62-7.75,2.85-10.87,5.7-2.93,2.67-4.78,6.3-7.73,8.95l3.93,.51c-.55-.81-.37-2.09,.52-2.39,1.28-.44,2.12-1.72,1.75-3.08-.34-1.24-1.79-2.19-3.08-1.75-3.86,1.32-5.92,6.21-3.51,9.73,.94,1.37,2.67,1.64,3.93,.51,2.71-2.43,4.49-5.66,7.02-8.25s5.92-3.68,9.17-5.02c6.27-2.59,12.03-6.09,17.24-10.43,10.17-8.46,17.86-19.99,21.67-32.66,2.47-8.2,3.78-17.51,.88-25.76-.45-1.27-1.71-2.12-3.08-1.75-1.24,.34-2.2,1.8-1.75,3.08h0Z"/><path class="l" d="M122.5,175.13c0-.37-.14-.12,.11-.43,.41-.52-.14,.02,.35-.43,.38-.35,.91-.54,1.49-.69,1.6-.41,3.32-.4,4.96-.43,3.66-.07,7.3,.27,10.88,1.02,1.32,.28,2.7-.39,3.08-1.75,.34-1.24-.42-2.8-1.75-3.08-4.66-.98-9.45-1.4-14.21-1.12-2.21,.13-4.53,.3-6.5,1.4s-3.36,3.19-3.41,5.5c-.07,3.22,4.93,3.22,5,0h0Z"/><path class="l" d="M140.88,168.92c-.96,.01-1.92,0-2.88-.08-.3-.03-.29-.03,.01,0-.14-.02-.29-.05-.43-.08-.21-.05-.42-.1-.63-.16-.06-.02-.72-.27-.22-.05-.21-.09-.42-.2-.62-.33-.53-.33,.21,.26-.13-.08-.12-.13-.25-.25-.38-.38-.4-.39,.24,.42-.05-.05-.11-.18-.2-.36-.31-.53-.08-.17-.05-.1,.08,.2-.04-.11-.07-.22-.1-.33l-.04-.17c-.05-.28-.05-.22,.02,.17-.03,0,0-.5,0-.5-.06,.39-.06,.44,0,.17,.09-.26,.06-.22-.07,.12,.42-.95,.48-1.91-.2-2.78-.59-.77-1.67-1.2-2.63-.9-1.19,.37-2.36,.85-3.47,1.43-1.3,.68-2.67,1.51-3.12,3s.15,3.1,1.28,4.07,2.61,1.2,4.09,1.21c1.31,0,2.56-1.15,2.5-2.5s-1.1-2.49-2.5-2.5c-.32,0-.7,.03-1.02-.04l.26,.03-.2-.05c-.34-.2,0,.05,.15,.12,.13,.12,.15,.13,.05,.03-.13-.13-.09-.08,.12,.17,.07,.13,.12,.44,.06,.12,.08,.42,.07,.86-.22,1.22-.09,.1-.47,.35-.08,.12,.57-.34,1.15-.68,1.75-.96-.01,0,.59-.27,.31-.15s.33-.13,.32-.12c.35-.13,.7-.25,1.05-.36l-2.82-3.67c-.6,1.36-.82,2.78-.36,4.23,.4,1.26,1.17,2.46,2.2,3.3,2.35,1.91,5.31,2.11,8.22,2.07,1.31-.02,2.56-1.14,2.5-2.5s-1.1-2.52-2.5-2.5h0Z"/><path class="l" d="M145.1,170.99c-1.63-.41-3.18-.97-4.67-1.76-.77-.41-1.51-.86-2.22-1.36,0,0-.74-.58-.76-.58-.14-.02-.03,.87-.21,.79,.16,.07,1.71-.95,1.93-1.07,.67-.36,1.33-.73,1.98-1.12,1.35-.8,2.67-1.65,3.96-2.56,5.15-3.62,9.78-7.94,13.8-12.79,8.13-9.8,13.94-21.29,18.08-33.29,1.87-5.43,5.37-14.4-1.08-18.22-1.7-1.01-3.67,.3-3.76,2.16l-.54,10.47c-.17,3.22,4.83,3.21,5,0l.54-10.47-3.76,2.16c.75,.45,1.03,1,1.19,2.05,.15,.97,0,2.39-.25,3.5-.65,3-1.76,5.95-2.8,8.83-2.11,5.84-4.67,11.51-7.73,16.91-6.06,10.68-14.23,20.36-24.85,26.73-1.48,.89-3.14,1.58-4.52,2.6-1.87,1.38-2.65,3.71-1.38,5.8,1.03,1.69,3.15,2.87,4.86,3.78,1.85,.99,3.83,1.75,5.86,2.26,3.12,.79,4.45-4.03,1.33-4.82h0Z"/><path class="l" d="M171.12,118.53c-2.35,10.3,.5,21.26,7.54,29.13,2.15,2.4,5.68-1.14,3.54-3.54-5.81-6.49-8.19-15.78-6.26-24.27,.71-3.13-4.1-4.47-4.82-1.33h0Z"/><path class="l" d="M160.52,139.92l5.01,7.66c.71,1.09,2.25,1.65,3.42,.9,1.09-.7,1.66-2.25,.9-3.42l-5.01-7.66c-.71-1.09-2.25-1.65-3.42-.9-1.09,.7-1.66,2.25-.9,3.42h0Z"/><path class="l" d="M140.9,161.49c-2.77,.55-3.77,3.63-3.12,6.09,.62,2.33,2.24,4.34,4.2,5.69,2.06,1.43,4.6,1.91,7.07,2.05,2.67,.15,5.36,.05,8.02,.05,2.41,0,2.42-3.75,0-3.75-2.06,0-4.13,.02-6.19,0-1.85-.01-3.75-.07-5.49-.75-1.35-.52-2.52-1.51-3.29-2.73-.44-.71-1.48-2.79-.21-3.04,.99-.2,1.56-1.38,1.31-2.31-.28-1.04-1.31-1.51-2.31-1.31h0Z"/><path class="l" d="M67,85.67c.13-.17,.27-.32,.43-.47,.05-.04,.29-.22,.08-.08s.04-.02,.1-.05c.08-.05,.16-.1,.24-.14,.11-.06,.35-.25,0-.02,.16-.1,.42-.15,.61-.19,.12-.03,.43-.14-.01-.02,.08-.02,.2-.02,.28-.02,.19-.01,.38,0,.56,0,.42,.02-.05-.01-.05,0,.02-.02,.25,.05,.29,.06,.1,.02,.19,.05,.29,.08,.07,.02,.51,.22,.12,.03,.18,.09,.36,.18,.54,.28,.09,.05,.17,.11,.26,.16,0,0,.39,.3,.18,.12-.18-.15,.06,.06,.1,.1,.08,.07,.15,.14,.22,.21s.14,.14,.21,.22c.05,.06,.1,.12,.15,.18-.11-.15-.13-.17-.05-.06,.05,.09,.12,.18,.17,.27,.03,.05,.2,.34,.09,.13-.13-.24,.06,.21,.07,.22,.05,.14-.02,.28,0-.03,0,.03,0,.28,0,.28-.04-.02,.12-.46,0-.09,0,.01-.05,.24-.08,.26,.1-.21,.11-.26,.05-.13-.03,.06-.06,.12-.1,.18-.02,.03-.14,.24-.15,.24,0,0,.3-.34,.03-.04-.13,.14-.26,.28-.41,.41-.07,.07-.15,.13-.22,.19,.3-.26,.06-.04-.03,.02-.18,.13-.36,.24-.55,.35-.41,.24-.83,.46-1.27,.66-.08,.04-.42,.19-.09,.05-.1,.04-.21,.08-.31,.12-.26,.1-.53,.19-.79,.28-.43,.14-.86,.25-1.3,.35-.22,.05-.44,.08-.66,.13,.46-.09,.02,.03,0,0-.22,0-.22,0,0,.04l-.16-.04c.41,.17,.21,.09,.11,.02,.34,.22,.19,.15,.1,.05,.3,.34,.12,.12,.04,.02-.15-.19,.09,.33,.03,.09-.02-.08-.05-.17-.07-.25s-.01-.33-.02-.08c-.01,.32,0-.18,0-.2,0-.06,.06-.48,0-.21s.02-.07,.04-.13c.04-.15,.09-.29,.13-.44,.07-.26-.14,.25,0,.02,.06-.11,.12-.23,.18-.35,.05-.09,.11-.18,.16-.27,.08-.12,.29-.36,.08-.12,.18-.2,.35-.39,.55-.58,.08-.07,.16-.14,.24-.21,.04-.04,.46-.33,.13-.11,.22-.15,.44-.31,.67-.45,.46-.29,.93-.55,1.41-.8,.7-.37,1.11-1.36,.86-2.12-.27-.84-.95-1.29-1.81-1.38-1.72-.17-3.58,.91-4.32,2.46-.83,1.72-.48,3.69,.82,5.08s3.25,1.65,4.93,.94,2.82-2.42,2.68-4.24c-.16-2.03-1.58-3.59-3.62-3.77-1.51-.14-3.12,.67-3.88,1.99-.97,1.7-.34,3.85,1.16,5.01s3.74,1.15,5.14-.3c1.75-1.8,1.18-4.8-1.15-5.78s-5.06,1.38-4.32,3.89c.28,.94,1.33,1.63,2.31,1.31s1.61-1.3,1.31-2.31c-.1-.34-.03,.17-.02,.26l-.02,.13c.05-.16,.04-.16-.02-.01l-.05,.11c.1-.17,.08-.15-.08,.07,.1-.1,.21-.15-.1,.04,.12-.07,.24-.09-.11,.02,.31-.1-.08,0-.13,0,.31-.04-.03,0-.11-.02-.24-.12-.27-.13-.09-.03l-.17-.14c.09,.02,.25,.34,.12,.1-.16-.32,.13,.25-.04-.07l-.04-.1c.05,.21,.06,.17,.01-.11,0,.3,.06-.09,.04-.1,.02,.03-.08,.24-.07,.25-.25-.48,.26-.12,.02-.09l-.07,.11,.12-.17c-.15,.14-.12,.13,.08-.03l-.11,.07c-.4,.17,.3-.05,.03,0-.08,.02-.33,.14-.07,.04,.35-.14-.14,.08-.13-.02,0,.01,.49,.05,.13,0-.31-.05,.17,0,.1,.05-.02,.01-.19-.11-.22-.12-.33-.18,.1,.06,.07,.06-.01,0-.26-.23-.27-.28,.01,.2,.18,.25,.04,.01l-.03-.06c-.07-.15-.07-.15,0,0l.05,.11c-.03-.08-.05-.16-.06-.24-.01,0,.08,.49,.03,.13-.04-.3,.11,.12-.03,.12-.04,0,.08-.2,.07-.23,.04,.08-.18,.39-.05,.16,.17-.31-.29,.26-.03,.04,.04-.03,.3-.28,.05-.06-.22,.19-.04,.03,.03,0,.25-.11,.12,.02-.11,.02,.05,0,.17-.06,.21-.07,.04-.01,.19-.03,.21-.05-.15,.13-.41,.02-.18,.02,.07,0,.15,0,.22,0,.36-.03-.4-.11-.07-.02,.08,.03,.34,.16,.08,0s-.03-.02,.02,.02c.29,.23-.06-.11-.08-.07-.01,.02,.23,.17,.17,.18-.08,.02-.19-.38-.06-.04,.14,.36,0-.08-.02-.07-.04,.02,.1,.23,.07,.27-.03-.27-.03-.3-.01-.09v.14c.03,.39,.03-.09,.03-.08,.03,.07-.07,.26-.09,.33-.05,.24,.24-.35,0-.03-.03,.04-.14,.19-.14,.21,0-.07,.28-.3,.05-.09,0,0-.16,.17-.19,.17,.04,0,.31-.19,.07-.07-.07,.05-.15,.09-.22,.13l.21-.08c-.06,0-.18,.06-.24,.08l-.12,.03c-.17,.03-.17,.04,0,.01l.12-.02c-.08,0-.17,.01-.26,.01-.32,.03,.17-.05,.12,.03,0,.01-.27-.06-.25-.06-.33-.07,.06,0,.09,.05,0-.02-.19-.11-.22-.12-.34-.16,.22,.23-.03-.02,0,0-.18-.17-.18-.18,.16,.22,.17,.24,.06,.07l-.07-.11s-.23-.4-.08-.12c.14,.25-.02-.07-.03-.14l-.03-.12c-.03-.17-.03-.17,0,0,.02,.16,.02,.16,.01,0v-.13c-.02-.4-.09,.28,0,.05,.11-.27-.04-.16-.04,.01,0-.09,.12-.21,.16-.29,.08-.11,.04-.08-.1,.11,.04-.05,.09-.1,.13-.15,.06-.06,.13-.12,.19-.18,.1-.09,.07-.06-.12,.09,.05-.04,.11-.07,.17-.11,.06-.03,.32-.17,.07-.05-.26,.12,.16-.03,.22-.05,.24-.09-.36,0-.11,0,.16,0,.31,0,.46,.01l-.95-3.49c-2.35,1.24-4.78,3-5.32,5.78-.29,1.45-.08,3.07,.98,4.18,1.23,1.28,2.92,1.09,4.49,.71,2.51-.6,5.3-1.81,6.86-3.95,.83-1.14,1.12-2.67,.63-4-.52-1.43-1.61-2.6-2.89-3.4-2.52-1.58-6.22-1.39-8.15,1.05-.61,.77-.8,1.91,0,2.65,.68,.62,2,.82,2.65,0h0Z"/><path class="l" d="M15.45,107.48c-4.7-1.31-9.75,3.66-7.76,8.37,2.72,6.47,10.46-.33,13.32-3.03,.56-.52,.76-1.62,.29-2.27-1.48-2.07-3.88-3.21-6.44-2.95-2.42,.25-5.33,1.91-5.37,4.66-.04,3.5,4.59,3.41,6.75,2.01,2.56-1.66,2.29-5.69-.88-6.38-2.52-.55-6,1.09-6.72,3.67-.92,3.29,2.23,5.58,5.19,4.27,1.36-.6,2.53-1.66,3.7-2.56s2.36-1.86,3.52-2.81c2.33-1.9,4.64-3.84,6.99-5.72,5.11-4.08,10.58-7.88,16.84-9.96l-1.44-3.43c-9.05,5.48-17.64,11.69-25.69,18.55-1.84,1.57,.82,4.21,2.65,2.65,7.81-6.66,16.15-12.65,24.94-17.97,1.76-1.07,.63-4.12-1.44-3.43-7.24,2.4-13.41,6.82-19.29,11.56-2.98,2.41-5.9,4.89-8.91,7.26-.68,.53-1.36,1.06-2.05,1.57-.38,.28-.75,.54-1.16,.78-.1,.06-.38,.12-.45,.19-.03,.03,.21,.19,.22,.19-.05,.03,.32-.52,.26-.46,.2-.21,.55-.34,.81-.45,.06-.03,1.95-.4,.94-.71-.09-.03-.73,.25-.87,.27-.18,.03-.48-.02-.65,.04h-.32l.83,.85c.2,.04-.35,.11,.02,0,.13-.04,.32-.34,.44-.43,.23-.17,.5-.28,.76-.37,1.19-.41,2.83-.1,3.59,.97l.29-2.27c-1.2,1.13-2.45,2.18-3.81,3.12-.63,.44-2.6,2.11-3.33,1.28-.62-.7-.01-1.96,.47-2.52,.7-.81,1.72-1.24,2.77-.95,2.33,.65,3.32-2.97,1-3.62h0Z"/><path class="l" d="M18.1,90.17c-2.54,.49-7.27,4.05-4.56,6.91,2.53,2.67,6.7,1.16,9.3-.46,6.01-3.77,12.27-6.49,19.3-7.69,2.06-.35,1.61-3.94-.5-3.68-5.35,.64-10.49,2.28-15.15,5-2.27,1.32-4.44,2.89-6.38,4.67-.95,.87-1.71,2.05-1.36,3.4,.29,1.11,1.66,1.68,1.36,2.9h3.62c-.46-3.09-2.56-5.86-5.4-7.16l.67,2.57c.93-1.75,2.69-2.65,4.32-3.66,1.85-1.14,3.48-2.42,4.73-4.22,2.27-3.27,2.86-7.69,6.06-10.29l-3.2-1.33c-.31,3.19-2.28,5.94-3.79,8.67-.75,1.36-1.6,2.92-.77,4.46,.71,1.32,2.35,1.87,3.77,1.56,3.35-.73,3.37-4.82,3.7-7.5,.27-2.2,1.29-6.93,4.52-6.23,2.03,.44,3.34-2.32,1.44-3.43-2.32-1.35-5.26-2.25-7.45-.19-.56,.53-.76,1.61-.29,2.27,.57,.81,1.25,1.28,2.2,1.56,.32,.09,.82,.28,1.16,.25,.06,0,.22,.05,.23,.05l-.42-.87-.2,.22c-.42,.17-.93,1.13-1.21,1.52-.33,.45-.62,.92-.89,1.41-.55,1-.98,2.02-1.12,3.15-.27,2.23,.91,4.32,3.29,4.56,1.29,.13,2.65-.08,3.94-.16l4.31-.27c2.4-.15,2.41-3.9,0-3.75s-4.79,.35-7.18,.46c-.45,.02-.71-.02-.64,.13-.11-.23,0-.6,.05-.84,.19-.88,.75-1.71,1.24-2.44,1.09-1.62,3.06-3.18,1.78-5.32-.43-.72-1.16-1.15-1.95-1.38-.33-.1-.68-.14-1.02-.22s-.62-.34-.34,.07l-.29,2.27c.68-.64,2.3,.42,2.91,.77l1.44-3.43c-2.84-.62-5.48,.73-7.15,3.03-1.81,2.48-1.94,5.61-2.31,8.54-.07,.58-.15,1.18-.35,1.73-.04,.11-.25,.48-.25,.37,.08,1.8,1.14-.57,1.28-.82,.34-.61,.69-1.21,1.03-1.82,1.5-2.65,2.76-5.32,3.06-8.38,.18-1.8-2.08-2.23-3.2-1.33-3.42,2.77-4.15,7.24-6.46,10.77s-7.17,4.27-9.23,8.15c-.44,.83-.28,2.13,.67,2.57,2.08,.95,3.35,2.66,3.68,4.92,.28,1.88,3.2,1.7,3.62,0,.24-.98,.26-1.97-.05-2.94s-1.09-1.54-1.49-2.41l.26,.95c-.14,.23-.08,.19,.18-.11,.2-.19,.41-.37,.62-.55,.31-.27,.63-.54,.95-.8,.73-.59,1.5-1.15,2.28-1.67,1.49-1,3.05-1.88,4.67-2.65,3.3-1.56,6.9-2.61,10.52-3.04l-.5-3.68c-4.63,.8-9.11,2.22-13.37,4.21-2.12,.99-4.14,2.14-6.11,3.4-.93,.59-1.86,1.26-2.91,1.61-.48,.16-2.09,.57-2.45-.05l.26,.95v-.42l-.25,.95c.53-1.25,1.47-1.92,2.79-2.17,2.37-.46,1.36-4.07-1-3.62h0Z"/><path class="l" d="M23.33,120.17c-1.82,.1-3.36,1.51-3.26,3.41,.1,1.8,1.85,2.98,3.57,2.67s2.87-2,2.26-3.71-2.65-2.46-4.28-1.62c-.6,.31-.9,.98-.93,1.62-.11,2.29,2.37,3.47,4.34,2.84,2.57-.82,2.56-3.79,2.23-5.96l-3.62,1c.68,1.67,1.73,3.01,3.37,3.83,1.03,.51,2.47,.13,2.75-1.12,.39-1.69,.41-3.29,.14-4.99l-3.43,1.44,1.78,3.07c.95,1.64,3.45,.89,3.49-.95l.11-4.9-3.49,.95,1.73,3.06c.97,1.72,3.35,.82,3.49-.95l.43-5.4-3.49,.95,1.6,2.15c.86,1.16,3.08,1.3,3.43-.45l1.21-6.18-2.31,1.31s0,.55,0,.15c.02,2.07,3.18,2.6,3.68,.5l.52-2.16c.07-.3,.54-1.45,.41-1.65,.14-.35-.14-.24-.87,.34l.31,.2c.16,.21,.52,.39,.74,.53,.47,.32,.99,.56,1.53,.76,2.33,.87,4.92,.39,7.12-.61,4.94-2.25,6.94-7.5,10.34-11.35,1.59-1.8-1.05-4.46-2.65-2.65-3.28,3.71-5.45,9.78-10.69,11.12-.96,.25-2.05,.31-3-.08-1.13-.46-1.87-1.45-3.15-1.63-3.36-.46-3.69,3.88-4.24,6.18l3.68,.5c-.02-1.82-1.08-3.13-2.74-3.77-.9-.34-2.12,.38-2.31,1.31l-1.21,6.18,3.43-.45-1.6-2.15c-1.11-1.5-3.34-.99-3.49,.95l-.43,5.4,3.49-.95-1.73-3.06c-.93-1.66-3.45-.87-3.49,.95l-.11,4.9,3.49-.95-1.78-3.07c-1.13-1.95-3.74-.55-3.43,1.44,.16,1.01,.09,2.01-.14,3l2.75-1.12c-.71-.35-1.34-.82-1.65-1.59-.91-2.25-3.98-1.4-3.62,1,.04,.27-.1,1.39,0,1.51,.12,.16,.11-.22,.29-.11,.24,.16,.53,.31,.51,.72l-.93,1.62c-.56-1.75-.59-2.09-.08-1.03,.46,.41,.42,.67-.11,.79,2.4-.13,2.42-3.88,0-3.75h0Z"/><path class="l" d="M54.65,97.91c-2.47,3.15-5.52,7.18-9.98,6.99-2.33-.1-4.52-.77-6.74,.26-2.06,.95-3.22,2.91-2.87,5.15,.16,1,1.41,1.56,2.31,1.31,1.07-.29,1.47-1.3,1.31-2.31-.03-.19,.54-.61,.78-.74,.7-.37,1.51-.31,2.28-.24,2.14,.18,4.11,.53,6.22-.11,4.05-1.23,6.82-4.46,9.34-7.67,.62-.8,.78-1.88,0-2.65-.65-.65-2.02-.8-2.65,0h0Z"/><path class="l" d="M57.15,99.11c.6-.58,1.21-1.13,1.86-1.65,.09-.08,.19-.15,.29-.23,.03-.03,.29-.22,.1-.08s.07-.05,.1-.07c.08-.06,.16-.12,.24-.17,.35-.26,.72-.51,1.08-.75,1.41-.93,2.89-1.73,4.44-2.39,.4-.17,.75-.72,.86-1.12,.12-.45,.07-1.05-.19-1.44-.61-.94-1.6-1.09-2.57-.67-3.29,1.41-6.3,3.45-8.86,5.94-.71,.68-.74,1.97,0,2.65s1.9,.73,2.65,0h0Z"/><path class="l" d="M64.45,33.51c-7.02,6.01-8.35,16.05-15.12,22.2l3.13,1.82c1.86-9.47,11.1-15.37,13.2-24.82,.37-1.67-1.86-3.38-3.13-1.82-2.99,3.67-5.22,7.78-7.22,12.05-.97,2.07-1.89,4.16-2.86,6.23-.51,1.1-1.03,2.2-1.58,3.27-.21,.41-.42,.81-.72,1.16-.14,.16-.29,.32-.47,.43-.13,.08,.5,.17-.14-.08l1.38,1.81c-.2-2.18,.93-3.98,2.07-5.74s2.36-3.54,3.52-5.32c2.36-3.63,4.5-7.39,5.93-11.49,.71-2.05-2.35-3.21-3.43-1.44-4.76,7.79-8.41,16.24-10.85,25.03l3.43-.45c-1.71-3.54,.35-7.67,2.07-10.78,1.92-3.48,3.88-6.95,4.06-11.01,.08-1.84-2.64-2.58-3.49-.95l-7.63,14.64,3.43,.45c-.76-2.48,1.1-4.91,2.26-6.95,1.47-2.58,2.68-5.28,2.02-8.3-.24-1.1-1.8-1.82-2.75-1.12-1.93,1.41-2.92,3.33-3.74,5.53-.63,1.69-1.13,3.96-2.67,5.1l2.75,1.12c-.52-1.6,.31-3.06,1.04-4.46,.88-1.67,1.82-3.37,2.08-5.27,.29-2.08-2.14-3.26-3.43-1.44-1.06,1.49-2.02,3.05-2.85,4.69s-1.69,3.3-2.07,5.03,.24,3.34,1.83,4.09c1.26,.59,2.81,.39,4.08-.06,2.92-1.04,5.93-2.53,8.2-4.66,2.58-2.42,3.52-5.63,3.64-9.09,.15-4.49,0-9.01-.02-13.51,0-2.23-2.95-2.4-3.68-.5-1.27,3.31-.96,7.14,.74,10.25,.87,1.58,2.23,2.65,3.29,4.06,1.13,1.5,.6,3.06-.29,4.55-1,1.67-2.28,3.17-3.38,4.77s-2.18,3.34-3.14,5.08-1.82,3.54-2.6,5.37c-.56,1.31-.99,3.57-2.21,4.44l2.57,.67c-1.18-1.93-1.07-4.3-1.34-6.47-.29-2.42-.94-4.78-2.92-6.36-.41-.33-1.2-.68-1.47-1.15s-.07-1.18,.02-1.67c.25-1.38,.67-2.75,1.29-4.01s1.32-2.43,2.26-3.41c.37-.38,1.82-1.67,2.42-.88s1.61,1.21,2.57,.67c.8-.46,1.28-1.76,.67-2.57-2.43-3.24-6.5-2.08-8.8,.67s-4.05,6.56-4.27,10.26c-.12,2.06,.83,3.41,2.42,4.58,1.22,.9,1.7,1.9,1.97,3.38,.55,3.02,.26,6.12,1.93,8.84,.49,.81,1.72,1.27,2.57,.67,1.65-1.17,2.36-2.76,3.08-4.59s1.6-3.77,2.56-5.59,2.02-3.61,3.16-5.32,2.53-3.36,3.66-5.14,1.88-3.65,1.66-5.69-1.36-3.4-2.66-4.78c-2.55-2.7-3.52-6.08-2.15-9.64l-3.68-.5c.01,4,.04,8,.04,12.01,0,1.79,.01,3.71-.7,5.39-.55,1.29-1.53,2.36-2.63,3.21-1.19,.92-2.57,1.62-3.93,2.24-.61,.28-1.22,.57-1.85,.79-.06,.02-1.66,.4-1.61,.27-.07-.06-.02-.03,.16,.07,.11,.31,.17,.33,.2,.06,.23-.24,.36-1.06,.49-1.38,.31-.8,.67-1.59,1.05-2.36,.85-1.71,1.84-3.33,2.94-4.88l-3.43-1.44c-.57,4.11-4.57,7.29-3.13,11.71,.34,1.04,1.72,1.88,2.75,1.12,1.93-1.42,2.92-3.34,3.74-5.54,.63-1.69,1.13-3.96,2.67-5.09l-2.75-1.12c.55,2.49-1.44,5.01-2.58,7.05-1.42,2.52-2.59,5.29-1.7,8.2,.45,1.47,2.65,1.93,3.43,.45l7.63-14.64-3.49-.95c-.19,4.23-2.98,7.68-4.72,11.36-1.86,3.91-2.86,8.25-.89,12.32,.72,1.49,3.02,1.02,3.43-.45,2.36-8.51,5.88-16.6,10.48-24.14l-3.43-1.44c-1.46,4.21-3.83,8-6.27,11.7-2.29,3.47-5.78,7.4-5.38,11.85,.08,.91,.54,1.48,1.38,1.81,2.46,.96,4.54-1.24,5.57-3.23,1.21-2.34,2.27-4.77,3.36-7.17,2.16-4.74,4.39-9.56,7.71-13.62l-3.13-1.82c-2.09,9.4-11.32,15.27-13.2,24.82-.36,1.83,1.7,3.13,3.13,1.82,6.79-6.18,8.15-16.24,15.12-22.2,1.84-1.57-.83-4.21-2.65-2.65h0Z"/><path class="i" d="M25.99,121.02c-.02-.85-.38-1.62-1.05-2.14-.61-.47-1.32-.63-2.08-.53-.45,.06-.88,.18-1.27,.44-.45,.29-.9,.7-1.14,1.19-.61,1.25-.78,2.67-.37,4.01s1.23,2.45,2.4,3.17,2.66,.86,4.02,.57c.31-.07,.59-.19,.88-.31s.57-.24,.83-.42c.71-.48,1.28-1.04,1.73-1.78,.33-.55,.42-1.31,.25-1.93-.16-.58-.61-1.21-1.15-1.49-.58-.31-1.28-.46-1.93-.25s-1.15,.58-1.49,1.15c-.06,.1-.12,.19-.19,.28l.39-.51c-.14,.18-.3,.34-.48,.48l.51-.39c-.22,.17-.45,.3-.7,.41l.6-.25c-.28,.11-.56,.19-.85,.23l.66-.09c-.27,.03-.54,.03-.81,0l.66,.09c-.22-.04-.44-.09-.65-.18l.6,.25c-.21-.09-.4-.2-.59-.34l.51,.39c-.2-.15-.37-.33-.52-.53l.39,.51c-.15-.2-.27-.41-.38-.64l.25,.6c-.12-.27-.19-.56-.24-.85l.09,.66c-.03-.27-.03-.54,0-.81l-.09,.66c.03-.22,.09-.44,.17-.65l-.25,.6c.04-.1,.08-.19,.14-.27l-.39,.51s.07-.08,.11-.11l-.51,.39c.06-.04,.12-.08,.19-.12l-.6,.25c.06-.03,.13-.05,.19-.06l-.66,.09s.09,0,.13,0l-.66-.09s.05,.01,.07,.02l-.6-.25,.03,.02-.51-.39,.03,.02-.39-.51,.02,.03-.25-.6s.02,.05,.02,.08l-.09-.66v.05c.02,.65,.27,1.3,.73,1.77,.43,.43,1.15,.76,1.77,.73s1.32-.24,1.77-.73,.75-1.1,.73-1.77h0Z"/><path class="i" d="M29.14,125.59l1.27-.08c.34,.01,.67-.06,.96-.22,.31-.1,.58-.27,.8-.52,.24-.23,.42-.49,.52-.8,.16-.3,.23-.62,.22-.96l-.09-.66c-.12-.42-.33-.79-.64-1.1l-.51-.39c-.39-.23-.81-.34-1.26-.34l-1.27,.08c-.34-.01-.67,.06-.96,.22-.31,.1-.58,.27-.8,.52-.24,.23-.42,.49-.52,.8-.16,.3-.23,.62-.22,.96l.09,.66c.12,.42,.33,.79,.64,1.1l.51,.39c.39,.23,.81,.34,1.26,.34h0Z"/><path class="i" d="M12.34,108.33c-.59-.09-1.21-.23-1.81-.25-.97-.04-1.68,.59-2.25,1.28-.73,.88-1.4,1.84-1.62,2.98-.54,2.77,1.47,4.96,4.09,5.48,4.42,.89,8.21-1.68,11.52-4.26,.45-.35,.76-1.22,.73-1.77s-.19-1.07-.54-1.51c-.79-1.02-2.09-1.21-3.23-.64-.28,.14-.56,.26-.84,.4-.33,.16,.37-.15,.03,0-.16,.06-.32,.13-.48,.19-.54,.21-1.1,.39-1.66,.55-.59,.17-1.19,.31-1.8,.42-.13,.03-.27,.05-.4,.07-.1,.02-.2,.03-.3,.05l.26-.03c-.2,.07-.51,.06-.71,.06-.1,0-.2-.02-.3-.01-.32,.03,.55,.04,.23,.02-.07-.01-.14-.03-.2-.06l.35,.14c-.29-.15,.14,.1,.2,.15,.35,.33,.45,.8,.44,1.26-.01,.41,.11-.2-.04,.14s.03-.03,.07-.09c.06-.11,.14-.28,.24-.36-.11,.08-.29,.33-.06,.1,.1-.1,.2-.21,.31-.31,.08-.08,.18-.15,.26-.23,.24-.21-.37,.23-.09,.08,.23-.12,.45-.27,.68-.39,.41-.22-.32,.09-.03,.02,.14-.04,.28-.09,.42-.13,1.26-.35,2.16-1.79,1.75-3.08s-1.73-2.13-3.08-1.75c-1.83,.52-3.36,1.63-4.47,3.16-.59,.82-.97,1.82-.91,2.84,.08,1.39,.94,2.55,2.21,3.09,1.68,.71,3.6,.3,5.32-.09s3.5-1.07,5.13-1.88l-3.03-3.93c-.5,.39,.26-.2-.03,.03-.13,.1-.26,.2-.39,.3-.27,.2-.53,.39-.8,.58-.54,.38-1.1,.74-1.68,1.07-.26,.14-.52,.28-.78,.41-.14,.07-.29,.16-.44,.2,.31-.09,.25-.1-.02,0-.29,.11-.59,.2-.9,.28-.15,.04-.3,.07-.45,.1-.47,.11,.34-.01,.03,0-.28,.01-.55,.04-.83,.03-.07,0-.58-.09-.22,0,.38,.1-.14-.03-.22-.05-.15-.03-.3-.07-.45-.12-.52-.16,.06,.05,.06,.05-.01,.02-.33-.19-.36-.2-.22-.11,.37,.39,.07,.04l.19,.26c-.1-.18-.11-.18-.02,0,.06,.17,.08,.19,.04,.06-.05-.19-.04-.11,.03,.25-.03-.38,.05,.11-.04,.17,.02-.08,.04-.16,.07-.25,.06-.17,.03-.11-.09,.19,.08-.01,.37-.6,.43-.7,.16-.25-.31,.33,.01,0,.12-.13,.24-.27,.36-.4l-2.43,.64,1.14,.16c.69,.1,1.3,.12,1.93-.25,.52-.3,1.01-.9,1.15-1.49,.27-1.18-.36-2.88-1.75-3.08h0Z"/><path class="i" d="M17.44,90.44c-3.06,.59-4.65,4.33-3.5,7.06,.7,1.67,2.17,2.51,3.81,3.11,.3,.11,.6,.22,.9,.33,.45,.16-.46-.27-.03,0,.13,.08,.27,.16,.4,.24,.39,.23-.33-.37-.02,0,.07,.09,.41,.33,.1,.09-.13-.18-.14-.18-.03,0,.09,.18,.09,.17-.01-.04-.08-.21-.1-.22-.04-.03-.08-.25-.08-.5,0-.76h4.82c-.47-1.55-1.29-2.97-2.41-4.14-.55-.56-1.19-1.07-1.85-1.49-.53-.34-1.11-.56-1.66-.84-.24-.12-.46-.3-.7-.42,.33,.27,.4,.31,.22,.15l-.08-.09c.27,.17,.34,.43,.39,.83,.02,.26,.03,.29,.03,.1,0,.27-.05,.52-.18,.75l-.23,.28c.19-.18,.12-.14-.18,.11,.26-.14,.5-.3,.77-.43,1.59-.76,3.19-1.49,4.79-2.24,1.19-.56,1.58-2.36,.9-3.42-.79-1.22-2.15-1.49-3.42-.9-1.68,.79-3.41,1.51-5.05,2.37-1.03,.53-1.94,1.41-2.26,2.56-.35,1.27,.03,2.58,.91,3.53,.53,.58,1.24,.99,1.94,1.32,.3,.14,.61,.27,.9,.43,.13,.07,.26,.15,.39,.23,.16,.1,.65,.54,.11,.05,.26,.24,.53,.46,.78,.71,.1,.11,.2,.23,.3,.34,.17,.2,.13,.15-.11-.15,.06,.08,.12,.16,.17,.25,.18,.27,.35,.55,.5,.85,.03,.07,.07,.14,.1,.2,.11,.24,.08,.18-.08-.18-.02,.13,.15,.44,.19,.57,.31,1.02,1.3,1.88,2.41,1.84,.44-.02,.87-.13,1.26-.34,.48-.25,1.07-.94,1.15-1.49,.16-1.1,.1-2.04-.45-3.03-.43-.78-1.12-1.38-1.84-1.87-.59-.4-1.28-.64-1.94-.88-.26-.09-.55-.25-.82-.3,.21,.04,.45,.21,.09,.03-.14-.07-.27-.16-.41-.23-.26-.13,.38,.37,.08,.06-.29-.29-.08-.24,.06,.13-.03-.08-.1-.17-.14-.24-.15-.23,.19,.61,.11,.23,0-.02-.09-.32-.08-.33,.04-.02,.03,.76,.06,.27,0-.09,.02-.19,.01-.29,.04,.58-.09,.51-.01,.21,.02-.09,.06-.18,.08-.28,.07-.28-.29,.56-.09,.22,.06-.1,.12-.2,.17-.3,.2-.36-.41,.41-.11,.15,.07-.06,.14-.13,.2-.19,.19-.2-.53,.32-.19,.16,.05-.03,.1-.06,.15-.08,.18-.09,.06-.04-.34,.14,.11,0,.23-.06,.34-.08,1.29-.25,2.14-1.86,1.75-3.08-.44-1.37-1.7-2.01-3.08-1.75h0Z"/><path class="i" d="M63.74,33.44c-4.23,2.15-6.92,6.36-9.19,10.37-2.52,4.44-4.54,9.19-6.04,14.07l3.08-1.75-.21-.08,1.1,.64-.14-.18,.64,1.1c-.42-1.17,.18-3.22,.57-4.46,.5-1.59,1.29-3.06,2.19-4.45,2.01-3.1,4.72-5.67,7.25-8.33,1.45-1.52,2.95-3.41,1.43-5.48s-4.09-1.42-5.7,.04c-2.59,2.36-4.8,5.3-6.65,8.26-2.12,3.38-3.75,7.08-4.9,10.89-.93,3.09,3.9,4.41,4.82,1.33,.99-3.31,2.39-6.44,4.19-9.38,.88-1.43,1.83-2.81,2.89-4.11,.56-.68,1.14-1.35,1.74-1.99,.26-.28,.52-.55,.78-.82,.18-.18,.35-.36,.53-.53,.77-.6,.19-.82-1.73-.68l-.34-1.26c0-.56,.49-.97-.18-.26-.19,.2-.38,.4-.57,.6-.43,.45-.86,.89-1.29,1.34-.86,.89-1.72,1.79-2.55,2.71-1.72,1.9-3.37,3.92-4.66,6.14-1.2,2.06-2.17,4.35-2.59,6.7-.44,2.51-.92,6.01,2.03,7.07,1.3,.47,2.7-.53,3.08-1.75,1.34-4.36,3.11-8.54,5.34-12.52,1.9-3.4,4.01-7.11,7.6-8.93,1.2-.61,1.55-2.3,.9-3.42-.72-1.22-2.21-1.51-3.42-.9h0Z"/><path class="i" d="M111.59,172.67c-.43,2.88,.56,5.34,2.91,7.07,1.62,1.19,3.7-.44,3.76-2.16-.05,1.4-1.75,1.37-.42,1.32,.46-.02,.93-.04,1.38-.16,.93-.24,1.79-.83,2.3-1.65,1.06-1.73,.41-3.98-1.51-4.72-.9-.35-1.7-.28-2.63-.13l-.27,.05c-.31,.06-.37,.07-.15,.02l.52,.18c.55,.36,.78,.78,.68,1.28,.01,.01,.06-.18,0-.11,.12-.16,.36-.39,.51-.51,.56-.45,1.2-.65,1.89-.79,1.32-.27,2.09-1.83,1.75-3.08-.38-1.4-1.74-1.99-3.08-1.75-2.45,.45-3.37,3.37-2.51,5.46,.98,2.38,3.6,2.91,5.91,2.85l-2.41-3.16c.24-.65,.65-1.01,1.21-1.07,.26-.01,.49,.09,.69,.3,.03,0,.12,.18,.08,.19-.16,.05,.37-.86,.54-1.02,1.15-1.09,2.9-1.77,4.27-2.53l10.27-5.71c2.81-1.56,.29-5.89-2.52-4.32l-7.84,4.36c-2.52,1.4-5.41,2.62-7.58,4.55s-2.94,5.2-1.14,7.54c1.91,2.49,5.77,2.01,6.85-.96,.55-1.52-.88-3.2-2.41-3.16-.33,0-1.49-.03-1.48-.04,0,.03,.22,.45,.23,.55,.04,.57-1.57,1.14-.81,1l-1.33-4.82c-2.71,.56-5.61,2.58-6,5.5-.21,1.56,.43,3.04,1.83,3.82,.66,.37,1.41,.49,2.16,.44,.31-.02,.88-.08,1.21-.18,.69-.19-.53,.44-1.05-.71l-.34-1.26c0-.09,.73-1.45,.98-1.23-.09-.08-.76,.02-.91,.03-.69,.06-1.34,.18-1.95,.52-1.18,.66-1.85,1.8-1.9,3.14l3.76-2.16c-.37-.27-.66-1.14-.62-1.42,.2-1.33-.33-2.69-1.75-3.08-1.18-.32-2.87,.4-3.08,1.75h0Z"/><path class="i" d="M122.75,174.61c2.81-1.73,6.03-1.99,9.11-.86,2.63,.96,4.52-3.41,1.93-4.57-.97-.43-2.28-.87-3.37-.73,.23-.03-.25,0-.22-.05,.22-.33,.72,1.29,.65,1.25-.05-.03,.75-.81,.84-.88,2.05-1.71,4.21-3.28,6.23-5.03,4.08-3.54,7.89-7.37,11.43-11.45,.88-1.02,1-2.53,0-3.54-.9-.9-2.65-1.03-3.54,0-4.22,4.88-8.84,9.4-13.83,13.48-2.16,1.77-5.42,3.44-6.01,6.41-.34,1.72,.51,3.41,2.04,4.24,.99,.53,2.6,.33,3.25,.62l1.93-4.57c-4.26-1.56-9.11-1.01-12.96,1.36-2.74,1.68-.23,6.01,2.52,4.32h0Z"/><path class="i" d="M173.5,96.35c-.85-.34-1.82-.3-2.7-.13s-1.75,.69-2.35,1.32-1.09,1.47-1.24,2.34c-.08,.45-.15,.91-.1,1.36,.04,.32,.06,.65,.15,.96s.24,.62,.37,.93l.39,.51,.51,.39c.49,.28,1.04,.37,1.59,.3,.94-.13,1.86-.83,2.08-1.79,.09-.39,.21-.77,.37-1.14l-.25,.6c.2-.46,.45-.89,.75-1.29l-.39,.51c.08-.1,.16-.19,.26-.28l-.51,.39c.08-.06,.15-.1,.23-.15l-.6,.25c.06-.02,.12-.04,.18-.05l-.66,.09c.1,0,.19,0,.29,0l-.66-.09c.64,.13,1.27,.45,1.88,.69l1.94,.75c.57,.22,1.42,.04,1.93-.25s1.01-.9,1.15-1.49c.15-.64,.11-1.36-.25-1.93l-.39-.51c-.31-.31-.68-.52-1.1-.64l-2.15-.83c-.97-.38-1.88-.8-2.96-.66-1.35,.18-2.26,1.16-2.92,2.29-.43,.74-.77,1.57-.96,2.41l4.57-.6-.03-.08,.25,.6c-.06-.16-.11-.33-.13-.5l.09,.66c-.03-.23-.03-.46,0-.69l-.09,.66c.03-.2,.09-.4,.16-.59l-.25,.6c.08-.19,.18-.36,.3-.53l-.39,.51c.11-.14,.23-.26,.37-.37l-.51,.39c.16-.13,.33-.23,.52-.31l-.6,.25c.22-.09,.44-.15,.67-.18l-.66,.09c.2-.02,.4-.02,.61,0l-.66-.09c.2,.03,.4,.08,.59,.16,.56,.22,1.43,.04,1.93-.25s1.01-.9,1.15-1.49c.15-.64,.11-1.36-.25-1.93l-.39-.51c-.31-.31-.68-.52-1.1-.64h0Z"/><g><path class="m" d="M77.61,43.31c-1.32,4.33-1.32,9.01,.05,13.33,.91,2.87,3.24,8.37,7.2,7.15,.93-.29,1.64-.97,2.49-1.42,1.19-.63,2.53-.56,3.78-.14,2.23,.75,3.82,2.62,5.42,4.25,2.83,2.88,6.27,4.93,10.23,5.82,4.29,.97,8.76,.57,12.79-1.2,.74-.32,.1-1.4-.63-1.08-7.07,3.1-15.61,1.42-21.07-3.99-2.48-2.46-5.15-5.68-9.04-5.37-.75,.06-1.46,.27-2.12,.62-.93,.5-1.78,1.43-2.9,1.4-2.28-.05-3.64-3.01-4.37-4.79-1.86-4.53-2.05-9.59-.63-14.27,.23-.77-.97-1.1-1.21-.33Z"/><path class="m" d="M70.22,46.4c-1.52,6.33-2.18,12.85-1.9,19.36,.19,4.24,.59,10.72,6.48,9.75,1.35-.22,2.74-.78,4.13-.51,1.3,.25,2.21,1.26,2.88,2.34,1.28,2.07,1.96,4.44,3.28,6.5,2.7,4.22,6.83,7.49,11.59,9.09,5.97,2,12.67,1.19,18.09-1.96,.7-.4,.07-1.49-.63-1.08-9.54,5.55-22,2.66-27.96-6.68-1.92-3.01-2.81-8.53-6.9-9.41-2.35-.51-5.08,1.44-7.26,.23-2.14-1.19-2.19-4.5-2.33-6.62-.47-6.94,.14-13.91,1.76-20.68,.19-.78-1.02-1.12-1.21-.33Z"/><path class="m" d="M77.41,95.65c.71,.37,1.34-.7,.63-1.08-1.04-.55-1.58-1.81-1.25-2.91,.35-1.17,1.62-1.83,2.77-1.67,.34,.04,.62-.32,.62-.62,0-.37-.29-.58-.62-.62-1.72-.23-3.48,.95-3.98,2.59-.5,1.63,.32,3.53,1.83,4.32Z"/><path class="m" d="M66.32,104.17c.78,.17,1.12-1.03,.33-1.21-2.62-.57-5.46,.83-6.46,3.36-.78,1.97-.21,4.24,1.18,5.76-1.37,.3-2.58,1.2-3.12,2.56-.77,1.95,.1,4.21,1.85,5.28,.69,.42,1.32-.66,.63-1.08-1.22-.75-1.86-2.35-1.34-3.72,.52-1.36,2.07-2.15,3.48-1.87,.66,.13,1.13-.78,.48-1.14-1.79-1.01-2.75-3.29-2.04-5.26,.71-1.97,2.99-3.12,5-2.68Z"/><path class="m" d="M89.36,100.2c-1.3,.27-2.33,1.33-2.88,2.5-1.04,2.17-.72,4.85,.69,6.77-2.43,.82-4.22,3.02-4.41,5.64-.09,1.29,.16,2.98,1.1,3.94,.73,.76,2.02,1.12,2.66,.07,.42-.69-.66-1.32-1.08-.63-.18,.3-.84-.5-.91-.62-.23-.4-.36-.9-.45-1.35-.18-.97-.08-2.01,.28-2.93,.69-1.73,2.31-2.86,4.1-3.17,.47-.08,.59-.74,.28-1.04-1.36-1.32-1.93-3.35-1.47-5.2,.21-.85,.65-1.66,1.33-2.23,.54-.45,2.12-1.07,2.43-.05,.23,.77,1.44,.44,1.21-.33-.38-1.26-1.68-1.61-2.86-1.36Z"/><path class="m" d="M73.36,111.31c.55-.31,1.42-.19,1.6,.49,.21,.78,1.42,.45,1.21-.33-.29-1.08-1.36-1.65-2.44-1.55-1.25,.12-2.09,1.17-2.48,2.28-.53,1.52-.34,3.51,.62,4.79-1.56,.62-2.76,2.19-2.94,3.96-.16,1.6,.35,3.28,1.2,4.62,.63,.99,2.13,1.91,2.98,.66,.45-.67-.63-1.29-1.08-.63-.14,.21-.85-.69-.89-.76-.27-.44-.5-.92-.66-1.42-.33-.96-.46-2.01-.19-3.01,.33-1.22,1.49-2.32,2.76-2.45,.44,.2,.94,.31,1.52,.28,.57-.03,.92-.89,.32-1.16-.48-.22-.96-.32-1.43-.35-1.12-.63-1.43-2.3-1.17-3.56,.14-.68,.44-1.49,1.08-1.85Z"/><path class="m" d="M83.57,132.7c.5,.15,1.02-.47,.71-.92-.91-1.32-1.25-3.25,.06-4.44,.55-.5,1.3-.77,2.03-.6,.81,.18,1.48,.52,2.26,.07,.7-.4,.07-1.48-.63-1.08-.44,.25-1.19-.19-1.67-.26-.42-.06-.83-.03-1.24,.07-.85,.21-1.6,.76-2.12,1.46-.95,1.26-.93,2.92-.35,4.33-1.86,0-3.69,1.16-4.31,2.98-.77,2.26,.62,4.78,2.79,5.6,.75,.28,1.08-.92,.33-1.21-1.54-.58-2.48-2.49-1.92-4.06,.57-1.6,2.47-2.43,4.05-1.94Z"/><path class="m" d="M103.58,99.78c.32-.12,.53-.42,.44-.77-.08-.3-.45-.56-.77-.44-1.76,.67-3.66,1.96-3.97,3.97-.27,1.79,.79,3.7,2.67,3.95,.34,.04,.62-.32,.62-.62,0-.37-.29-.58-.62-.62-1.11-.14-1.64-1.63-1.42-2.61,.33-1.44,1.76-2.36,3.05-2.85Z"/><path class="m" d="M99.97,120.95c.56-.54,1.25-1.07,1.98-1.35,.36-.14,.75-.24,1.14-.22,.3,.02,.5,.11,.65,.39,.38,.71,1.46,.08,1.08-.63-.51-.96-1.63-1.12-2.61-.92-1.06,.22-2.01,.88-2.81,1.57-.85,.73-1.58,1.68-1.86,2.79-.28,1.11-.03,2.23,.67,3.13,.74,.94,1.97,1.52,3.15,1.1,.32-.11,.53-.43,.44-.77-.08-.31-.45-.55-.77-.44-1.43,.51-2.58-1.28-2.32-2.55,.17-.83,.66-1.52,1.26-2.1Z"/><path class="m" d="M98.9,149.68c.6-.54-.29-1.42-.88-.88-1.07,.97-2.19-.84-2.6-1.63-.55-1.06-.92-2.29-.85-3.5,.11-1.83,1.48-3.71,3.37-3.8,.27,.05,.55,.08,.86,.06,.67-.03,.89-1.1,.17-1.23-.06-.01-.11-.01-.17-.02h0s-.02,0-.04,0c-.18-.03-.36-.04-.54-.04-3.51-.67-1.65-9.12,1.94-7.43,.72,.34,1.36-.74,.63-1.08-4.84-2.28-7.26,6.09-4.46,8.91-1.9,.87-3.12,3.05-3,5.27,.09,1.7,.77,3.46,1.84,4.78,.93,1.16,2.53,1.69,3.73,.6Z"/><path class="m" d="M110.65,152.92c.27-.2,.41-.54,.22-.86-.16-.27-.58-.42-.86-.22-.17,.12-.28,.12-.48,0-.22-.12-.38-.32-.48-.57-.19-.46-.13-1.05,.07-1.54,.5-1.22,1.88-1.84,3.01-2.36,.31-.14,.38-.58,.22-.86-.18-.32-.55-.36-.86-.22-1.59,.72-3.32,1.72-3.72,3.56-.18,.83-.09,1.74,.43,2.44,.53,.72,1.62,1.21,2.43,.62Z"/><path class="m" d="M126.96,104.08c.76,.29,1.06-.9,.33-1.21-2.11-.79-3.88-2.82-3.32-5.2,.57-2.41,3.14-2.84,5.25-2.79,.8,.02,.8-1.23,0-1.25-2.79-.07-5.94,.83-6.51,3.97-.35,1.92,.39,3.62,1.67,4.86-2.09,.21-4.08,1.45-5,3.39-1.34,2.84-.1,6.44,2.6,7.98,.7,.4,1.33-.68,.63-1.08-2.18-1.24-3.22-4.21-2.04-6.49,1.17-2.27,4.09-3.14,6.39-2.18Z"/><path class="m" d="M120.51,119.82c.8,.09,.79-1.16,0-1.25-1.98-.22-3.7,1.52-3.9,3.42-.17,1.66,.74,3.17,2.01,4.18-1.24,.63-2.14,1.86-2.17,3.32-.03,1.99,1.61,3.6,3.52,3.84,.8,.1,.79-1.15,0-1.25-1.24-.15-2.29-1.33-2.27-2.59,.03-1.26,1.13-2.38,2.37-2.49,.56-.05,.92-.86,.32-1.16-1.32-.66-2.54-1.91-2.55-3.47,0-1.42,1.23-2.71,2.67-2.54Z"/><path class="m" d="M134.34,121.26c.31,.14,.67,.09,.86-.22,.16-.27,.08-.71-.22-.86-1.56-.73-3.46-.5-4.73,.69-.6,.56-1.04,1.33-1.23,2.13-.19,.8-.2,1.76,.24,2.48,.56,.92,1.84,1.12,2.51,.22,.2-.27,.04-.7-.22-.86-.32-.19-.65-.05-.86,.22,.01-.02,.02-.03,.02-.03h-.04s-.08,.01-.11,0c.1,0-.09-.04,0,0-.09-.04-.1-.05-.15-.11-.17-.19-.23-.51-.24-.77-.04-.7,.16-1.37,.57-1.95,.79-1.13,2.39-1.53,3.63-.95Z"/><polygon class="m" points="130.69 125.04 130.69 125.04 130.69 125.04 130.69 125.04"/><path class="m" d="M130.69,125.04s-.03,0,0,0h0Z"/><path class="m" d="M130.49,133.05c.52,.62,1.4-.27,.88-.88-1.29-1.54-3.92-1.24-5.05,.34-1.07,1.49-.57,3.53,.68,4.74-1.93,1.31-3.43,3.45-2.75,5.88,.64,2.3,3.67,3.55,5.48,1.69,.56-.58-.32-1.46-.88-.88-.56,.58-1.43,.66-2.15,.35-.8-.34-1.25-1.15-1.33-1.99-.21-2.04,1.4-3.56,3.05-4.45,.41-.22,.4-.85,0-1.08-1.15-.65-1.92-2.33-1.09-3.52,.71-1.02,2.36-1.15,3.16-.2Z"/><path class="m" d="M140.64,133.66c.77-.22,.44-1.43-.33-1.21-1.85,.53-3.19,2.36-2.98,4.29,.1,.97,.51,1.9,1.22,2.59,.26,.26,.51,.43,.89,.32,.24-.07,.45-.2,.65-.36,.39-.31,.67-.76,.75-1.26,.05-.33-.08-.67-.44-.77-.3-.08-.72,.1-.77,.44-.04,.24-.14,.46-.32,.6-.61-.69-.9-1.64-.68-2.55,.24-1,1.03-1.81,2.02-2.1Z"/><path class="m" d="M141.8,121.78c-.25,1.27-.04,2.57,.3,3.8,.15,.54,.43,1.03,.93,1.32,.48,.27,1.14,.2,1.38-.35,.13-.31,.09-.67-.22-.86-.18-.11-.46-.1-.66,.02-.06-.07-.12-.12-.16-.22-.16-.38-.23-.84-.3-1.25-.16-.85-.2-1.75,.05-2.58,.34-1.09,1.67-2.3,2.89-1.75,.31,.14,.67,.09,.86-.22,.16-.27,.08-.71-.22-.86-2.17-.99-4.42,.82-4.84,2.96Zm1.84,4.03h-.02s.02-.01,.02,0Z"/><path class="m" d="M143.77,108.54c-.72,1.59-.24,3.44,1.1,4.55,.75,.63,1.69,1.01,2.68,.98,.8-.03,.81-1.28,0-1.25-1.53,.05-2.94-1.31-2.88-2.86,.07-1.56,1.68-2.72,3.17-2.54,.34,.04,.62-.32,.62-.62,0-.37-.29-.58-.62-.62-1.66-.2-3.38,.86-4.06,2.37Z"/><path class="m" d="M148.35,94.58c.15-.09,.19-.1,.36-.15,.19-.05,.23-.06,.36-.06,.3,0,.46,.04,.74,.24,.28,.2,.7,.05,.86-.22,.18-.31,.05-.66-.22-.86-1.38-.98-3.34-.07-4.05,1.31-.92,1.81,.11,3.95,1.45,5.24,.32,.31,.76,.5,1.21,.47,.58-.04,1.02-.51,.85-1.1-.16-.56-.83-.54-1.11-.19h-.02s-.02-.03-.06-.06c-.28-.31-.56-.6-.79-.95-.43-.66-.75-1.47-.62-2.27,.1-.62,.49-1.1,1.03-1.39Z"/><path class="m" d="M91.07,157.19c-1.49-.84-3.4-.59-4.76,.41-1.46,1.08-2.26,2.92-1.52,4.67,.42,.98,1.27,1.75,2.38,1.78,.8,.02,.8-1.23,0-1.25-.23,0-.49-.1-.68-.24-.25-.21-.41-.43-.55-.74-.25-.56-.25-1.16-.05-1.74,.08-.22,.24-.53,.43-.78,.03-.04,.17-.2,.26-.29,.12-.12,.25-.24,.38-.34,.45-.34,1.01-.58,1.62-.7,.6-.12,1.3-.01,1.86,.3,.7,.4,1.33-.68,.63-1.08Z"/><path class="m" d="M80.91,165.66c-1.79,.07-3.45,1.32-3.92,3.06-.47,1.72,.29,3.59,1.75,4.58,.67,.45,1.29-.63,.63-1.08-.99-.67-1.49-2.01-1.18-3.17,.32-1.2,1.48-2.1,2.72-2.15,.8-.03,.81-1.28,0-1.25Z"/><path class="m" d="M90.27,167.53c-1.4-.22-2.86,.37-3.59,1.62-.46,.79-.54,1.71-.32,2.56-1.14-.04-2.31,.53-2.82,1.57-.8,1.62,.19,3.69,1.9,4.18,.77,.22,1.11-.98,.33-1.21-.97-.28-1.59-1.51-1.11-2.44,.48-.92,1.78-1.12,2.59-.55,.61,.43,1.2-.48,.76-.98-.59-.67-.71-1.72-.26-2.5,.43-.73,1.34-1.18,2.18-1.04,.34,.05,.67-.09,.77-.44,.08-.3-.1-.72-.44-.77Z"/><path class="m" d="M98.7,174.71c-1.31-.8-2.55-2.39-2.13-4.02,.31-1.2,1.8-2.29,3.02-1.68,.72,.36,1.35-.7,.63-1.08-1.04-.55-2.24-2.16-1.31-3.31,.58-.72,1.96-.83,2.38,.09,.33,.73,1.41,.1,1.08-.63-.76-1.68-3.25-1.57-4.35-.32-1.04,1.18-.74,2.76,.11,3.95-1.19,.28-2.23,1.2-2.67,2.39-.82,2.23,.77,4.58,2.62,5.7,.69,.42,1.32-.66,.63-1.08Z"/><path class="m" d="M105.17,177.76c-1.43-.34-3.59-.5-4.27,1.16-.21,.51-.19,1.15,0,1.69-.9,.32-1.65,1.01-1.99,1.95-.52,1.45,.24,3.21,1.6,3.89,.72,.36,1.35-.72,.63-1.08-.86-.43-1.35-1.44-1.06-2.38,.24-.77,1.05-1.32,1.85-1.34,.16,.04,.32,.06,.51,.05,.31-.02,.58-.22,.61-.54,.03-.28-.14-.63-.45-.69-.06-.01-.11,0-.17-.02h-.05s-.09-.01-.14-.02c.02,0-.03-.02-.06-.04-.07-.06-.13-.17-.16-.27-.09-.27-.08-.58,.06-.82,.48-.84,1.98-.52,2.74-.34,.78,.19,1.12-1.02,.33-1.21Z"/><path class="m" d="M114.53,40.14c-1.09,.27-2.09,1.07-2.55,2.1-1.2,2.68,1.59,4.65,3.63,5.73,2.28,1.21,4.84,1.88,7.42,1.91,1.12,.01,2.42-.04,3.28-.86,.75-.7,.82-1.62,.54-2.47-.17-1.2-1.09-2.05-2.12-2.67-1.24-1.03-2.72-1.8-4.26-2.24-.13-.04-.26-.06-.39-.09-.22-.1-.44-.19-.66-.27-.3-.18-.61-.35-.93-.5-1.23-.6-2.61-.97-3.98-.64Zm9.52,6.54c.11,.11,.21,.23,.29,.36-.12,.04-.28,.02-.38,.02-.04,0-.09,0-.13-.01,.09-.11,.16-.23,.22-.37Z"/><path class="m" d="M202.71,136.26c-1.48-4.38-6.28-6.4-9.26-9.59-6.51-6.96-7.55-17.23-13.3-24.72-2.98-3.88-6.9-6.83-11.84-7.45-.12-.01-.22-.01-.32,0-.03-.21-.06-.43-.09-.64-1.1-7.01-3.33-13.74-6.36-20.14-3.23-6.81-6.93-13.47-10.76-19.95-7.05-11.93-16.54-23.7-29.91-28.41,1.93-.82,3.77-1.82,5.34-3.28,2.42-2.27,3.8-5.56,3-8.86-2.05-8.44-12.82-4.85-18.02-2.08-2.05,1.09-3.78,2.59-5.07,4.42-2.87-4.49-7.17-8.36-12.18-9.96-3.09-.99-6.54-.75-9.18,1.24-2.48,1.86-3.67,4.85-2.88,7.89,.7,2.71,2.65,4.81,4.03,7.19-17.32,6.25-28.17,22.16-35.37,38.33-1.84-1.18-3.09-3.08-3.46-5.25-.2-1.16-.08-2.27,.23-3.4,.28-1.01,.57-2.17-.09-3.1-.82-1.18-2.18-.54-3.13-1.3-1.2-.96-.8-2.78-.42-4.03,.91-2.94,2.3-5.83,3.9-8.46,.61-1.01,1.61-2.53,3-2.34,1.1,.15,1.68,1.6,2.83,1.92,1.08,.3,2.19-.22,2.88-1.03,.89-1.05,.95-2.39,.72-3.69-.53-3.05-1.19-6.08-.55-9.19,.15-.71,.53-2.21,1.53-1.95,.96,.25,1.24,1.83,1.22,2.64-.05,1.63-.62,3.2-.44,4.84,.14,1.24,.66,2.3,1.45,3.24,1.38,1.64,3.97,2.75,4.38,5.02,.29,1.58,2.7,.91,2.41-.66-.44-2.41-2.52-3.7-4.18-5.26-.98-.91-1.6-1.82-1.6-3.2,0-1.65,.64-3.25,.43-4.91-.29-2.22-2.05-4.79-4.61-4.17-2.84,.69-3.21,4.2-3.31,6.6-.08,1.69,.05,3.38,.32,5.05,.14,.87,.44,1.74,.54,2.61,.04,.38,.1,.8-.07,1.15-.33,.68-.57,.43-1,.03-1-.92-1.87-1.59-3.3-1.53-1.48,.06-2.78,.91-3.71,2.01-2.11,2.49-3.46,5.86-4.62,8.88-1.05,2.72-1.97,6.28,.7,8.41,.57,.46,1.22,.73,1.95,.81,.09,.01,.56,.11,.6,.03,.06,.25-.29,1.06-.34,1.25-.38,1.44-.4,2.93-.13,4.4,.54,2.88,2.35,5.44,4.87,6.91-1.82,4.25-3.5,8.55-5.16,12.86-4.67-3.3-10.46-6.31-14.66-1.5-1.94,2.22-2.7,5.12-3.95,7.73-1.53,3.18-3.97,4.88-7.11,6.34-2.8,1.3-6.81,2.54-8.18,5.59-.66,1.47-.34,3.12,.86,4.21,1.2,1.09,2.85,1.38,4.33,1.9,1.6,.57,3.53,1.7,3.48,3.65-.05,1.91-2.28,2-3.71,2.06-3.53,.15-6.79,1.06-9.13,3.9-1.85,2.24-2.78,5.55-1.34,8.26,1.86,3.49,6.06,2.35,9.1,1.43,1.38-.42,2.71-.94,4.04-1.48,.26,.13,.58,.1,.74-.25,0-.02,.02-.04,.03-.06,.3-.12,.59-.24,.89-.36,.91-.37,3.95-.93,2.17,.89-1.12,1.15-2.79,1.53-3.8,2.84-.99,1.28-.99,2.92-.02,4.21,2.12,2.83,6.52,3.25,9.66,2.26,3.38-1.07,6.02-3.72,7.71-6.77,1.48-2.68,2.35-6.94,5.97-7.37,1.9-.22,3.8,.29,5.71,.11h.01c2.61,6.89,5.52,13.77,10.3,19.46,2.77,3.3,6.22,5.69,9.73,8.14,3.3,2.3,6.45,4.94,8.02,8.76,1.72,4.18,1.13,9.12-2.26,12.28-1.11,1.04-.47,2.47,.59,2.98-2.14,2.98-4.85,5.64-7.51,7.91-2.24,1.91-4.77,3.45-7.62,4.25-3.03,.85-6.2,1.03-9.31,1.45-5.17,.7-10.25,2.24-14.82,4.77-5.1,2.82-9.51,6.99-11.98,12.33-1.01,2.18,2.23,4.08,3.24,1.89,4.79-10.36,16.15-14.41,26.74-15.63,3.27-.38,6.54-.78,9.6-2.07,2.9-1.22,5.44-3.08,7.75-5.18,4.5-4.09,8.78-9.03,10.8-14.85,2.02-5.82,1.19-12.95-3.48-17.29-.72-.66-1.58-.62-2.23-.23-.28-.3-.56-.59-.86-.87-3.24-3.03-7.25-5.07-10.56-8.01-3.18-2.82-5.63-6.29-7.65-10.02-1.97-3.64-3.51-7.47-4.97-11.33,.29-.2,.58-.42,.85-.66,2.41-2.24,3.23-5.63,4.85-8.38,1.8-3.04,4.41-5.57,7.46-7.33,1.54-.89,3.16-1.54,4.87-2.01,1.55-.42,.89-2.84-.66-2.41-6.49,1.77-11.96,6.35-14.84,12.42-.91,1.91-1.78,4.48-3.47,5.96-1-1.91-4.31-.94-3.5,1.23-1.4,.02-2.82-.25-4.2-.21-1.66,.05-3.23,.51-4.52,1.59-2.45,2.07-3.13,5.45-4.81,8.05-1.95,3.01-5.21,5.37-8.95,4.98-1.06-.11-4.46-1.04-3.81-2.67,.35-.89,1.56-1.43,2.56-1.99,.18,.22,.47,.35,.79,.21,7.11-3.14,9.6-11.47,15.97-15.54,.68-.43,.05-1.51-.63-1.08-5.79,3.69-8.44,10.93-14.17,14.56,.51-.87,.7-1.89,.25-2.88-.59-1.29-1.93-1.81-3.29-1.73-.14,0-.28,.03-.41,.05,1.93-2.24,4.42-4.03,6.73-5.84,3.95-3.1,7.91-6.19,11.86-9.29,.63-.5-.26-1.37-.88-.88-4.06,3.18-8.12,6.36-12.18,9.55-2.68,2.1-5.57,4.21-7.53,7.02-.75,.29-1.48,.64-2.22,.93-1.88,.75-3.82,1.37-5.79,1.83-1.51,.35-3.31,.55-3.99-1.17-.48-1.23-.25-2.75,.34-3.9,.78-1.52,2.18-2.72,3.71-3.44,1.57-.74,3.2-.73,4.89-.84,.86-.05,1.74-.15,2.56-.42,.22,.2,.56,.26,.83-.02,6.88-7.08,15.53-12.24,25.02-14.95,.77-.22,.44-1.43-.33-1.21-8.3,2.37-15.97,6.58-22.42,12.27,.02-.35,0-.71-.05-1.07-.57-3.55-3.98-4.76-6.96-5.75-.59-.2-1.47-.47-1.83-1.04-.5-.81,.26-1.68,.84-2.21,1.24-1.11,2.92-1.8,4.42-2.49,2.96-1.36,6.09-2.66,8.16-5.28,1.79-2.27,2.58-5.07,3.82-7.64,1.42-2.93,3.58-4.82,7.02-3.83,3.64,1.05,6.75,3.85,9.73,6.07,5.22,3.88,11.95,7.69,18.61,5.05,1.43-.57,2.67-1.4,3.73-2.52,1.1-1.17-.66-2.94-1.77-1.77-2.3,2.45-5.77,2.98-8.98,2.4-3.7-.67-6.84-2.74-9.82-4.94-.37-.27-.77-.57-1.18-.89,.16-.17,.29-.38,.39-.63,6.31-16.41,13.18-33.87,27.51-45.01,3.61-2.81,7.65-5.09,11.97-6.61,.6-.21,.97-.63,1.15-1.11,.3-.02,.6-.09,.84-.23,.97-.56,1.07-1.63,.67-2.57-1.15-2.72-3.7-4.89-4.42-7.77-.66-2.64,1.7-4.69,4.17-4.94,3.33-.34,6.63,1.79,9.03,3.89,2.29,1.99,4.09,4.39,5.46,7.07-.01,.05-.03,.1-.05,.16-.59,2.34,3.03,3.34,3.62,1,0-.02,.01-.04,.02-.06,.24-.32,.34-.7,.35-1.09,1.01-2.63,3.03-4.41,5.63-5.69,1.69-.84,3.46-1.53,5.3-1.98,1.49-.37,3.31-.74,4.78-.14,2.65,1.08,2.11,4.63,.72,6.46-2.13,2.8-5.81,3.84-8.96,5.01-.95,.35-1.59,1.27-1.31,2.31,.07,.24,.2,.47,.36,.67,.08,.64,.49,1.22,1.32,1.42,13.59,3.16,23.2,14.16,30.23,25.56,3.84,6.24,7.35,12.73,10.67,19.26,3.26,6.41,5.77,13.09,7.1,20.17,2.49,13.19,.93,27.33-5.6,39.17-6.17,11.18-16.11,19.74-27.01,26.13-3.05,1.79-6.2,3.43-9.41,4.92-3.4,1.59-7.12,2.93-9.78,5.7-2.49,2.58-3.96,6.38-2.68,9.89,1.23,3.38,4.35,5.48,7.3,7.25,.33,.2,.65,.27,.96,.27,4.87,4.04,10.62,6.94,16.28,9.75,7.2,3.57,14.9,7.37,19.77,14.02,2.55,3.48,4.25,7.53,4.26,11.89,0,2.41,3.75,2.42,3.75,0-.02-8.28-5.01-15.57-11.33-20.54-6.9-5.43-15.15-8.54-22.74-12.83-3.2-1.81-6.24-3.84-8.93-6.31,.35-.44,.42-1.07-.13-1.56-1.46-1.31,2.18-3.04,3-3.46,1.34-.7,2.68-1.64,3.19-3.07,6.03-1.16,12.12,.33,18.06,1.39,6.17,1.11,12.28,1.51,18.41-.05,1.46-.37,2.9-.83,4.3-1.39,1.43-.57,2.66-1.19,4.23-1.23,2.59-.05,4.95-.58,7.22-1.86,4.58-2.59,7.84-7.06,10.99-11.15,2-2.61,3.94-5.31,5.37-8.28,.72-1.5,1.27-3.05,1.75-4.64,.23-.75,.45-1.72,1.07-2.26,.31-.27,1.14-.69,1.47-.24,.34,.46,.83,.72,1.41,.57,3.68-.96,4.72-5.36,3.62-8.61Zm-3.7,5.97c-1.58-1.09-3.82-.55-5.03,1.08-.79,1.06-1.1,2.34-1.48,3.58-.49,1.61-1.15,3.13-1.95,4.61-1.49,2.75-3.36,5.26-5.28,7.72-1.76,2.25-3.53,4.51-5.6,6.5-1.88,1.8-4.05,3.42-6.59,4.13-1.45,.4-2.84,.28-4.32,.43-1.52,.17-2.85,.89-4.26,1.43-6.28,2.4-12.8,2.63-19.38,1.54-7.17-1.19-14.38-3.18-21.65-1.53-.38,.09-.82,.47-.87,.87-.3,2.22-3.59,2.66-5.03,4.01-.77,.73-1.4,1.73-1.62,2.76-.56-.32-1.18-.23-1.68,.09-.76-.82-1.34-1.76-1.52-2.88-.52-3.15,2.17-5.75,4.61-7.22,2.93-1.76,6.2-2.95,9.26-4.47,2.82-1.41,5.58-2.93,8.27-4.57,9.52-5.83,18.27-13.35,24.41-22.73,1.93,2.83,4.09,5.5,6.49,7.95,.56,.58,1.45-.31,.88-.88-2.47-2.52-4.69-5.28-6.65-8.22,.6-.96,1.18-1.93,1.72-2.92,1.74-3.21,3.13-6.56,4.2-10,3.3,8.59,9.09,15.96,14.8,23.12,.5,.63,1.38-.26,.88-.88-5.93-7.45-11.99-15.14-15.08-24.24,2.17-7.93,2.68-16.28,1.76-24.49,8.24,1.04,12.5,9.87,15.29,16.67,1.58,3.86,3.09,7.81,5.39,11.31,1.12,1.71,2.42,3.32,3.94,4.68,1.53,1.38,3.26,2.52,4.79,3.9,1.5,1.35,2.81,2.94,2.9,5.04,.06,1.41-.36,2.96-1.61,3.62Z"/><path class="m" d="M116.95,35.53c-.91,.27-1.84,.04-2.75-.12-.9-.16-1.79-.24-2.68,0-1.6,.43-2.89,1.66-3.43,3.22-.27,.76,.94,1.09,1.21,.33,.44-1.27,1.65-2.26,2.99-2.44,.8-.11,1.61,.1,2.39,.23,.88,.15,1.75,.24,2.62-.02,.77-.23,.44-1.44-.33-1.21Z"/><path class="m" d="M126.77,37.79c-.71-.67-1.42-1.33-2.24-1.89-1.43-.97-3.37-1.67-4.93-.56-.65,.46-.03,1.55,.63,1.08,1.31-.94,2.9-.02,4.02,.81,.7,.52,1.31,1.14,1.94,1.74,.73,.69,1.47,1.38,2.2,2.06,.59,.55,1.47-.33,.88-.88-.84-.79-1.67-1.57-2.51-2.36Z"/><path class="m" d="M131.48,50.34c-1.94,3.17-5.86,4.05-9.34,3.7-2.12-.21-4.17-.82-6.2-1.43-1.67-.5-3.55-1-4.57-2.53-.44-.67-1.53-.04-1.08,.63,1.08,1.63,2.85,2.34,4.65,2.9,2.35,.73,4.74,1.43,7.2,1.67,3.93,.39,8.25-.78,10.42-4.32,.42-.69-.66-1.32-1.08-.63Z"/><path class="m" d="M23.19,95.24c-.65,.46-.03,1.54,.63,1.08,6.04-4.23,12.97-7,20.26-8.12,.79-.12,.46-1.33-.33-1.21-7.38,1.13-14.44,3.97-20.56,8.25Z"/></g><path class="c" d="M116.89,49.7l.51,.1c.33,.1,.66,.12,1,.04,.33-.02,.64-.11,.93-.3,.29-.16,.53-.37,.7-.64,.22-.24,.37-.52,.45-.85l.09-.66c0-.45-.12-.87-.34-1.26l-.39-.51c-.31-.31-.68-.52-1.1-.64l-.51-.1c-.33-.1-.66-.12-1-.04-.33,.02-.64,.11-.93,.3-.29,.16-.53,.37-.7,.64-.22,.24-.37,.52-.45,.85l-.09,.66c0,.45,.12,.87,.34,1.26l.39,.51c.31,.31,.68,.52,1.1,.64h0Z"/><path class="c" d="M118.17,49.38c3.22,0,3.22-5,0-5s-3.22,5,0,5h0Z"/><path class="c" d="M120.28,48.88c.15-.58,.23-1.19,.29-1.79,.04-.4,.04-.8,0-1.19,.01-.34-.06-.67-.22-.96-.1-.31-.27-.58-.52-.8l-.51-.39c-.29-.18-.6-.28-.93-.3-.22-.06-.44-.06-.66,0-.33,.02-.64,.11-.93,.3-.52,.34-1.03,.86-1.15,1.49l-.53,2.74c-.1,.33-.12,.66-.04,1,.02,.33,.11,.64,.3,.93,.16,.29,.37,.53,.64,.7,.24,.22,.52,.37,.85,.45l.66,.09c.45,0,.87-.12,1.26-.34,.52-.34,1.03-.86,1.15-1.49l.53-2.74-4.91-.66c.04,.5,.03,1-.04,1.5l.09-.66c-.04,.27-.09,.55-.16,.81-.1,.33-.12,.66-.04,1,.02,.33,.11,.64,.3,.93,.16,.29,.37,.53,.64,.7,.24,.22,.52,.37,.85,.45l.66,.09c.45,0,.87-.12,1.26-.34,.54-.35,.98-.85,1.15-1.49h0Z"/></g></g></g></svg>