<?xml version="1.0" encoding="UTF-8"?><svg xmlns="http://www.w3.org/2000/svg" viewBox="0 0 352.67 161.62"><defs><style>.c{fill:#231f20;}.d{fill:#6d91c6;}.e{fill:#507aad;}</style></defs><g id="a"/><g id="b"><g><path class="d" d="M342.11,16.76c-6.35-2.87-13.18-1.83-19.27,.96-3.35,1.53-6.63,3.33-9.72,5.23-2.1,1.3-4.2,2.65-6.11,4.16-.06,.05-.11,.1-.17,.15-.06,.02-.12,.05-.17,.07-1.96,.62-3.98,1.08-6.04,1.4-2.05,.16-4.1,.16-6.15,.01-2.82-.5-5.75-1.39-8.59-1.2-1.06-5.7-3.34-11.21-6.85-16.19-2.22-3.15-7.15-5.13-11.41-3.96-.51,.14-1,.32-1.47,.51-.06-.02-.13-.04-.19-.06-5.75-1.66-12.26,.13-16.42,3.73-2.75,2.38-4.52,5.3-6.06,8.32-1.36,2.67-3.04,5.18-5.03,7.53-1.98,2.04-4.19,3.91-6.59,5.59-2.63,1.62-5.42,3.02-8.37,4.17-1.72,.57-3.48,1.05-5.26,1.44-.02,0-.03,0-.05,0l-2.33,.31c-1.95-.82-4.01-1.16-6.13-1.11-.38-.27-.78-.52-1.21-.74-.51-.27-1.02-.55-1.51-.85-1.91-1.36-3.64-2.89-5.23-4.53-2.69-3.11-4.99-6.44-7.26-9.77-2.78-4.08-5.5-8.72-9.7-11.88-3.54-2.67-7.52-4.35-12.31-4.53-4.58-.17-8.81,1.63-12.17,4.13-4.15,3.1-6.46,7.67-9.18,11.66-2.69,3.95-5.59,7.8-8.82,11.44-3.08,3.27-6.46,6.32-10.26,8.98-2.99,.27-6,.39-9.01,.35-.25,0-.5,0-.75,.02,0-.1-.01-.19-.01-.29l-12.17-5.13c-3.63-3.4-7.5-6.6-11.62-9.57-.55-.4-1.11-.74-1.71-1.03-1.38-3.17-3.53-6.11-6.19-8.63-.97-.92-2.05-1.77-3.17-2.56-.41-.69-.88-1.35-1.4-1.95-3.01-3.46-7.22-6.11-12.22-7.07-5.26-1-10.44-.28-15.23,1.75-2.69,.41-5.27,1.25-7.61,2.69-5.06,3.1-8.28,7.49-11.72,11.82-.39,.49-.79,.99-1.2,1.47-.13,.15-.25,.3-.38,.44-.04,.04-.08,.08-.13,.13-.96,.98-2.02,1.9-3.15,2.75-.21,.15-.42,.3-.63,.45-.58,.35-1.16,.69-1.76,1.01-1.13,.6-2.32,1.12-3.53,1.6-.35,.11-.7,.24-1.06,.34-.9-.85-2.17-1.41-3.64-1.37-.51,.01-1.01,0-1.51-.04-.97-.15-1.92-.36-2.84-.68,.3,.11,.6,.22,.9,.33-.43-.15-.86-.29-1.29-.4-1.05-.65-2.11-1.31-3.16-1.96-.59-.37-1.53-.56-2.41-.59-.66-.84-1.23-1.73-1.7-2.66-.46-.92-1.95-1.73-3.02-1.98-1.01-.24-2.29-.17-3.32,.2C3.28,15.46,1.41,10.48,1.39,10.48V102.43s.09,0,.13,0c31.7,0,57.39,23.89,57.39,53.37,0,1.97-.12,3.91-.34,5.82h233.83v-.06c0-29.47,25.7-53.37,57.39-53.37,.04,0,.07,0,.11,0V30.91c1.8-5.42-2.16-11.6-7.79-14.15Z"/><path class="e" d="M239.58,34.15c3.91-5.69,9.1-10.77,15.29-14.74,3.07-1.97,6.49-4.07,10.27-4.86,2.58-.54,6.48-.11,7.56,2.35,.54,1.23,2.23,2.1,3.71,1.29,3.18-1.74,2.39-5.1,.27-7.25-1.82-1.84-4.82-3.06-7.49-3.69-5.55-1.3-11.96-.42-16.59,2.54-2.67,1.71-4.59,3.96-5.98,6.53-1.48,2.74-2.43,5.67-4,8.38-2.93,5.04-8.17,8.68-14,11.14-5.32,2.24-13.16,3.76-18.08,.02-2.42-1.84-6,1.19-3.57,3.04,9.92,7.55,25.49,1.69,33.78-4.97,2.36-1.9,4.44-4.13,5.96-6.59s2.5-5.15,3.72-7.74c1.07-2.27,2.47-4.52,4.73-6.09,1.87-1.29,4.19-2.07,6.55-2.4,2.52-.35,5.27-.12,7.7,.72,1.07,.38,2.2,.91,3.08,1.58,.38,.29,.76,.66,.93,1.01,.02,.03,.36,.62,.15,.4,0,.28,0,.31-.01,.09,.06-.19,.17-.34,.33-.45l3.71,1.29c-1.21-2.75-3.89-4.68-7.23-5.41-3.79-.83-7.63,.07-11.04,1.53-6.35,2.72-12.11,6.95-16.78,11.48-2.75,2.67-5.2,5.55-7.31,8.62-1.65,2.4,2.72,4.56,4.36,2.17h0Z"/><path class="e" d="M270.98,10.99c5.46,4.4,9.1,10.08,10.56,16.36l4.62-1.66c-2.88-5.42-5.94-11.05-11.22-15.1-4.98-3.82-11.64-6.09-18.34-4.71-6.47,1.34-11.13,5.52-13.18,10.8-1.01,2.61-1.69,5.24-3.44,7.58-1.4,1.86-3.29,3.47-5.36,4.8-5.21,3.34-11.47,5.28-17.58,7.06-1.29,.38-2.14,1.48-1.76,2.65,.35,1.07,1.81,1.88,3.11,1.5,10.29-3,22.43-6.91,27.31-15.95,1.41-2.61,1.91-5.5,3.31-8.1,1.13-2.12,3.03-3.84,5.4-5,5.04-2.46,10.69-1.51,15.27,1.23,6.05,3.62,9.18,9.85,12.13,15.4,.51,.96,2.11,1.27,3.15,.88,1.2-.45,1.71-1.46,1.46-2.54-1.62-6.95-5.83-13.39-11.86-18.26-2.36-1.9-5.94,1.13-3.57,3.04h0Z"/><path class="e" d="M255.83,15.88c2.6-.04,5.18-.66,7.39-1.83,.55-.29,.99-.75,1.16-1.29s.09-1.2-.25-1.66c-.73-.96-2.25-1.41-3.46-.77-.52,.27-1.06,.51-1.62,.72l.6-.22c-.99,.36-2.03,.6-3.1,.73l.67-.08c-.46,.05-.93,.08-1.39,.09-.66,.01-1.32,.23-1.79,.63-.44,.37-.77,.99-.74,1.52,.06,1.15,1.11,2.18,2.53,2.15h0Z"/><path class="e" d="M174.3,9.29c8.11,3.98,12.44,11.41,16.76,18.16,2.39,3.74,4.8,7.56,8.05,10.83,3.59,3.61,8.4,5.79,13.96,6.06,6.21,.3,12.31-1.62,17.84-3.83,2.3-.92,1.13-4.08-1.27-4.01-6.02,.17-12.29,2.47-18.25,.86-4.78-1.29-8.49-4.7-11.21-8.15-3.32-4.21-5.67-8.91-9.02-13.11s-7.49-7.63-13.03-9.46c-5.2-1.73-11.08-1.29-15.62,1.56s-7.35,7.36-9.27,11.93c-1.96,4.66-3.35,9.42-6.54,13.62-2.67,3.51-6.3,6.53-10.69,8.44-4.64,2.02-9.87,2.38-14.81,.99-4.48-1.26-8.52-4.06-10.06-7.95-1.03-2.61-5.92-1.49-4.87,1.14,3.32,8.39,14.17,12.93,24.15,11.77,10.85-1.26,19.47-8.74,23.63-17.03,2.45-4.89,3.55-10.31,6.77-14.91,2.56-3.65,6.54-6.57,11.78-6.29,5.23,.28,9.87,3.46,12.94,6.87,3.71,4.11,6.11,8.94,9.3,13.33s7.7,8.82,13.61,10.91c3.23,1.14,6.69,1.4,10.15,1.07,3.69-.35,7.31-1.17,11.02-1.27l-1.27-4.01c-4.5,1.79-9.44,3.33-14.48,3.26-4.92-.07-8.81-2.17-11.77-5.42-5.61-6.15-8.78-13.68-14.09-20.01-3.03-3.61-6.63-6.82-11.17-9.05-2.82-1.39-5.37,2.33-2.55,3.72h0Z"/><path class="e" d="M75,9.66c8.02,3.91,13.37,10.5,18.61,16.79,5.48,6.58,11.33,13.19,19.66,17.33,4.57,2.27,9.77,3.61,15.09,3.39,1.25-.05,2.33-.78,2.48-1.87,.13-.95-.55-2.21-1.81-2.36-6.1-.72-11.75-2.7-16.67-5.85l-2.55,3.72c8.58,4.62,19.61,5.23,28.81,1.62,4.1-1.61,7.8-4.1,10.62-7.1,3.13-3.32,4.99-6.99,6.25-11.09,.59-1.91,1.2-3.73,2.45-5.4,.95-1.26,2.19-2.39,3.58-3.32,2.74-1.82,6.29-3,9.67-3.2,3.9-.23,7.41,.66,10.63,2.61,3.56,2.15,6.24,5.29,8.75,8.29,5.88,7.02,13.63,16.09,25.18,14.98,1.36-.13,2.53-.9,2.53-2.15,0-1.06-1.16-2.28-2.53-2.15-9.39,.91-15.7-6.71-20.47-12.44-5.19-6.23-11.19-12.51-20.71-13.38-8-.73-16.37,2.67-20.82,8.36-2.67,3.43-2.93,7.57-4.86,11.26-1.7,3.27-4.38,6.19-7.7,8.39-8.3,5.52-20.02,5.77-28.86,1.01-1.15-.62-2.78-.21-3.46,.77-.76,1.1-.19,2.25,.91,2.95,5.21,3.33,11.42,5.52,17.88,6.28l.67-4.23c-8.98,.37-16.55-4.4-22.36-9.78-6.21-5.75-10.73-12.66-16.7-18.59-3.37-3.34-7.24-6.35-11.74-8.54-2.83-1.38-5.37,2.34-2.55,3.72h0Z"/><path class="e" d="M149.42,22.77l-10.09,10.36c-1.75,1.8,.43,4.68,3.06,3.38l6.37-3.14-3.46-2.95c-6.74,7.95-19.84,10.89-30.37,7.1-12.94-4.65-20.24-15.93-29.21-24.46-5.13-4.88-12.1-10.37-20.47-8.71-3.16,.63-1.82,4.78,1.34,4.15s6.21,.61,8.76,2.12c2.92,1.73,5.37,4.07,7.69,6.35,4.88,4.77,9.13,9.99,14.22,14.61,4.68,4.24,10.09,7.96,16.47,10.15,5.97,2.04,12.6,2.3,18.8,.89,6.89-1.56,12.95-5.1,17.12-10.02,1.54-1.82-1.4-3.96-3.46-2.95l-6.37,3.14,3.06,3.38,10.09-10.36c.87-.89,1.03-2.17,0-3.04-.9-.76-2.7-.9-3.57,0h0Z"/><path class="e" d="M271,12.64c2.45,1.3,3.86,3.57,5.02,5.9,1.26,2.52,2.27,5.25,3.88,7.67,1.87,2.82,4.56,4.99,8.12,6.18,4.11,1.37,8.66,1.25,12.95,.71,4.51-.57,8.9-1.83,12.93-3.65s7.48-4.36,11.42-6.26c3.32-1.6,7.63-2.87,11.35-1.49,2.77,1.02,4.44,3.3,5.41,5.68,1.33,3.26,1.66,6.69,2,10.11l1.46,14.64c.11,1.06,.88,1.98,2.19,2.11,1.12,.11,2.59-.47,2.77-1.54,1.23-7.26,1.69-14.63,1.02-21.95-.29-3.17-1.01-6.33-3.31-8.91-1.94-2.17-4.57-3.65-7.55-4.61-6.07-1.95-12.87-1.27-18.82,.64-6.97,2.23-13.35,5.95-20.64,7.4-5.67,1.13-13.29,.81-16.96-3.64-.78-.95-2.21-1.39-3.46-.77-1.1,.55-1.69,1.99-.91,2.95,3.69,4.48,9.84,6.36,16.11,6.31,7.13-.06,13.51-2.65,19.79-5.25,5.91-2.44,11.97-4.89,18.69-4.42,2.56,.18,5.1,.82,7.25,2.02,2.37,1.31,3.74,3.34,4.34,5.72,.91,3.62,.76,7.57,.69,11.25-.08,4.06-.44,8.12-1.12,12.14l4.96,.57-1.31-13.15c-.34-3.46-.59-6.96-1.52-10.36-.83-3.02-2.27-6.05-4.81-8.32-2.92-2.61-7.16-3.78-11.33-3.38-9.5,.9-15.87,7.79-24.58,10.46-6.72,2.06-17.27,3.66-21.94-2.2-4.23-5.31-4.62-12.57-11.54-16.25-2.77-1.47-5.3,2.25-2.55,3.72h0Z"/><path class="e" d="M1.16,17.17c2.77,5.23,6.03,10.71,11.25,14.48,5.58,4.03,12.97,5.39,19.89,3.13,7.28-2.39,12.88-7.36,17.25-12.72,2.22-2.73,4.31-5.58,7.33-7.75,2.72-1.95,6.23-3.18,9.73-3.6,7.68-.93,15.38,2.44,19.28,8.09l3.97-2.61c-5.56-5.07-12.98-9.13-20.96-10.73-4.21-.84-8.82-1-12.94,.31-2.91,.92-5.46,2.41-7.65,4.28-4.21,3.61-6.97,8.2-10.44,12.29-3.31,3.91-7.53,7.16-13.62,6.85-9.15-.47-14.96-7.67-18.85-13.91-1.53-2.45-5.89-.28-4.36,2.17,3.9,6.26,9.04,12.26,17.06,14.91,6.93,2.29,14.27,.96,19.64-3.33,4.36-3.48,7.15-8.12,10.56-12.24s7.78-7.65,14.27-7.68c8.97-.05,17.78,4.71,23.72,10.12,1.97,1.79,5.42-.51,3.97-2.61-3.74-5.41-10.33-9.28-17.65-10.14-7.8-.92-15.9,1.48-21.28,6.4-2.81,2.57-4.89,5.62-7.34,8.43-2.14,2.45-4.68,4.77-7.54,6.61-5.31,3.42-12.11,5.08-18.19,2.05S8.41,20.48,5.52,15c-.56-1.06-2.37-1.31-3.46-.77-1.28,.64-1.47,1.88-.91,2.95h0Z"/><path class="e" d="M3.26,42.72c3.21,4.87,6.61,9.9,11.81,13.43,4.92,3.34,11.68,5.26,17.91,3.74s10.02-6.33,12.12-11.33c2.19-5.21,2.47-11.05,5.88-15.86,5.03-7.09,17.02-8.47,25.1-4.61,9.42,4.5,12.46,15.11,9.61,23.53-.81,2.41-2.12,5.44-4.87,6.69-2.92,1.33-7.25,.65-10.25-.2-2.84-.81-5.68-2.69-6.06-5.39-.27-1.9,1.61-4.29,4.07-3.82,3.17,.6,4.52-3.55,1.34-4.15-3.54-.67-6.95,.71-8.98,3.21s-1.8,5.86-.22,8.53c1.68,2.83,4.86,4.7,8.3,5.71,3.49,1.03,7.69,1.44,11.33,.78,7.09-1.27,10.16-8.18,11.06-13.64s.02-10.9-2.82-15.81-7.31-8.44-13.03-10.37c-5.26-1.78-11.4-1.94-16.8-.51-5.9,1.56-10.76,5.01-13.34,9.82-2.95,5.48-3.14,11.74-6.27,17.14-1.33,2.29-3.14,4.37-5.84,5.57s-5.76,1.14-8.56,.49c-6.64-1.53-10.99-6.31-14.41-11.1-.94-1.32-1.83-2.67-2.72-4.02-1.59-2.42-5.96-.25-4.36,2.17h0Z"/><path class="e" d="M55.9,74.84c11.33,9.98,27.57,14.5,43.35,16.34,14.56,1.7,31.23,1.1,42.79-7.62,10.8-8.14,12.75-21,17.06-32.05,2.05-5.27,4.83-10.5,9.68-14.34,1.34-1.06,2.86-1.94,4.76-1.84s3.81,.87,5.48,1.62c3.15,1.43,5.91,3.35,8.23,5.65s4.15,5.04,5.27,7.93,1.83,6.49,.23,9.44c-1.16,2.14-4.02,3.88-6.74,3.54-.62-.08-1.23-.27-1.73-.59-.18-.12-.53-.5-.77-.85-.19-.29-.35-.7-.46-1.24-.03-.15-.02-.92,.04-1.14,.17-.62,.16-.64,.55-1.1,.03-.03,.09-.11,.36-.29-.36,.24,.59-.22,.24-.11,1.27-.41,2.15-1.45,1.76-2.65-.34-1.04-1.83-1.92-3.11-1.5-7.37,2.4-5.95,12.04,1.44,13.56,3.89,.8,8.12-.57,10.79-3.04,3.05-2.81,3.95-6.81,3.45-10.52-.94-7.01-5.63-13.67-12.09-18.03-3.34-2.25-7.43-4.37-11.71-4.88-4.78-.57-8.5,1.79-11.51,4.71-10.03,9.7-10.55,23.19-16.49,34.57-2.96,5.67-7.38,10.42-13.89,13.36s-14.61,3.94-22.16,3.88c-8.17-.07-16.37-1.2-24.23-3.06-7.98-1.89-15.88-4.75-22.39-9.2-1.63-1.11-3.16-2.31-4.62-3.59-2.26-1.99-5.83,1.05-3.57,3.04h0Z"/><path class="e" d="M211.79,66.93c1.66,3.53,5.35,5.95,9.75,6.62,4.78,.73,9.49-.53,13.62-2.57,4.15-2.05,8.13-4.73,11.08-7.97s4.55-7.29,5.84-11.32c1.18-3.69,2.27-7.47,5.05-10.56,2.18-2.43,5.5-4.39,9.24-3.76,4.43,.74,8.29,3.83,11.27,6.55,3.12,2.85,6.28,6.46,7.02,10.41,.56,3.02-1.16,7.4-5.46,7.37-1.6-.01-3.35-.74-4.02-2.04-.73-1.43-.18-3.02,1.16-4.01,1.03-.76,.91-2.26,0-3.04-1.02-.87-2.54-.76-3.57,0-3.78,2.78-3.88,8.13-.32,11.08s9.38,2.98,13.18,.25c3.93-2.82,4.88-7.59,3.68-11.66-1.33-4.53-4.93-8.64-8.69-11.93-3.55-3.11-8.14-6.42-13.3-7.18s-9.64,1-12.97,4.14c-3.46,3.26-5.2,7.29-6.55,11.46-1.34,4.14-2.47,8.52-5.76,11.91-1.78,1.83-3.9,3.4-6.16,4.78s-4.8,2.75-7.54,3.48c-3.91,1.04-9.87,.67-11.66-3.14-.51-1.08-1.69-1.84-3.11-1.5-1.2,.28-2.27,1.56-1.76,2.65h0Z"/><path class="e" d="M267.1,88.22c8.36,3.87,18.6,4.9,27.7,2.34,4.18-1.18,8.2-3.09,11.17-5.91,2.64-2.51,4.35-5.59,5.3-8.85,1.84-6.27,1.15-12.81,2.67-19.11,.67-2.79,1.81-5.56,4.07-7.72,1.26-1.2,2.83-2.24,4.71-2.58s3.55,.42,4.94,1.48c3.27,2.49,6.82,6.08,6.32,10.07-.19,1.54-1.07,3.12-2.78,3.8-1.38,.55-3.08,.54-4.2-.39-2.33-1.93-5.91,1.11-3.57,3.04,3.39,2.82,8.98,2.52,12.35-.17,3.56-2.83,4.02-7.66,2.32-11.36-.98-2.15-2.48-4.02-4.26-5.75-1.56-1.52-3.33-3.08-5.43-4.05-4.72-2.18-10.11-.62-13.64,2.54-5.88,5.26-6.44,12.76-6.98,19.62-.53,6.58-1.14,13.98-7.82,18.31-8.53,5.54-21.21,5.18-30.32,.96-2.86-1.32-5.41,2.39-2.55,3.72h0Z"/><path class="e" d="M96.14,68.26c3.89,5.44,10.59,9.09,18.02,9.79,7.39,.7,15.06-1.9,20.04-6.57,2.18-2.05-1.38-5.1-3.57-3.04-4.07,3.81-10.04,5.86-16.09,5.35-5.75-.49-11.06-3.51-14.04-7.69-1.69-2.36-6.06-.2-4.36,2.17h0Z"/><path class="e" d="M12.75,77.69c5.14,2.9,11.56,4.21,17.68,3.54,1.31-.14,2.59-.89,2.53-2.15-.05-1.04-1.12-2.31-2.53-2.15-2.79,.31-5.39,.21-7.87-.28-2.77-.55-4.86-1.32-7.25-2.67-1.14-.64-2.79-.19-3.46,.77-.72,1.05-.24,2.3,.91,2.95h0Z"/><path class="e" d="M171.06,83.41c5.27,6.87,14.81,9.53,23.83,10.97,5.92,.94,11.91,1.63,17.91,2.09,5.91,.46,11.77,.53,17.52-.92,5.95-1.5,11.41-4.14,16.76-6.76,2.82-1.38,.28-5.1-2.55-3.72-4.34,2.12-8.72,4.3-13.44,5.74-5.11,1.55-10.18,1.87-15.56,1.54-5.56-.34-11.1-.93-16.6-1.72-4.43-.64-8.87-1.4-13.08-2.77-4.1-1.34-7.99-3.44-10.43-6.62-1.77-2.31-6.15-.16-4.36,2.17h0Z"/><path class="e" d="M47.8,99.7c10.79,9.86,23.29,19.7,39.35,22.36,7.89,1.31,16.11,.88,23.46-2.04s12.89-8.23,20.12-11.35c12.82-5.54,29.09-5.36,39.99,3.28,4.81,3.81,8.37,9.09,8.73,14.77,.19,2.98-.55,5.96-2.77,8.32-1.75,1.87-4.17,3.27-6.75,4.19-5.88,2.1-13.48,2.13-19.03-.72-2.75-1.41-5.02-3.87-5.21-6.68-.16-2.35,1.18-4.52,3.8-5.44,1.3-.45,2.46-.43,3.75-.02s2.77-.46,3.11-1.5c.39-1.21-.48-2.24-1.76-2.65-3.59-1.15-7.6-.08-10.38,2.03-3.07,2.34-4.07,5.9-3.32,9.27,1.66,7.52,10.74,11.07,18.89,11.46,6.95,.33,14.52-1.65,19.47-5.94,5.98-5.18,6.39-12.94,3.47-19.47-5.71-12.76-21.57-20.05-37.22-18.87-8.61,.65-16.85,3.38-23.85,7.68-3.52,2.17-6.81,4.62-10.53,6.54-3.47,1.79-7.33,2.96-11.37,3.38-17.43,1.81-32.35-7.64-43.9-17.63-1.52-1.31-3.01-2.65-4.48-4-2.22-2.03-5.79,1.02-3.57,3.04h0Z"/><path class="e" d="M209.07,112.17c9.16-2.03,18.59-2.96,28.06-2.74,8.76,.2,17.79,1.21,26.02,3.88,4.2,1.36,8.16,3.32,11.42,5.97,2.35,1.91,5.93-1.13,3.57-3.04-6.46-5.25-15.01-8-23.64-9.47-9.75-1.65-19.82-2.09-29.72-1.3-5.75,.46-11.46,1.3-17.05,2.55-3.14,.7-1.81,4.85,1.34,4.15h0Z"/><path class="e" d="M276.56,124.28c1,4.53,1.72,9.92-1.7,13.88-3.09,3.58-8.58,4.98-13.58,5.01-3.3,.02-6.54-.48-9.73-1.17-3-.65-6-1.41-8.83-2.48-2.49-.94-5.09-2.06-7.13-3.62-1.6-1.22-3.26-2.91-2.83-4.87,.48-2.18,3.08-3.71,5.41-4.31,2.83-.74,5.87-.49,8.46,.74,2.84,1.35,5.39-2.36,2.55-3.72-6.1-2.9-14.67-2.19-19.19,2.63-2.32,2.48-3,5.61-1.5,8.55,1.36,2.67,4.08,4.64,6.92,6.16,6.36,3.4,14.17,5.38,21.59,6.15,7.11,.74,14.78-.39,20.1-4.77,6.2-5.1,5.81-12.67,4.34-19.34-.25-1.14-1.87-1.79-3.11-1.5-1.41,.33-2.02,1.5-1.76,2.65h0Z"/><path class="e" d="M64.6,134.12c10.81,9.85,26.24,15.66,42.05,15.93,3.25,.06,3.25-4.25,0-4.31-14.52-.25-28.57-5.64-38.48-14.67-2.23-2.03-5.79,1.02-3.57,3.04h0Z"/><path class="e" d="M296.98,106.12c15.08,1.32,27.44-7.79,35.32-17.77,1.82-2.3-2.55-4.46-4.36-2.17-6.96,8.81-17.66,16.8-30.96,15.63-1.36-.12-2.53,1.07-2.53,2.15,0,1.26,1.16,2.03,2.53,2.15h0Z"/><path class="c" d="M.33,9.77c3.98,6.22,8.29,12.78,15.45,16.73,6.57,3.62,15.86,4.73,22.46,.55,6.17-3.91,7.92-10.61,13.14-15.18,4.68-4.09,11.41-6.29,18.08-6.18,16.8,.28,22.71,15.37,31.38,24.97,4.69,5.19,10.96,10.14,18.81,11.25,8.16,1.16,15.65-2.07,21.27-6.93,5.9-5.1,9.42-11.6,13.75-17.64,3.94-5.49,9.84-12.28,18.14-12.65,7.07-.32,12.32,4.5,15.95,9.1,4.16,5.27,6.97,11.16,11.67,16.14,4.43,4.69,10.8,8.69,18.21,8.14,8.54-.63,14.99-6.3,19.88-11.8,4.76-5.34,8.63-11.79,15.1-15.83,5.11-3.19,12.86-5.83,18.83-2.75,5.58,2.88,6.8,9.41,9.34,14.09,1.39,2.55,3.28,4.89,5.98,6.54,3.24,1.98,7.26,2.52,11.15,2.06,8.43-1.01,14.43-6,20.91-10.19,6.02-3.9,13.12-6.51,20.41-3.37,3.17,1.36,5.65,3.44,7.25,6.15,1.46,2.48,5.82,.3,4.36-2.17-3.39-5.74-10.57-9.47-18.06-9.73-8.47-.29-15.19,4.44-21.39,8.71-5.31,3.66-13.81,8.89-20.89,5.48-5.56-2.68-6.77-9.28-9.24-13.83-2.99-5.53-8.51-9.41-15.9-9.36-7.33,.05-14.53,3.39-19.57,7.77-5.67,4.92-9.4,11.18-14.66,16.39-4.83,4.78-12.05,9.6-19.76,6.7-6.55-2.47-10.8-8.44-14.04-13.6-3.4-5.4-6.98-11.07-12.68-14.98-6.17-4.24-13.88-5.12-21-2-7.52,3.3-12.32,9.71-16.4,15.78s-7.72,12.15-14.22,16.33c-2.92,1.88-6.41,3.29-10.11,3.43s-7.25-.9-10.38-2.61c-13.72-7.52-16.71-23.41-30.81-30.68-12.4-6.39-29.53-2.74-37.77,7.17-4.06,4.89-6.45,12.19-14.28,13.51-7.93,1.33-15.15-3.4-19.55-8.53-2.47-2.88-4.48-6.01-6.47-9.13-1.56-2.43-5.92-.26-4.36,2.17H.33Z"/></g></g></svg>