<?xml version="1.0" encoding="UTF-8"?><svg xmlns="http://www.w3.org/2000/svg" viewBox="0 0 180.49 209.76"><defs><style>.c{fill:#fff;}.d{fill:#ed9e20;}.e{fill:#ffc97b;}.f{fill:#ffb32c;}.g{fill:#ffbe55;}.h{fill:#ff822e;}.i{fill:#cc5d11;}.j{fill:#cc7c12;}.k{fill:#e2901a;}.l{fill:#e06817;}.m{fill:#231f20;}</style></defs><g id="a"/><g id="b"><g><path class="f" d="M135.1,67.16c-.46-.3-.98-.38-1.49-.32-.61-2.15-1.37-4.27-2.33-6.33-.28-.6-.74-.96-1.26-1.12-.3-.67-.61-1.35-.92-2.01-2.85-6.07-6.33-11.83-10.33-17.21-2.2-3.63-4.94-6.92-8.18-9.71-.93-.8-1.99-.81-2.83-.38-.86-.77-1.72-1.53-2.61-2.26-.07-.06-.14-.11-.22-.17-.03-.03-.07-.07-.1-.1-.6-.57-1.21-1.12-1.83-1.66-.07-.09-.14-.18-.2-.28,.63-1,.96-2.19,.82-3.49,2.25-2,4.66-3.83,7.23-5.44,1.36-.86,1.67-2.75,.51-3.93-2.55-2.57-6.2-1.84-9.04-.18-1.5,.88-2.84,2.04-4.21,3.11-.1-.08-.19-.16-.31-.22-1.07-.62-2.87-.34-3.42,.9-.24,.53-.48,1.07-.71,1.6-.23-.41-.45-.83-.69-1.24,.06-.35,.06-.73-.05-1.15-.68-2.62-2.25-4.85-4.42-6.45-.55-.4-1.18-.79-1.86-1.12-.31-.29-.64-.55-1-.76-1.57-.93-3.46-.84-4.77,.47h0c-2.42,1.43-2.33,4.53-1.49,6.86,.2,.55,.42,1.1,.63,1.65,.02,.05,.03,.12,.05,.17,.15,.46,.33,.9,.53,1.33,.5,1.28,.99,2.55,1.49,3.83-2.44,1.16-4.44,3.28-6.27,5.19-2.52,2.63-4.9,5.4-7.13,8.28-4.47,5.77-8.36,11.96-11.53,18.53-1.83,3.79-3.44,7.69-4.81,11.67-.26,.76,0,1.92,.64,2.43,2.06,1.66,4.14,3.26,6.62,4.25,2.51,1.01,5,.92,7.59,.27,1.73-.43,3.36-.88,4.55,.57,1.11,1.35,1.55,3.41,1.44,5.11-.04,.61-.09,.97-.65,1.2-1.04,.41-2.34,.34-3.44,.58-2.16,.48-4.32,1.37-6.15,2.62-1.97,1.35-3.67,3.15-4.78,5.24-.7,.22-1.35,.62-1.87,1.15-1.55,1.55-1.66,3.73-.84,5.67,.58,1.38,1.58,2.56,2.56,3.71,.79,1.67,1.94,3.14,3.42,4.2l.4,.5c.62,1.44,1.79,2.66,2.9,3.79,1.59,1.6,3.21,3.17,4.73,4.83,.21,.22,.41,.45,.61,.68,1.76,3.59,3.57,7.16,5.41,10.7,.88,9.06-6.21,16.48-13.37,20.88-4.87,3-10.14,5.34-15.55,7.18-.49,.17-.91,.46-1.23,.83-.4,.03-.81,.05-1.21,.08-.48,.03-.93,.18-1.32,.42-1.85-.1-3.72-.06-5.57,.18-1.34,.18-2.5,1.02-2.5,2.5,0,1.21,1.15,2.68,2.5,2.5,10.28-1.37,19.76,3.47,28.92,7.44,4.84,2.1,9.77,4.13,14.95,5.2,6.22,1.28,12.41,.81,18.69,.28,7.15-.6,14.1-.5,21.09,1.31,2.69,.7,4.47-3.18,1.93-4.57-2.54-1.39-5.21-2.37-7.95-3.07-.01-.42-.1-.85-.29-1.25-1.25-2.77-3.92-4.32-6.8-4.9-.1-.19-.23-.37-.39-.55-2.26-2.44-4.98-4.58-6.94-7.3-.02-.15-.03-.3-.05-.45,.41-.53,.59-1.24,.36-2.1-.87-3.16-1.84-6.51-1.44-9.83,.39-3.28,2.62-5.55,4.98-7.63,3-2.65,6.24-5,9.48-7.36,.96-.54,1.91-1.09,2.84-1.67,1.6-.99,3.16-2.05,4.68-3.16,.17-.09,.33-.17,.5-.26,3.66-1.9,7.25-3.78,9.67-7.25,1.39-2,2.23-4.29,2.78-6.65,.28-.53,.54-1.07,.78-1.61,2.16-4.87,2.93-10.11,2.55-15.41-.12-1.65-.32-3.3-.58-4.94,.45-1.33,.85-2.67,1.14-4.02,.82-3.83,.53-8.06-3.02-10.4Zm-28.9,42.78s.06,.06,.09,.09c-.03,.04-.07,.08-.1,.12,0-.07,0-.14,.01-.21Zm-29.91-7.46c0,.06,0,.11,.01,.17-.06,0-.12,0-.18,0,.05-.06,.11-.11,.16-.17Zm.25-36c-.03,.39-.05,.77-.06,1.17-.21-.22-.42-.43-.64-.64,.24-.17,.47-.35,.69-.53Zm-9.17,19.27c-.33,.08-.66,.15-.99,.23,.42-.24,.84-.46,1.28-.65-.1,.14-.19,.28-.29,.42Zm-6.89,70.85c0,.09,.02,.19,.04,.28-.29-.12-.59-.25-.88-.37,.28,.03,.56,.05,.84,.09Z"/><path class="f" d="M119.36,122.5c1.2-1.45,2.55-2.75,4.04-3.9l-.51,.39c.33-.25,.67-.5,1.01-.74l-3.42-3.42c-.1,.14-.2,.29-.31,.43l.39-.51c-.43,.55-.91,1.06-1.45,1.51l3.54,3.54,1.35-1.28c.46-.44,.73-1.14,.73-1.77s-.27-1.35-.73-1.77-1.1-.76-1.77-.73-1.27,.26-1.77,.73l-1.35,1.28c-.46,.44-.73,1.14-.73,1.77s.27,1.35,.73,1.77,1.1,.76,1.77,.73l.66-.09c.42-.12,.79-.33,1.1-.64,.84-.7,1.53-1.54,2.15-2.44l.25-.6c.1-.33,.12-.66,.04-1-.07-.52-.29-1.07-.69-1.44-.32-.29-.69-.51-1.1-.64-.55-.18-1.44-.09-1.93,.25-2.06,1.43-3.95,3.1-5.55,5.03-.43,.52-.73,1.06-.73,1.77,0,.61,.27,1.35,.73,1.77s1.1,.76,1.77,.73c.63-.03,1.35-.23,1.77-.73h0Z"/><path class="f" d="M73.31,65.97s-.02,.06-.03,.09c-.06,.25-.08,.5-.1,.75,0,.03,0,.06,0,.09v.02c.02,.2,.06,.48,.09,.68,0,.02,0,.03,0,.05,0,.03,.02,.06,.03,.09,.08,.23,.17,.46,.29,.68,.01,.03,.03,.05,.05,.08,.14,.2,.28,.39,.44,.57,.02,.02,.04,.04,.07,.06,.18,.14,.37,.32,.58,.44s.45,.2,.67,.29c.01,0,.03,.01,.04,.02h.02l.66,.1c.34,.01,.67-.06,.96-.22,.46-.19,.28-.1,.81-.52l.02-.02s.03-.02,.04-.04c.03-.03,.06-.06,.09-.09,.2-.21,.37-.44,.53-.68,.05-.07,.09-.15,.13-.23,.1-.21,.19-.43,.28-.65,0-.02,.02-.04,.02-.06,.02-.04,.03-.09,.04-.13,.1-.33,.12-.66,.04-1-.02-.33-.11-.64-.3-.93-.16-.29-.37-.53-.64-.7-.24-.22-.52-.37-.85-.45l-.66-.09c-.45,0-.87,.12-1.26,.34l-.51,.39c-.31,.31-.52,.68-.64,1.1-.02,.07-.04,.14-.07,.21l.25-.6c-.05,.12-.11,.23-.19,.33l.39-.51c-.08,.1-.16,.18-.26,.26l2.43-.64s-.05-.02-.08-.03l.6,.25s-.08-.04-.12-.07l.51,.39s-.08-.07-.11-.12l.39,.51s-.06-.1-.09-.15l.25,.6c-.02-.05-.04-.11-.05-.17l.09,.66c0-.05,0-.1,0-.15l-.09,.66c0-.05,.02-.1,.04-.15,.1-.33,.12-.66,.04-1-.02-.33-.11-.64-.3-.93-.16-.29-.37-.53-.64-.7-.24-.22-.52-.37-.85-.45l-.66-.09c-.45,0-.87,.12-1.26,.34l-.51,.39c-.31,.31-.52,.68-.64,1.1h0Z"/><path class="d" d="M78.73,22.81c-12.11,12.93-20.9,29.55-21.59,47.51-.34,8.83,1.32,17.72,5,25.76,1.83,4.01,4.24,7.64,7.02,11.04,2.59,3.17,5.39,6.29,6.53,10.31,2.04,7.19-.63,15.78-6.86,20.12-1.11,.77-1.62,2.19-.9,3.42,.64,1.1,2.31,1.67,3.42,.9,6.31-4.39,9.99-11.8,10.01-19.47,0-3.9-.97-7.8-2.93-11.19-2.3-3.97-5.68-7.17-8.24-10.96-9.78-14.52-10.09-33.26-3.88-49.23,3.57-9.18,9.24-17.5,15.96-24.67,2.2-2.35-1.33-5.89-3.54-3.54h0Z"/><path class="d" d="M75.86,26.15c-11.41,10.16-18.98,24.54-21.19,39.63-1.15,7.83-1.02,15.87,.8,23.6,1.03,4.35,2.79,8.47,5.36,12.12s5.47,6.69,8.23,10.02,5.5,7.2,6.48,11.58c.8,3.59,.3,7.73-2.28,10.5-2.19,2.36,1.34,5.9,3.54,3.54,5.79-6.24,4.7-15.44,.73-22.31-4.24-7.34-11.33-12.64-15.04-20.31-3.4-7.02-3.96-15.6-3.42-23.28s2.41-14.71,5.5-21.41c3.54-7.66,8.53-14.53,14.84-20.14,2.41-2.14-1.14-5.67-3.54-3.54h0Z"/><path class="d" d="M80.82,7.87c-1.6,1.45-2.44,3.48-2.45,5.62h5c-.09-1.21,.69-2.18,1.95-2.14l-.66-4.91c-2.56,.6-4.55,2.51-5.52,4.91s-.64,4.97,.7,7.2c.51,.85,1.27,1.72,1.4,2.75s-.33,1.96-.82,2.79c-1.3,2.2-3.31,3.88-5.02,5.75-7.31,7.96-11.82,18.14-14.19,28.6-1.28,5.65-2.16,11.54-2,17.34s1.64,11.38,4.28,16.6c2.43,4.8,5.6,9.16,8.5,13.67s6.03,9.48,6.51,14.89c.51,5.78-2.55,10.98-6.7,14.77-4.63,4.23-10.59,6.74-16.26,9.23-1.24,.54-1.52,2.35-.9,3.42,.75,1.28,2.18,1.44,3.42,.9,9.99-4.38,20.83-9.77,24.53-20.89s-4.19-21.65-9.99-30.5c-2.83-4.32-5.62-8.78-7.11-13.76-1.67-5.63-1.53-11.62-.73-17.39,1.44-10.44,4.79-20.84,10.99-29.45,1.69-2.35,3.69-4.38,5.67-6.47s4.08-4.54,4.65-7.45c.3-1.52,.22-3.05-.35-4.49-.52-1.33-1.6-2.43-2.05-3.77-.53-1.57,.61-3.43,2.32-3.83,2.82-.66,2.09-4.82-.66-4.91-3.82-.13-7.25,3.29-6.95,7.14,.24,3.17,4.99,3.26,5,0,0-.89,.33-1.49,.98-2.08,2.39-2.16-1.15-5.69-3.54-3.54h0Z"/><path class="d" d="M70.66,41.12c-.53,4.12-.46,8.32,.28,12.41,.64,3.57,2.33,7.23,5.67,9.02,1.7,.9,3.55,1.23,5.44,.89,.67-.12,1.39-.47,2.06-.39,.54,.06,1.08,.44,1.52,.75,1.33,.93,2.44,2.16,3.74,3.13s2.92,1.75,4.55,2.22c3.82,1.1,7.94,.62,11.43-1.26,2.83-1.53,.31-5.84-2.52-4.32s-6.63,1.57-9.54-.05c-3.16-1.76-5.21-5.32-9.17-5.47-1.75-.07-3.32,1-4.99,.18-1.43-.7-2.3-2.15-2.78-3.62-1.39-4.24-1.25-9.12-.69-13.49,.17-1.34-1.27-2.5-2.5-2.5-1.49,0-2.33,1.15-2.5,2.5h0Z"/><path class="d" d="M64.95,48.47c-.98,4.49-1.45,9.24-.88,13.81,.52,4.22,3.19,8.61,8.01,8.27,.97-.07,2.06-.43,3.03-.26,.73,.13,1.35,.64,1.85,1.14,1.43,1.42,2.21,3.36,3.38,4.98,2.08,2.86,5.09,4.88,8.59,5.55,3.88,.75,8.09,.1,11.28-2.33,1.07-.82,1.64-2.15,.9-3.42-.62-1.06-2.34-1.72-3.42-.9-4.04,3.07-10.28,2.51-13.28-1.79-2.14-3.07-3.7-6.7-7.56-7.93-.86-.27-1.8-.36-2.7-.3s-1.92,.42-2.83,.27c-1.24-.21-1.83-1.6-2.1-2.68-.52-2.05-.42-4.31-.33-6.4,.1-2.26,.4-4.48,.88-6.69,.69-3.14-4.13-4.48-4.82-1.33h0Z"/><path class="d" d="M104.49,31.93c-2.57,1.07-5.4,1.49-7.82,2.91-1.13,.66-2.14,1.52-2.94,2.56-.96,1.24-1.46,2.57-1.63,4.13-.14,1.3,1.25,2.56,2.5,2.5,1.48-.07,2.35-1.1,2.5-2.5-.02,.21-.09,.53,0,.14,.02-.1,.05-.2,.07-.29,.02-.07,.14-.29,.12-.36,.02,.06-.25,.51-.07,.18,.12-.22,.23-.44,.38-.65,.05-.08,.13-.16,.18-.25-.1,.19-.31,.38-.05,.09,.15-.17,.32-.34,.49-.5,.1-.09,.19-.17,.29-.26,.06-.05,.35-.29,.05-.05-.32,.25,.05-.03,.13-.08,.09-.06,.17-.12,.26-.17,.22-.14,.45-.27,.68-.39s.45-.22,.68-.33c.33-.15-.4,.15-.06,.03,.15-.05,.3-.12,.45-.17,.55-.2,1.1-.37,1.66-.54,1.18-.36,2.36-.7,3.49-1.17,.63-.26,1.14-.54,1.49-1.15,.31-.54,.45-1.33,.25-1.93-.37-1.16-1.78-2.28-3.08-1.75h0Z"/><path class="d" d="M96.54,52.86c2.87,3.14,7.21,4.61,11.4,3.98,3.91-.58,7.48-3.19,9.29-6.7,.62-1.2,.31-2.71-.9-3.42-1.12-.66-2.8-.31-3.42,.9-.17,.33-.35,.66-.56,.97-.11,.17-.23,.35-.36,.51,.16-.21,0-.02-.08,.07-.25,.27-.5,.55-.78,.8-.12,.11-.25,.22-.37,.33-.13,.11-.13,.11,.02,0l-.2,.15c-.31,.21-.62,.42-.95,.6-.14,.08-.29,.16-.44,.23-.12,.06-.51,.24-.2,.11-.68,.28-1.42,.49-2.15,.6,.28-.04,.07,0-.09,0-.17,0-.34,.02-.51,.03-.38,0-.76-.01-1.15-.04-.26-.02,.22,.06-.22-.03-.17-.03-.33-.06-.5-.1-.37-.09-.74-.19-1.1-.32-.11-.04-.54-.2-.23-.07-.16-.07-.31-.14-.46-.22-.34-.17-.67-.36-.99-.57-.53-.35-.91-.68-1.52-1.34-.91-1-2.61-.92-3.54,0-.99,.99-.91,2.54,0,3.54h0Z"/><path class="d" d="M93.42,11.25c-1.96-5.46-10.58-5.32-11.64,.7-.59,3.3,1.41,6.24,1.64,9.47,.21,3-.48,5.73-2.13,8.24s-3.7,4.38-5.59,6.52c-2.03,2.29-3.85,4.77-5.38,7.41-3.05,5.24-5.09,11.08-6.19,17.04-1.16,6.31-1.46,12.84-.67,19.22,.85,6.85,3.17,12.97,7.11,18.64,3.65,5.25,7.6,10.33,9.69,16.46,1.83,5.37,2.29,11.41-.02,16.72-2.8,6.42-9.81,10.19-15.77,13.19-6.5,3.27-13.5,5.46-20.67,6.66l1.93,4.57,13.01-5.66c1.24-.54,1.52-2.35,.9-3.42-.75-1.28-2.18-1.44-3.42-.9l-13.01,5.66c-1.13,.49-1.47,2.1-1.02,3.12,.53,1.21,1.68,1.66,2.95,1.45,6.39-1.06,12.56-2.96,18.48-5.57,5.7-2.51,11.57-5.69,16.14-9.97,4.54-4.25,6.84-10.16,7.05-16.32s-1.83-12.36-4.79-17.79-7.54-10.37-10.42-16.09-3.59-12.05-3.57-18.25c.04-11.36,3.16-23.24,10.68-32.01,2.15-2.5,4.54-4.78,6.46-7.48,2.04-2.86,3.19-6.19,3.3-9.7,.06-1.78-.17-3.61-.61-5.34-.37-1.46-1.37-3.23-1.19-4.77,.02-.18,.13-.43,.16-.56-.06,.29,.22-.16-.04,0,.05-.03,.71-.3,.3-.17,.16-.05,.33-.09,.49-.12-.2,.03-.21,.05-.03,.03,.36-.02,.56,.06,.7,.11,.1,.04,.51,.35,.21,.1,.15,.12,.2,.28,.15,.15,.46,1.27,1.7,2.12,3.08,1.75,1.23-.34,2.2-1.8,1.75-3.08h0Z"/><path class="k" d="M79.61,21.55c-8.89,5.31-15.21,13.9-19.4,23.23-4.76,10.58-7.96,22.61-7.01,34.29,.45,5.51,1.81,10.88,4.24,15.85s6.01,8.81,10.05,12.48c3.79,3.45,7.11,6.97,7.96,12.22,.79,4.88-.58,9.91-3.21,14.03-6.76,10.61-19.8,14.37-31.35,16.92-3.14,.69-1.81,5.51,1.33,4.82,11.07-2.44,22.58-5.94,30.6-14.43,7.34-7.77,10.74-20.08,4.82-29.71-2.84-4.63-7.4-7.67-11.01-11.6s-5.84-8.57-7.18-13.55c-3.03-11.25-.74-23.19,3.15-33.93s9.87-20.51,19.56-26.29c2.76-1.65,.25-5.97-2.52-4.32h0Z"/><path class="k" d="M77.63,12.95l1.95,7.04c.23,.84,.83,2.06,.67,2.95-.12,.68-.88,1.26-1.34,1.71-3.08,2.98-6.14,5.98-8.98,9.19-5.71,6.46-10.52,13.65-13.28,21.87-2.62,7.81-3.41,16.27-2.34,24.44,1.09,8.39,3.89,17.35,9.63,23.76,1.67,1.86,3.56,3.51,5.19,5.42,1.37,1.61,2.49,3.49,3.34,5.43,1.67,3.85,2.3,8.27,1.65,12.42-.21,1.33,.34,2.69,1.75,3.08,1.19,.33,2.86-.4,3.08-1.75,1.33-8.45-1.1-17.03-6.87-23.39-1.48-1.63-3.12-3.1-4.58-4.73s-2.6-3.47-3.58-5.4c-1.89-3.7-3.2-7.7-4.04-11.77-1.65-7.97-1.27-16.35,1-24.16s6.94-15.21,12.47-21.5c1.63-1.86,3.34-3.65,5.08-5.41,1.64-1.65,3.48-3.18,5.01-4.95,.87-1.01,1.55-2.14,1.75-3.47,.21-1.41-.13-2.76-.5-4.12-.73-2.66-1.47-5.32-2.2-7.98-.86-3.1-5.68-1.78-4.82,1.33h0Z"/><path class="k" d="M82.81,14.12c-.09-.69-.09-1.38,0-2.08l-.09,.66c.1-.65,.27-1.28,.52-1.89l-.25,.6c.24-.56,.54-1.1,.9-1.59l-.39,.51c.24-.31,.51-.59,.82-.83l-.51,.39c.2-.14,.4-.26,.63-.36l-.6,.25c.16-.06,.32-.11,.49-.13l-.66,.09c.07,0,.14-.02,.21-.02,.67-.04,1.29-.25,1.77-.73,.43-.43,.76-1.15,.73-1.77-.06-1.28-1.1-2.59-2.5-2.5-1.31,.08-2.42,.59-3.37,1.48-.67,.63-1.23,1.44-1.64,2.26-.85,1.74-1.31,3.72-1.05,5.65,.09,.69,.22,1.25,.73,1.77,.43,.43,1.15,.76,1.77,.73s1.32-.24,1.77-.73c.41-.45,.82-1.13,.73-1.77h0Z"/><path class="j" d="M78.8,22.01l-1.41,.8c-.22,.12-.39,.28-.53,.48-.17,.18-.28,.39-.34,.64-.08,.25-.09,.5-.03,.75,.01,.25,.09,.48,.22,.7l.29,.38c.23,.23,.51,.39,.83,.48l.5,.07c.34,0,.65-.09,.95-.26l1.41-.8c.22-.12,.39-.28,.53-.48,.17-.18,.28-.39,.34-.64,.08-.25,.09-.5,.03-.75-.01-.25-.09-.48-.22-.7l-.29-.38c-.23-.23-.51-.39-.83-.48l-.5-.07c-.34,0-.65,.09-.95,.26h0Z"/><path class="j" d="M79.86,21.93c-6.32,4.34-11.4,10.12-15.54,16.54-4.38,6.79-7.99,14.27-10.3,22.02s-3.12,15.82-1.78,23.78c.65,3.86,1.86,7.63,3.61,11.14s4.16,6.62,6.78,9.53c2.96,3.29,6.21,6.36,8.81,9.95,2.18,3.01,4.51,7.37,2.52,11.03-1.15,2.12,2.08,4.02,3.24,1.89,3.9-7.17-2.01-14.72-6.64-19.83-2.65-2.92-5.49-5.68-7.91-8.8-2.29-2.96-4.08-6.28-5.27-9.83-5.18-15.45,.23-31.94,8.05-45.48,4.16-7.21,9.42-13.95,16.33-18.71,1.98-1.36,.1-4.61-1.89-3.24h0Z"/><path class="j" d="M98.16,18.33c.32-1.2,.66-1.95,1.42-3.02,.52-.73,1.49-1.65,2.32-2.16,2.08-1.3,4.54-1.64,6.82-1.05,.98,.25,2.03-.32,2.31-1.31s-.32-2.06-1.31-2.31c-3.26-.83-6.84-.36-9.71,1.43-2.68,1.68-4.66,4.37-5.46,7.43-.26,.98,.33,2.04,1.31,2.31s2.05-.33,2.31-1.31h0Z"/><path class="j" d="M98.14,20.28c1.11-2.59,2.89-4.61,5.28-6,1.18-.69,2.29-1.12,3.67-1.41,.71-.15,1.15-.21,1.91-.22,.28,0,.59,.02,.7,.04,.06,.01,.45,.06,.26,.05,.1,0,.26,.19,.11,0,.61,.8,1.61,1.23,2.57,.67,.79-.46,1.29-1.76,.67-2.57-1.37-1.78-3.39-2.1-5.51-1.85-1.93,.23-3.75,.77-5.48,1.64-3.24,1.62-5.98,4.43-7.4,7.77-.4,.93-.28,2.01,.67,2.57,.79,.46,2.17,.26,2.57-.67h0Z"/><path class="j" d="M95.94,17.28c-.4,.27,.11-.06,.14,.04,.02,.06-.26-.09-.19,0,.08,.1-.17-.16-.12-.11-.33-.36-.48-.87-.64-1.32-.45-1.3-.93-2.59-1.56-3.82-1.26-2.45-3.17-4.55-5.77-5.58s-5.44-.78-7.56,.94c-2.01,1.62-2.82,4.31-2.76,6.82,.09,3.28,1.67,6.2,2.54,9.3,.65,2.32,4.27,1.33,3.62-1-.71-2.52-2.02-4.94-2.35-7.55-.2-1.61,.02-3.73,1.44-4.78,1.52-1.12,3.81-.53,5.2,.57,1.77,1.4,2.75,3.63,3.47,5.71,.5,1.43,1,2.89,2.28,3.81,1.2,.86,2.91,1.07,4.17,.21,.84-.56,1.21-1.65,.67-2.57-.49-.83-1.72-1.24-2.57-.67h0Z"/><g><path class="h" d="M45.7,40.75c.41,.13,.87,.22,1.13,.42,1.29,.96,.39,4.32,.43,5.67,.07,2.62,1.28,5.27,3.75,6.36,.24,.66,.54,1.3,.9,1.9,1.51,2.46,5.17,.83,4.57-1.93-.1-.44-.13-.88-.14-1.31,.74-1.02,1.36-2.24,2.01-3.24,1.69-2.58,3.37-5.16,5.06-7.74,1.6-2.45,3.58-4.88,1.77-7.82-.64-1.04-1.61-1.83-2.44-2.7-.82-.86-1.59-1.77-2.28-2.74-3.2-4.54-4.96-9.91-4.97-15.47,0-3.22-5.01-3.22-5,0,.01,4.71,1.1,9.32,3.1,13.52-.17,.15-.34,.32-.47,.51-.26,.37-.42,.77-.52,1.2-.12-.05-.25-.09-.37-.15-.82-.43-1.79-.43-2.54,.03l.08-.38c.69-3.13-3.93-4.44-4.82-1.33-.47,1.64-.83,3.32-1.1,5.01-.53,2.41-1.06,4.81-1.59,7.22-.49,2.24,1.83,3.56,3.44,2.98Z"/><path class="h" d="M73.99,74.35c-.38-1.11-1.18-2.03-2.31-2.63-.03-.02-.06-.05-.1-.07v.02c-.2-.1-.39-.2-.6-.27-1.15-.43-2.52,.38-2.95,1.45-.13,.33-.19,.65-.19,.98-.03,0-.06,0-.09,.01-.93,.14-1.86,.28-2.79,.42-2.9-.15-5.68-1-8.17-2.62-3.34-2.17-5.98-5.26-9.44-7.27-3.43-1.99-7.58-2.95-11.38-1.44-3.44,1.37-6.01,4.02-8.51,6.67-2.41,2.57-5.88,6.21-9.8,5.11-2.86-.8-4.16,3-1.93,4.57,1.97,1.39,4.02,2.71,5.93,4.18,.89,.68,2.67,2.15,2.34,3.53-1.42,.65-2.8,1.44-4.15,2.02-1.72,.75-3.33,.98-5.19,.99-1.11,0-2.15,.11-3.14,.39-.48-.25-1.07-.34-1.76-.13-2.64,.81-4.55,2.72-5.44,5.32-.42,1.23,.48,2.8,1.75,3.08,3.96,.86,7.95,.43,11.83-.62,2.95-.79,5.96-1.76,8.81-2.97,.09,.16,.18,.31,.3,.45,.59,.67,1.03,1.55,1.13,2.44,.02,.15,.05,.3,.08,.44-.69,.41-1.39,.83-2.09,1.22-.42,0-.87,.11-1.33,.42-.57,.38-1.13,.76-1.7,1.14-2.69,1.8-.38,5.7,2.52,4.32,3.28-1.57,6.38-3.45,9.33-5.55,1.5-.45,2.83-1.25,3.74-2.56,.44-.09,.86-.29,1.21-.66,1.59-1.67,3.51-2.96,5.73-3.64,1.22-.37,2.48-.59,3.61-1.2,.42-.23,.79-.52,1.14-.83,.09,.07,.16,.13,.26,.19,1.06,.62,2.88,.35,3.42-.9,1.48-3.4,4.09-5.98,7.22-7.9,1.65-1.01,3.39-1.86,5.17-2.6,.9-.37,1.82-.76,2.77-1,.41-.1,.51-.12,.82-.13,.18,0,.53,.1,.34-.05,.81,.63,1.72,.96,2.73,.52,.82-.36,1.65-1.3,1.54-2.28-.11-.93-.35-1.77-.73-2.53Z"/><path class="h" d="M172.51,108.27c-1.55-1.13-3.27-2.01-4.89-3.04-1.69-1.08-3.34-2.22-4.93-3.44-6.08-4.64-11.4-10.34-15.67-16.68-.9-1.33-2.44-1.37-3.52-.73-1.5-1.74-5.06-.39-4.31,2.31,3.36,12.07-6.93,23.03-14.56,30.99-1.92,2-3.94,3.93-6.24,5.48-2.34,1.57-4.89,2.53-7.48,3.58-2.76,1.13-5.4,2.48-7.45,4.71-1.9,2.07-3.34,4.66-3.95,7.41-.27,1.21-.45,2.46-.18,3.64-.14,.4-.2,.82-.14,1.21,.2,1.32,1.18,2.02,2.46,2.17,1.5,.17,2.73-.28,3.84-1.04,.09-.06,.18-.13,.27-.2,.58-.43,1.13-.94,1.65-1.48,.3-.28,.58-.58,.84-.89,1.14-1.26,2.26-2.55,3.54-3.36,1.11-.7,2.36-1.2,3.63-1.43,1.44,.96,3.01,1.65,4.66,2.08,7.49,3.18,15.48,5.21,23.61,5.78,2.45,.17,5.02,.1,7.36-.73,2.3-.81,4.26-2.2,6.1-3.77,3.51-2.98,6.56-6.51,9.13-10.32,1.38-2.05,2.6-4.2,3.65-6.44,.54-1.14,.97-2.33,1.5-3.47,.2-.42,.42-.77,.72-1.12,.01,.01,.02,.02,.04,.03,1.15,.81,2.72,.15,3.42-.9,2.48-3.72,.07-8.05-3.1-10.36Zm-15.6,6.44c.06-.07,.13-.13,.19-.2l-.02,.22c-.05-.01-.11-.01-.17-.02Z"/></g><path class="g" d="M102.06,28.69c8.6,4.6,14.26,12.79,18.82,21.16,5.25,9.64,10.37,19.93,12.3,30.82,.94,5.29,1.02,10.85-.2,16.1s-3.79,10.02-7.34,14.07-7.62,6.98-12.27,9.38-9.6,4.41-13.49,8.01c-4.01,3.72-6.75,9.09-5.54,14.64s5.68,9.23,9.79,12.5c.8,.64,1.87,.76,2.65,0,.66-.65,.79-2.02,0-2.65-3.53-2.81-7.68-6.04-8.78-10.66s1.97-9.09,5.4-11.94c4.05-3.36,9.21-5.14,13.76-7.68s8.74-5.98,12.06-10.06c3.5-4.29,6.11-9.19,7.36-14.6s1.26-10.91,.47-16.35c-1.61-11.17-6.74-21.66-11.94-31.56s-11.38-19.17-21.19-24.41c-2.13-1.14-4.02,2.1-1.89,3.24h0Z"/><path class="g" d="M102.13,29.94c7.89,6.45,14.37,14.41,19.29,23.32,5.2,9.43,9.14,20.17,9.91,30.97,.72,10.13-1.76,20.89-9.15,28.25s-18.78,8.72-25.44,16.96c-3.71,4.59-4.88,10.39-2.82,15.99,2.19,5.95,6.93,10.18,11.96,13.78,.83,.59,2.08,.14,2.57-.67,.56-.94,.15-1.98-.67-2.57-4.28-3.07-8.63-6.8-10.38-11.95-1.63-4.78-.43-9.43,2.98-13.08s8.12-5.9,12.63-8.11c4.73-2.32,9.32-4.88,12.89-8.84,15.13-16.77,9.31-42.19,0-60.3-5.18-10.09-12.32-19.22-21.11-26.41-.79-.65-1.88-.76-2.65,0-.67,.65-.78,2.01,0,2.65h0Z"/><path class="e" d="M109.12,31c12.57,16.25,25.35,34.77,24.93,56.22-.18,8.95-3.01,17.93-8.76,24.89-2.73,3.3-6,6.09-9.79,8.1-2.14,1.13-4.42,1.87-6.65,2.78-2.4,.98-4.59,2.18-6.62,3.8-4.17,3.33-7.65,8.5-7.5,14.02s3.99,9.64,7.83,13.14c1.78,1.62,4.44-1.02,2.65-2.65-3.2-2.92-6.87-6.41-6.73-11.1s3.76-9.06,7.56-11.58c4.06-2.69,8.97-3.63,13.12-6.18,3.72-2.29,6.96-5.29,9.63-8.73,5.64-7.27,8.6-16.21,8.98-25.37,.44-10.5-2.36-20.91-6.75-30.38-4.97-10.73-12.04-20.3-19.25-29.61-.62-.81-1.99-.64-2.65,0-.8,.78-.62,1.86,0,2.65h0Z"/><path class="e" d="M109.69,44.59c.08,.03,.16,.06,.24,.09,.2,.08-.45-.21-.12-.05,.14,.07,.27,.13,.4,.21s.26,.16,.38,.24c.26,.18-.27-.23-.1-.08,.06,.06,.13,.11,.19,.17,.05,.05,.09,.09,.14,.14,.04,.04,.25,.3,.05,.04s0,0,.03,.05c.04,.06,.07,.11,.1,.17s.16,.35,.03,.03-.02-.03,0,.03c.05,.14,.08,.29,.1,.44l-.07-.5c.03,.24,.03,.48,0,.72l.07-.5c-.03,.18-.08,.34-.13,.51,.12-.46,.14-.31,.04-.13l-.04,.07c-.11,.16-.06,.1,.14-.17-.05,.04-.12,.19-.18,.19,.08,0,.39-.27,.08-.08-.19,.12-.4,.21-.6,.3-.92,.41-1.85,.81-2.78,1.22-.4,.18-.75,.72-.86,1.12-.12,.45-.07,1.05,.19,1.44s.64,.75,1.12,.86c.52,.12,.96,.03,1.44-.19,1.04-.46,2.12-.87,3.13-1.39,1.3-.66,1.99-1.91,2.13-3.32,.12-1.26-.4-2.44-1.19-3.39s-1.85-1.47-2.94-1.88c-.92-.34-2.09,.38-2.31,1.31-.24,1.06,.32,1.94,1.31,2.31h0Z"/><path class="e" d="M113.14,42.35c-.36-1.3-1.19-2.35-2.18-3.23-.41-.36-.84-.71-1.25-1.07-.22-.2-.44-.41-.65-.63-.09-.1-.18-.2-.27-.3,.2,.25-.01-.04-.08-.14-.98-1.53-3.5-.97-3.49,.95,0,1.81,.98,3.32,2.23,4.56,.52,.52,1.09,.99,1.6,1.52,.11,.11,.22,.23,.32,.35,.06,.07,.26,.34,.12,.13,.11,.15,.19,.31,.3,.46,.24,.34-.01-.19,.11,.21,.01,.04,.13,.5,.09,.28-.06-.29,0,.52,.02,.24,.01-.19-.06,.26-.07,.31-.09,.38,.1-.08-.11,.25,0,0-.33,.46-.15,.25-.1,.12-.22,.24-.34,.34-.09,.08-.1,.09,0,.02-.08,.06-.17,.12-.25,.17-.14,.09-.29,.17-.44,.25-.44,.24,.18-.03-.3,.13-.19,.06-.39,.13-.58,.18-.33,.09-.66,.16-1,.21-.91,.16-1.79,.35-2.6,.84-.64,.4-1,1.11-.9,1.87,.09,.66,.62,1.45,1.34,1.56,1.06,.16,1.98,.16,3.05,.01,1-.14,1.55-1.42,1.31-2.31-.3-1.08-1.3-1.45-2.31-1.31-.12,.02-.93,0-1.05-.01l.45,3.43c.34-.21,.41-.22,.88-.32,.44-.09,.88-.15,1.32-.24,.88-.19,1.76-.5,2.54-.95,1.68-.97,3.01-2.8,2.95-4.8-.05-1.85-1.15-3.37-2.44-4.6-.56-.54-1.14-1.06-1.67-1.63-.14-.18-.17-.2-.08-.08-.06-.08-.11-.16-.17-.24-.11-.16-.2-.32-.29-.49-.06-.12-.06-.11,0,.02-.03-.09-.06-.18-.08-.27-.03-.09-.05-.18-.06-.27,.03,.19,.04,.16,.03-.07l-3.49,.95c.66,1.03,1.53,1.8,2.46,2.58,.39,.33,.77,.68,1.12,1.05,.12,.12,.21,.25,.05,.04,.08,.1,.15,.21,.21,.32s.13,.22,.18,.34c-.14-.3-.02,0,.02,.14,.27,.98,1.33,1.58,2.31,1.31s1.58-1.33,1.31-2.31h0Z"/><path class="e" d="M106.31,47.83c-.57,.09,.35,0-.22,.02-.18,0-.36,.02-.54,.02-.3,0-.6-.01-.9-.04,.4,.04-.18-.03-.22-.04-.15-.03-.3-.06-.44-.1-.38-.09-.76-.21-1.12-.36,.3,.12-.06-.04-.13-.07-.14-.07-.27-.14-.4-.21-.29-.16-.57-.34-.84-.54s.3,.28-.12-.1c-.13-.12-.27-.24-.4-.37s-.25-.26-.38-.39c-.04-.05-.36-.45-.16-.18-.22-.3-.41-.61-.58-.94-.14-.28-.17-.33-.28-.76,0,0-.11-.63-.07-.29-.01-.12-.02-.25-.02-.38,0-.02,.05-.63,0-.26,.03-.22,.09-.43,.17-.64,.1-.28-.21,.29,.08-.15,0-.01,.36-.47,.14-.23,0-.01,.45-.41,.17-.19,.09-.07,.21-.14,.31-.2,.02-.01,.55-.23,.22-.12,.18-.06,.36-.1,.54-.16,.05-.01,.37-.07,.06-.03,.24-.04,.5-.04,.75-.04,.76,.01,1.44,.2,2.23,.44,1.11,.34,2.28,.73,3.24-.18,.78-.73,.74-1.78,.8-2.77,.02-.37,.07-.74,.05-1.11-.04-.94-.63-1.79-1.55-2.06s-1.75,.11-2.58,.37-1.68,.49-2.5,.8c-1.6,.6-2.96,1.54-3.67,3.14-.75,1.68-.79,3.6-.1,5.31,.76,1.85,2.1,3.25,3.72,4.38,.83,.58,2.08,.15,2.57-.67,.55-.94,.16-1.98-.67-2.57-.04-.02-.4-.29-.27-.19,.1,.08-.16-.13-.18-.16-.22-.19-.43-.38-.63-.59-.47-.49-.53-.57-.85-1.14,0,0-.22-.43-.15-.29,.06,.13-.07-.18-.08-.22-.09-.26-.16-.52-.2-.79,.06,.34,0-.05,0-.13,0-.15,0-.3,0-.45s.02-.24-.01-.04c.02-.15,.06-.29,.09-.44,.03-.11,.07-.23,.1-.34,.09-.28-.2,.33,.05-.12,.06-.1,.12-.2,.17-.3,.16-.28-.05,.03,.08-.11,.28-.3,.65-.54,.94-.65,.59-.24,1.22-.41,1.82-.6l.99-.31,.44-.14,.33-.1c.28-.07,.14-.09-.41-.06l-.83-.48,.12,.09-.48-.83c-.1-.28-.02,.01-.03,.19l-.03,.58-.03,.46-.02,.35c-.04,.41,.08,.17,.34-.69l.83-.48c.14-.04,.58,.12,.35-.05-.08-.06-.24-.08-.33-.11-.26-.08-.52-.17-.78-.24-.48-.14-.97-.26-1.47-.33-1.09-.16-2.14-.19-3.22,.05-2,.46-3.63,1.95-4.17,3.94-1.03,3.82,1.86,7.68,5.24,9.17,1.98,.88,4.01,1.14,6.14,.79,1-.16,1.56-1.4,1.31-2.31-.29-1.06-1.3-1.47-2.31-1.31h0Z"/><path class="g" d="M73.13,41.28c-.11,4.37,.53,8.8,2.05,12.91,.62,1.67,1.47,3.38,3.22,4.07,1.92,.76,3.52-.6,5.45-.46,2.2,.15,3.49,1.74,5,3.11s3.1,2.46,4.77,3.51c3.12,1.95,6.95,3.12,10.11,.61,1.26-1-.52-2.76-1.77-1.77-2.76,2.19-6.58-.6-8.87-2.18-2.67-1.84-4.77-5.02-8.12-5.64-1.64-.31-2.99,.03-4.55,.47-2.03,.57-2.71-1.98-3.2-3.46-1.17-3.61-1.68-7.37-1.59-11.16,.04-1.61-2.46-1.61-2.5,0h0Z"/><path class="g" d="M68.2,46.41c-.4,4.5-.36,9.03,.15,13.51,.19,1.64,.29,3.49,1.39,4.82,1.02,1.24,2.59,1.62,4.13,1.66,1.65,.04,3.63-.45,5.14,.42s1.83,2.85,2.42,4.31c1.22,3.05,3.54,5.59,6.56,6.93,3.72,1.65,8.02,1.33,11.53-.72,1.39-.81,.13-2.97-1.26-2.16-3.64,2.13-8.28,1.9-11.55-.84-1.57-1.32-2.54-2.98-3.24-4.88-.59-1.62-1.2-3.3-2.61-4.39-1.53-1.19-3.48-1.3-5.35-1.22-.93,.04-1.95,.17-2.86-.1-1.07-.33-1.38-1.19-1.57-2.22-.93-4.9-.81-10.18-.37-15.12,.14-1.6-2.36-1.59-2.5,0h0Z"/><path class="g" d="M102.75,24.87c3.81-2.49,7.7-5.2,9.33-9.64,.23-.63-.26-1.37-.87-1.54-.7-.19-1.3,.24-1.54,.87-.62,1.68-1.8,3.17-3.15,4.44-1.53,1.43-3.29,2.57-5.03,3.71-.56,.37-.8,1.11-.45,1.71,.33,.56,1.14,.82,1.71,.45h0Z"/><path class="g" d="M109.73,14.57c-.12,.72-.52,1.25-1.01,1.77-.57,.61-1.18,1.17-1.81,1.71-1.19,1.01-2.5,1.88-3.83,2.68s-3.1,1.43-3.55,3.01c-.52,1.83,1.33,3.4,3.06,3.02,.66-.15,1.05-.91,.87-1.54-.19-.68-.88-1.02-1.54-.87,.24-.05,.02,.1,.02-.02,.03,0,.06,0,.08,.03,.05,.05,.02,.02-.08-.08,.04,.15-.07-.16-.02-.05,.01,.02,.02,.19,.01,.18-.04-.04,.21-.23,.28-.28,.24-.18,.51-.31,.77-.45,1.21-.69,2.4-1.41,3.54-2.21s2.25-1.68,3.26-2.65,2.12-2.14,2.36-3.6c.11-.67-.17-1.35-.87-1.54-.6-.16-1.43,.2-1.54,.87h0Z"/><path class="l" d="M139.72,85.22c1.25,12.59-4.05,25.22-13.6,33.46-2.38,2.05-5.05,3.76-7.88,5.13-3.44,1.66-7.12,2.9-10.3,5.05-3.08,2.09-5.7,4.89-7.47,8.18-1.51,2.79-2.43,7.71,1.76,8.72,4.88,1.17,6.35-5.81,7.8-8.97,1.53-3.33,3.66-6.98,7.33-8.25,1.28-.44,2.12-1.71,1.75-3.08-.34-1.24-1.79-2.19-3.08-1.75-3.37,1.16-5.96,3.45-7.98,6.34-2.16,3.08-3.15,6.67-4.79,10.01-.11,.22-.29,.45-.36,.68-.19,.61-.26-.04,.51,.16,.04,0,.97,.64,.72,.8,.04-.02,.03-.68,.03-.68,.2-1.19,1.32-2.77,2.14-3.86,2.01-2.7,4.75-4.56,7.74-6.02,3.11-1.51,6.37-2.69,9.37-4.43,2.74-1.6,5.3-3.55,7.61-5.73,4.52-4.27,8.07-9.52,10.48-15.24,2.72-6.45,3.93-13.55,3.24-20.53-.13-1.34-1.05-2.5-2.5-2.5-1.25,0-2.63,1.15-2.5,2.5h0Z"/><path class="l" d="M50.74,11.22v.27c-.03,.34,.05,.67,.2,.96,.1,.31,.27,.58,.52,.8,.23,.24,.49,.42,.8,.52,.3,.16,.62,.23,.96,.22l.66-.09c.42-.12,.79-.33,1.1-.64l.39-.51c.23-.39,.34-.81,.34-1.26v-.27c.03-.34-.05-.67-.2-.96-.1-.31-.27-.58-.52-.8-.23-.24-.49-.42-.8-.52-.3-.16-.62-.23-.96-.22l-.66,.09c-.42,.12-.79,.33-1.1,.64l-.39,.51c-.23,.39-.34,.81-.34,1.26h0Z"/><path class="l" d="M51.29,12.46c-.66,4.5-.11,8.91,1.8,13.05,.85,1.86,2.06,3.46,3.26,5.11,.95,1.3,2.05,2.75,2.16,4.42,.15,2.07-1.19,4.06-2.13,5.8l-3.54,6.49c-.23,.42-.5,.83-.72,1.25-.35,.67-.19,.12-.12,.32-.03-.08,1.33,.49,1.22,.6,.07-.07,.16-.77,.21-.92,.68-2.05,1.78-3.95,2.67-5.9,2.09-4.59,3.41-9.79,.83-14.48-1-1.81-4.13-1.52-4.57,.6l-2.14,10.35c-.3,1.45-.59,5.39-2.17,5.93l3.16,2.41c-.22-1.9,.39-3.6,.89-5.4s.79-3.66,.72-5.52c-.13-3.62-1.32-7.2-3.52-10.09-.62-.81-1.4-1.36-2.49-1.19-.91,.14-1.9,.82-2.08,1.79l-1.98,10.64c-.31,1.67,1.13,3.82,3.08,3.08,3.07-1.18,5.35-3.48,6.46-6.6,.53-1.48,.72-3.21,.42-4.76-.35-1.78-2.57-3.28-3.82-4.51-1.79-1.75-4.8,.01-4.18,2.43,.79,3.04,3.14,5.52,6.15,6.43,1.27,.38,2.67,.33,3.92,.54,.31,.05,.94,.12,1.04,.33-.27-.51,.02,1.35-.02,1.09,.51,3.24,4.21,5.31,7.2,3.71s3.3-5.63,1.08-7.93-5.77,1.21-3.54,3.54c-.21-.22,.26,.18,0,.09,0-.06,0-.1,.06-.12-.23,.35-.19,.34,.13-.03,.05,0,.1-.01,.15,0-.32,.02-.39,.01-.21-.03,0,0,.08,.2,.08,.2-.21-.32-.16-1.21-.22-1.53-.1-.56-.27-1.11-.56-1.61-.49-.86-1.26-1.53-2.14-1.95-2.97-1.42-7.25,.06-8.32-4.05l-4.18,2.43,3.13,3.06-.64-1.1c.31,2.21-1.27,4.76-3.33,5.56l3.08,3.08,1.98-10.64-4.57,.6c1.86,2.43,2.9,5.28,2.85,8.36-.06,3.46-2.02,6.61-1.62,10.13,.17,1.49,1.47,2.99,3.16,2.41,3.34-1.15,4.6-4.29,5.27-7.5,.85-4.09,1.69-8.18,2.54-12.27l-4.57,.6c2.21,4.03-.53,8.8-2.27,12.45-.96,2.01-2.26,4.33-2.12,6.64,.16,2.67,2.53,4.69,5.21,3.83,2.43-.78,3.54-3.47,4.66-5.52,1.27-2.32,2.61-4.61,3.78-6.99s1.94-4.87,1.46-7.54c-.39-2.17-1.63-4.06-2.91-5.81-1.51-2.06-2.91-4.09-3.67-6.56s-1.01-4.95-.64-7.43c.2-1.33-.33-2.69-1.75-3.08-1.18-.32-2.88,.4-3.08,1.75h0Z"/><path class="l" d="M16.62,73.08c-1.2,.43-2.02,1.21-2.45,2.41-.28,.8-.27,1.73-.04,2.54,.49,1.78,2.08,2.75,3.65,3.47,.67,.31,1.34,.63,1.98,1.01,.33,.19,.66,.4,.97,.62,.07,.05,.14,.1,.21,.16,.15,.11,.1,.07-.16-.12,.14,.05,.28,.23,.39,.34,.26,.24,.48,.5,.72,.75,.12,.14,.07,.08-.14-.19,.06,.09,.13,.17,.19,.26,.09,.13,.18,.27,.26,.4s.15,.28,.22,.42c.25,.48-.16-.53,0-.01,.11,.36,.2,.7,.25,1.08,.08,.57,.67,1.22,1.15,1.49,.54,.31,1.33,.45,1.93,.25s1.19-.57,1.49-1.15c.34-.64,.35-1.22,.25-1.93-.41-2.97-2.8-5.3-5.29-6.73-1.06-.61-2.25-1-3.28-1.65-.06-.04-.13-.08-.19-.12-.15-.11-.08-.06,.22,.16-.06-.05-.11-.1-.16-.15-.13-.14-.08-.06,.15,.23-.01-.07-.26-.5-.06-.04,.18,.43,.06,.04,.02-.04,.05,.47,.07,.57,.05,.31v-.12c-.07,.45-.09,.57-.05,.37,.01-.06,.03-.11,.05-.17l-.16,.39c.13-.22,.06-.14-.2,.24l.08-.08c-.2,.21-.44,.35-.71,.43,1.23-.44,2.18-1.73,1.75-3.08-.39-1.21-1.76-2.22-3.08-1.75h0Z"/><path class="l" d="M4.08,92.23c-.57,4.22,2.76,6.49,6.62,6.76,3.5,.25,7.11-.49,10.33-1.86,2.99-1.27,5.47-3.2,8.02-5.17,2.22-1.72,4.52-3.4,7.29-4.08,3.12-.77,1.8-5.59-1.33-4.82-5.02,1.24-8.54,4.98-12.72,7.74-2.23,1.47-4.63,2.47-7.26,2.96-1.28,.24-2.6,.31-3.9,.25-.51-.02-1.13-.03-1.61-.24-.33-.14-.56-.6-.61-.22,.18-1.34-.32-2.68-1.75-3.08-1.16-.32-2.89,.4-3.08,1.75h0Z"/><path class="l" d="M8.72,96.87c3.04-1,6.21-1.6,9.29-2.45s6.08-1.79,9.07-2.83c6.11-2.14,12.07-4.71,17.84-7.65,2.87-1.46,.34-5.78-2.52-4.32-5.52,2.82-11.22,5.27-17.08,7.3-2.92,1.01-5.87,1.93-8.85,2.74s-6.1,1.41-9.07,2.39-1.74,5.83,1.33,4.82h0Z"/><path class="l" d="M24.63,105.61c3.57-.08,6.59-2.71,9.44-4.57l9.19-6.01c1.13-.74,1.6-2.21,.9-3.42-.66-1.12-2.29-1.64-3.42-.9l-8.61,5.64c-1.44,.94-2.87,1.88-4.31,2.82-.57,.37-1.14,.72-1.74,1.05-.38,.21-1.09,.39-1.45,.4-1.35,.03-2.5,1.13-2.5,2.5s1.14,2.53,2.5,2.5h0Z"/><path class="l" d="M18.43,77.1c1.02,1.45,2.53,2.61,4.32,2.87,1.03,.15,2.03,.14,3.04-.15,.85-.24,1.68-.64,2.41-1.13,.54-.37,.97-.85,1.15-1.49,.16-.6,.09-1.4-.25-1.93s-.86-1-1.49-1.15-1.37-.12-1.93,.25c-.39,.27-.81,.5-1.24,.68l.6-.25c-.41,.16-.82,.28-1.25,.34l.66-.09c-.34,.04-.68,.04-1.03,0l.66,.09c-.36-.05-.7-.14-1.03-.28l.6,.25c-.33-.14-.64-.32-.93-.53l.51,.39c-.28-.22-.53-.47-.76-.75l.39,.51c-.04-.05-.08-.1-.11-.16-.38-.54-.84-.97-1.49-1.15-.6-.16-1.4-.09-1.93,.25s-1,.86-1.15,1.49-.13,1.38,.25,1.93h0Z"/><path class="l" d="M28.15,77.7c3.88-.71,7.77-1.4,11.67-2.05,1.91-.32,3.82-.63,5.73-.93,1.71-.27,3.65-.73,5.25,.17,1.41,.78,2.67-1.37,1.26-2.16-1.62-.9-3.35-.95-5.15-.72-2.13,.27-4.26,.66-6.38,1.01-4.35,.72-8.7,1.48-13.04,2.27-1.58,.29-.91,2.7,.66,2.41h0Z"/><path class="l" d="M45.36,72.32c-3.84,.79-7.76,1.09-11.68,.89-1.94-.1-3.86-.32-5.77-.67-1.75-.32-3.3-.62-4.99,.11-1.47,.64-.2,2.79,1.26,2.16,.82-.35,1.82-.09,2.64,.07s1.67,.3,2.51,.42c1.86,.26,3.73,.42,5.61,.47,3.72,.09,7.43-.28,11.08-1.03,1.57-.32,.91-2.73-.66-2.41h0Z"/><path class="l" d="M68.83,73.5c.26-.03,.52-.03,.78,0-.29-.02,.16,.04,.22,.05,.11,.03,.21,.07,.32,.1,.14,.05,.14,.05,.01,0,.07,.03,.14,.06,.2,.1,.1,.05,.2,.11,.29,.17,.04,.02,.34,.23,.24,.16s.18,.17,.21,.2c.08,.08,.15,.16,.23,.24,.09,.11,.1,.11,.02,0,.04,.06,.09,.12,.13,.18,.06,.09,.12,.19,.17,.29,.04,.07,.07,.13,.1,.2-.05-.13-.05-.12,0,.01,.03,.11,.06,.22,.1,.32,.09,.26,.03-.21,.02,.11,0,.08-.04,.43,.02,.11-.02,.1-.08,.23-.08,.33-.03,.09-.02,.06,.04-.08-.03,.05-.06,.11-.09,.16,.11-.13,.12-.15,.03-.05l.12-.09c-.12,.07-.1,.06,.07-.02,.19-.02,.21-.02,.07-.02,0,0,.44,.07,.19,.02,.13,.1,.15,.11,.05,0,.1,.13,.11,.13,.03,.01-.14-.21,.04,.19-.04-.08-.04-.12-.07-.24-.1-.36-.01-.06-.08-.45-.03-.13-.19-1.25-.55-2.77-2.02-3.05-.55-.1-1.12,.07-1.41,.57-.27,.46-.21,1.15,.2,1.51,.25,.23,.48,.46,.72,.71,.16,.16,.08,.09,.04,.04,.05,.06,.1,.13,.14,.2s.08,.14,.12,.21c.18,.33-.08-.2,.05,.14,.02,.04,.04,.24,.02,.01,0,.08,0,.16,0,.24,0-.23-.03,.07-.06,.16,.01-.04,.11-.25,0-.05-.04,.07-.14,.14,.03-.03-.04,.04-.08,.09-.13,.14-.03,.03-.23,.19-.09,.08,.12-.09-.2,.11-.25,.14-.03,.02-.23,.11-.08,.04s-.05,.02-.09,.03c-.29,.1-.58,.15-.87,.22,.28-.06-.1,0-.19,.02-.15,.01-.3,.02-.45,.02-.19,0-.37,0-.56,0-.31-.02-.2,0-.49-.08-.2-.05-.22-.07-.34-.13-.03-.02-.19-.13-.04,0-.06-.05-.12-.11-.17-.16,.17,.17-.15-.29-.05-.04-.03-.07-.05-.15-.06-.22,.05,.22,.03-.08,0,.05-.03,.18,0-.2,0,0,0,.1,0,.04,.03-.03-.06,.15-.09,.11,0,.03-.16,.16-.08,.05-.01,.01,.06-.03,.12-.07,.18-.1-.23,.11-.06,.03,0,.02,.07,0,.14-.03,.21-.05-.29,.06,.04,.02,.09,.01,.06,0,.23,.04-.02-.01,.08,.02,.16,.03,.24,.05,.19,.05,.22,.06,.34,.12,.35,.18,.68,.39,1.01,.61,.38,.25,.76,.5,1.23,.56,.64,.09,1.28-.21,1.59-.78,.58-1.06-.2-2.28-1.15-2.79s-1.92-.47-2.86-.06c-.47,.21-.74,.94-.57,1.41,.45,1.3,1.68,2.26,3.1,2.18,.77-.05,1.47-.77,1.21-1.58-.34-1.03-1.18-1.66-2.26-1.73-.94-.06-1.57,1.11-1.08,1.88,.28,.43,.64,.8,1.09,1.04,.6,.31,1.36,.16,1.71-.45,.33-.56,.15-1.4-.45-1.71-.03-.02-.27-.17-.19-.11s-.12-.2,0-.03l-1.08,1.88c-.15-.03-.15-.03,0,.01-.07-.01-.13-.05-.17-.11,.1,.1,.11,.1,.02,0,.07,.13,.07,.13,0,0l1.21-1.58c-.07,0-.15,0-.22,0,.11-.01,.14,.04,0,0-.07-.02-.14-.04-.21-.06,.17,.06,.04,0-.05-.05-.16-.09,.12,.12-.01,0-.05-.05-.11-.1-.16-.16-.12-.13,.08,.14,0-.02-.03-.05-.11-.27-.03-.06l-.57,1.41c-.16,.07-.03,.03,.07,0,.14-.04-.15-.02,0,0,.11,.02,.23,.03,.05-.01,.03,0,.32,.08,.17,.03-.13-.04,.07,.04,.1,.05,.05,.03,.1,.06,.14,.09l-.08-.06,.08,.08-.05-.08c.06,.11,.07,.12,.03,.04-.14-.26-.08-.53,.17-.83l.55-.32c.45-.17,.64,.21,.38,.02-.07-.05-.16-.1-.23-.15-.16-.1-.31-.21-.47-.31-.36-.23-.72-.43-1.12-.6-.76-.32-1.58-.43-2.38-.21-.73,.2-1.41,.68-1.75,1.36-.41,.83-.33,1.85,.18,2.62,.97,1.45,2.77,1.74,4.4,1.57,1.37-.15,2.86-.6,3.61-1.85,.45-.75,.52-1.7,.21-2.51-.33-.87-.96-1.56-1.64-2.18l-1.22,2.09c.14,.03,.24,.1,.06,0s-.12-.09-.04-.02c-.03-.03-.09-.18-.05-.06,.01,.04,.14,.3,.09,.17-.05-.14,0,.03,0,.05,.02,.09,.05,.17,.07,.26,.02,.1,.04,.21,.06,.32,.03,.14,0-.06,0-.08,.02,.14,.04,.29,.06,.43,.03,.23,.08,.46,.15,.68,.21,.64,.55,1.24,1.13,1.6,.63,.4,1.43,.41,2.08,.08,1.14-.58,1.45-2.01,1.26-3.17-.18-1.08-.88-2.14-1.73-2.83-1.06-.85-2.39-1.38-3.76-1.23-.65,.07-1.28,.53-1.25,1.25,.03,.62,.55,1.32,1.25,1.25h0Z"/><path class="l" d="M66.13,77.15c.76,.29,1.59,.42,2.4,.39,.53-.02,1.08-.37,1.21-.92,.12-.51-.06-1.17-.57-1.41s-1.09-.46-1.68-.41c-.81,.07-1.53,.52-1.76,1.34-.21,.74,.09,1.5,.65,1.99,.51,.45,1.12,.67,1.78,.83,1.24,.3,2.56,.46,3.83,.26,1.17-.19,2.29-.93,2.62-2.12,.35-1.27-.25-2.81-1.62-3.14-.63-.15-1.38,.2-1.54,.87s.19,1.37,.87,1.54c.05,0,.09,.02,.14,.04-.18-.08-.23-.1-.15-.05,.08,.05,.04,.02-.12-.1,.03,.03,.06,.06,.09,.1l-.12-.14s.05,.08,.07,.12c-.09-.08-.11-.25-.03-.03s.01-.3,0,0c0,.04,0,.07,0,.11-.01,.14,0,.1,.02-.11-.03,.04-.04,.16-.05,.22-.06,.24,.13-.25,0-.03s.19-.16,.02-.02c-.04,.05-.09,.09-.14,.13,.12-.09,.14-.1,.07-.05-.08,.04-.19,.16-.29,.16l.12-.05c-.06,.02-.12,.04-.18,.06-.09,.03-.19,.05-.28,.07-.06,.01-.13,.02-.19,.03,.15-.02,.18-.03,.09-.02-.21,0-.42,.02-.64,.02-.23,0-.46-.02-.69-.04-.08,0-.17-.02-.25-.03-.14-.02-.16-.02-.08,0,.08,.01,.06,0-.08-.01-.08-.01-.16-.03-.25-.04-.24-.04-.49-.1-.73-.16-.13-.03-.27-.07-.4-.11-.3-.09,.12,.1-.09-.04l-.08-.05c-.12-.08-.11-.07,.02,.04-.04,.03-.27-.35-.04,0-.11-.17,.05,.18,.05,.27,0,.24-.11,.46-.32,.59l-.17,.07c.13-.03,.1-.02-.11,.01,.04,0,.08,0,.12,0,.1,0,.05,0-.13-.02,0-.01,.22,.05,.25,.06,.05,.02,.11,.04,.16,.06-.17-.07-.19-.08-.07-.03l.63-2.33c-.16,0-.31,0-.47,0-.08,0-.16-.01-.23-.02-.24-.02,.06,.03-.07-.01-.33-.08-.64-.15-.96-.27-.61-.24-1.4,.26-1.54,.87-.16,.72,.22,1.28,.87,1.54h0Z"/><path class="l" d="M140.4,100.2c.95,9.32,7.73,16.08,14.7,21.63,1.25,.99,3.03-.77,1.77-1.77-6.35-5.05-13.1-11.29-13.97-19.86-.16-1.59-2.66-1.6-2.5,0h0Z"/><path class="l" d="M140.2,104.55c1.1,2.18,2.32,4.3,3.65,6.36l1.71-1.71c.24,.18-.11-.09-.15-.12-.11-.09-.21-.18-.31-.27-.21-.18-.41-.37-.6-.56-.38-.38-.73-.78-1.06-1.19-.06-.07-.04-.05,.04,.05-.04-.05-.08-.11-.12-.17-.08-.11-.16-.22-.24-.34-.16-.23-.3-.46-.44-.69-.28-.47-.53-.96-.75-1.47l-2.16,1.26,2.58,4.07c.35,.55,1.13,.82,1.71,.45s.82-1.12,.45-1.71l-2.58-4.07c-.35-.55-1.13-.82-1.71-.45-.62,.4-.73,1.07-.45,1.71,.99,2.26,2.59,4.17,4.54,5.65,.42,.32,1.17,.18,1.51-.2,.36-.4,.5-1.04,.2-1.51-1.33-2.05-2.55-4.17-3.65-6.36-.3-.58-1.17-.8-1.71-.45-.6,.39-.76,1.08-.45,1.71h0Z"/><path class="l" d="M132.22,115.27c.75,2.07,1.8,3.97,3.15,5.71,1.24,1.59,2.93,2.84,3.98,4.57l.75-1.84s.22,0,.2,.02c0,0-.26-.15-.28-.17-.18-.12-.36-.25-.53-.38-.33-.25-.64-.51-.95-.78-.67-.59-1.31-1.23-1.9-1.9-1.15-1.31-2.08-2.8-2.83-4.37l-2.16,1.26c1.31,2.17,2.93,4.14,4.83,5.81,.51,.45,1.27,.5,1.77,0,.45-.45,.51-1.32,0-1.77-1.75-1.54-3.24-3.31-4.44-5.3-.35-.58-1.12-.79-1.71-.45-.62,.36-.74,1.1-.45,1.71,.91,1.91,2.12,3.68,3.55,5.24,.68,.74,1.41,1.43,2.2,2.06,.99,.8,2,1.7,3.37,1.43,.79-.16,1.14-1.18,.75-1.84-1.08-1.79-2.74-3.08-4.06-4.68-1.22-1.48-2.18-3.2-2.83-5-.23-.63-.85-1.06-1.54-.87-.61,.17-1.1,.9-.87,1.54h0Z"/><path class="l" d="M175.95,117.41c-2.04-1.09-4.35-.58-6.13,.79-2.02,1.56-2.85,4.01-3.69,6.32-.95,2.62-2.38,4.91-3.91,7.23s-3.14,4.7-5.1,6.76c-1.11,1.16,.65,2.94,1.77,1.77,1.7-1.79,3.16-3.78,4.54-5.83s2.79-4.07,3.87-6.27c1.01-2.04,1.49-4.33,2.62-6.31,.88-1.54,2.88-3.31,4.76-2.31,1.42,.76,2.68-1.4,1.26-2.16h0Z"/><path class="i" d="M139.17,102.17c2.36-5.41,3.9-11.06,4.63-16.91,.08-.67-.63-1.25-1.25-1.25-.75,0-1.17,.58-1.25,1.25-.67,5.38-2.13,10.68-4.29,15.65-.27,.62-.18,1.33,.45,1.71,.53,.32,1.44,.17,1.71-.45h0Z"/><path class="i" d="M106.61,140.41c-.37,.7-1.98,3.98-2.99,3.07-.56-.5-.51-1.5-.46-2.17,.07-.92,.35-1.84,.7-2.7,1.42-3.46,3.87-6.64,6.39-9.37,1.09-1.18-.59-2.87-1.77-1.77-2.54,2.39-4.79,5.09-6.66,8.04-1.64,2.59-2.98,6.33-.29,8.76,1.19,1.08,2.96-.69,1.77-1.77-2.08-1.88,.15-4.99,1.32-6.72,1.62-2.39,3.52-4.57,5.63-6.55l-1.77-1.77c-1.74,1.89-3.32,3.92-4.7,6.08s-2.65,4.37-3.01,6.85c-.33,2.22,.11,5.23,2.77,5.73s4.24-2.61,5.24-4.47c.76-1.42-1.39-2.68-2.16-1.26h0Z"/><path class="i" d="M103.51,144.84c-.58-6.31,3.6-11.44,8.21-15.2,5.1-4.17,10.71-7.78,16.07-11.59,1.3-.92,.05-3.09-1.26-2.16l-9.23,6.56c-2.72,1.93-5.48,3.82-8.03,5.98-4.79,4.07-8.87,9.82-8.27,16.41,.15,1.59,2.65,1.6,2.5,0h0Z"/><path class="i" d="M107.85,142.86c.04-.13,.08-.26,.14-.39l-.13,.3c.12-.27,.27-.53,.45-.77l-.2,.25c.19-.25,.41-.47,.66-.66l-.25,.2c.25-.19,.51-.35,.8-.47l-.3,.13c.17-.07,.35-.13,.53-.17,.3-.07,.59-.31,.75-.57s.22-.66,.13-.96c-.21-.66-.86-1.04-1.54-.87-1.64,.4-2.98,1.72-3.45,3.33-.09,.31-.04,.69,.13,.96,.15,.26,.45,.51,.75,.57,.32,.07,.68,.06,.96-.13s.48-.43,.57-.75h0Z"/><path class="i" d="M25.08,87.78c.06-3.06-1.39-6.02-3.83-7.86-.82-.62-2.16-1.14-2.64-2.09s.98-1.68,1.67-2.07c.85-.48,.81-2.14-.3-2.28-1.57-.21-3.11,.25-4.1,1.55s-1.02,2.92-.39,4.37c.27,.62,1.18,.76,1.71,.45,.64-.37,.72-1.09,.45-1.71-.47-1.06,.49-2.4,1.66-2.25l-.3-2.28c-1.35,.77-2.75,1.8-2.97,3.45s.89,2.88,2.14,3.8c1.14,.83,2.3,1.47,3.11,2.66,.86,1.27,1.31,2.73,1.28,4.26s2.47,1.61,2.5,0h0Z"/><path class="i" d="M23.86,100.93l-.62,.94c-.31,.48-.17,1.12,.2,1.51,.74,.81,1.8,1.23,2.88,1.31s2.15-.32,3-1c.22-.18,.38-.6,.37-.88s-.09-.53-.27-.76c-.38-.49-1.07-.64-1.61-.32-.05,.03-.22,.1-.01,.02s.06-.02,.01-.01-.1,.02-.14,.04c-.18,.05,.16-.03,.16-.02-.02,.04-.23,0-.27,0-.12,.02,.27,.06,.15,.02-.05-.02-.1-.02-.15-.03-.02,0-.11-.02-.11-.04,0,.01,.31,.16,.11,.04-.03-.02-.07-.04-.1-.06-.2-.1,.06,.07,.08,.08-.05,0-.26-.29-.11-.08s-.07-.08-.06-.12c0,0,.09,.31,.06,.13,0-.04-.01-.09-.03-.12,.09,.22,.03,.27,.03,.12,0-.05,.02-.21,0,.01-.03,.25,.04-.07,.05-.13-.03,.26-.11,.22-.03,.1,.02-.03,.05-.07,.06-.11,.06-.13-.21,.22-.06,.08,.03-.03,.06-.06,.09-.09,.13-.15-.21,.12-.09,.06,.03-.02,.07-.04,.1-.06,.13-.08,.11,.04-.11,.04,.03,0,.08-.02,.12-.03,.18-.06-.16,.03-.15,.02,0-.01,.17,0,.19,0v-2.5c-2.36,.05-4.47,1.64-5.2,3.87-.2,.62,.24,1.39,.87,1.54,.69,.16,1.32-.21,1.54-.87,.02-.07,.14-.38,.06-.18-.08,.19-.01,.03,0,0,.02-.05,.05-.1,.08-.16,.09-.18,.2-.34,.31-.5,.08-.13-.19,.22-.05,.06,.03-.04,.06-.07,.09-.11,.07-.08,.14-.16,.21-.23s.15-.15,.23-.21c.04-.03,.07-.06,.11-.09,.16-.14-.19,.13-.06,.05,.16-.11,.33-.22,.5-.32,.09-.05,.19-.09,.28-.14,.14-.07-.25,.1-.11,.04,.05-.02,.11-.04,.16-.06,.19-.07,.38-.12,.57-.16,.05-.01,.12-.03,.17-.03-.03,0-.3,.03-.13,.02,.12,0,.23-.02,.35-.02,.65-.01,1.28-.57,1.25-1.25-.03-.73-.55-1.18-1.25-1.25-1.71-.17-3.1,1.82-2.53,3.39s2.55,2.25,4.01,1.41l-1.51-1.96c.32-.26,.07-.06,0,0-.07,.05-.15,.09-.22,.13-.29,.15,.21-.06,0,0-.08,.03-.16,.06-.25,.08s-.17,.04-.25,.06c-.33,.06,.23-.01,.01,0-.17,0-.34,.02-.52,0-.34-.03,.23,.05,.01,0-.08-.02-.17-.03-.25-.06s-.17-.05-.25-.08c-.31-.11,.19,.1,0,0-.15-.08-.29-.19-.44-.26,.17,.13,.2,.16,.1,.08-.03-.03-.07-.06-.1-.08-.06-.06-.12-.12-.18-.18l.2,1.51,.62-.94c.36-.55,.13-1.41-.45-1.71-.62-.33-1.33-.14-1.71,.45h0Z"/><path class="i" d="M55.29,54.58c.81-6.74,4.1-13.03,9.05-17.65,1.03-.96-.32-2.74-1.51-1.96-5.47,3.56-7.3,9.88-9.86,15.51-.06,.14-.13,.29-.2,.43-.28,.29-.18,.42,.31,.39,.03-.02,0-.66,.02-.77,.17-.86,.57-1.74,.92-2.54,.73-1.65,1.64-3.22,2.64-4.73,2.12-3.2,4.6-6.16,6.98-9.17,.83-1.05-.19-2.72-1.51-1.96-2.95,1.69-5.06,4.45-6.49,7.49-.82,1.74-1.45,3.57-2.03,5.4-.3,.95-.59,1.9-.89,2.85-.17,.53-.3,1.11-.53,1.62-.06,.15-.63,.89-.19,.67,.24,.07,.3-.02,.19-.24-.01-.27,0-.55,.02-.82,.06-.57,.21-1.12,.39-1.66,.31-.93,.76-1.82,1.22-2.69,.86-1.64,1.82-3.23,2.87-4.75s2.24-3.01,3.5-4.41c1.05-1.16,2.9-2.48,1.92-4.23-.34-.6-1.13-.77-1.71-.45-3.12,1.73-3.99,5.44-5.23,8.52-.82,2.04-1.74,4.03-2.74,5.98-.73,1.42-1.52,3.2-3.24,3.55-1.58,.32-.91,2.73,.66,2.41,1.7-.35,2.9-1.6,3.8-3.01,1.11-1.74,1.96-3.7,2.79-5.58s1.54-3.8,2.29-5.71c.62-1.57,1.39-3.15,2.92-4l-1.71-.45c-.27-.49-.72,.33-.99,.61-.36,.39-.72,.78-1.07,1.18-.68,.78-1.33,1.58-1.96,2.4-1.29,1.68-2.47,3.44-3.51,5.28s-2.14,3.79-2.55,5.86c-.3,1.51-.44,3.79,1.3,4.5s2.91-.92,3.43-2.31c.79-2.12,1.33-4.34,2.08-6.48,1.29-3.68,3.21-7.37,6.71-9.37l-1.51-1.96c-4.15,5.25-9.2,10.66-11.09,17.24-.32,1.13-.4,2.55,.46,3.48,.99,1.07,2.53,.73,3.35-.34s1.26-2.6,1.78-3.86c.57-1.36,1.13-2.72,1.76-4.05,1.41-2.96,3.16-5.82,5.96-7.65l-1.51-1.96c-5.47,5.1-8.89,12-9.79,19.41-.19,1.59,2.31,1.58,2.5,0h0Z"/><path class="e" d="M119.59,106.04c-.64,.11-1.29,.49-1.72,.97-.51,.57-.81,1.24-.88,2.01-.06,.64,.14,1.34,.48,1.88,.42,.67,1.01,1.12,1.73,1.4,.28,.11,.71,.02,.96-.13s.51-.45,.57-.75c.07-.32,.06-.68-.13-.96s-.43-.45-.75-.57l-.05-.02,.3,.13c-.15-.06-.29-.15-.42-.24l.25,.2c-.14-.11-.27-.24-.39-.38l.2,.25c-.11-.15-.2-.3-.28-.47l.13,.3c-.07-.17-.12-.34-.15-.52l.04,.33c-.02-.16-.02-.33,0-.49l-.04,.33c.02-.16,.07-.32,.13-.47l-.13,.3c.07-.17,.16-.32,.27-.47l-.2,.25c.11-.14,.24-.27,.38-.39l-.25,.2c.15-.11,.3-.2,.47-.27l-.3,.13c.14-.05,.27-.09,.42-.12,.29-.05,.6-.33,.75-.57,.16-.27,.22-.66,.13-.96s-.29-.59-.57-.75c-.31-.17-.61-.19-.96-.13h0Z"/><path class="e" d="M121.96,102.81c-.05-.24-.09-.48-.12-.72l.04,.33c-.06-.48-.08-.96-.02-1.45l-.04,.33c.02-.16,.05-.32,.1-.47,.01-.05,.03-.1,.05-.15,.07-.2-.03,.03-.05,.09,.03-.11,.11-.24,.17-.33,.03-.04,.06-.09,.09-.13,.15-.22-.13,.15-.04,.05,.08-.08,.15-.17,.24-.24,.16-.15-.25,.17-.06,.04,.04-.03,.08-.06,.13-.08s.09-.05,.13-.07c.19-.11-.29,.1-.08,.03,.12-.04,.23-.06,.36-.08,.29-.04,.61-.34,.75-.57,.16-.27,.22-.66,.13-.96s-.29-.59-.57-.75c-.32-.17-.61-.17-.96-.13-1.08,.15-2.04,1.05-2.46,2.02-.54,1.27-.44,2.57-.18,3.9,.12,.64,.93,1.07,1.54,.87,.69-.22,1-.85,.87-1.54h0Z"/><path class="e" d="M122.59,91.81s-.05,.02-.08,.02l.33-.04c-.05,0-.1,0-.16,0l.33,.04s-.08-.02-.12-.03l.3,.13c-.05-.02-.1-.05-.14-.08l.25,.2c-.06-.04-.11-.09-.15-.15l.2,.25s-.06-.09-.09-.14l.13,.3c-.03-.08-.05-.15-.06-.23l.04,.33c-.01-.1-.01-.21,0-.31l-.04,.33c.04-.29,.14-.57,.25-.83l-.13,.3c.11-.26,.24-.5,.41-.72l-.2,.25c.1-.13,.21-.24,.34-.34l-.25,.2c.12-.09,.25-.17,.39-.23l-.3,.13c.13-.05,.26-.08,.39-.1l-.33,.04c.12-.01,.23-.01,.35,0l-.33-.04c.09,.01,.17,.04,.25,.07l-.3-.13c.05,.02,.11,.05,.16,.08,.28,.16,.65,.21,.96,.13,.29-.08,.6-.3,.75-.57,.32-.6,.15-1.36-.45-1.71-1.09-.63-2.53-.29-3.33,.64-.4,.47-.66,.97-.87,1.55-.08,.21-.14,.41-.17,.63-.06,.4-.09,.8,.06,1.19,.18,.46,.45,.84,.87,1.09s.95,.33,1.41,.19c.31-.09,.58-.3,.75-.57s.22-.66,.13-.96c-.2-.63-.87-1.08-1.54-.87h0Z"/><path class="e" d="M126.61,79.21c-1.32-.32-2.65,.34-3.34,1.48s-.61,2.56-.16,3.74c.12,.31,.28,.57,.57,.75,.27,.16,.66,.22,.96,.13s.59-.29,.75-.57,.24-.65,.13-.96c-.12-.33-.22-.66-.27-1l.04,.33c-.04-.3-.04-.6,0-.9l-.04,.33c.03-.21,.09-.42,.17-.61l-.13,.3c.07-.16,.16-.31,.27-.45l-.2,.25c.11-.14,.24-.26,.38-.37l-.25,.2c.13-.09,.26-.17,.41-.24l-.3,.13c.14-.06,.29-.1,.44-.13l-.33,.04c.14-.02,.27-.02,.41,0l-.33-.04c.05,0,.1,.02,.15,.03,.63,.16,1.38-.2,1.54-.87s-.19-1.37-.87-1.54h0Z"/><path class="e" d="M110.2,80.43c-1.67-.98-3.24,.49-3.47,2.13s.5,3.12,1.28,4.49l1.08-1.88c-1.89,.2-3.59,1.28-4.37,3.05-.82,1.88-.4,4.01,.92,5.54,.44,.51,1.32,.45,1.77,0,.51-.51,.44-1.25,0-1.77-1.33-1.54-.36-4.11,1.68-4.32,.92-.1,1.58-.99,1.08-1.88-.38-.68-.79-1.38-.94-2.16-.06-.28-.07-.57,0-.85,.11-.5,.09,.02-.28-.19,1.39,.82,2.65-1.34,1.26-2.16h0Z"/><path class="e" d="M106.69,98.28c-.24-1.02-1.28-1.65-2.3-1.56-1.16,.1-2.02,1-2.2,2.14-.34,2.22,1.21,4.19,3.2,4.96l.66-2.41c-3.83-.75-4.12,5.93-.96,6.91,.64,.2,1.36-.24,1.54-.87,.18-.67-.23-1.34-.87-1.54-.2-.06,0-.02,0,0-.1-.07-.12-.08-.04-.03,.06,.04,.06,.04,0,0-.12-.13,.09,.16,0,0-.04-.06-.07-.13-.11-.19-.06-.11,.03,.14-.02-.07-.02-.08-.04-.15-.06-.23s-.03-.16-.05-.23c.04,.18,0,.01,0-.08-.03-.35-.06-.76,.02-1.03,0,.02,.07-.21,.04-.13,.02-.05,.12-.15,.04-.06s.07-.02,.02-.03c-.06,0-.13,.02-.2,0,.66,.13,1.35-.19,1.54-.87s-.24-1.29-.87-1.54c.18,.07-.14-.07-.18-.09-.11-.06-.23-.13-.33-.21,.14,.1-.15-.13-.15-.13-.1-.09-.18-.18-.27-.28-.22-.24,.05,.12-.12-.16-.07-.11-.13-.22-.19-.34-.15-.29,.02,.13-.07-.18-.04-.13-.07-.25-.1-.38,.04,.21,0-.15,0-.18-.03-.25-.02,.09,.01-.17l.03-.12c-.05,.11-.04,.09,.03-.04-.17,.16,.26-.16-.05,.05l-.12,.05c.14-.03,.12-.04-.05,0,.21,.08-.13-.04,0-.02,.23,.04,.07,.04-.05-.05-.09-.07-.22-.41-.17-.2,.15,.66,.91,1.05,1.54,.87,.67-.19,1.03-.88,.87-1.54h0Z"/><path class="e" d="M114.68,95.57c-1.35-.52-2.85,.34-3.56,1.48-.78,1.26-.58,2.81-.31,4.18,.13,.64,.93,1.07,1.54,.87,.68-.22,1.01-.85,.87-1.54-.05-.27-.1-.53-.14-.8l.04,.33c-.06-.46-.09-.92-.03-1.38l-.04,.33c.04-.26,.1-.51,.2-.75l-.13,.3c.05-.12,.12-.24,.19-.36s.16-.13-.06,.07c.05-.04,.09-.1,.14-.15s.1-.09,.15-.14c.15-.14-.26,.17-.07,.06,.12-.07,.23-.14,.35-.19l-.3,.13c.14-.06,.28-.09,.43-.12l-.33,.04c.13-.01,.25-.02,.38,0l-.33-.04c.11,.02,.22,.05,.32,.09,.29,.11,.71,.02,.96-.13s.51-.45,.57-.75c.07-.32,.06-.68-.13-.96s-.43-.45-.75-.57h0Z"/><path class="e" d="M109.58,104.38c-1.32,.8-1.43,2.39-.82,3.68,.54,1.13,1.42,2.17,2.25,3.1l.55-2.09c-1.66,.52-3.53,1.55-3.95,3.39-.37,1.64,.45,3.7,2.25,4.03,.66,.12,1.35-.18,1.54-.87,.17-.61-.21-1.41-.87-1.54-.08-.02-.32-.1-.13,0-.09-.04-.25-.19-.1-.05-.04-.04-.21-.28-.09-.08-.01-.02-.18-.34-.08-.1-.05-.11-.07-.22-.1-.33-.08-.27-.03,.15-.01-.13,0-.03,.03-.4-.01-.13,.02-.11,.05-.23,.09-.34-.08,.22,.07-.12,.1-.16,.1-.17,0-.04,.14-.19,.17-.19,.37-.35,.5-.44,.5-.32,.85-.46,1.4-.63,.93-.29,1.18-1.38,.55-2.09-.53-.59-1.01-1.21-1.44-1.88-.18-.27-.39-.56-.45-.88,0-.01,0-.27,0-.12-.06,.08-.05,.06,.03-.07-.02,.04-.04,.07-.07,.09,1.38-.83,.12-2.99-1.26-2.16h0Z"/><path class="e" d="M99.06,117.44c-.52,.09-1.01,.39-1.4,.74s-.67,.84-.81,1.34-.13,1.1,.03,1.61,.45,1.01,.87,1.35c.27,.21,.53,.37,.88,.37,.31,0,.67-.14,.88-.37s.38-.55,.37-.88c-.01-.31-.11-.68-.37-.88-.1-.08-.19-.17-.27-.27l.2,.25c-.1-.13-.17-.26-.23-.4l.13,.3c-.06-.15-.1-.3-.12-.45l.04,.33c-.02-.14-.02-.28,0-.42l-.04,.33c.02-.14,.06-.27,.11-.4l-.13,.3c.06-.13,.13-.25,.21-.36l-.2,.25c.1-.12,.2-.23,.33-.32l-.25,.2c.11-.08,.23-.15,.36-.21l-.3,.13c.12-.05,.23-.08,.36-.11,.29-.05,.6-.33,.75-.57,.16-.27,.22-.66,.13-.96s-.29-.59-.57-.75c-.31-.16-.62-.19-.96-.13h0Z"/><path class="e" d="M92.02,102.89c-1.53,.45-2.7,1.73-3.04,3.29-.17,.77-.14,1.58,.14,2.32,.17,.44,.39,.84,.66,1.23,.22,.32,.63,.72,.71,1.1v-.66c.04-.25,.23-.16-.04-.09-.2,.05-.4,.21-.57,.32-.36,.24-.68,.52-.96,.86-.61,.74-.99,1.6-1.1,2.56-.2,1.82,.82,3.6,2.4,4.48,1.41,.78,2.67-1.37,1.26-2.16-.97-.54-1.48-1.68-1.01-2.74,.52-1.17,2.08-1.19,2.41-2.49,.38-1.49-1.4-2.31-1.52-3.65-.08-.84,.49-1.72,1.31-1.96,1.54-.46,.88-2.87-.66-2.41h0Z"/><path class="e" d="M92.33,98.67s-.07-.05-.1-.07l.25,.2c-.11-.08-.2-.18-.29-.29l.2,.25c-.08-.11-.15-.23-.21-.35l.13,.3c-.06-.14-.1-.28-.12-.43l.04,.33c-.01-.12-.01-.24,0-.36l-.04,.33c.02-.15,.06-.28,.12-.42l-.13,.3c.05-.12,.12-.23,.2-.34l-.2,.25c.08-.1,.18-.2,.28-.28l-.25,.2c.1-.07,.2-.13,.31-.18,.27-.13,.5-.47,.57-.75,.08-.3,.05-.7-.13-.96s-.43-.5-.75-.57l-.33-.04c-.23,0-.44,.06-.63,.17-.45,.21-.8,.58-1.08,.98s-.41,.9-.45,1.39,.11,1,.33,1.44,.6,.81,1.01,1.08c.26,.17,.66,.21,.96,.13s.6-.3,.75-.57c.33-.62,.14-1.33-.45-1.71h0Z"/><path class="e" d="M93.39,83.4c-.93,.43-1.63,1.44-1.8,2.44-.2,1.15,.04,2.34,.88,3.19,.46,.47,1.31,.49,1.77,0s.49-1.27,0-1.77c-.06-.06-.12-.13-.17-.2l.2,.25c-.1-.14-.19-.29-.25-.45l.13,.3c-.08-.19-.12-.38-.15-.58l.04,.33c-.03-.22-.02-.43,0-.65l-.04,.33c.03-.23,.09-.45,.18-.67l-.13,.3c.08-.19,.18-.36,.3-.52l-.2,.25c.12-.15,.24-.28,.39-.39l-.25,.2c.12-.09,.24-.16,.37-.22,.27-.12,.5-.47,.57-.75,.08-.3,.05-.7-.13-.96s-.43-.5-.75-.57c-.35-.08-.64-.02-.96,.13h0Z"/><path class="e" d="M85.96,84.35c-1.67-1.61-3.23,.99-3.47,2.45s.17,3.11,1.3,4.21l.88-2.13c-1.83-.05-3.54,1.13-4.15,2.85-.56,1.59,0,3.54,1.3,4.59,.52,.42,1.25,.51,1.77,0,.44-.44,.53-1.34,0-1.77-.67-.54-.95-1.28-.71-2.02s1.04-1.17,1.78-1.15c1.08,.03,1.65-1.39,.88-2.13-.9-.87-.87-2.38,.08-3.24l-.88,.37h-.09l-.55-.33,.09,.09c1.16,1.12,2.93-.65,1.77-1.77h0Z"/><path class="e" d="M76.04,81.34c-1.59,1.4-1.6,4.2-.03,5.62,.49,.44,1.29,.52,1.77,0,.44-.48,.52-1.3,0-1.77-.11-.1-.21-.21-.3-.32l.2,.25c-.12-.16-.21-.33-.29-.51l.13,.3c-.1-.23-.16-.46-.19-.71l.04,.33c-.03-.25-.03-.49,0-.74l-.04,.33c.03-.24,.1-.48,.19-.71l-.13,.3c.08-.2,.19-.38,.32-.55l-.2,.25c.09-.12,.19-.22,.3-.32,.49-.43,.48-1.33,0-1.77-.53-.48-1.24-.46-1.77,0h0Z"/><path class="e" d="M76.74,91.2c-1.08-1.69-3.44-1.02-4.24,.57-.85,1.71-.24,3.58,.82,5.05l.75-1.84c-1.63,.28-3.07,1.68-3.37,3.31-.32,1.76,.48,3.53,2,4.47,1.37,.85,2.63-1.31,1.26-2.16-.14-.09-.28-.19-.44-.39-.05-.06-.22-.33-.3-.51,.05,.13-.11-.49-.09-.31-.02-.14-.02-.28-.01-.42,0-.18,0-.05,.02-.15,.18-.8,.75-1.28,1.59-1.43,.75-.13,1.19-1.22,.75-1.84-.26-.36-.54-.75-.71-1.16-.16-.39-.22-.72-.18-1.05,.03-.25,.13-.55,.33-.68-.14,.09,.02,0,.05,0-.1-.01-.05,.01,.05,.01-.05,0-.26-.03-.15,0,.1,.03,.07,0-.09-.07-.09-.03-.15-.08-.2-.16,.86,1.35,3.03,.1,2.16-1.26h0Z"/><path class="e" d="M69.19,86.16c-1.54-.86-3.42,.1-3.87,1.74s.52,3.2,1.53,4.48l.55-2.09c-1.29,.19-2.49,1.04-3.15,2.16-.78,1.33-.74,2.87-.15,4.26,.27,.62,1.18,.76,1.71,.45,.64-.38,.72-1.09,.45-1.71-.24-.55-.14-1.28,.22-1.84,.13-.2,.39-.44,.59-.56,.08-.05,.15-.09,.23-.13,.08-.04,.08-.04,0-.01l.12-.05c.21-.07,.42-.12,.64-.15,.42-.06,.77-.49,.87-.87,.13-.47-.04-.85-.32-1.22-.21-.26-.47-.62-.66-.96s-.24-.54-.25-.87c0-.04,.02-.21,0-.08,.01-.09,.04-.18,.07-.26-.07,.17,.12-.18,.03-.04-.07,.11,.14-.09,.02-.02-.12,.07,.14-.08,.17-.09-.18,.07,.02,0,.03,.02l-.11,.02c.13,0,.15,0,.06,0-.06,0-.26-.12-.04,0,.59,.33,1.37,.14,1.71-.45s.14-1.38-.45-1.71h0Z"/><path class="e" d="M78.65,110.05l.15-.11,.63-.17c.2,.02,.37,.1,.52,.24l-.07-.07c.09,.12,.1,.12,.02,0-.05-.11-.06-.12-.02-.04,.07,.22-.04-.32-.02-.08s0-.33,0-.08c0,.16,.05-.18,.07-.24-.07,.21,0,.01,.07-.07-.12,.18,.03,0,.09-.07-.15,.15,.03,0,.1-.06,.19-.14-.15,.02,.1-.05,.11-.03,.21-.06,.32-.08-.29,.05,.06,.01,.1,0,.18-.02,.37-.03,.54-.08,.85-.24,1.31-1.08,1.19-1.93-.04-.26-.11-.49-.2-.73-.04-.1-.07-.2-.09-.31-.01-.05-.02-.11-.03-.16,.02,.15,.02,.16,.01,.01,0-.11,0-.22,0-.32,0,.22,0,.02,.02-.09s.06-.21,.1-.31c-.1,.26,.04-.05,.06-.08,.14-.26-.15,.12,.06-.09,.07-.08,.14-.15,.23-.21-.21,.17,.04,0,.09-.03,.22-.15-.15,.02,.08-.04,.1-.03,.2-.05,.3-.08-.29,.06,0,0,.08,0,.07,0,.14,0,.2,.01-.15-.02-.17-.02-.08,0,.06,.02,.4,.16,.13,.03,.59,.28,1.38,.18,1.71-.45,.3-.56,.18-1.41-.45-1.71-1.08-.52-2.35-.51-3.38,.14s-1.64,1.83-1.67,3.06c-.01,.54,.12,1.04,.29,1.54,.02,.04,.04,.18,.06,.21-.11-.12,.23-.53,.19-.46l.2-.33,.33-.09s-.15,0-.16,.01c-.31,.02-.62,.05-.92,.15-1.25,.42-2.14,1.45-2.24,2.78-.05,.73,.22,1.44,.68,1.99,.54,.67,1.76,.97,2.37,.2,.4-.51,.54-1.27,0-1.77-.45-.41-1.34-.55-1.77,0h0Z"/><path class="e" d="M75.9,133.34c-.56,.22-1.07,.51-1.47,.97s-.7,.96-.85,1.55c-.31,1.23,.05,2.51,.89,3.44,.44,.49,1.33,.48,1.77,0,.48-.52,.47-1.25,0-1.77-.04-.04-.08-.09-.12-.14l.2,.25c-.14-.18-.24-.36-.33-.57l.13,.3c-.08-.21-.14-.41-.17-.63l.04,.33c-.03-.22-.03-.44,0-.66l-.04,.33c.03-.19,.08-.37,.16-.55l-.13,.3c.08-.19,.19-.37,.31-.54l-.2,.25c.13-.17,.28-.31,.44-.44l-.25,.2c.17-.13,.34-.23,.54-.32l-.3,.13,.05-.02c.31-.13,.57-.27,.75-.57,.16-.27,.22-.66,.13-.96s-.29-.59-.57-.75-.66-.25-.96-.13h0Z"/><path class="e" d="M84.94,124.36c-1.17,.05-2.25,.66-2.87,1.66s-.62,2.39-.05,3.46c.31,.58,1.16,.81,1.71,.45,.59-.38,.78-1.09,.45-1.71-.03-.06-.06-.12-.09-.19l.13,.3c-.07-.18-.12-.36-.15-.55l.04,.33c-.03-.21-.03-.41,0-.62l-.04,.33c.03-.19,.07-.37,.15-.55l-.13,.3c.07-.17,.16-.33,.27-.47l-.2,.25c.12-.15,.26-.29,.41-.41l-.25,.2c.16-.12,.32-.21,.5-.29l-.3,.13c.18-.07,.37-.12,.56-.15l-.33,.04c.06,0,.13-.01,.19-.02,.33-.01,.65-.13,.88-.37,.22-.22,.38-.57,.37-.88-.03-.65-.55-1.28-1.25-1.25h0Z"/><path class="e" d="M84,134.82c-1.34-.5-2.78,.57-3.04,1.89-.14,.7-.03,1.43,.23,2.09,.22,.55,.52,1.07,.69,1.64l1.21-1.58c-1.74,.21-3.2,1.26-3.78,2.94-.54,1.55,0,3.4,1.19,4.5,.5,.46,1.28,.49,1.77,0,.46-.46,.5-1.31,0-1.77-.59-.54-.8-1.23-.59-1.93,.1-.32,.24-.55,.59-.85-.11,.09,.09-.07,.13-.09,.1-.06,.19-.12,.29-.17-.14,.07,.2-.07,.21-.07,.04-.01,.39-.08,.2-.06,.78-.09,1.46-.73,1.21-1.58-.22-.73-.67-1.37-.85-2.1-.04-.15-.03-.17-.05-.31-.02-.2-.02-.1,.05-.22-.08,.13-.13,.02,.02,.02-.09,0-.36-.01-.13,.08,.63,.24,1.37-.26,1.54-.87,.19-.7-.24-1.3-.87-1.54h0Z"/><path class="e" d="M89.21,139.33c-.12-.08-.13-.09-.03-.01-.04-.04-.08-.08-.12-.12-.06-.07-.05-.06,.02,.03-.03-.05-.06-.1-.08-.15-.04-.08-.04-.07,.01,.04-.03-.07-.05-.15-.07-.22-.08-.23-.02,.14-.02-.13,0-.12,0-.24,0-.36-.02,.24,.03-.11,.03-.15,.03-.12,.06-.24,.11-.35-.09,.21,.09-.14,.12-.18,.04-.06,.04-.07,0,0,.05-.06,.09-.11,.14-.16,.11-.12,.23-.24,.36-.35,.07-.05,.41-.27,.58-.37,.51-.28,1-.45,1.6-.64,1.17-.38,1.2-2.04,0-2.41-.22-.07-.52-.27-.63-.48-.01-.02-.18-.34-.1-.15-.05-.11-.08-.24-.1-.36,.03,.18,0-.02,0-.1,0-.09,0-.08-.02,.02,.01-.06,.02-.12,.04-.18,.03-.14-.04,.14,.03-.08,.07-.2-.07,.02,.08-.12,.04-.04,.29-.24,.11-.11,.08-.06,.17-.1,.25-.15,.11-.05-.12,.01,.08-.02,.06-.01,.37-.03,.13-.03,.06,0,.12,0,.17,0,.09,0,.08,0-.05,0l.11,.03c-.12-.06-.11-.06,.02,.01,.6,.31,1.36,.16,1.71-.45,.33-.56,.15-1.4-.45-1.71-1.73-.89-3.96,0-4.58,1.87s.7,3.88,2.51,4.44v-2.41c-1.65,.54-3.56,1.32-4.35,2.99s-.52,3.68,1.08,4.71c.57,.36,1.38,.12,1.71-.45,.35-.6,.12-1.34-.45-1.71h0Z"/><path class="e" d="M93.85,143.69c-.64,.13-1.27,.37-1.84,.7s-1.23,.83-1.41,1.53c-.34,1.31,.89,2.64,1.84,3.39l.55-2.09c-1.4,.56-2.9,1.25-3.42,2.8-.48,1.44,.19,3.11,1.66,3.59,.62,.2,1.39-.24,1.54-.87,.16-.69-.21-1.32-.87-1.54-.26-.08,.2,.12,0-.01,.35,.23-.01,.02,.01-.02,.11,.15,.13,.16,.06,.05l-.04-.07c.07,.17,.08,.19,.03,.06l-.02-.08c-.09-.24-.01,.23,0-.02,0-.03-.03-.25,0-.27-.03,.18-.03,.21,0,.07l.02-.09c.02-.06,.03-.11,.05-.17-.07,.15-.08,.18-.03,.1,.01,0,.2-.29,.1-.17-.09,.11,.13-.13,.16-.16,.03-.03,.28-.23,.17-.15s.16-.1,.19-.12c.19-.12,.39-.22,.6-.31,.03-.02,.34-.15,.21-.1-.12,.05,.23-.09,.27-.11,.42-.17,.75-.42,.87-.87,.11-.39,.02-.95-.32-1.22-.3-.24-.58-.5-.83-.79-.02-.03-.18-.24-.07-.08-.05-.07-.09-.13-.14-.2-.05-.08-.1-.18-.16-.26-.03-.06-.04-.07-.01,0,.05,.12,.06,.25,.01,.38-.04,.1-.28,.34-.08,.19,.29-.21-.12,.07,.08-.06,.16-.11,.32-.21,.49-.29,0,0,.29-.14,.2-.1s.21-.07,.21-.07c.2-.07,.41-.12,.61-.16,.64-.13,1.07-.93,.87-1.54-.22-.68-.85-1.01-1.54-.87h0Z"/><g><path class="m" d="M101.06,46.79c.57,.21,1.16,.42,1.74,.61,.61,.31,1.23,.62,1.86,.89,.48,.21,.92,.33,1.44,.19,.16-.04,.31-.12,.46-.21,1.3,.15,2.6,.11,3.91-.25,1.29-.35,1.91-2.19,.83-3.13-1.28-1.11-2.68-2.07-4.23-2.76-1.6-.71-3.41-1.38-5.18-1.43-1.12-.03-2.22,.47-2.76,1.48-.6,1.14-.21,2.44,.63,3.32,.18,.59,.64,1.05,1.28,1.29Z"/><path class="m" d="M126.66,80.32c.77,.24,1.1-.96,.33-1.21-1.29-.4-2.79-.03-3.73,.95-.95,.99-1.26,2.55-.76,3.83,.31,.8,1.04,1.68,2.01,1.38,.32-.1,.53-.43,.44-.77-.09-.32-.45-.54-.77-.44-.03,0-.04,.01-.05,.02,0,0,0,0,0,0-.03,0-.05-.02-.08-.04-.11-.08-.18-.18-.25-.29-.14-.24-.23-.51-.27-.82-.07-.49,.04-1.08,.3-1.54,.57-.99,1.79-1.38,2.83-1.05Z"/><path class="m" d="M120.96,90.34c-.34,.91-.53,1.97-.18,2.91,.3,.81,.95,1.51,1.82,1.69,.33,.07,.68-.1,.77-.44,.09-.31-.1-.7-.44-.77-1.35-.29-1.15-1.99-.8-2.96,.2-.55,.48-1.1,.92-1.5,.36-.32,.96-.55,1.43-.34,.31,.14,.67,.09,.86-.22,.16-.27,.08-.71-.22-.86-.85-.39-1.83-.28-2.6,.26-.77,.54-1.22,1.36-1.55,2.22Z"/><path class="m" d="M119.18,100.42c-.46,1.47-.02,3.11,1,4.23,.54,.59,1.43-.29,.88-.88-.73-.8-1-1.98-.68-3.02,.3-.99,1.14-1.76,2.12-2.05,.77-.22,.44-1.43-.33-1.21-1.41,.41-2.56,1.52-3,2.92Z"/><path class="m" d="M117.79,107.03c-.53,.59-.94,1.38-1.12,2.15-.18,.78-.13,1.6,.26,2.31,.34,.63,.96,1.15,1.68,1.26,.33,.05,.67-.08,.77-.44,.08-.3-.1-.72-.44-.77-.44-.07-.72-.29-.93-.68-.22-.4-.25-.86-.13-1.34,.13-.53,.38-1.06,.71-1.5,.14-.18,.31-.35,.5-.46,.2-.12,.3-.13,.5-.04,.31,.13,.69-.14,.77-.44,.1-.36-.12-.64-.44-.77-.78-.32-1.61,.15-2.13,.73Z"/><path class="m" d="M110.62,104.83c.77-.22,.44-1.43-.33-1.21-1.33,.38-2.13,1.63-2.21,2.97-.07,1.19,.5,2.28,1.26,3.18-1.21,.61-2.09,1.83-2.18,3.21-.11,1.74,1.08,3.32,2.68,3.89,.76,.27,1.09-.94,.33-1.21-1.08-.39-1.86-1.52-1.76-2.68,.1-1.19,1.07-2.11,2.2-2.34,.46-.09,.6-.74,.28-1.04-.75-.71-1.48-1.6-1.56-2.67-.06-.88,.4-1.84,1.29-2.09Z"/><path class="m" d="M114.05,96.67c.34,.04,.62-.31,.62-.62,0-.37-.29-.59-.62-.62-1.4-.15-2.88,.63-3.56,1.87-.73,1.33-.51,2.97,.43,4.14,.21,.26,.66,.22,.88,0,.26-.26,.21-.62,0-.88-.59-.73-.67-1.87-.2-2.69,.49-.85,1.47-1.29,2.44-1.18Z"/><path class="m" d="M107.85,87.47c.58-.1,.54-.86,.15-1.14-.84-.61-.91-1.81-.78-2.75,.1-.74,.64-2.79,1.77-2.11,.69,.41,1.32-.67,.63-1.08-.75-.45-1.68-.33-2.35,.22-.69,.56-1.02,1.45-1.2,2.29-.26,1.25-.21,2.6,.47,3.63-1.61,.55-3.09,1.74-3.43,3.46-.36,1.8,.6,3.81,2.43,4.31,.78,.21,1.11-.99,.33-1.21-1.27-.35-1.86-1.89-1.48-3.09,.47-1.49,2.03-2.28,3.46-2.54Z"/><path class="m" d="M102.5,105.77c.25,1.41,1.38,2.51,2.8,2.64,.8,.08,.8-1.17,0-1.25-.9-.09-1.55-.99-1.61-1.85-.07-1.09,.61-2.03,1.4-2.7,.47-.39,.03-1.01-.44-1.07-.79-.1-1.2-.98-1.19-1.69,0-.43,.13-.86,.31-1.25,.1-.21,.57-.78,.54-.91,.22,.77,1.43,.44,1.21-.33-.22-.78-1.12-1.07-1.81-.68-.74,.43-1.19,1.49-1.38,2.29-.31,1.33,.15,2.73,1.23,3.41-.79,.93-1.28,2.14-1.06,3.37Z"/><path class="m" d="M97.64,122.37c.53,.26,1.12,.35,1.69,.2,.31-.09,.54-.45,.44-.77-.1-.32-.43-.53-.77-.44-.02,0-.06,.02-.1,.03h-.03s-.06,0-.09,0c-.04,0-.09,0-.13,0h-.05c-.1-.03-.19-.05-.29-.09-.02,0-.04-.02-.06-.03-.04-.02-.08-.04-.12-.06-.04-.03-.11-.06-.15-.1,.07,.05,.08,.06,.02,.02-.02-.02-.04-.04-.07-.06-.03-.03-.06-.06-.09-.09-.02-.02-.04-.04-.06-.07h0c-.05-.05-.1-.16-.13-.22,0-.02-.02-.05-.02-.07-.02-.05-.03-.1-.04-.15,0-.01,0-.01,0-.02,0,0,0,0,0-.02,0-.06,0-.12,0-.19,0,0,0,0,0-.01h0c.01-.07,.03-.13,.04-.19,0-.03,.02-.06,.03-.09,.03-.06,.02-.06,0,.02,0-.04,.05-.09,.06-.12,.03-.05,.07-.11,.1-.16h0s0-.02,.03-.04c.04-.04,.07-.08,.11-.12,.01-.01,.07-.06,.09-.08,.08-.05,.16-.1,.24-.15h.02s.03-.02,.04-.03c.04-.01,.09-.03,.13-.04,.03,0,.06-.01,.09-.02h0s.13,0,.16,0c.33,0,.64-.29,.62-.62-.02-.34-.27-.62-.62-.62-1.07-.02-2.06,.78-2.33,1.81-.27,1.03,.28,2.11,1.22,2.58Z"/><path class="m" d="M91.54,105.01c.75-.27,.43-1.48-.33-1.21-2.93,1.05-3.92,4.65-2,6.97-1.2,.93-1.95,2.39-1.99,3.92-.04,1.66,1.05,3.91,3.02,3.66,.79-.1,.8-1.35,0-1.25-1.42,.18-1.89-1.67-1.75-2.77,.16-1.24,.91-2.33,2-2.92,.34-.18,.43-.72,.13-.98-1.84-1.58-1.43-4.58,.92-5.43Z"/><path class="m" d="M90.65,98.24s0-.03,0-.05c.02-.09,.05-.18,.08-.26,.01-.02,.04-.07,.04-.08,.03-.05,.06-.1,.09-.14,.01-.02,.01-.02,.02-.03,0,0,0,0,.02-.02,.04-.04,.07-.08,.11-.12,.03-.03,.07-.06,.1-.09h0s.03-.02,.04-.03c.04-.03,.08-.05,.12-.07,.02-.01,.08-.04,.08-.04,.04-.01,.08-.03,.12-.04,.01,0,.06-.01,.09-.02,.1,0,.19,0,.29,0,.33,.04,.64-.32,.62-.62-.02-.37-.28-.58-.62-.62-1.31-.16-2.43,1.1-2.47,2.34-.04,1.31,.96,2.37,2.11,2.83,.3,.12,.7-.13,.77-.44,.08-.36-.11-.64-.44-.77,.12,.05-.05-.02-.06-.03-.05-.03-.1-.05-.15-.08-.09-.05-.18-.11-.26-.17-.02-.01-.04-.03-.05-.05-.04-.03-.07-.06-.11-.1-.07-.07-.14-.15-.21-.23-.01-.02-.05-.07-.06-.08-.03-.05-.06-.09-.09-.14-.02-.04-.05-.08-.07-.12,0-.02-.02-.03-.02-.05h0c-.03-.1-.07-.2-.09-.3,0-.02-.02-.19-.01-.06,0-.06,0-.11,0-.17,0-.05,0-.09,0-.14Z"/><polygon class="m" points="93.52 84.87 93.53 84.87 93.53 84.87 93.52 84.87"/><path class="m" d="M92.24,86.54c.07-.23,.17-.43,.29-.64,.07-.13,.15-.25,.23-.37,.07-.1,.11-.16,.15-.21,.17-.18,.27-.27,.45-.38,.03-.02,.04-.02,.04-.03,0,0,.02,0,.04,0l.08-.02s0,0,0,0h0s.02,0,.02,0h0s0,0,0,0h.04l.03,.03c.29,.16,.68,.07,.86-.22,.17-.29,.07-.69-.22-.86-1.52-.85-2.82,1.17-3.2,2.39-.22,.71-.19,1.47,.16,2.14,.34,.65,.94,1.05,1.66,1.14,.34,.04,.62-.32,.62-.62,0-.37-.29-.58-.62-.62,.14,.02-.21-.08-.09-.03-.05-.02-.1-.06-.16-.09l-.05-.03s.04,.03,0,0c-.04-.03-.07-.07-.11-.11,0,0-.05-.06-.07-.08-.02-.02-.05-.08-.06-.09-.03-.05-.06-.11-.09-.16,0,0,0-.02-.01-.03-.02-.06-.04-.11-.05-.17-.01-.05-.02-.1-.03-.15h0s0-.03,0-.05c0-.27,.02-.45,.1-.72Z"/><path class="m" d="M83.53,84.03c-.69,.43-1.1,1.28-1.37,2.01-.39,1.08-.31,2.32,.3,3.25-1.27,.47-2.13,1.75-2.52,3.12-.28,.98-.45,2.08-.02,3.04,.38,.83,1.12,1.37,2.03,1.43,.8,.05,.8-1.2,0-1.25-2.2-.14-.67-5.66,1.74-5.29,.64,.1,1.17-.79,.48-1.14-.84-.43-1.14-1.33-.97-2.23,.06-.33,.82-2.52,1.48-1.91,.59,.55,1.48-.34,.88-.88-.57-.53-1.37-.57-2.03-.16Z"/><path class="m" d="M79.6,111.49c-1.47-1.39-.95-3.84,1-4.44,.38-.12,.59-.56,.37-.92-1.03-1.69,.21-3.75,2.17-3.67,.8,.04,.8-1.22,0-1.25-1.31-.06-2.59,.6-3.28,1.71-.6,.96-.66,2.17-.27,3.21-.97,.5-1.72,1.37-2,2.45-.35,1.36,.11,2.84,1.12,3.8,.58,.55,1.47-.33,.88-.88Z"/><path class="m" d="M75.23,91.56c.8,0,.81-1.24,0-1.25-1.52-.02-2.96,.89-3.53,2.31-.46,1.13-.26,2.42,.4,3.42-1.15,.62-1.97,1.76-2.1,3.09-.16,1.62,.82,3.25,2.29,3.92,.73,.33,1.36-.74,.63-1.08-1.03-.47-1.76-1.51-1.68-2.68,.08-1.15,.97-2.11,2.05-2.4,.44-.12,.63-.72,.28-1.04-1.68-1.54-.63-4.31,1.67-4.29Z"/><path class="m" d="M76.62,81.11c-1.14,.38-2.05,1.38-2.22,2.59-.18,1.27,.42,2.54,1.5,3.23,.28,.18,.69,.06,.86-.22,.18-.3,.06-.67-.22-.86-.32-.21-.55-.48-.74-.86-.01-.02-.01-.03-.01-.03l-.02-.05s-.03-.09-.04-.13c-.03-.11-.06-.22-.08-.33v-.04s0,0,0-.03c0-.06,0-.11,0-.17,0-.06,0-.11,0-.17,0,0,0-.07,0-.09,.01-.09,.03-.19,.06-.27,.02-.05,.03-.11,.05-.16,.03-.09,0-.02,.03-.07,.05-.1,.1-.2,.16-.29,.03-.05,.06-.09,.09-.14,0-.01,.06-.08,.02-.03,.12-.15,.32-.33,.41-.4,.08-.06,.17-.11,.26-.16,.14-.08,.12-.06,.25-.11,.32-.11,.53-.43,.44-.77-.09-.31-.45-.54-.77-.44Z"/><path class="m" d="M68.55,87.11c.77,.25,1.1-.96,.33-1.21-1.52-.49-3.23,.39-3.83,1.84-.44,1.06-.23,2.2,.34,3.13-1,.29-1.83,1.16-2.21,2.16-.5,1.34-.57,3.36,.79,4.21,.68,.43,1.31-.65,.63-1.08-.78-.49-.5-1.94-.27-2.65,.33-.98,1.26-1.79,2.32-1.38,.7,.27,1.02-.76,.48-1.14-.84-.59-1.36-1.78-.95-2.77,.37-.9,1.42-1.42,2.35-1.12Z"/><path class="m" d="M85.26,124.97c-1.14-.69-2.59-.36-3.52,.52-.44,.42-.76,.95-.99,1.51-.25,.61-.38,1.34-.15,1.97,.26,.71,.91,1.28,1.69,1.26,.33,0,.64-.28,.62-.62-.01-.33-.27-.63-.62-.62-.03,0-.06,0-.09,0h0s-.05-.01-.08-.02h-.01s-.08-.06-.09-.06c-.04-.03-.07-.06-.1-.1l-.02-.02s-.03-.04-.04-.07c-.01-.02-.05-.12-.06-.13-.02-.05-.03-.11-.04-.16,.01,.06,0-.12,0-.12,0-.3,.06-.53,.17-.83,.01-.03,.02-.05,.02-.05,0,0,0-.01,.02-.04,.03-.07,.06-.13,.1-.2,.06-.12,.13-.24,.21-.36,.03-.05,.06-.09,.1-.14,.01-.01,.07-.08,.08-.09,.1-.11,.2-.21,.31-.31,.02-.02,.03-.03,.03-.03,0,0,.01,0,.04-.02,.05-.04,.1-.07,.16-.1,.06-.04,.13-.07,.2-.11,.03-.01,.06-.03,.09-.04-.05,.02-.04,.02,.03,0,.12-.03,.24-.07,.36-.09,.02,0,.1-.01,.12-.01,.09,0,.17,0,.26,0,.03,0,.04,0,.05,0,0,0,.02,0,.05,.01,.06,.01,.13,.03,.19,.04,.06,.02,.12,.04,.18,.06-.08-.04,.12,.07,.14,.08,.29,.17,.69,.06,.86-.22,.17-.3,.07-.68-.22-.86Z"/><path class="m" d="M88.98,140.44c-1.18-.43-1.7-1.89-1.37-3.04,.4-1.38,1.78-2.18,3.13-2.41,.66-.11,.53-1.03,0-1.21-.84-.28-1.25-1.33-.99-2.14,.33-1.02,1.44-1.53,2.44-1.52,.8,0,.81-1.24,0-1.25-1.59-.01-3.3,.94-3.69,2.58-.23,.97,.05,1.98,.67,2.7-1.37,.58-2.55,1.71-2.84,3.2-.35,1.78,.58,3.66,2.31,4.29,.76,.27,1.08-.93,.33-1.21Z"/><path class="m" d="M83.67,134.25c-1.37,.02-2.65,.84-3.16,2.13-.33,.83-.27,1.76,.08,2.56-.95,.29-1.7,1.27-2.02,2.28-.51,1.64-.28,3.43,.54,4.92,.39,.7,1.47,.07,1.08-.63-.55-.99-.77-2.15-.58-3.27,.13-.79,.77-2.66,1.91-2.05,.61,.32,1.3-.48,.76-.98-1.42-1.32-.58-3.68,1.39-3.7,.8-.01,.81-1.26,0-1.25Z"/><path class="m" d="M76.36,133.82c-1.47-.44-2.65,.89-3.13,2.11-.5,1.26-.39,2.71,.22,3.92,.15,.3,.58,.39,.86,.22,.31-.18,.38-.55,.22-.86-.43-.85-.47-1.83-.17-2.73,.14-.42,.35-.81,.67-1.12,.13-.13,.33-.27,.47-.32,.21-.09,.34-.09,.54-.03,.77,.23,1.1-.97,.33-1.21Z"/><path class="m" d="M94.6,143.83c-1.42-.64-3.23-.18-4.02,1.22-.51,.91-.47,1.98-.02,2.87-.83,.31-1.5,1.12-1.64,2.04-.2,1.22,.31,4.19,2.17,3.37,.31-.14,.38-.59,.22-.86-.16-.28-.45-.34-.73-.26,.02,0,0,.02-.02,0-.03,.01-.07,.01-.1,.03,.05-.02,.08-.03,.1-.03-.02,0-.03-.02-.05-.06-.03-.07-.11-.15-.15-.23-.09-.19-.13-.41-.17-.61-.09-.43-.12-.88-.01-1.31,.15-.57,.78-1.24,1.41-.89,.71,.4,1.28-.63,.63-1.08-.72-.5-.98-1.59-.56-2.36,.42-.77,1.51-1.13,2.31-.77,.31,.14,.67,.09,.86-.22,.16-.27,.08-.72-.22-.86Z"/><path class="m" d="M90.59,152.21s-.01,0-.02,0h.02Z"/><path class="m" d="M96.54,39.12c-.35,.72,.72,1.35,1.08,.63,1.23-2.52,4.23-3.07,6.76-3.25,.8-.06,.8-1.31,0-1.25-2.96,.22-6.4,.94-7.84,3.87Z"/><path class="m" d="M111.14,38.81c-.67-.42-1.46-.78-1.96-1.42-.68-.86-.72-2.08-1.55-2.84-.76-.7-1.99-1-2.79-.19-.57,.57,.32,1.46,.88,.88,.49-.5,1.23,.36,1.43,.76,.44,.85,.64,1.77,1.33,2.47,.54,.55,1.23,.92,1.88,1.32,.55,.34,1.16,.72,1.38,1.36,.26,.76,1.47,.43,1.21-.33-.31-.91-1.01-1.51-1.81-2.02Z"/><path class="m" d="M113.41,46.01c.09,3.31-4.06,5.5-6.89,5.82-3.11,.35-6.15-1.01-8.11-3.42-.51-.62-1.39,.26-.88,.88,2.32,2.85,6.03,4.29,9.66,3.7,3.3-.54,7.58-3.2,7.47-6.98-.02-.8-1.27-.81-1.25,0Z"/><path class="m" d="M25.38,79.06c-.73,.33-.1,1.41,.63,1.08,7.99-3.57,16.78-5.01,25.49-4.22,.8,.07,.8-1.18,0-1.25-8.94-.81-17.93,.72-26.13,4.39Z"/><path class="m" d="M73.17,41.19c-.58,4.47-.12,9.22,1.67,13.39,.65,1.51,1.57,3,2.99,3.89,1.83,1.14,3.73,.5,5.72,.44,2.31-.07,3.73,1.47,5.17,3.06,1.18,1.3,2.4,2.5,3.98,3.32,3.29,1.7,7.17,1.79,10.54,.29,.73-.33,.1-1.4-.63-1.08-3.4,1.5-7.49,1.09-10.53-1.05-2.47-1.74-3.94-5.08-7.13-5.7-1.84-.36-3.72,.55-5.53,.06-1.85-.51-2.92-2.39-3.58-4.05-1.58-3.97-1.98-8.35-1.43-12.57,.1-.8-1.15-.79-1.25,0Z"/><path class="m" d="M68.14,45.49c-.61,4.52-1.07,9.23-.73,13.8,.21,2.8,1.06,6.08,3.96,7.2,1.58,.61,3.3,.39,4.94,.48,.88,.05,1.79,.2,2.49,.78,.96,.81,1.18,2.13,1.59,3.26,1.19,3.24,3.62,6,6.71,7.53,3.93,1.95,8.58,1.78,12.45-.23,.71-.37,.08-1.45-.63-1.08-3.51,1.82-7.81,1.97-11.35,.14-3.22-1.66-5.22-4.46-6.35-7.83-.45-1.35-1.06-2.6-2.39-3.27-1.25-.63-2.72-.58-4.08-.59-1.61-.02-3.28-.11-4.43-1.39-1.04-1.17-1.43-2.82-1.6-4.34-.53-4.62,0-9.55,.62-14.14,.11-.79-1.1-1.13-1.21-.33Z"/><path class="m" d="M177.2,114.02c-1.87-4.86-6.4-7.7-10.64-10.3-2.56-1.56-4.99-3.19-7.04-5.41-2.05-2.21-3.75-4.72-5.59-7.1-3.3-4.26-7.44-8.19-12.98-8.88-.19-2.32-.53-4.64-1.05-6.94-2.38-10.62-7.73-20.37-13.55-29.46-5.15-8.05-11.07-17.73-20.44-21.22,1.9-1.17,3.74-2.48,5.32-4.01,2.29-2.2,3.96-5.39,2.66-8.56-1.2-2.91-4.15-4.67-7.25-4.69-3.38-.02-6.41,1.79-8.78,4.07-.88,.84-1.76,1.77-2.55,2.74-1.32-4.17-3.73-8.05-8.18-9.36-2.45-.72-5.31-.31-7.36,1.25-2.43,1.84-3.24,4.84-3.01,7.79,.19,2.58,.99,4.98,2.27,7.16-5.49,2.84-9.77,7.46-13.37,12.42-.58-2.17-1.88-4.04-3.37-5.79-1.88-2.22-4.27-4.36-5.2-7.2-.63-1.91-.37-3.92-.4-5.89-.03-1.71-.17-3.91-1.48-5.18-1.19-1.15-3.02-.99-4.26-.03-1.4,1.08-1.74,2.88-1.69,4.55,.07,2.1,.42,4.23,.91,6.28,.13,.55,1.93,5.63,1.7,5.73-.44,.2-1.23-1.2-1.39-1.51-.41-.76-.85-1.5-1.48-2.1-1.15-1.07-2.85-1.41-4.05-.19-.61,.62-.91,1.53-1.23,2.32-.44,1.05-.83,2.13-1.17,3.21-.63,2.01-1.08,4.08-1.37,6.17-.36,2.59-1.27,8.17,2.58,8.71,.45,.06,.88,0,1.33-.06,.14-.02,.33-.07,.48-.06-.04,.14-.07,.28-.12,.42-.26,.84-.47,1.67-.52,2.56-.11,1.72,.29,3.44,1.02,4.99,1.37,2.94,3.96,5.06,7.08,5.76-1,2.65-1.82,5.35-2.38,8.13-1.62-1.16-3.34-2.16-5.27-2.73-3.14-.93-6.48-.52-9.61,.23-2.65,.64-5.14,1.63-7.13,3.54-1.76,1.7-3.05,3.83-4.87,5.48-1.88,1.72-3.92,1.65-6.31,1.89-2.25,.23-4.5,1.12-5.03,3.58-.6,2.81,1.68,5.33,3.94,6.6,1.32,.74,2.78,1.27,4.01,2.16,.23,.16,2.09,2.1,1.12,2.35-.11,.03-.21,.07-.3,.12-2.03,.24-4.05,.47-6.08,.71-2.2,.26-4.48,.39-6.64,.94-3.33,.85-6.43,3.46-5.89,7.23,.65,4.53,6.12,4.14,9.53,3.84,2.27-.19,4.53-.57,6.73-1.16,1.05-.28,2.08-.6,3.1-.97,1.03-.37,2.19-1.1,3.28-1.22,.32-.04,1.08-.05,.94,.34-.09,.25-.99,.73-1.24,.91-1.02,.76-2.06,1.51-3.08,2.29-1.25,.96-2.68,2.48-2.12,4.2,.58,1.77,2.66,1.97,4.24,1.99,2.08,.02,4.17-.42,6.09-1.18,3.88-1.52,7.07-4.1,10.07-6.93,1.54-1.45,3.09-2.94,4.97-3.95,1.76-.94,3.7-1.13,5.64-1.47,.79-.14,1.57-.32,2.31-.59,1,3.63,2.56,7.11,4.68,10.22,2.23,3.27,5.04,5.91,7.97,8.53,2.7,2.42,5.64,5.05,6.84,8.58,.78,2.28,.89,4.7,.37,6.99-.43,.19-.77,.58-.9,1.19-2.4,11.45-15.26,15.38-24.87,18.66-5.53,1.89-10.95,4.06-15.66,7.59-4.46,3.34-8.21,7.44-11.45,11.96-3.64,5.07-6.57,10.61-9.19,16.27-1.01,2.18,2.22,4.08,3.24,1.89,4.58-9.88,10.23-19.87,18.99-26.65,9.56-7.4,22.24-8.09,32.16-14.76,3.79-2.55,7.16-5.9,9.08-10.02,.1-.1,.19-.22,.28-.36,2.22-3.65,2.92-8.05,2.01-12.22-.87-3.94-3.37-7.17-6.22-9.92-2.85-2.74-6.01-5.15-8.44-8.3-2.59-3.36-4.42-7.24-5.46-11.34-.04-.18-.11-.33-.19-.47,1.37-1.6,2.27-3.49,3.77-5.01,3.1-3.16,7.32-5.12,11.74-5.42,1.6-.11,1.61-2.61,0-2.5-3.51,.24-6.92,1.31-9.88,3.22-1.46,.94-2.84,2.06-4.02,3.34-1.23,1.33-2.09,2.87-3.15,4.32-2.2,2.99-6.55,2.25-9.67,3.53-3.52,1.45-6.01,4.42-8.83,6.86-2.94,2.54-6.5,4.77-10.42,5.31-.88,.12-1.79,.16-2.68,.08-.25-.02-.91,0-1-.27-.11-.32,.6-.92,.79-1.08,1.24-1.1,2.75-1.94,4.06-2.98,.17,.16,.43,.22,.69,.05l8.47-5.46c.67-.43,.05-1.52-.63-1.08l-6.89,4.44c.2-.88-.09-1.83-.82-2.52-.39-.37-.83-.58-1.28-.7,2.24-1.79,4.68-3.28,7.3-4.49,3.33-1.54,6.8-2.81,9.87-4.84,.67-.44,.04-1.53-.63-1.08-3.17,2.1-6.75,3.38-10.18,4.99-3.03,1.42-5.82,3.25-8.33,5.46-.54,.12-1.07,.31-1.57,.51-4.07,1.66-8.36,2.66-12.76,2.82-1.66,.06-4.85,.46-5.21-1.79-.31-1.95,1.25-3.46,2.91-4.11,2.09-.82,4.46-.91,6.66-1.16l3.18-.37c.04,.27,.23,.49,.58,.46,5.06-.39,9.14-3.65,13.49-5.94,4.91-2.59,10.14-4.5,15.55-5.75,.78-.18,.45-1.39-.33-1.21-5.07,1.17-10,2.93-14.65,5.26-2.8,1.4-5.54,3.37-8.46,4.76,.29-1.01,.11-2.22-.42-3.17-1.27-2.27-4.18-3.04-6.27-4.29-1.82-1.09-3.96-4.37-.75-5.18,2.35-.59,4.72-.11,6.95-1.29,2.03-1.08,3.46-2.97,4.89-4.71,1.82-2.21,3.64-3.86,6.44-4.72,3.14-.96,6.67-1.61,9.88-.66,2.05,.6,3.84,1.79,5.51,3.1,.05,.79,.47,1.5,1.33,1.74,.25,.07,.54,.07,.82,.02,4.57,3.81,10.46,8.1,16.57,5.11,1.44-.71,.18-2.86-1.26-2.16-4.95,2.42-9.91-1.68-13.71-4.86,1.16-7.05,4-13.61,7.5-19.8,3.37-5.98,7.06-12.09,11.86-17.05,2.6-2.69,5.56-4.92,9-6.45,.26-.12,.46-.31,.61-.55,.03-.03,.07-.05,.09-.07,.79-.79,.62-1.85,0-2.65-1.28-1.65-2.1-3.71-2.41-5.77-.27-1.81-.18-3.98,1.13-5.24,1.08-1.04,2.86-1.29,4.31-.89,1.68,.47,3.11,1.72,4.08,3.18,1.44,2.19,2.04,4.77,2.5,7.32,.13,.74,.83,1.24,1.56,1.34,.25,.2,.56,.35,.97,.41,.75,.11,1.77-.06,2.12-.86l.04-.09c.27-.61,.29-1.29,.01-1.84,.34-.89,1.29-1.73,1.85-2.36,.96-1.06,1.97-2.11,3.17-2.91,2.01-1.34,4.96-2.25,7.04-.54,4.83,3.97-5.44,9.53-8.18,10.97-1.32,.69-1.1,2.19-.24,2.97,.07,.66,.48,1.25,1.33,1.45,9.31,2.12,14.9,11.19,19.76,18.64,5.82,8.92,11.28,18.37,13.9,28.77,2.41,9.53,1.92,19.58-2.44,28.49-2.02,4.12-4.69,7.89-7.95,11.11-3.48,3.43-7.52,5.89-11.84,8.11-5.05,2.6-10.28,5.21-13.77,9.85-3.21,4.26-4.59,9.67-2.45,14.7,.12,.27,.32,.47,.56,.62-.25,1.2,.15,2.48,1.56,2.8,.19,.04,.36,.04,.53,.02,10.82,15.63,30.26,23.05,41.29,38.67,3.22,4.56,5.61,9.73,6.18,15.33,.1,1.01,.79,1.88,1.88,1.88,.94,0,1.98-.86,1.88-1.88-2.26-22.51-24.84-33.16-39.73-46.74-3.32-3.03-6.35-6.32-8.83-10.03,.91,.09,1.79,.17,2.71-.16,1.77-.64,2.74-2.3,3.54-3.9,.87-1.73,1.69-3.73,3.85-4.05,2.42-.36,4.94,.92,7.13,1.77,5.41,2.11,11.03,3.66,16.76,4.6,5.26,.86,11.07,1.8,16.1-.48,4.56-2.07,7.95-6.25,11.2-9.93,1.7-1.92,3.34-3.9,4.77-6.03,1.46-2.18,2.48-4.47,3.42-6.92,.14-.37,.27-.89,.65-1.09,.43-.22,1.57,.16,2.1,.06,.95-.18,1.71-.78,2.2-1.6,1.09-1.84,.75-4.2,.02-6.1ZM53.92,53.89c-2.67-.36-4.89-2.44-5.91-4.85-.51-1.21-.75-2.58-.58-3.89,.18-1.38,1.18-2.85,.3-4.19-.35-.53-.9-.83-1.51-.94-.67-.12-1.51,.3-2.13,.1-1.17-.39-.77-2.9-.7-3.8,.3-3.86,1.25-7.72,2.77-11.27,.29-.67,.46-1.48,1.17-.79,.56,.54,.82,1.27,1.21,1.92,.68,1.1,1.85,2.26,3.22,2.34,1.46,.08,2.57-1.12,2.62-2.54,.06-1.64-.96-3.32-1.41-4.86-.4-1.37-2.77-9.92,.05-9.97,1.42-.02,1.16,3.68,1.15,4.59-.02,1.73-.08,3.48,.41,5.16,.82,2.85,2.86,5.11,4.78,7.28,1.86,2.1,4,4.39,4.11,7.36,.01,.3,.11,.55,.26,.74-3.78,5.55-7.19,11.45-9.8,17.62Zm121.44,63.96c-.05,.36-.15,.85-.41,1.12-.49,.52-1.14,.19-1.77,.18-2.6-.04-3.1,2.48-3.88,4.42-1.99,4.94-5.72,8.97-9.26,12.85-3.51,3.84-7.28,7.68-12.77,8.06-5.58,.39-11.51-.9-16.89-2.27-2.77-.71-5.51-1.56-8.2-2.55-2.4-.88-4.74-2.04-7.29-2.38-2.48-.34-4.83,.34-6.39,2.38-1.2,1.57-1.66,3.88-3.14,5.21-.93,.83-2.06,.53-3.2,.42-.32-.03-.65-.04-.97-.03-.21-.38-.44-.75-.64-1.14-.09-.18-.21-.32-.33-.45-.69-3.74,1.38-7.73,3.88-10.39,3.54-3.77,8.51-5.84,13-8.21,4.31-2.27,8.22-5.12,11.58-8.51,2.5,2.91,5.27,5.58,8.3,7.93,.27,.21,.62,.26,.88,0,.22-.21,.27-.68,0-.88-3.04-2.36-5.82-5.04-8.32-7.96,2.98-3.19,5.5-6.82,7.41-10.87,.12-.25,.23-.51,.34-.76,4.12,7.44,11.45,12.45,17.78,17.91,.61,.52,1.49-.36,.88-.88-6.49-5.6-14.05-10.69-18.03-18.51,2.29-5.67,3.3-11.66,3.13-17.69,4.93,.72,8.58,4.82,11.43,8.59,1.57,2.07,3.07,4.21,4.81,6.16,1.8,2.02,3.88,3.67,6.14,5.13,4.15,2.66,9.35,5.08,11.32,9.94,.39,.97,.72,2.12,.57,3.17Z"/></g><path class="c" d="M106.1,48.57c.26-.68,.38-1.45,.34-2.18-.02-.4-.07-.81-.17-1.2-.09-.35-.2-.73-.41-1.02-.35-.49-.86-.86-1.49-.85-.49,0-.99,.22-1.31,.59-.52,.58-.68,1.3-.86,2.03-.21,.83-.45,1.7-.01,2.51,.24,.44,.69,.78,1.18,.9,.52,.12,1.03,.03,1.51-.2,.73-.35,1.16-1.15,1.27-1.92,.1-.66,.17-1.35-.08-2-.18-.47-.45-.9-.9-1.16-.53-.29-1.19-.27-1.71,.04-.89,.53-.98,1.63-.78,2.55,.14,.64,.92,1.07,1.54,.87,.68-.22,1.02-.85,.87-1.54-.02-.07-.03-.15-.04-.22l.04,.33c-.02-.15-.02-.3,0-.46l-.04,.33c.01-.08,.03-.16,.07-.24l-.13,.3s.04-.07,.06-.1l-.2,.25s.07-.08,.11-.11l-.25,.2s.07-.04,.11-.06l-.3,.13s.08-.02,.12-.03l-.33,.04s.07,0,.11,0l-.33-.04s.07,.01,.1,.03l-.3-.13s.08,.04,.12,.07l-.25-.2s.07,.07,.1,.11l-.2-.25c.06,.08,.1,.16,.14,.25l-.13-.3c.05,.14,.09,.29,.11,.44l-.04-.33c.04,.29,0,.58-.03,.87l.04-.33c-.03,.21-.08,.42-.16,.62l.13-.3c-.05,.11-.1,.2-.17,.3l.2-.25c-.05,.06-.11,.12-.17,.17l.25-.2c-.08,.06-.16,.1-.25,.14l.3-.13c-.07,.03-.15,.05-.23,.06l.33-.04c-.08,0-.15,.01-.23,0l.33,.04c-.06,0-.11-.02-.17-.04l.3,.13c-.06-.03-.1-.05-.15-.09l.25,.2s-.07-.07-.1-.11l.2,.25s-.05-.09-.08-.14l.13,.3c-.03-.07-.04-.13-.06-.2l.04,.33c-.02-.13-.01-.25,0-.38l-.04,.33c.05-.35,.15-.68,.24-1.02,.08-.32,.14-.65,.27-.96l-.13,.3c.05-.12,.11-.23,.19-.34l-.2,.25c.06-.07,.11-.14,.19-.19l-.25,.2s.07-.04,.11-.06l-.3,.13s.07-.03,.11-.03l-.33,.04s.08,0,.12,0l-.33-.04s.09,.02,.13,.04l-.3-.13s.08,.04,.12,.07l-.25-.2s.07,.07,.1,.1l-.2-.25c.06,.08,.11,.17,.15,.26l-.13-.3c.12,.31,.19,.64,.24,.96l-.04-.33c.05,.41,.05,.82,0,1.23l.04-.33c-.05,.34-.14,.68-.26,1.01-.11,.29-.02,.71,.13,.96s.45,.51,.75,.57c.32,.07,.68,.06,.96-.13s.45-.43,.57-.75h0Z"/></g></g></svg>