<?xml version="1.0" encoding="UTF-8"?><svg xmlns="http://www.w3.org/2000/svg" viewBox="0 0 115.56 397.02"><defs><style>.c{fill:#f4bcb8;}.d{fill:#998f8f;}.e{fill:#332a29;}.f{fill:#8c8281;}.g{fill:#d89c9a;}.h{fill:#231f20;}.i{fill:#5b4f4f;}.j{fill:#493f3f;}.k{fill:#776e6d;}</style></defs><g id="a"/><g id="b"><g><g><path class="k" d="M112.9,240.13c-.13-.48-.32-.96-.54-1.44-.3-2.07-.74-4.1-1.39-6.07,.04-.15,.08-.31,.1-.47,.34-2.82-.26-5.61-1.57-8.11-.22-.42-.51-.69-.84-.85-.39-4.61-1.49-9.25-2.34-13.9-1.67-9.09-3.64-18.12-5.86-27.1-.8-3.24-2.65-5.34-4.92-6.47-.04-.05-.07-.11-.12-.16-2.76-3.12-5.94-5.84-9.42-8.11-3.7-3.44-7.46-6.8-11.3-10.08-.84-.72-1.78-.67-2.45-.22l-.18-.15c-.17-.14-.34-.24-.52-.32,.5-1.15-.16-2.65-1.77-2.8-4.74-.46-9.49-.16-14.16,.79-.42,.09-.73,.27-.96,.51-1.53-.18-3.07-.23-4.55-.16-.61,.03-1.22,.09-1.84,.16-1.56-.3-3.08-.52-4.71-.11-.07,.02-.12,.04-.18,.06-3.55-1.49-7.65-1.26-10.69,1.91-.92,.22-1.84,.54-2.75,.94-.57,.25-1.1,.58-1.6,.94-3.11,.78-5.63,3.02-6.93,5.91-.86,.58-1.69,1.19-2.52,1.83-2.3,1.78-4.17,3.74-5.58,5.89-1.38,.97-2.73,1.93-4.04,2.91-4.86,3.64-6.43,8.72-3.77,14.37,5.22,11.06,9.58,22.44,13.25,34.1,.1,.33,.22,.65,.35,.97-.07,.32-.07,.65-.01,1.01,.31,2.01,.62,4.02,.93,6.04,.04,.24,.18,.49,.37,.71-.16,3.02-.16,6.02-.15,8.89,.02,8.78,1.05,17.53,2.69,26.14,0,.01,0,.02,0,.03-.02,.32-.04,.64-.03,.98,.37,20.42,.84,41.02-1.09,61.4-1.7,1.38-3.06,3.29-3.94,5.49-1.84,4.59-3.2,10.45-5.86,14.6-1.96,3.07-4.99,5.14-6.04,8.98-.25,.9-.37,1.77-.4,2.61-.17,.09-.33,.19-.46,.31-.72,.63-1.05,1.45-1.05,2.29-.8,.69-1.13,1.92-.15,2.86,2.9,2.78,5.65,5.71,8.24,8.75,2.12,3.04,4.23,6.08,6.36,9.11,1.34,1.9,2.67,3.74,4.2,5.34,.62,.99,1.23,1.99,1.82,3.01,.68,1.16,1.94,1.16,2.81,.58,.96,.5,2,.91,3.14,1.2,4.39,1.12,9.36,1.18,13.86,1.08,4.06-.09,8.11-.48,12.14-1.05,.28,.15,.59,.24,.91,.22,6.09-.46,12.2-.6,18.31-.43h.03c.08,0,.16,0,.23,0,1.06,.03,1.68-.63,1.86-1.42,3.08-4.44,6.24-8.82,9.46-13.16,2.8-3.47,6.34-7.04,8.75-10.98,.1-.09,.22-.18,.32-.27,.62,.21,1.35,.14,1.97-.41,.38-.33,.64-.75,.81-1.2,.8-.26,1.54-1.02,1.44-1.9-1.08-9.03-1.49-18.35,.88-27.22,1.22-4.56,3.32-8.77,4.97-13.17,1.62-4.33,2.78-8.83,3.47-13.4,.79-5.22,1.01-10.48,.61-15.75-.04-.5-.22-.89-.49-1.2,.61-8.67,1.22-17.34,1.84-26.01,.55-7.8,1.34-15.75,1.07-23.61,.43-1.69,.5-3.43,0-5.24Z"/><g><path class="i" d="M18.42,211.93c-.23-.58-.47-1.15-.73-1.72-.32-.69-.68-1.35-1.06-2-.18-.35-.38-.7-.6-1.04-.27-.43-.57-.84-.88-1.24-.32-.44-.64-.87-.98-1.3-1.36-1.73-2.8-3.45-3.58-5.53-.19-.49-.87-.4-.98,0-.41-.37-1.03,.28-.65,.76,1.04,1.28,2.07,2.57,3.11,3.85-.15,.14-.21,.35-.07,.57,.57,.86,1.14,1.72,1.71,2.58,.35,.94,.77,1.86,1.27,2.74,.02,.03,.05,.05,.07,.08,.18,.35,.35,.69,.53,1.04-.28,.32-.34,.78-.14,1.17,1.17,2.21,2.34,4.42,3.51,6.63,.01,.05,0,.1,.02,.16,.25,.66,.47,1.33,.71,1.99-.04,.37,0,.73,.08,1.08-.1,.44-.17,.88-.21,1.33-.15,.22-.22,.5-.18,.84,.02,.13,.04,.26,.06,.4h0l.03,.1c0,.06,.02,.12,.03,.19,0,.83,.02,1.66,.03,2.46,.02,2.26,.15,4.51,.37,6.76,.04,.38,.48,.59,.77,.44,.82,15.67,1.64,31.34,2.46,47.01,.22,4.15,.43,8.3,.65,12.45-.11,.08-.18,.2-.17,.38,.18,2.72,.31,5.45,.41,8.18-.22,4.96-.43,9.91-.65,14.87-.02,.47,.17,.83,.46,1.08-.06,1.41-.13,2.83-.19,4.24-.24,.82-.62,1.57-1.29,2.16-.48,.43,.23,1.13,.71,.71,.11-.1,.21-.21,.31-.31-.48,1.06-.97,2.11-1.48,3.16-.21,.43-.1,.83,.14,1.12-.61,1-1.25,1.99-1.89,2.96-.2,.31-.2,.61-.09,.85-2,3.61-4.15,7.14-6.29,10.66-.67,1.1,1.06,2.11,1.73,1.01,3.08-5.05,6.17-10.16,8.83-15.46,3.08-5.3,5.44-10.87,6.6-17.01,.41-2.18,.73-4.39,1-6.6,1.79-7.74,2.78-15.67,3-23.63,.46-16.52-2.41-33.03-7.64-48.67-2.46-7.34-5.44-14.5-8.83-21.46Zm12,41.86s.05-.02,.07-.03c0,.12,0,.25-.01,.37-.02-.11-.04-.22-.06-.33Zm-2.72,28.85c-.05,.09-.09,.18-.12,.28,.02-.66,.03-1.33,.05-1.99,.03,.57,.05,1.14,.07,1.71Zm2.01-32.91v0h0Z"/><path class="i" d="M111.34,290.98c.04-.22-.04-.39-.18-.5,.05-.9,.1-1.8,.12-2.7,.02-.64-.98-.64-1,0-.04,1.45-.11,2.91-.2,4.36-2.2,10.64-4.54,21.34-8.1,31.61-.41,.68-.82,1.36-1.26,2.03-1.39,2.12-2.79,4.21-3.95,6.46-2.24,4.35-3.73,9.08-4.38,13.93-.71,5.26-.41,10.64-1.39,15.87-1.07,3.77-2.31,7.49-4.01,11.03-1.06,2.21-2.31,4.31-3.66,6.36-1.38,2.11-2.79,4.22-4.29,6.24-3.19,4.27-7.38,7.55-12.45,9.25-.61,.2-.35,1.17,.27,.96,.98-.33,1.93-.72,2.85-1.16-.04,.17-.05,.36-.03,.56,.09,.66,.73,1.39,1.47,1.3,.14-.02,.26-.05,.4-.07v.02s.04-.02,.06-.03c1.4-.24,2.67-.73,3.79-1.47,.63,.4,1.56,.33,2.14-.44l.41-.55c.29-.39,.34-.77,.24-1.1,.4,.08,.84-.04,1.21-.47,4.74-5.42,9.29-11,13.63-16.75,1.63-2.16,3.38-4.22,3.95-6.81,.96,.66,2.7-.14,2.34-1.63l-.14-.57c.43-.32,.7-.85,.56-1.53-1.44-6.95-1.3-14.19,.37-21.07,.06-.11,.11-.22,.15-.35,.31-1.06,.58-2.14,.87-3.2,.06-.19,.11-.39,.18-.58,.03-.1,.07-.21,.1-.31,.08-.25,.18-.49,.27-.74,.36-.99,.75-1.98,1.19-2.95,.26-.58,.14-1.14-.16-1.56,.15-.63,.3-1.26,.45-1.89,1.51-2.56,2.76-5.25,3.76-8.03,.3-.17,.54-.45,.66-.87,1.76-6.28,2.83-12.75,3.2-19.26,.04-.63-.43-1.19-.99-1.4,.62-3.55,1.07-7.14,1.31-10.73,.09-.42,.18-.84,.26-1.25Zm-5.57,23.89c.02,.08,.05,.16,.09,.23-.27,.82-.56,1.62-.86,2.42,.14-.48,.31-.95,.44-1.44,.12-.4,.22-.81,.33-1.22Zm3-11.89h0Z"/><path class="i" d="M99.33,190.54c.16,.84,.35,1.67,.58,2.49,.01,.07,.03,.13,.05,.2,0,.02,.02,.04,.03,.06,.32,1.12,.71,2.22,1.16,3.29,0,.13,.03,.27,.04,.4,.02,.23,.16,.38,.33,.44,.2,.44,.41,.87,.63,1.3,.26,.5,1.09,.16,.91-.39-.33-1.04-.68-2.07-1.04-3.09-.35-3.46-1.05-6.87-2.1-10.17l-.94-4.09c-.33-1.45-.65-2.89-1.64-4.05-.21-.25-.5-.19-.68,0-.86-1.32-1.87-2.53-3.12-3.55-.27-.22-.59-.11-.76,.09-.86-.96-1.81-1.86-2.88-2.66-.51-.39-1.01,.48-.5,.86,5.98,4.49,8.26,11.84,9.94,18.87Zm-3.45-12.97c-.02,.1-.02,.2,.02,.31-.34-.61-.7-1.19-1.08-1.77,.38,.47,.74,.96,1.06,1.46Z"/></g><g><path class="j" d="M26.23,238.26c-1.83-7.24-4.23-14.31-7.14-21.18-.5-1.18-2.22-.16-1.73,1.01,.35,.82,.67,1.66,1,2.49,0,.11,0,.21,.03,.33,.88,2.89,1.68,5.8,2.43,8.72-.13,.16-.22,.35-.21,.62,.6,17.77,1.44,35.54,2.51,53.29,.06,1.05,.14,2.1,.2,3.15-.07,1.31-.13,2.62-.17,3.93,0,.37,.19,.63,.46,.8-.13,1.6-.21,3.2-.24,4.8-.22,.16-.38,.41-.36,.78,.19,4.03,.39,8.06,.58,12.09,.02,.38,.21,.63,.47,.79-.23,1.35-.47,2.7-.73,4.04-.28,1-.55,2-.85,2.99-.09,.31-.04,.57,.09,.78-.04,.2-.08,.41-.12,.61-.27,1.25,1.66,1.79,1.93,.53,.31-1.46,.61-2.92,.89-4.39,6.95-24.74,7.25-51.26,.95-76.17Zm-.81,62.31c-.01-.33-.02-.67-.03-1h0c0,.14,.04,.26,.09,.36-.02,.21-.05,.42-.07,.63Zm2.56-40.9c.49,4.75,.74,9.52,.77,14.29-.08-4.77-.34-9.54-.77-14.29Z"/><path class="j" d="M109.56,317.86c.18-1.26-1.75-1.8-1.93-.53-.35,2.46-1.13,4.77-2.07,7.03-2.31,2.07-4.22,4.49-5.45,7.37-1.36,3.2-1.94,6.65-2.58,10.05-1.25,6.63-1.82,13.45-3.42,20-3.71,9.32-8.73,18.1-13.73,26.79-.64,1.12,1.08,2.13,1.73,1.01,.88-1.53,1.76-3.07,2.64-4.61,.16-.07,.31-.19,.43-.36,1.92-2.84,3.79-5.73,5.46-8.72,.41,.37,1.18,.45,1.62-.13,.23-.29,.43-.6,.65-.9,.36-.04,.7-.24,.87-.65,.08-.19,.15-.39,.23-.58,.23-.05,.46-.19,.62-.46,.98-1.87,3.16-2.71,3.89-4.78,.34-.98,.37-2.04,.43-3.07,.24-1.49,.34-3,.28-4.52-.01-.33-.15-.57-.34-.74-.05-1.58-.03-3.17,.03-4.75,.19-1.03,.36-2.06,.52-3.1,.05-.36-.06-.65-.25-.86,.4-3.95,1.16-7.87,2.29-11.69,1.13-3.83,2.69-7.45,4.38-11.06,.47-1,.93-2.01,1.37-3.03,.13-.11,.25-.23,.38-.34,.39-.33,.4-.75,.2-1.09,.8-2.02,1.44-4.09,1.75-6.26Z"/></g><path class="f" d="M95.3,262.17c-1.9-25.01-6.99-51.22-17.53-74.13-2.22-4.82-5.82-9.11-10.96-10.89-1.4-.48-2.8-.76-4.2-.89-3.93-2.28-8.43-3.33-13.33-2.29-6.49,1.38-15.27,5.83-19.98,10.65-7.21,7.38-2.9,15.9,.13,23.97,2.85,7.6,5.59,15.23,8.1,22.95,4.99,15.36,9.28,31.18,11.16,47.25,.54,4.63,.91,9.27,1.07,13.91-1.13,8.83-3.1,17.43-5.68,25.99-5.25,8.57-10.52,17.12-15.68,25.74-3.51,5.86-5.79,12.7-2.32,19.17,3.05,5.68,9.55,8.43,15.27,10.62,25.67,9.82,42.07-20.56,47.99-40.71,6.67-22.72,7.74-47.86,5.96-71.35Zm-38.98,84.74s.02-.09,.07-.23c.08,.1,.06,.18-.07,.23Z"/><path class="d" d="M77.68,223.38c.52-1.41,.55-3.08-.15-4.97-.7-1.89-1.41-3.78-2.11-5.67-1.37-6.03-2.88-12.02-4.48-17.96-.82-3.02-4.31-6.32-7.71-5.87-1.5,.2-2.97,.47-4.41,.83-4.83-.48-9.92,1.62-13.28,5.41-6.71,7.57-3.89,17.79-1.64,26.52,2.47,9.58,4.83,19.19,6.9,28.86,4.1,19.16,7.04,38.62,7,58.26,0,3.17-.08,6.5-.47,9.77-2.12,6.96-5.3,13.57-9.86,19.61-1.16,1.24-2.32,2.48-3.41,3.78-.77,.72-1.41,1.54-1.9,2.43-.37,.45-.67,.91-.92,1.39-.8,1.29-1.51,2.68-2.09,4.22-1.13,3.03,.7,7.65,3.68,9.03,4.28,1.98,9.33,5.39,14.13,5.42,5.26,.03,8.29-3.77,10.68-7.96,4.76-8.37,8.5-17.45,11.05-26.74,2.58-9.43,3.93-19.1,4.11-28.8,.29-3.26,.51-6.52,.67-9.76,1.09-22.71-1.33-45.47-5.76-67.79Z"/><path class="e" d="M92.69,169.96c-9.03-13.4-17.69-27.03-25.98-40.9-2.35-3.93-4.67-7.88-6.96-11.85-.5-.87-1.55-.48-1.78,.26l-.31-.32s-.04-.06-.05-.1l1.6-1.25c.8-.63,1.68-1.24,2.42-1.96,.01-.01,.03-.03,.04-.04,.07-.07,.14-.13,.21-.2,.08-.08,.15-.18,.22-.28,.16-.19,.33-.38,.47-.59,.55-.84,.79-1.88,.4-2.78-.11-.53-.35-1.03-.72-1.47-.18-.42-.7-.62-1.18-.52-.52-.15-1.01-.35-1.49-.65-.58-.36-1.12-.06-1.35,.42-.58-.45-1.28-.16-1.56,.33-.38-.19-.76-.38-1.14-.57-.23-.11-.44-.13-.64-.09-.13-3.09-.25-6.17-.35-9.26,.03-.11,.06-.23,.05-.37-.01-.25-.02-.51-.03-.76,.2-.16,.33-.4,.31-.75-.28-4.52-.36-9.05-.27-13.57,.39-.1,.72-.4,.74-.92,.72-18.38,1.51-36.77,2.37-55.14,.24-5.24,.5-10.48,.75-15.72,.03-.7-.55-1.01-1.09-.94,.01-1.2,0-2.4-.05-3.6,.02-.17,.03-.34,.05-.5,.07-.65,.06-1.34-.14-1.95,.28-.07,.55-.15,.83-.22,1.24-.33,.72-2.26-.53-1.93-.75,.2-1.49,.39-2.24,.59-.71-.05-1.4,.25-1.82,.91-.34,.54-.03,1.19,.5,1.42,0,.12-.01,.23-.02,.35-.17,.12-.29,.3-.32,.54v.05c-.04,.09-.08,.18-.09,.3l-.08,.95c-.58,4.31-.97,8.64-1.16,12.98-.58,4.11-.94,8.24-1.05,12.39,0,.27,.07,.47,.2,.62-.09,.1-.15,.22-.2,.34-.04,0-.08-.03-.12-.02-.55,.02-.99,.44-1,1l-.02,2.29c0,.5,.38,.92,.87,.98,.15,.02,.29,0,.43-.04-.23,2.85-.44,5.7-.58,8.56-.14,2.54-.23,5.09-.29,7.63-.02,.06-.06,.11-.07,.18-1.29,8.24-1.71,16.58-1.21,24.9,.03,.42,.25,.69,.53,.84,.03,1.47,.07,2.94,.12,4.41-.01,1.38,0,2.75,0,4.13-.05,1.09-.04,2.18,.04,3.26,0,.35,0,.7,.01,1.05,0,.19,.06,.35,.14,.49,.07,.5,.15,1.01,.24,1.51,.03,.14,.08,.26,.15,.35,.15,1.96,.32,3.92,.51,5.87,.15,1.77,.29,3.55,.44,5.32,.05,.64,.58,.96,1.08,.96,.03,.22,.07,.45,.1,.67l-.12-.1c-.53-.44-1.17-.24-1.5,.17-.21-.17-.41-.34-.62-.52-.27-.22-.56-.28-.83-.23-1.17-.21-2.39,.33-3.28,1.09-.46-.26-.92-.51-1.39-.74-.94-.48-1.69,.47-1.39,1.23-.31,.35-.41,.94-.11,1.38-.49,.31-.74,1.09-.27,1.61l.24,.26c.06,.25,.2,.47,.37,.66-.08,.29-.03,.62,.25,.91,.71,.73,1.46,1.4,2.25,2.03l.58,.53c-.88,1.21-1.76,2.43-2.63,3.64-4.52,5.27-8.6,10.9-12.19,16.85-.33,.54-.1,1.03,.29,1.28-.68,1.01-1.35,2.02-2.03,3.04-.18,.26-.21,.52-.15,.73-5.13,7.5-10.26,15-15.39,22.5-.2,.29-.22,.57-.13,.8-.02,.02-.04,.03-.06,.04l-.16,.2c-.09,.16-.14,.32-.14,.5v.3c0,.14,.02,.27,.09,.39,0,.02,.02,.02,.03,.04-1.33,.86-2.48,1.95-3.44,3.25-.29,.39-.12,.92,.21,1.25-.04,.02-.09,.02-.14,.04l-.2,.16c-.12,.12-.21,.27-.26,.44l-.04,.27c0,.18,.05,.35,.14,.5l.15,.3c.06,.12,.15,.21,.26,.28,.1,.09,.21,.15,.34,.18,.13,.04,.27,.05,.4,.02,.13,0,.26-.05,.37-.12l.2-.16c.12-.12,.21-.27,.26-.44l.04-.27c0-.18-.05-.35-.14-.5l-.13-.26c.2-.02,.4-.09,.58-.26,.3-.28,.59-.57,.89-.84,.26,.03,.53-.04,.77-.3l.44-.49c1.6-1.15,2.94-2.61,3.97-4.37,.01-.02,.01-.04,.02-.06,1.75-1.9,3.44-3.87,5.05-5.91,.48-.61,.17-1.38-.36-1.65,6.56-9.8,13.12-19.61,19.69-29.41,.31,.08,.64,.04,.91-.25l3.7-4.09c.45-.5,.27-1.12-.11-1.46,.47-.74,.95-1.48,1.42-2.21,.19-.29,.16-.6,.04-.87,.18-.27,.37-.55,.55-.82,.09,.08,.16,.18,.25,.26,.48,.45,1.03,.35,1.36,0,.09,.04,.17,.09,.26,.13-.12,.15-.19,.34-.17,.6l.04,.52c-.04,.1-.08,.21-.08,.33-.42,10.34-.84,20.68-1.26,31.02-.79,.21-1,1.52-.08,1.89v.2c-.05,1.13,1.47,1.27,1.89,.42,.47,.15,.93,.3,1.4,.44,.44,.14,.89-.1,1.13-.46,.03-.05,.05-.1,.07-.15,.76-.14,.98-.98,.59-1.53,0-.17-.03-.35-.09-.55,.05-.3,.08-.6,.08-.89,.07-7.29-.19-14.6-.28-21.89,0-.38-.18-.63-.42-.79,.1-2.73-.08-5.45-.52-8.17,.24,.01,.48-.05,.71-.23l.64-.51c-.14,.26-.18,.58-.02,.93,1.24,2.78,2.65,5.48,4.23,8.09,.32,.53,.83,.59,1.23,.38,1.68,2.76,3.49,5.46,5.25,8.15,4.18,6.41,8.36,12.81,12.54,19.22,.1,.16,.23,.26,.37,.34,2.91,5.47,6.01,11.02,11.22,14.38,.11,.07,.21,.1,.31,.13,.13,.2,.26,.4,.39,.59,.72,1.06,2.45,.06,1.73-1.01Zm-32.16-57.93s-.02,.04-.02,.06c0,.03-.01,.05-.02,.08-.01,.01-.02,.02-.03,.04-.02-.03-.02-.05-.04-.08-.02-.03-.04-.05-.07-.08,.06,0,.12,0,.18-.02Z"/><g><path class="c" d="M71.74,227.48c-.82-.05-1.29,.46-1.41,1.08-.09,.02-.17,.03-.27,.06-.24,.07-.43,.18-.6,.31-.36-.39-1.03-.59-1.5-.42-.42,.16-.75,.4-1.01,.69-.78-.5-1.91-.32-2.23,.8-.05,.16-.07,.32-.11,.49-.69-1.05-1.75-1.82-3.29-2.07-2.75-.46-7.05-.12-9,2.17-1.92,2.25-1.34,5.76-.5,8.33,.5,1.55,1.21,3.34,2.3,4.59,.51,.6,1.27,.93,1.98,.92,.34,.71,.76,1.37,1.33,1.95,.47,.47,1.1,.49,1.62,.27,.1,.16,.21,.32,.32,.47,.56,.75,1.88,.88,2.49,.26,.59,.62,1.52,.7,2.14,.12,.1,.07,.19,.16,.3,.22,.63,.35,1.66,.18,2.05-.48,.68,.71,2.09,.42,2.41-.51,.54,.22,1.2,.14,1.65-.31,.27-.27,.47-.58,.61-.92,.99,.19,1.95-.54,2.26-1.51,.14-.43,.19-.88,.2-1.35,.19,.03,.39,.05,.61,.03,.88-.08,1.4-.63,1.5-1.5,.04-.36,.05-.71,.05-1.07,.52,.04,1.04-.16,1.31-.72,1.14-2.42,1.36-5.16,.32-7.67-.97-2.32-2.96-4.05-5.52-4.21Zm2.62,12.29s.01,.06,0,0h0Z"/><path class="c" d="M80.15,216.44c-.14-.8-1.5-1.02-1.83-.24-.32,.76-.57,1.53-.78,2.32-.44,.06-.83,.36-.83,.94,0,.34,0,.69,0,1.03-.37,.13-.67,.43-.66,.9,0,.1,0,.2,.01,.31-.42,.19-.75,.72-.56,1.18,.26,.66,.56,1.28,.95,1.87,.1,.15,.23,.26,.36,.33,0,.01,0,.02,.02,.04,.5,.86,1.86,.48,1.86-.5v-.48c.44-.09,.82-.41,1.03-.82,.25-.48,.34-1.07,.44-1.6,.1-.58,.18-1.16,.21-1.75,.08-1.18-.02-2.37-.23-3.53Z"/><path class="c" d="M61.58,219.39c-.04,.15-.04,.31,0,.49,.18,.67,.51,1.25,.96,1.77,.32,.37,.95,.37,1.31,.08,.08-.06,.12-.13,.18-.2,.06-.02,.12-.04,.18-.07,.29,.27,.69,.38,1.07,.21,.41-.18,.77-.71,.58-1.18l-.15-.38c.33-.16,.59-.45,.72-.82,.17-.49,.16-1.08,.19-1.59,.05-1.14-.02-2.28-.18-3.41-.13-.93-.38-2.21-1.52-2.38-.57-.09-1.02,.14-1.23,.7-.46,1.26-.79,2.55-1.02,3.87-.07,.08-.13,.17-.17,.27-.3,.15-.52,.43-.53,.78-.02,0-.04,0-.06,.01-.43,.19-.74,.7-.58,1.18,.08,.23,.16,.45,.24,.68Zm3.04-2.37v-.09s0,.06,0,.09Zm-.33-3.31h0Z"/><path class="c" d="M51.76,225.53c.32-.04,.63-.22,.79-.48,.3-.51,.07-1.04-.36-1.37-.3-.22-.49-.66-.6-1.03-.2-.66-.25-1.34-.37-2.02-.11-.63-.26-1.26-.45-1.87-.2-.63-.39-1.31-.82-1.82-.49-.58-1.34-.73-1.94-.24-.59,.48-.62,1.31-.6,2.02,.04,1.29,.36,2.6,.72,3.83,.39,1.34,.97,2.63,1.93,3.66,.37,.39,1.04,.37,1.41,0,.2-.2,.29-.45,.28-.69Z"/></g><path class="c" d="M108.45,307.81c-1.13-.38-2.21-.09-3.34,.18-1.32,.31-2.65,.59-3.98,.86-5.12,1.02-10.28,1.71-15.47,2.2-5.98,.56-11.98,.86-17.98,1.07-.66,.02-1.19,.25-1.58,.59-1.09-.2-2.22-.3-3.29-.47-2.5-.41-5.01-.81-7.51-1.22-.55-.09-1.1-.04-1.59,.14l-1.43-.37c-2.08-.54-4.17-1.21-6.29-1.51-1.8-.26-3.78,.32-5.51-.16-1.77-.49-3.11-1.56-5.04-1.54-.54,0-1.01,.19-1.39,.47-1.47-.94-3.01-1.79-4.6-2.33-.75-.26-1.56-.32-2.31-.16-.5-1.25-1.67-2.12-3.07-1.73-1.2,.33-2.24,1.81-1.75,3.08,.61,1.56,1.22,3.12,1.83,4.68,.69,1.75,2.7,2.47,4.18,1.1,.09-.09,.17-.18,.25-.28,2.04,1.15,4.26,1.97,6.58,2.32,.48,.07,.91,.03,1.3-.08,1.61,.41,3.24,.79,4.87,1.13,.03,0,.05,0,.08,0,.15,.07,.32,.12,.5,.16,4.7,.92,9.43,1.64,14.19,2.16,2.27,.25,4.54,.44,6.82,.59,2.05,.13,4.09,.48,5.9-.41,.97,.31,2,.45,3,.49,2.53,.09,5.1-.14,7.63-.22,.25,0,.47-.05,.68-.12,1.64,0,3.29-.09,4.93-.18,2.52-.13,5.04-.23,7.55-.41,5.23-.38,10.24-1.39,15.02-3.61,1.17-.54,2.34-1.26,2.76-2.57,.5-1.59-.3-3.31-1.9-3.85Zm-1.22,4.85c.07,0,.07,.02,0,0h0Z"/><g><path class="g" d="M31.16,306.31c-.35-.46-1.06-.53-1.48-.12-.12-.15-.29-.26-.5-.34-.61-.24-1.12,.12-1.42,.6-.06-.15-.1-.31-.16-.46-.15-.37-.5-.79-.96-.73-.21,.03-.4,.08-.58,.15-.05-.14-.09-.28-.15-.41-.15-.36-.65-.53-1-.48-.38,.06-.73,.33-.83,.72-.39,1.55-.53,3.17-.38,4.76,.09,.87,.22,1.74,1.1,2.16,.59,.28,1.26,.43,1.91,.55,.11,.43,.52,.76,.95,.76s.76-.26,.91-.61c.14,.12,.3,.2,.49,.23,.15,.02,.31-.01,.47-.07,.12,.07,.25,.13,.38,.14,.5,.06,.95-.23,1.1-.72,.52-1.68,.82-3.42,.9-5.18,.02-.45-.33-.83-.74-.95Z"/><path class="g" d="M109.76,308.12c-.05-.36-.45-.65-.82-.71-.11-.24-.31-.42-.6-.49-.48-.11-1.14,.15-1.23,.7-.17,1.04-.45,2.06-.82,3.05-.18,.48-.32,.79-.58,1.31-.24,.47-.5,.93-.78,1.38-.19,.3-.18,.71,0,1.01,.19,.33,.5,.45,.86,.5,1.1,.13,1.78-.83,2.25-1.75,.07,.04,.13,.09,.21,.1,.53,.12,1.07-.16,1.23-.7,.42-1.44,.48-2.92,.26-4.39Z"/></g></g><g><path class="h" d="M111.89,224.8c-3.25-14.05-10.29-32.45-11.7-46.2-.03-.33-.19-.57-.41-.73-.04-.15-.12-.29-.26-.42-.59-.57-1.19-1.12-1.79-1.68-9.99-15.5-19.99-30.99-29.98-46.49l-8.22-12.75h0c1.17-1.28,2.37-2.53,3.61-3.73,.15-.15,.23-.34,.26-.54,.21-.18,.35-.44,.37-.75,.11-1.44,0-2.9-.29-4.32-.1-.51-.74-.86-1.23-.7-.04,.01-.06,.04-.09,.05-.14-.09-.29-.15-.49-.16-1.88-.1-3.76-.15-5.64-.17,.29-26.91,.92-53.81,1.95-80.7,.3-7.8,.63-15.61,.99-23.41,.06-1.29-1.94-1.28-2,0-1.24,27.01-2.13,54.04-2.61,81.07-.14,7.67-.24,15.35-.32,23.02-.79,0-1.59,0-2.38,0-1.76-26.64-1.43-53.37,.46-79.99,.54-7.64,1.21-15.26,1.97-22.88,.13-1.28-1.87-1.27-2,0-2.67,26.69-4.1,53.52-3.46,80.34,.18,7.53,.52,15.06,1.02,22.58-2.37,.06-4.75,.16-7.12,.32-.51,.04-.8,.37-.91,.76-.08,.14-.14,.3-.16,.48-.16,1.71-.06,3.43,.25,5.12,.03,.15,.11,.27,.21,.38,.03,.19,.1,.38,.26,.52,.85,.79,1.66,1.62,2.46,2.47-.07,.06-.14,.14-.2,.23-10.16,15.75-20.32,31.5-30.47,47.25-2.77,4.3-5.54,8.59-8.31,12.89-.56,.52-1.12,1.04-1.67,1.56-.14,.13-.21,.28-.26,.42-.21,.16-.37,.4-.41,.73-1.26,12.24,8.9,24.26,13.24,37.23,4.34,12.97,2.87,26.88,3.77,39.1,1.13,15.32,1.73,30.66,1.71,46.01-.07,.14-.11,.29-.09,.49,.03,.29,.05,.58,.08,.88-.02,6.68-.17,13.35-.44,20.03-.56,2.41-1.31,4.78-2.17,7.15-.38,1.05-.78,2.1-1.19,3.15-2.28,4.84-4.91,9.63-7.29,14.46-1.22,1.97-2.45,3.92-3.62,5.92-2.3,3.97-4.28,8.17-5.08,12.72-.03,.16-.02,.31,.02,.45-.13,.32-.1,.69,.21,1.01,8.32,8.58,15.82,17.91,22.4,27.89,.12,.19,.28,.31,.44,.38h0c.08,.03,.16,.06,.25,.07,.06,.01,.11,.04,.17,.05,3.47,.26,6.96,.46,10.45,.59,8.12,.56,16.27,.58,24.4,.06,2.24-.07,4.48-.15,6.72-.25,3.3-.15,6.61-.35,9.89-.76,.35-.04,.59-.23,.75-.48,.26-.03,.52-.17,.71-.45,6.45-9.79,13.79-18.95,21.93-27.39,.54-.08,1.02-.53,.81-1.2-.18-.58-.32-1.18-.46-1.77-1.04-9.98,.72-19.52,3.14-29.01,1.25-3.2,2.76-6.29,3.99-9.5,1.39-3.6,1.9-7.39,2.35-11.2,.42-3.53,.74-7.08,.99-10.63,.35-2.8,.56-5.62,.58-8.49,0-.45,.02-.91,.02-1.36,.1-2.17,.18-4.34,.21-6.51,0-.18-.04-.33-.11-.46,.21-9.41,.65-18.8,1.3-28.19,.85-12.18,1.24-22.68-1.51-34.57ZM24.25,305.67c21.85,6.77,45.14,8.72,67.81,5.7,5.74-.76,11.43-1.86,17.05-3.25-.15,1.69-.32,3.37-.5,5.05-21.69,5.49-44.53,6.26-66.54,2.23-5.91-1.08-11.74-2.53-17.49-4.28-.06-1.82-.18-3.64-.33-5.45Zm63.6-141.53c1.39,2.15,2.77,4.3,4.16,6.45-2.35-2.05-4.74-4.06-7.18-6.01,0-.16-.05-.32-.16-.49-9.6-14.62-19.2-29.23-28.81-43.85,.26,0,.52-.08,.68-.29,.52-.63,1.07-1.23,1.61-1.85,9.9,15.35,19.8,30.69,29.69,46.04Zm-32.09-40.42c8.18,12.45,16.35,24.89,24.53,37.34-3.6-2.73-7.28-5.35-11.04-7.85-.17-.11-.34-.16-.5-.16-.15-.11-.33-.19-.58-.19-3.78,.09-7.55,.2-11.33,.3,0-.01,0-.02,0-.03-.57-9.79-.92-19.6-1.08-29.41Zm-12.12-11.23s0-.05,0-.08c-.04-.2-.07-.4-.1-.6,0-.03-.03-.21-.03-.22,0-.07-.02-.14-.03-.21-.04-.39-.07-.78-.09-1.17-.02-.56,0-1.12,.02-1.68,6.08-.39,12.17-.45,18.25-.14h0s.01,.08,.02,.12v.08c.03,.11,.03,.1,0-.03,.02,.05,.02,.18,.03,.23,0,.08,.02,.16,.02,.23,.02,.17,.03,.34,.04,.51,.04,.61,.03,1.23-.01,1.84-.01,.01-.03,.02-.05,.03-2.22,2.15-4.32,4.44-6.3,6.82l-6.69-.35s-.04,.01-.07,.01c-1.55-1.9-3.23-3.71-5.02-5.39Zm7.89,7.52l1.86,.1,.32,.49c.13,10.85,.5,21.69,1.13,32.53,0,.03,.02,.05,.02,.08-1.34,.04-2.69,.07-4.03,.11,.02-.07,.05-.12,.05-.2,.73-11.02,.94-22.07,.64-33.11Zm-2.6,33.37c-4.66,.14-9.31,.29-13.96,.46-.22-.05-.46-.02-.7,.14-4.2,2.79-8.3,5.73-12.29,8.8,7.29-10.99,14.73-21.88,22.07-32.84,1.85-2.76,3.69-5.54,5.52-8.32,.24,10.5,.02,21-.67,31.48,0,.1,.02,.18,.04,.26Zm-11.18-22.79c2.74-4.26,5.49-8.51,8.23-12.77,.51,.58,1.03,1.15,1.52,1.76,.2,.24,.53,.31,.85,.26-8.08,12.27-16.38,24.39-24.56,36.59-2.3,3.43-4.58,6.86-6.85,10.31-.01,.02-.02,.04-.03,.06-1.87,1.52-3.71,3.07-5.53,4.66,8.79-13.62,17.57-27.25,26.36-40.87Zm-17.69,93.04c-.73-13.68-16.14-30.27-14.77-43.91,.03-.03,.07-.03,.11-.07,9.18-8.8,19.11-16.76,29.69-23.81,11.02-.4,22.04-.73,33.07-.99,.03,.03,.06,.05,.1,.08,10.65,7.08,20.64,15.09,29.87,23.94,.03,.03,.07,.04,.11,.07,2.45,24.36,15.29,51.67,13.5,75.99-.94,12.84-1.51,25.69-1.66,38.54-.15,4.19-.41,8.37-.76,12.55-21.64,5.45-44.42,6.21-66.37,2.19-6.28-1.15-12.49-2.7-18.58-4.6-.1-.03-.18-.03-.27-.03l-.02-.22c.01-2.23,.03-4.46,.01-6.69-.08-12.19-.58-24.36-1.42-36.52-.85-12.18-1.94-24.34-2.59-36.53Zm56.88,170.41c-4.65,.56-9.35,.79-14.05,.91-.11-.04-.24-.06-.39-.05-.49,.04-.98,.06-1.47,.09-1.05,.02-2.1,.04-3.15,.06-7.41,.12-14.83,.06-22.24-.18-.49-.02-.97-.04-1.46-.06-2.63-.21-5.25-.47-7.86-.79-.11-.01-.2,0-.29,.02-6.39-9.59-13.63-18.61-21.63-26.91,.15-1.17,.35-2.33,.6-3.48,2.13-6.87,6.66-12.75,10.19-18.98,.98-1.73,1.85-3.5,2.67-5.3,1.32-2.34,2.37-4.72,2.97-7.2v-.04c1.69-4.5,3.14-9.01,3.59-13.81,.16-1.7,.21-3.4,.2-5.1,21.5,6.47,44.33,8.3,66.59,5.34,5.78-.77,11.51-1.87,17.17-3.28-.34,3.06-.75,6.18-1.77,9.07-.04,.11-.09,.22-.13,.34-1.35,2.57-2.66,5.03-3.14,6.79-.2,.73-.4,1.44-.59,2.15-.12,.3-.25,.59-.37,.89-1.3,3.27-2.4,6.63-3.18,10.06-1.56,6.8-1.9,13.9-.23,20.69,.04,.36,.07,.71,.12,1.07-8.22,8.53-15.64,17.81-22.16,27.7Z"/><path class="h" d="M50.63,230.62c-2.72,5.24,.72,12.49,5.01,15.82,2.49,1.93,5.61,2.82,8.73,2.37,5.81,.85,10.92-3.04,13.24-8.2,1.24-2.77,2-6.08,.93-9.03-1.05-2.89-3.76-4.02-6.62-4.5-2.72-.46-5.69,0-7.54,2.06-1.58-1.75-4.03-2.43-6.4-2.21-2.69,.25-6,1.11-7.35,3.7Zm1.57,1.34c.58-1.4,1.78-2.05,3.16-2.48,2.65-.82,6.32-1.17,7.98,1.59,.25,.42,.66,.53,1.03,.45,.37,.08,.78-.03,1.03-.45,1.67-2.76,5.33-2.41,7.98-1.59,1.39,.43,2.58,1.08,3.16,2.48,.63,1.49,.59,3.23,.25,4.79-1.17,5.45-5.93,10.97-11.95,10.12-.12-.04-.26-.06-.41-.05h-.01s-.04,0-.06,0c-.02,0-.04,0-.06,0h-.01c-.15,0-.28,0-.41,.05-6.02,.86-10.78-4.67-11.95-10.12-.33-1.56-.37-3.29,.25-4.79Z"/><path class="h" d="M51,227.62c.25,.03,.49-.08,.67-.26,.04-.02,.08-.02,.12-.04,2.39-1.32,2.3-4.28,1.3-6.46-.56-1.23-1.4-2.3-1.99-3.51-.6-1.23-.78-2.58-.66-3.93,.08-.86-1.15-1.33-1.71-.71-1.99,2.21-2.79,5.21-2.58,8.14,.21,3.01,1.46,6.34,4.84,6.77Zm-2.26-11.13c.36,1.3,.97,2.52,1.72,3.74,.86,1.4,2.39,4.18,.34,5.34-2.16-.45-2.64-3.55-2.68-5.35-.03-1.27,.16-2.55,.61-3.74Z"/><path class="h" d="M76.22,226.55s.08,.02,.12,.04c.18,.18,.41,.29,.67,.26,3.38-.43,4.63-3.76,4.84-6.77,.21-2.93-.59-5.93-2.58-8.14-.55-.62-1.78-.16-1.71,.71,.12,1.31-.05,2.62-.61,3.82-.58,1.26-1.46,2.36-2.04,3.62-1,2.18-1.09,5.14,1.3,6.46Zm1.33-7.09c.75-1.22,1.37-2.44,1.72-3.74,.45,1.18,.64,2.47,.61,3.74-.04,1.8-.51,4.9-2.68,5.35-2.04-1.16-.51-3.94,.34-5.34Z"/><path class="h" d="M64.84,222.82c.15-.05,.26-.12,.36-.2,.78-.17,1.47-.65,1.97-1.34,.79-1.09,.82-2.52,.66-3.81-.35-2.85-1.21-5.6-2.47-8.18-.31-.64-1.42-.67-1.73,0-.68,1.5-1.32,3.02-1.93,4.55-.58,1.44-1.29,2.95-1.53,4.5-.21,1.37,.04,2.8,1.14,3.74,.97,.82,2.31,1.14,3.53,.74Zm-2.36-5.42c.59-1.73,1.28-3.43,2.01-5.12,.52,1.35,.92,2.74,1.18,4.17,.18,.95,.39,2.01,.17,2.97-.14,.59-.64,1.43-1.37,1.29-.36-.07-.66,.05-.88,.25-.44-.04-.87-.22-1.17-.58-.67-.83-.25-2.09,.06-2.98Z"/></g></g></g></svg>